<svg xmlns="http://www.w3.org/2000/svg" xmlns:xlink="http://www.w3.org/1999/xlink">
<symbol id="artwork-light" viewBox="0 0 28 28">
<path opacity="0.5" d="M26 2H2V26H26V2Z" fill="white"/>
<path opacity="0.2" d="M25 3V25H3V3H25ZM26 2H2V26H26V2Z" fill="black"/>
<path d="M25 3H3V25H25V3Z" fill="white"/>
<path d="M23 5H5V23H23V5Z" fill="#C2DEFF"/>
<path d="M5 23L10.5 14L15 20L18.5 17.5L23 23H5Z" fill="#39BF68"/>
</symbol>
<symbol id="artwork-dark" viewBox="0 0 28 28">
<path opacity="0.6" d="M25 3V25H3V3H25ZM26 2H2V26H26V2Z" fill="white"/>
<path opacity="0.51" d="M5 5V23L10.5 14L15 20L18.5 17.5L23 23V5H5Z" fill="#66ADFF"/>
<path opacity="0.85" d="M5 23L10.5 14L15 20L18.5 17.5L23 23H5Z" fill="#39BF68"/>
</symbol>
<symbol id="artwork-white" viewBox="0 0 28 28">
<path opacity="0.4" d="M23 5H5V23H23V5Z" fill="white"/>
<path d="M5 23L10.5 14L15 20L18.5 17.5L23 23H5Z" fill="white"/>
<path d="M25 3V25H3V3H25ZM26 2H2V26H26V2Z" fill="white"/>
</symbol>
<use xlink:href="#artwork-light" viewBox="0 0 28 28"/>
</svg>