<svg xmlns="http://www.w3.org/2000/svg" xmlns:xlink="http://www.w3.org/1999/xlink">
	<symbol id="attachment-video-link-light" viewBox="0 0 28 28">
		<path opacity="0.5" d="M18.717 0H3V26H12V25H14.55C14.5181 24.8352 14.5014 24.6678 14.5 24.5C14.4984 23.7426 14.7841 23.0127 15.2994 22.4577C15.8148 21.9027 16.5215 21.5638 17.277 21.5093C18.0324 21.4549 18.7804 21.689 19.37 22.1644C19.9597 22.6398 20.347 23.3212 20.454 24.071L20.516 24.5H21.484L21.546 24.071C21.6497 23.3601 22.0048 22.7099 22.5467 22.2382C23.0886 21.7666 23.7816 21.5047 24.5 21.5C24.6678 21.5014 24.8352 21.5181 25 21.55V19H26V7.283L18.717 0Z" fill="white"/>
		<path d="M17.5 21.5C18.2184 21.5047 18.9114 21.7666 19.4533 22.2382C19.9952 22.7099 20.3503 23.3601 20.454 24.071L20.516 24.5H21.484L21.546 24.071C21.6497 23.3601 22.0048 22.7099 22.5467 22.2382C23.0886 21.7666 23.7816 21.5047 24.5 21.5C24.6678 21.5027 24.8351 21.5198 25 21.551V7.7L18.3 1H4V25H14.551C14.5198 24.8351 14.5027 24.6678 14.5 24.5C14.5 23.7044 14.8161 22.9413 15.3787 22.3787C15.9413 21.8161 16.7044 21.5 17.5 21.5Z" fill="white"/>
		<path opacity="0.08" d="M19 1.698V7H24.302L19 1.698Z" fill="black"/>
		<path opacity="0.2" d="M12 25H4V1H18V8H25V19H26V7.283L18.717 0H3V26H12V25ZM19 1.7L24.3 7H19V1.7Z" fill="black"/>
		<path fill-rule="evenodd" clip-rule="evenodd" d="M20.9646 24C20.722 22.3037 19.2632 21 17.5 21C15.567 21 14 22.5669 14 24.5C14 26.4331 15.567 28 17.5 28C19.2632 28 20.722 26.6963 20.9646 25H21.0354C21.278 26.6963 22.7368 28 24.5 28C26.433 28 28 26.4331 28 24.5C28 22.5669 26.433 21 24.5 21C22.7368 21 21.278 22.3037 21.0354 24H20.9646ZM19.95 24H17.5C17.2238 24 17 24.2239 17 24.5C17 24.7761 17.2238 25 17.5 25H19.95C19.7183 26.1411 18.7095 27 17.5 27C16.1193 27 15 25.8806 15 24.5C15 23.1194 16.1193 22 17.5 22C18.7095 22 19.7183 22.8589 19.95 24ZM22.05 25H24.5C24.7762 25 25 24.7761 25 24.5C25 24.2239 24.7762 24 24.5 24H22.05C22.2817 22.8589 23.2905 22 24.5 22C25.8807 22 27 23.1194 27 24.5C27 25.8806 25.8807 27 24.5 27C23.2905 27 22.2817 26.1411 22.05 25Z" fill="#888888"/>
		<path fill-rule="evenodd" clip-rule="evenodd" d="M20.3923 15L10 9V21L20.3923 15ZM18.3923 15L11 10.7321L11 19.2679L18.3923 15Z" fill="#66ADFF"/>
		<path fill-rule="evenodd" clip-rule="evenodd" d="M11 10.7319L18.3923 14.9999L11 19.2678V10.7319Z" fill="#C2DEFF"/>
	</symbol>
	<symbol id="attachment-video-link-dark" viewBox="0 0 28 28">
		<path opacity="0.24" d="M19 1.698V7H24.302L19 1.698Z" fill="white"/>
		<path opacity="0.6" d="M12 25H4V1H18V8H25V19H26V7.283L18.717 0H3V26H12V25ZM19 1.698L24.302 7H19V1.698Z" fill="white"/>
		<path opacity="0.6" d="M24.5 21C22.738 21 21.295 22.306 21.05 24H20.949C20.704 22.306 19.261 21 17.499 21C15.566 21 13.999 22.567 13.999 24.5C13.999 26.433 15.566 28 17.499 28C19.261 28 20.704 26.694 20.949 25H21.05C21.295 26.694 22.738 28 24.5 28C26.433 28 28 26.433 28 24.5C28 22.567 26.433 21 24.5 21ZM17.5 27C16.122 27 15 25.878 15 24.5C15 23.122 16.122 22 17.5 22C18.707 22 19.717 22.86 19.949 24H17.5C17.224 24 17 24.224 17 24.5C17 24.776 17.224 25 17.5 25H19.949C19.717 26.14 18.707 27 17.5 27ZM24.5 27C23.293 27 22.283 26.14 22.051 25H24.5C24.776 25 25 24.776 25 24.5C25 24.224 24.776 24 24.5 24H22.051C22.283 22.86 23.293 22 24.5 22C25.879 22 27 23.122 27 24.5C27 25.878 25.879 27 24.5 27Z" fill="white"/>
		<path opacity="0.85" fill-rule="evenodd" clip-rule="evenodd" d="M20.3923 15L10 9V21L20.3923 15ZM18.3923 15L11 10.7321L11 19.2679L18.3923 15Z" fill="#66ADFF"/>
		<path opacity="0.34" fill-rule="evenodd" clip-rule="evenodd" d="M11 10.7319L18.3923 14.9999L11 19.2678V10.7319Z" fill="#66ADFF"/>
	</symbol>
	<symbol id="attachment-video-link-white" viewBox="0 0 28 28">
		<path opacity="0.4" d="M18.5 0.48999V7.49999H25.51L18.5 0.48999Z" fill="white"/>
		<path d="M12 25H4V1H18V8H25V19H26V7.283L18.717 0H3V26H12V25ZM19 1.698L24.302 7H19V1.698ZM24.5 21C22.738 21 21.295 22.306 21.05 24H20.949C20.704 22.306 19.261 21 17.499 21C15.566 21 13.999 22.567 13.999 24.5C13.999 26.433 15.566 28 17.499 28C19.261 28 20.704 26.694 20.949 25H21.05C21.295 26.694 22.738 28 24.5 28C26.433 28 28 26.433 28 24.5C28 22.567 26.433 21 24.5 21ZM17.5 27C16.122 27 15 25.878 15 24.5C15 23.122 16.122 22 17.5 22C18.707 22 19.717 22.86 19.949 24H17.5C17.224 24 17 24.224 17 24.5C17 24.776 17.224 25 17.5 25H19.949C19.717 26.14 18.707 27 17.5 27ZM24.5 27C23.293 27 22.283 26.14 22.051 25H24.5C24.776 25 25 24.776 25 24.5C25 24.224 24.776 24 24.5 24H22.051C22.283 22.86 23.293 22 24.5 22C25.879 22 27 23.122 27 24.5C27 25.878 25.879 27 24.5 27Z" fill="white"/>
		<path fill-rule="evenodd" clip-rule="evenodd" d="M20.3923 15L10 9V21L20.3923 15ZM18.3923 15L11 10.7321L11 19.2679L18.3923 15Z" fill="white"/>
		<path opacity="0.4" fill-rule="evenodd" clip-rule="evenodd" d="M11 10.7319L18.3923 14.9999L11 19.2678V10.7319Z" fill="white"/>
	</symbol>
	<use xlink:href="#attachment-video-link-light" viewBox="0 0 28 28"/>
</svg>
