<svg xmlns="http://www.w3.org/2000/svg" xmlns:xlink="http://www.w3.org/1999/xlink">
<symbol id="attachment-pdf-light" viewBox="0 0 28 28">
<g clip-path="url(#clip0_144_2136)">
<path opacity="0.5" d="M20.717 0H5V28H28V7.283L20.717 0Z" fill="white"/>
<path d="M6 1V27H27V7.698L20.302 1H6Z" fill="white"/>
<path opacity="0.08" d="M21 1.698V7H26.302L21 1.698Z" fill="black"/>
<path opacity="0.2" d="M20.717 0H5V28H28V7.283L20.717 0ZM21 1.7L26.3 7H21V1.7ZM27 27H6V1H20V8H27V27Z" fill="black"/>
<path d="M15 6H1V11H15V6Z" fill="#F1ABB0"/>
<path d="M15 6V11H1V6H15ZM16 5H0V12H16V5Z" fill="#DB2C3A"/>
</g>
<defs>
<clipPath id="clip0_144_2136">
<rect width="28" height="28" fill="white"/>
</clipPath>
</defs>
</symbol>
<symbol id="attachment-pdf-dark" viewBox="0 0 28 28">
<g clip-path="url(#clip0_145_2884)">
<path opacity="0.24" d="M21 1.698V7H26.302L21 1.698Z" fill="white"/>
<path opacity="0.36" d="M15 6H1V11H15V6Z" fill="#DB2C3A"/>
<path opacity="0.9" d="M15 6V11H1V6H15ZM16 5H0V12H16V5Z" fill="#DB2C3A"/>
<path opacity="0.6" d="M20.717 0H5V5H6V1H20V8H27V27H6V12H5V28H28V7.283L20.717 0ZM21 7V1.698L26.302 7H21Z" fill="white"/>
</g>
<defs>
<clipPath id="clip0_145_2884">
<rect width="28" height="28" fill="white"/>
</clipPath>
</defs>
</symbol>
<symbol id="attachment-pdf-white" viewBox="0 0 28 28">
<path opacity="0.4" d="M20.5 0.48999V7.49999H27.51L20.5 0.48999Z" fill="white"/>
<path opacity="0.4" d="M15 6H1V11H15V6Z" fill="white"/>
<path d="M20.717 0H5V5H0V12H5V28H28V7.283L20.717 0ZM21 1.698L26.302 7H21V1.698ZM1 11V6H15V11H1ZM27 27H6V12H16V5H6V1H20V8H27V27Z" fill="white"/>
</symbol>
<use xlink:href="#attachment-pdf-light" viewBox="0 0 28 28"/>
</svg>