<svg xmlns="http://www.w3.org/2000/svg" xmlns:xlink="http://www.w3.org/1999/xlink">
<symbol id="bill-light" viewBox="0 0 28 28">
<path d="M22 15.75C22 12.47 18.532 11.268 15.178 10.105C12.052 9.021 9.1 8 9.1 5.505C9.1 3.468 11.069 2.105 14 2.105C16.977 2.105 18.9 3.636 18.9 6.005H20C20 3.014 17.589 1.005 14 1.005C10.411 1.005 8 2.811 8 5.505C7.98779 6.51293 8.37373 7.48496 9.074 8.21C8.19742 8.46699 7.42612 8.9978 6.87298 9.72476C6.31985 10.4517 6.01393 11.3366 6 12.25C6 15.53 9.468 16.732 12.822 17.895C15.948 18.979 18.9 20 18.9 22.494C18.9 24.563 16.977 25.9 14 25.9C11.023 25.9 9.1 24.369 9.1 22H8C8 24.991 10.411 27 14 27C17.589 27 20 25.189 20 22.494C20.0123 21.4854 19.6255 20.5128 18.924 19.788C19.8009 19.5319 20.5726 19.0017 21.1262 18.275C21.6798 17.5483 21.986 16.6634 22 15.75ZM17.938 18.95C16.4475 18.055 14.8498 17.3521 13.183 16.858C10.055 15.771 7.1 14.747 7.1 12.25C7.1 10.663 8.22 9.51501 10.053 9.05C11.5454 9.94946 13.1463 10.6551 14.817 11.15C17.945 12.234 20.9 13.258 20.9 15.755C20.9 17.338 19.772 18.479 17.938 18.947V18.95Z" fill="#CC9200"/>
</symbol>
<symbol id="bill-dark" viewBox="0 0 28 28">
<path opacity="0.85" d="M22 15.75C22 12.47 18.532 11.268 15.178 10.105C12.052 9.02099 9.1 7.99799 9.1 5.50499C9.1 3.46799 11.07 2.09899 14 2.09899C16.977 2.09899 18.9 3.62999 18.9 5.99899H20C20 3.00799 17.589 0.998993 14 0.998993C10.411 0.998993 8 2.80999 8 5.50399C8 6.62099 8.41 7.49399 9.074 8.20899C7.169 8.92399 6 10.365 6 12.249C6 15.529 9.468 16.731 12.822 17.894C15.948 18.978 18.9 20.001 18.9 22.494C18.9 24.563 16.976 25.9 14 25.9C11.024 25.9 9.1 24.369 9.1 22H8C8 24.991 10.411 27 14 27C17.589 27 20 25.189 20 22.494C20 21.376 19.59 20.504 18.924 19.788C20.83 19.074 22 17.633 22 15.75ZM17.938 18.947C16.643 18.058 14.899 17.451 13.183 16.856C10.055 15.772 7.1 14.748 7.1 12.251C7.1 10.664 8.22 9.51599 10.054 9.04699C11.35 9.93999 13.098 10.549 14.818 11.145C17.946 12.229 20.901 13.253 20.901 15.75C20.901 17.338 19.773 18.479 17.938 18.947Z" fill="#CC9200"/>
</symbol>
<symbol id="bill-white" viewBox="0 0 28 28">
<path d="M22 15.75C22 12.47 18.532 11.268 15.178 10.105C12.052 9.02099 9.1 7.99799 9.1 5.50499C9.1 3.46799 11.07 2.09899 14 2.09899C16.977 2.09899 18.9 3.62999 18.9 5.99899H20C20 3.00799 17.589 0.998993 14 0.998993C10.411 0.998993 8 2.80999 8 5.50399C8 6.62099 8.41 7.49399 9.074 8.20899C7.169 8.92399 6 10.365 6 12.249C6 15.529 9.468 16.731 12.822 17.894C15.948 18.978 18.9 20.001 18.9 22.494C18.9 24.563 16.976 25.9 14 25.9C11.024 25.9 9.1 24.369 9.1 22H8C8 24.991 10.411 27 14 27C17.589 27 20 25.189 20 22.494C20 21.376 19.59 20.504 18.924 19.788C20.83 19.074 22 17.633 22 15.75ZM17.938 18.947C16.643 18.058 14.899 17.451 13.183 16.856C10.055 15.772 7.1 14.748 7.1 12.251C7.1 10.664 8.22 9.51599 10.054 9.04699C11.35 9.93999 13.098 10.549 14.818 11.145C17.946 12.229 20.901 13.253 20.901 15.75C20.901 17.338 19.773 18.479 17.938 18.947Z" fill="white"/>
</symbol>
<use xlink:href="#bill-light" viewBox="0 0 28 28"/>
</svg>