<!-- This file is part of Zotero. It is distributed under the GNU Affero General Public License version 3. -->
<svg xmlns="http://www.w3.org/2000/svg" xmlns:xlink="http://www.w3.org/1999/xlink">
<symbol id="case-light" viewBox="0 0 28 28">
<path opacity="0.5" d="M9.50011 18H1.50011C1.42093 17.9999 1.34289 17.9811 1.27242 17.945C1.20195 17.9088 1.14107 17.8565 1.09479 17.7922C1.04851 17.728 1.01815 17.6537 1.00621 17.5754C0.994265 17.4971 1.00109 17.4171 1.02611 17.342L5.02611 5.34199C5.05945 5.24268 5.12314 5.15635 5.20819 5.09519C5.29324 5.03403 5.39535 5.00113 5.50011 5.00113C5.60487 5.00113 5.70698 5.03403 5.79203 5.09519C5.87708 5.15635 5.94077 5.24268 5.97411 5.34199L9.97411 17.342C9.99913 17.4171 10.006 17.4971 9.99401 17.5754C9.98207 17.6537 9.95171 17.728 9.90543 17.7922C9.85914 17.8565 9.79826 17.9088 9.7278 17.945C9.65733 17.9811 9.57929 17.9999 9.50011 18ZM2.19411 17H8.80611L5.50011 7.08099L2.19411 17ZM27.5001 18H19.5001C19.4209 17.9999 19.3429 17.9811 19.2724 17.945C19.202 17.9088 19.1411 17.8565 19.0948 17.7922C19.0485 17.728 19.0181 17.6537 19.0062 17.5754C18.9943 17.4971 19.0011 17.4171 19.0261 17.342L23.0261 5.34199C23.0594 5.24268 23.1231 5.15635 23.2082 5.09519C23.2932 5.03403 23.3954 5.00113 23.5001 5.00113C23.6049 5.00113 23.707 5.03403 23.792 5.09519C23.8771 5.15635 23.9408 5.24268 23.9741 5.34199L27.9741 17.342C27.9991 17.4171 28.006 17.4971 27.994 17.5754C27.9821 17.6537 27.9517 17.728 27.9054 17.7922C27.8591 17.8565 27.7983 17.9088 27.7278 17.945C27.6573 17.9811 27.5793 17.9999 27.5001 18ZM20.1941 17H26.8061L23.5001 7.08099L20.1941 17Z" fill="white"/>
<path opacity="0.2" d="M9.50011 18H1.50011C1.42093 17.9999 1.34289 17.9811 1.27242 17.945C1.20195 17.9088 1.14107 17.8565 1.09479 17.7922C1.04851 17.728 1.01815 17.6537 1.00621 17.5754C0.994265 17.4971 1.00109 17.4171 1.02611 17.342L5.02611 5.34199C5.05945 5.24268 5.12314 5.15635 5.20819 5.09519C5.29324 5.03403 5.39535 5.00113 5.50011 5.00113C5.60487 5.00113 5.70698 5.03403 5.79203 5.09519C5.87708 5.15635 5.94077 5.24268 5.97411 5.34199L9.97411 17.342C9.99913 17.4171 10.006 17.4971 9.99401 17.5754C9.98207 17.6537 9.95171 17.728 9.90543 17.7922C9.85914 17.8565 9.79826 17.9088 9.7278 17.945C9.65733 17.9811 9.57929 17.9999 9.50011 18ZM2.19411 17H8.80611L5.50011 7.08099L2.19411 17ZM27.5001 18H19.5001C19.4209 17.9999 19.3429 17.9811 19.2724 17.945C19.202 17.9088 19.1411 17.8565 19.0948 17.7922C19.0485 17.728 19.0181 17.6537 19.0062 17.5754C18.9943 17.4971 19.0011 17.4171 19.0261 17.342L23.0261 5.34199C23.0594 5.24268 23.1231 5.15635 23.2082 5.09519C23.2932 5.03403 23.3954 5.00113 23.5001 5.00113C23.6049 5.00113 23.707 5.03403 23.792 5.09519C23.8771 5.15635 23.9408 5.24268 23.9741 5.34199L27.9741 17.342C27.9991 17.4171 28.006 17.4971 27.994 17.5754C27.9821 17.6537 27.9517 17.728 27.9054 17.7922C27.8591 17.8565 27.7983 17.9088 27.7278 17.945C27.6573 17.9811 27.5793 17.9999 27.5001 18ZM20.1941 17H26.8061L23.5001 7.08099L20.1941 17Z" fill="black"/>
<path opacity="0.4" d="M5.5 21.5C8.18 21.5 9.5 20.18 9.5 17.5H1.5C1.5 20.18 2.82 21.5 5.5 21.5Z" fill="white"/>
<path opacity="0.4" d="M23.5 21.5C26.18 21.5 27.5 20.18 27.5 17.5H19.5C19.5 20.18 20.82 21.5 23.5 21.5Z" fill="white"/>
<path d="M9.5 28V27.207L11.207 25.5H17.793L19.5 27.207V28H9.5ZM9.5 17.5H1.5C1.5 20.18 2.82 21.5 5.5 21.5C8.18 21.5 9.5 20.18 9.5 17.5ZM23.5 21.5C20.82 21.5 19.5 20.18 19.5 17.5H27.5C27.5 20.18 26.18 21.5 23.5 21.5Z" fill="#EBD399"/>
<path d="M27.5 17H19.5C19.3674 17 19.2402 17.0527 19.1464 17.1464C19.0527 17.2402 19 17.3674 19 17.5C19 20.444 20.556 22 23.5 22C26.444 22 28 20.444 28 17.5C28 17.3674 27.9473 17.2402 27.8536 17.1464C27.7598 17.0527 27.6326 17 27.5 17ZM23.5 21C21.285 21 20.168 20.043 20.018 18H26.982C26.832 20.043 25.715 21 23.5 21ZM13 2.5C13 2.36739 13.0527 2.24021 13.1464 2.14645C13.2402 2.05268 13.3674 2 13.5 2H14V0.5C14 0.367392 14.0527 0.240215 14.1464 0.146447C14.2402 0.0526784 14.3674 0 14.5 0C14.6326 0 14.7598 0.0526784 14.8536 0.146447C14.9473 0.240215 15 0.367392 15 0.5V2H15.5C15.6326 2 15.7598 2.05268 15.8536 2.14645C15.9473 2.24021 16 2.36739 16 2.5C16 2.63261 15.9473 2.75979 15.8536 2.85355C15.7598 2.94732 15.6326 3 15.5 3H13.5C13.3674 3 13.2402 2.94732 13.1464 2.85355C13.0527 2.75979 13 2.63261 13 2.5ZM5 4.5C5 4.36739 5.05268 4.24021 5.14645 4.14645C5.24021 4.05268 5.36739 4 5.5 4H23.5C23.6326 4 23.7598 4.05268 23.8536 4.14645C23.9473 4.24021 24 4.36739 24 4.5C24 4.63261 23.9473 4.75979 23.8536 4.85355C23.7598 4.94732 23.6326 5 23.5 5H5.5C5.36739 5 5.24021 4.94732 5.14645 4.85355C5.05268 4.75979 5 4.63261 5 4.5ZM9.5 17H1.5C1.36739 17 1.24021 17.0527 1.14645 17.1464C1.05268 17.2402 1 17.3674 1 17.5C1 20.444 2.556 22 5.5 22C8.444 22 10 20.444 10 17.5C10 17.3674 9.94732 17.2402 9.85355 17.1464C9.75979 17.0527 9.63261 17 9.5 17ZM5.5 21C3.285 21 2.168 20.043 2.018 18H8.982C8.832 20.043 7.715 21 5.5 21ZM18 25L20 27V28H19V27.414L17.586 26H11.414L10 27.414V28H9V27L11 25H14V6H15V25H18Z" fill="#CC9200"/>
</symbol>
<symbol id="case-dark" viewBox="0 0 28 28">
<path opacity="0.34" d="M5.50007 21C3.28507 21 2.16807 20.043 2.01807 18H8.98307C8.83307 20.043 7.71407 21 5.50007 21Z" fill="#CC9200"/>
<path opacity="0.6" d="M19.5 17H20.194L23.5 7.081L26.806 17H27.5C27.74 17 27.93 17.172 27.979 17.397C27.975 17.379 27.98 17.36 27.974 17.342L23.974 5.342C23.906 5.138 23.715 5 23.5 5C23.285 5 23.094 5.138 23.026 5.342L19.026 17.342C19.02 17.359 19.026 17.377 19.022 17.394C19.072 17.17 19.261 17 19.5 17Z" fill="white"/>
<path opacity="0.6" d="M5.97397 5.342C5.90597 5.138 5.71497 5 5.49997 5C5.28497 5 5.09397 5.138 5.02597 5.342L1.02597 17.342C1.01997 17.359 1.02597 17.377 1.02197 17.394C1.07197 17.17 1.26197 17 1.50097 17H2.19497L5.50097 7.081L8.80697 17H9.50097C9.74097 17 9.93097 17.172 9.97997 17.397C9.97597 17.379 9.98097 17.36 9.97497 17.342L5.97397 5.342Z" fill="white"/>
<path opacity="0.34" d="M23.5001 21C21.2851 21 20.1681 20.043 20.0181 18H26.9831C26.8331 20.043 25.7141 21 23.5001 21Z" fill="#CC9200"/>
<path opacity="0.85" d="M13 2.5C13 2.224 13.224 2 13.5 2H14V0.5C14 0.224 14.224 0 14.5 0C14.776 0 15 0.224 15 0.5V2H15.5C15.776 2 16 2.224 16 2.5C16 2.776 15.776 3 15.5 3H13.5C13.224 3 13 2.776 13 2.5ZM5 4.5C5 4.224 5.224 4 5.5 4H23.5C23.776 4 24 4.224 24 4.5C24 4.776 23.776 5 23.5 5H5.5C5.224 5 5 4.776 5 4.5ZM9.5 17H1.5C1.224 17 1 17.224 1 17.5C1 20.444 2.556 22 5.5 22C8.444 22 10 20.444 10 17.5C10 17.224 9.776 17 9.5 17ZM5.5 21C3.285 21 2.168 20.043 2.018 18H8.983C8.833 20.043 7.714 21 5.5 21ZM18 25L20 27V28H19V27.414L17.586 26H11.414L10 27.414V28H9V27L11 25H14V6H15V25H18ZM27.5 17H19.5C19.224 17 19 17.224 19 17.5C19 20.444 20.556 22 23.5 22C26.444 22 28 20.444 28 17.5C28 17.224 27.776 17 27.5 17ZM23.5 21C21.285 21 20.168 20.043 20.018 18H26.983C26.833 20.043 25.714 21 23.5 21Z" fill="#CC9200"/>
<path opacity="0.34" d="M10 28V27.414L11.414 26H17.586L19 27.414V28H10Z" fill="#CC9200"/>
</symbol>
<symbol id="case-white" viewBox="0 0 28 28">
<path opacity="0.4" d="M1.5 17.5H9.5C9.5 20.18 8.18 21.5 5.5 21.5C2.82 21.5 1.5 20.18 1.5 17.5ZM23.5 21.5C26.18 21.5 27.5 20.18 27.5 17.5H19.5C19.5 20.18 20.82 21.5 23.5 21.5ZM19.5 28V27.207L17.793 25.5H11.207L9.5 27.207V28H19.5Z" fill="white"/>
<path d="M23.5 5H5.49998C5.22398 5 4.99998 4.776 4.99998 4.5C4.99998 4.224 5.22398 4 5.49998 4H23.5C23.776 4 24 4.224 24 4.5C24 4.776 23.776 5 23.5 5ZM13.5 3H15.5C15.776 3 16 2.776 16 2.5C16 2.224 15.776 2 15.5 2H15V0.5C15 0.224 14.776 0 14.5 0C14.224 0 14 0.224 14 0.5V2H13.5C13.224 2 13 2.224 13 2.5C13 2.776 13.224 3 13.5 3ZM28 17.5C28 20.444 26.444 22 23.5 22C20.556 22 19 20.444 19 17.5C19 17.462 19.013 17.429 19.021 17.394C19.025 17.377 19.02 17.359 19.025 17.342L23.025 5.342C23.093 5.138 23.285 5 23.5 5C23.715 5 23.905 5.138 23.973 5.342L27.973 17.342C27.979 17.36 27.973 17.379 27.978 17.397C27.985 17.431 28 17.464 28 17.5ZM20.194 17H26.807L23.501 7.081L20.194 17ZM26.983 18H20.018C20.168 20.043 21.286 21 23.5 21C25.714 21 26.833 20.043 26.983 18ZM10.001 17.5C10.001 20.444 8.44498 22 5.50098 22C2.55698 22 1.00098 20.444 1.00098 17.5C1.00098 17.462 1.01398 17.429 1.02198 17.394C1.02598 17.377 1.02098 17.359 1.02598 17.342L5.02598 5.342C5.09398 5.138 5.28498 5 5.49998 5C5.71498 5 5.90598 5.138 5.97398 5.342L9.97398 17.342C9.97998 17.36 9.97398 17.379 9.97898 17.397C9.98598 17.431 9.99998 17.464 9.99998 17.5H10.001ZM2.19498 17H8.80798L5.50198 7.081L2.19598 17H2.19498ZM8.98398 18H2.01798C2.16798 20.043 3.28598 21 5.49998 21C7.71398 21 8.83198 20.043 8.98198 18H8.98398ZM15.002 25V6H14.002V25H11.002L9.00198 27V28H10.002V27.414L11.416 26H17.588L19.002 27.414V28H20.002V27L18.002 25H15.002Z" fill="white"/>
</symbol>
<use xlink:href="#case-light" viewBox="0 0 28 28"/>
</svg>