<svg xmlns="http://www.w3.org/2000/svg" xmlns:xlink="http://www.w3.org/1999/xlink">
<symbol id="computer-program-light" viewBox="0 0 28 28">
<path d="M11.1109 23.889L1.7229 14.5L11.1109 5.11099L11.8889 5.88899L3.2769 14.5L11.8889 23.111L11.1109 23.889ZM26.2769 14.5L16.8889 5.11099L16.1109 5.88899L24.7229 14.5L16.1109 23.111L16.8889 23.889L26.2769 14.5Z" fill="#39BF68"/>
</symbol>
<symbol id="computer-program-dark" viewBox="0 0 28 28">
<path opacity="0.85" d="M11.1109 23.889L1.7229 14.5L11.1109 5.11099L11.8879 5.88799L3.2769 14.5L11.8879 23.111L11.1109 23.889ZM26.2769 14.5L16.8879 5.11099L16.1109 5.88799L24.7219 14.499L16.1109 23.11L16.8879 23.887L26.2769 14.498V14.5Z" fill="#39BF68"/>
</symbol>
<symbol id="computer-program-white" viewBox="0 0 28 28">
<path d="M11.1109 23.889L1.7229 14.5L11.1109 5.11099L11.8879 5.88799L3.2769 14.5L11.8879 23.111L11.1109 23.889ZM26.2769 14.5L16.8879 5.11099L16.1109 5.88799L24.7219 14.499L16.1109 23.11L16.8879 23.887L26.2769 14.498V14.5Z" fill="white"/>
</symbol>
<use xlink:href="#computer-program-light" viewBox="0 0 28 28"/>
</svg>