<svg xmlns="http://www.w3.org/2000/svg" xmlns:xlink="http://www.w3.org/1999/xlink">
<symbol id="conference-paper-light" viewBox="0 0 28 28">
<g clip-path="url(#clip0_144_2126)">
<path d="M1.62793 3.52399L3.43793 13.476H7.49993V7.49999H20.4999V13.476H24.5629L26.3719 3.52399H1.62793Z" fill="#EBCABA"/>
<path d="M17.4999 3.99999C17.4342 4.00011 17.3691 3.98727 17.3084 3.96222C17.2476 3.93717 17.1924 3.90039 17.1459 3.85399L14.1459 0.853991C14.0994 0.807503 14.0625 0.752314 14.0374 0.691574C14.0122 0.630835 13.9993 0.565735 13.9993 0.499991C13.9993 0.434247 14.0122 0.369147 14.0374 0.308407C14.0625 0.247668 14.0994 0.192479 14.1459 0.145991C14.1924 0.0995028 14.2476 0.0626265 14.3083 0.0374674C14.3691 0.0123083 14.4342 -0.000640869 14.4999 -0.000640869C14.5656 -0.000640869 14.6307 0.0123083 14.6915 0.0374674C14.7522 0.0626265 14.8074 0.0995028 14.8539 0.145991L17.8539 3.14599C17.924 3.21592 17.9718 3.30509 17.9911 3.4022C18.0105 3.49931 18.0006 3.59998 17.9627 3.69145C17.9248 3.78293 17.8605 3.86108 17.7782 3.91601C17.6958 3.97094 17.5989 4.00017 17.4999 3.99999Z" fill="#444444"/>
<path d="M25 14L27 3H1L3 14H7V27H3V28H25V27H21V14H25ZM3.875 12.951L2.257 4.051H25.743L24.125 12.951H21V7H7V12.951H3.875ZM20 27H8V8H20V27Z" fill="#CC7A52"/>
<path d="M20 8H8V27H20V8Z" fill="#F5E4DC"/>
</g>
<defs>
<clipPath id="clip0_144_2126">
<rect width="28" height="28" fill="white"/>
</clipPath>
</defs>
</symbol>
<symbol id="conference-paper-dark" viewBox="0 0 28 28">
<g clip-path="url(#clip0_145_2918)">
<path opacity="0.2" d="M20 8H8V27H20V8Z" fill="#CC7A52"/>
<path opacity="0.9" d="M25 14L27 3H1L3 14H7V27H3V28H25V27H21V14H25ZM20 27H8V8H20V27ZM7 7V12.951H3.875L2.256 4.049H25.743L24.124 12.951H20.999V7H7Z" fill="#CC7A52"/>
<path opacity="0.4" d="M3.87508 12.951L2.25708 4.04901H25.7431L24.1251 12.951H21.0001V7.00001H7.00008V12.951H3.87508Z" fill="#CC7A52"/>
<path opacity="0.6" d="M16.293 3.00001H17.707L14.854 0.146006C14.659 -0.0489941 14.342 -0.0489941 14.147 0.146006C13.952 0.341006 13.952 0.658006 14.147 0.853006L16.293 3.00001Z" fill="white"/>
</g>
<defs>
<clipPath id="clip0_145_2918">
<rect width="28" height="28" fill="white"/>
</clipPath>
</defs>
</symbol>
<symbol id="conference-paper-white" viewBox="0 0 28 28">
<path opacity="0.4" d="M1.62793 3.52399L3.43793 13.476H7.49993V7.49999H20.4999V13.476H24.5619L26.3719 3.52399H1.62793Z" fill="white"/>
<path d="M17.5 4.00001C17.372 4.00001 17.244 3.95101 17.146 3.85401L14.146 0.854013C13.951 0.659013 13.951 0.342013 14.146 0.147013C14.341 -0.0479871 14.658 -0.0479871 14.853 0.147013L17.853 3.14701C18.048 3.34201 18.048 3.65901 17.853 3.85401C17.755 3.95201 17.628 4.00001 17.5 4.00001Z" fill="white"/>
<path d="M25 14L27 3H1L3 14H7V27H3V28H25V27H21V14H25ZM3.875 12.951L2.256 4.049H25.743L24.124 12.951H20.999V7H7V12.951H3.875ZM20 27H8V8H20V27Z" fill="white"/>
<path opacity="0.2" d="M20 8H8V27H20V8Z" fill="white"/>
</symbol>
<use xlink:href="#conference-paper-light" viewBox="0 0 28 28"/>
</svg>