<!-- This file is part of Zotero. It is distributed under the GNU Affero General Public License version 3. -->
<svg xmlns="http://www.w3.org/2000/svg" xmlns:xlink="http://www.w3.org/1999/xlink">
<symbol id="hearing-light" viewBox="0 0 28 28">
<g clip-path="url(#clip0_144_2135)">
<path d="M1.99995 25.5C1.70318 25.5001 1.41304 25.4122 1.16624 25.2474C0.919438 25.0826 0.727075 24.8483 0.613487 24.5741C0.4999 24.3 0.470193 23.9982 0.528128 23.7072C0.586062 23.4161 0.729032 23.1488 0.938948 22.939L14.8539 9.85401L16.1459 11.146L3.04995 25.071C2.77068 25.3476 2.39299 25.5019 1.99995 25.5ZM20.8839 14.116L24.1159 10.884C24.3502 10.6494 24.4818 10.3315 24.4818 10C24.4818 9.66851 24.3502 9.35057 24.1159 9.11601L23.4999 8.50001L18.4999 13.5L19.1159 14.116C19.3505 14.3503 19.6685 14.4818 19.9999 14.4818C20.3314 14.4818 20.6494 14.3503 20.8839 14.116ZM17.4999 2.50001L16.8839 1.88401C16.6494 1.64976 16.3314 1.51819 15.9999 1.51819C15.6685 1.51819 15.3505 1.64976 15.1159 1.88401L11.8839 5.11601C11.6497 5.35057 11.5181 5.66851 11.5181 6.00001C11.5181 6.3315 11.6497 6.64945 11.8839 6.88401L12.4999 7.50001L17.4999 2.50001ZM12.4999 27.5H27.4999C27.54 27.2281 27.5159 26.9506 27.4296 26.6897C27.3432 26.4287 27.197 26.1916 27.0027 25.9973C26.8083 25.8029 26.5712 25.6567 26.3103 25.5704C26.0494 25.4841 25.7719 25.4599 25.4999 25.5H14.4999C14.228 25.4599 13.9505 25.4841 13.6896 25.5704C13.4287 25.6567 13.1916 25.8029 12.9972 25.9973C12.8029 26.1916 12.6567 26.4287 12.5703 26.6897C12.484 26.9506 12.4599 27.2281 12.4999 27.5Z" fill="#D6C4C5"/>
<path d="M14.8429 10.55L15.4499 11.157L2.70692 24.707C2.56707 24.8468 2.3889 24.942 2.19495 24.9806C2.001 25.0191 1.79996 24.9993 1.61726 24.9237C1.43456 24.848 1.2784 24.7199 1.16852 24.5554C1.05863 24.391 0.99996 24.1977 0.999918 24C0.997575 23.7448 1.09479 23.4987 1.27092 23.314L14.8429 10.55ZM14.8639 9.15698L0.585918 22.586C0.394898 22.7705 0.242533 22.9912 0.137715 23.2352C0.0328974 23.4792 -0.0222751 23.7416 -0.0245827 24.0072C-0.0268903 24.2727 0.0237131 24.5361 0.124275 24.7819C0.224837 25.0277 0.373343 25.251 0.561128 25.4388C0.748914 25.6266 0.972218 25.7751 1.21801 25.8756C1.4638 25.9762 1.72716 26.0268 1.99272 26.0245C2.25828 26.0222 2.52072 25.967 2.76473 25.8622C3.00874 25.7574 3.22942 25.605 3.41392 25.414L16.8429 11.136L14.8639 9.15698Z" fill="#996B6F"/>
<path d="M17.4992 2.50005L12.4993 7.5L18.4991 13.4998L23.499 8.49985L17.4992 2.50005Z" fill="#EBD399"/>
<path d="M23.146 8.854L17.146 2.854L17.854 2.146L23.854 8.146L23.146 8.854ZM18.854 13.146L12.854 7.146L12.146 7.854L18.146 13.854L18.854 13.146Z" fill="#CC9200"/>
<path d="M24.4701 8.76305L24.2071 8.50005L24.5611 8.14605C24.6522 8.05175 24.7026 7.92545 24.7014 7.79435C24.7003 7.66326 24.6477 7.53785 24.555 7.44514C24.4623 7.35244 24.3369 7.29986 24.2058 7.29872C24.0747 7.29758 23.9484 7.34797 23.8541 7.43905L23.5001 7.79305L17.7931 13.5001L17.4391 13.8541C17.348 13.9484 17.2976 14.0747 17.2988 14.2058C17.2999 14.3369 17.3525 14.4623 17.4452 14.555C17.5379 14.6477 17.6633 14.7003 17.7944 14.7014C17.9255 14.7025 18.0518 14.6521 18.1461 14.5611L18.5001 14.2071L18.7631 14.4701C19.0916 14.7972 19.5364 14.9809 20.0001 14.9809C20.4638 14.9809 20.9086 14.7972 21.2371 14.4701L24.4701 11.2371C24.7975 10.9086 24.9814 10.4638 24.9814 10.0001C24.9814 9.5363 24.7975 9.09146 24.4701 8.76305ZM23.7631 10.5301L20.5301 13.7631C20.4605 13.8327 20.3779 13.888 20.287 13.9257C20.196 13.9634 20.0985 13.9828 20.0001 13.9828C19.9016 13.9828 19.8042 13.9634 19.7132 13.9257C19.6223 13.888 19.5397 13.8327 19.4701 13.7631L19.2071 13.5001L23.5001 9.20705L23.7631 9.47005C23.9033 9.61081 23.982 9.80138 23.982 10.0001C23.982 10.1987 23.9033 10.3893 23.7631 10.5301ZM18.5631 2.14605C18.6109 2.09993 18.6489 2.04476 18.6751 1.98376C18.7014 1.92275 18.7151 1.85714 18.7157 1.79075C18.7163 1.72436 18.7037 1.65853 18.6785 1.59708C18.6534 1.53563 18.6162 1.4798 18.5693 1.43286C18.5223 1.38591 18.4665 1.34878 18.4051 1.32364C18.3436 1.2985 18.2778 1.28585 18.2114 1.28643C18.145 1.28701 18.0794 1.3008 18.0184 1.327C17.9574 1.35321 17.9022 1.3913 17.8561 1.43905L17.5021 1.79305L17.2391 1.53005C16.9106 1.20286 16.4658 1.01917 16.0021 1.01917C15.5384 1.01917 15.0936 1.20286 14.7651 1.53005L11.5301 4.76305C11.2027 5.09147 11.0188 5.5363 11.0188 6.00005C11.0188 6.46381 11.2027 6.90864 11.5301 7.23705L11.7931 7.50005L11.4391 7.85405C11.348 7.94836 11.2976 8.07466 11.2988 8.20575C11.2999 8.33685 11.3525 8.46226 11.4452 8.55496C11.5379 8.64767 11.6633 8.70025 11.7944 8.70139C11.9255 8.70253 12.0518 8.65213 12.1461 8.56105L12.5001 8.20705L18.2071 2.50005L18.5631 2.14605ZM12.5001 6.79305L12.2371 6.53005C12.0969 6.3893 12.0182 6.19872 12.0182 6.00005C12.0182 5.80138 12.0969 5.61081 12.2371 5.47005L15.4701 2.23705C15.6109 2.09685 15.8014 2.01813 16.0001 2.01813C16.1988 2.01813 16.3893 2.09685 16.5301 2.23705L16.7931 2.50005L12.5001 6.79305ZM27.5001 28.0001H12.5001C12.3675 28.0001 12.2403 27.9474 12.1465 27.8536C12.0528 27.7598 12.0001 27.6327 12.0001 27.5001C11.9609 27.1623 11.9986 26.82 12.1103 26.4988C12.2221 26.1777 12.4051 25.8859 12.6455 25.6455C12.886 25.405 13.1777 25.2221 13.4989 25.1103C13.82 24.9985 14.1623 24.9608 14.5001 25.0001H25.5001C25.8379 24.9608 26.1802 24.9985 26.5013 25.1103C26.8225 25.2221 27.1142 25.405 27.3547 25.6455C27.5951 25.8859 27.7781 26.1777 27.8899 26.4988C28.0016 26.82 28.0393 27.1623 28.0001 27.5001C28.0001 27.6327 27.9474 27.7598 27.8537 27.8536C27.7599 27.9474 27.6327 28.0001 27.5001 28.0001ZM13.0411 27.0001H26.9591C26.8301 26.3001 26.3801 26.0001 25.5001 26.0001H14.5001C13.6201 26.0001 13.1701 26.3001 13.0411 27.0001Z" fill="#996B6F"/>
</g>
<defs>
<clipPath id="clip0_144_2135">
<rect width="28" height="28" fill="white"/>
</clipPath>
</defs>
</symbol>
<symbol id="hearing-dark" viewBox="0 0 28 28">
<path opacity="0.85" d="M23.146 8.85397L17.146 2.85397L17.853 2.14697L23.853 8.14697L23.146 8.85397ZM18.853 13.147L12.853 7.14697L12.146 7.85397L18.146 13.854L18.853 13.147Z" fill="#CC9200"/>
<path opacity="0.2" d="M11.884 6.88394C11.396 6.39594 11.396 5.60394 11.884 5.11594L15.116 1.88394C15.604 1.39594 16.396 1.39594 16.884 1.88394L17.5 2.49994L12.5 7.49994L11.884 6.88394ZM23.147 8.85394L18.854 13.1469L18.501 13.4999L19.117 14.1159C19.605 14.6039 20.397 14.6039 20.885 14.1159L24.117 10.8839C24.605 10.3959 24.605 9.60394 24.117 9.11594L23.501 8.49994L23.147 8.85394ZM25.501 25.4999H14.501C13.161 25.4999 12.501 26.1599 12.501 27.4999H27.501C27.501 26.1599 26.841 25.4999 25.501 25.4999ZM14.49 10.1959L0.938994 22.9389C0.353994 23.5239 0.353994 24.4749 0.938994 25.0599C1.22199 25.3429 1.59899 25.4989 1.99999 25.4989C2.40099 25.4989 2.77699 25.3429 3.04999 25.0699L15.804 11.5099L14.489 10.1949L14.49 10.1959Z" fill="#996B6F"/>
<path d="M14.136 9.84304L0.585994 22.586C-0.195006 23.367 -0.195006 24.633 0.585994 25.414C0.976994 25.805 1.48799 26 1.99999 26C2.51199 26 3.02399 25.805 3.41399 25.414L16.157 11.864L14.135 9.84204L14.136 9.84304ZM2.70699 24.707C2.51799 24.896 2.26699 25 1.99999 25C1.73299 25 1.48199 24.896 1.29299 24.707C1.10399 24.518 0.999994 24.267 0.999994 24C0.999994 23.733 1.10399 23.482 1.27099 23.314L14.843 10.55L15.45 11.157L2.70699 24.707Z" fill="#996B6F"/>
<path d="M24.4701 8.76303L24.2071 8.50003L24.5611 8.14603C24.7561 7.95103 24.7561 7.63403 24.5611 7.43903C24.3661 7.24403 24.0491 7.24403 23.8541 7.43903L23.5001 7.79303L17.7931 13.5L17.4391 13.854C17.2441 14.049 17.2441 14.366 17.4391 14.561C17.5371 14.659 17.6651 14.707 17.7931 14.707C17.9211 14.707 18.0491 14.658 18.1471 14.561L18.5011 14.207L18.7641 14.47C19.1051 14.811 19.5531 14.982 20.0011 14.982C20.4491 14.982 20.8971 14.811 21.2381 14.47L24.4701 11.238C25.1531 10.555 25.1531 9.44603 24.4701 8.76303ZM23.7631 10.531L20.5311 13.763C20.2381 14.056 19.7631 14.056 19.4701 13.763L19.2071 13.5L23.5001 9.20703L23.7631 9.47003C24.0551 9.76203 24.0551 10.239 23.7631 10.531ZM18.5611 2.14703C18.7561 1.95203 18.7561 1.63503 18.5611 1.44003C18.3661 1.24503 18.0491 1.24503 17.8541 1.44003L17.5001 1.79403L17.2371 1.53103C16.5551 0.849031 15.4441 0.849031 14.7621 1.53103L11.5301 4.76303C10.8471 5.44603 10.8471 6.55503 11.5301 7.23803L11.7931 7.50103L11.4391 7.85503C11.2441 8.05003 11.2441 8.36703 11.4391 8.56203C11.5371 8.66003 11.6651 8.70803 11.7931 8.70803C11.9211 8.70803 12.0491 8.65903 12.1471 8.56203L12.5011 8.20803L18.2081 2.50103L18.5611 2.14703ZM12.5001 6.79303L12.2371 6.53003C11.9451 6.23803 11.9451 5.76103 12.2371 5.46903L15.4691 2.23703C15.6151 2.09103 15.8071 2.01703 15.9991 2.01703C16.1911 2.01703 16.3831 2.09003 16.5291 2.23703L16.7921 2.50003L12.4991 6.79303H12.5001ZM27.5001 28H12.5001C12.2241 28 12.0001 27.776 12.0001 27.5C12.0001 25.888 12.8881 25 14.5001 25H25.5001C27.1121 25 28.0001 25.888 28.0001 27.5C28.0001 27.776 27.7761 28 27.5001 28ZM13.0411 27H26.9591C26.8301 26.297 26.3801 26 25.5001 26H14.5001C13.6201 26 13.1701 26.297 13.0411 27Z" fill="#996B6F"/>
<path opacity="0.34" d="M17.4989 3.20715L13.2061 7.5L18.4987 12.7927L22.7916 8.49985L17.4989 3.20715Z" fill="#CC9200"/>
</symbol>
<symbol id="hearing-white" viewBox="0 0 28 28">
<path opacity="0.4" d="M25.5 25.4999H14.5C13.16 25.4999 12.5 26.1599 12.5 27.4999H27.5C27.5 26.1599 26.84 25.4999 25.5 25.4999ZM19.116 14.1159C19.604 14.6039 20.396 14.6039 20.884 14.1159L24.116 10.8839C24.604 10.3959 24.604 9.60394 24.116 9.11594L16.884 1.88394C16.396 1.39594 15.604 1.39594 15.116 1.88394L11.884 5.11594C11.396 5.60394 11.396 6.39594 11.884 6.88394L14.854 9.85394L0.938994 22.9389C0.353994 23.5239 0.353994 24.4749 0.938994 25.0599C1.22199 25.3429 1.59899 25.4989 1.99999 25.4989C2.40099 25.4989 2.77699 25.3429 3.04999 25.0699L16.147 11.1449L19.117 14.1149L19.116 14.1159Z" fill="white"/>
<path d="M25.5 25.0001H14.5C12.888 25.0001 12 25.8881 12 27.5001C12 27.7761 12.224 28.0001 12.5 28.0001H27.5C27.776 28.0001 28 27.7761 28 27.5001C28 25.8881 27.112 25.0001 25.5 25.0001ZM13.041 27.0001C13.17 26.2971 13.62 26.0001 14.5 26.0001H25.5C26.38 26.0001 26.83 26.2971 26.959 27.0001H13.041ZM17.793 13.5001L17.439 13.8541C17.244 14.0491 17.244 14.3661 17.439 14.5611C17.537 14.6591 17.665 14.7071 17.793 14.7071C17.921 14.7071 18.049 14.6581 18.147 14.5611L18.501 14.2071L18.764 14.4701C19.105 14.8111 19.553 14.9821 20.001 14.9821C20.449 14.9821 20.897 14.8111 21.238 14.4701L24.47 11.2381C25.153 10.5551 25.153 9.44605 24.47 8.76305L24.207 8.50005L24.561 8.14605C24.756 7.95105 24.756 7.63406 24.561 7.43905C24.366 7.24405 24.049 7.24405 23.854 7.43905L23.5 7.79306L18.207 2.50005L18.561 2.14605C18.756 1.95105 18.756 1.63405 18.561 1.43905C18.366 1.24405 18.049 1.24405 17.854 1.43905L17.5 1.79305L17.237 1.53005C16.555 0.848055 15.444 0.848055 14.762 1.53005L11.53 4.76205C10.847 5.44505 10.847 6.55405 11.53 7.23705L11.793 7.50005L11.439 7.85405C11.244 8.04906 11.244 8.36605 11.439 8.56105C11.537 8.65905 11.665 8.70705 11.793 8.70705C11.921 8.70705 12.049 8.65805 12.147 8.56105L12.501 8.20705L14.137 9.84305L0.585994 22.5861C-0.195006 23.3671 -0.195006 24.6331 0.585994 25.4141C0.976994 25.8051 1.48799 26.0001 1.99999 26.0001C2.51199 26.0001 3.02399 25.8051 3.41399 25.4141L16.157 11.8641L17.793 13.5001ZM2.70699 24.7071C2.51799 24.8961 2.26699 25.0001 1.99999 25.0001C1.73299 25.0001 1.48199 24.8961 1.29299 24.7071C1.10399 24.5181 0.999994 24.2671 0.999994 24.0001C0.999994 23.7331 1.10399 23.4821 1.27099 23.3141L14.843 10.5501L15.45 11.1571L2.70699 24.7071ZM23.763 9.47005C24.055 9.76205 24.055 10.2391 23.763 10.5311L20.531 13.7631C20.238 14.0561 19.763 14.0561 19.47 13.7631L19.207 13.5001L23.5 9.20705L23.763 9.47005ZM12.238 6.53105C11.946 6.23906 11.946 5.76205 12.238 5.47005L15.47 2.23805C15.616 2.09205 15.808 2.01805 16 2.01805C16.192 2.01805 16.384 2.09105 16.53 2.23805L16.793 2.50105L12.5 6.79405L12.238 6.53105ZM13.208 7.50105L17.501 3.20805L22.794 8.50106L18.501 12.7941L13.208 7.50105Z" fill="white"/>
</symbol>
<use xlink:href="#hearing-light" viewBox="0 0 28 28"/>
</svg>