<!-- This file is part of Zotero. It is distributed under the GNU Affero General Public License version 3. -->
<svg xmlns="http://www.w3.org/2000/svg" xmlns:xlink="http://www.w3.org/1999/xlink">
<symbol id="interview-light" viewBox="0 0 28 28">
<path d="M20.8539 20.268C20.5238 20.2709 20.2039 20.1536 19.9539 19.938L10.5539 11.646C10.4345 11.5442 10.3376 11.4185 10.2695 11.2771C10.2015 11.1357 10.1638 10.9816 10.1588 10.8247C10.1538 10.6678 10.1816 10.5116 10.2406 10.3662C10.2995 10.2207 10.3882 10.0891 10.5009 9.97996L12.9799 7.50496C13.089 7.39206 13.2206 7.30325 13.366 7.24424C13.5115 7.18523 13.6678 7.15732 13.8247 7.16231C13.9816 7.1673 14.1357 7.20509 14.2772 7.27323C14.4186 7.34137 14.5442 7.43836 14.6459 7.55796L22.9379 16.958C23.1592 17.2216 23.2756 17.5575 23.2649 17.9015C23.2542 18.2456 23.1172 18.5736 22.8799 18.823L21.8189 19.88C21.5607 20.1309 21.2141 20.2703 20.8539 20.268Z" fill="#B4B4B4"/>
<path d="M9.5 11.5C12.2614 11.5 14.5 9.26142 14.5 6.5C14.5 3.73858 12.2614 1.5 9.5 1.5C6.73858 1.5 4.5 3.73858 4.5 6.5C4.5 9.26142 6.73858 11.5 9.5 11.5Z" fill="#DADADA"/>
<path d="M23.11 19.3L23.233 19.176C23.562 18.8377 23.7526 18.3886 23.7674 17.917C23.7822 17.4454 23.6201 16.9853 23.313 16.627L15.022 7.227C15.001 7.204 14.977 7.189 14.956 7.167C14.9839 6.94574 14.9986 6.72301 15 6.5C15 5.41221 14.6774 4.34884 14.0731 3.44437C13.4687 2.5399 12.6098 1.83495 11.6048 1.41867C10.5998 1.00238 9.4939 0.893465 8.42701 1.10568C7.36011 1.3179 6.3801 1.84173 5.61092 2.61092C4.84173 3.3801 4.3179 4.36011 4.10568 5.42701C3.89346 6.4939 4.00238 7.59977 4.41867 8.60476C4.83495 9.60976 5.5399 10.4687 6.44437 11.0731C7.34884 11.6774 8.41221 12 9.5 12C9.72268 11.9985 9.94507 11.9838 10.166 11.956C10.187 11.977 10.203 12.001 10.226 12.022L19.626 20.313C19.9844 20.6199 20.4444 20.7818 20.916 20.767C21.3876 20.7522 21.8366 20.5618 22.175 20.233L22.333 20.076C22.7818 20.4329 23.1557 20.8749 23.4332 21.3767C23.7107 21.8785 23.8863 22.4301 23.95 23C23.9492 23.5169 23.7435 24.0125 23.378 24.378C23.0125 24.7435 22.5169 24.9492 22 24.95C20.463 24.95 19.2 23.805 17.87 22.593C16.44 21.293 14.963 19.95 13 19.95C12.1913 19.9508 11.416 20.2724 10.8442 20.8442C10.2724 21.416 9.9508 22.1913 9.95 23C9.95 25.844 14.036 27.86 14.21 27.945C14.2849 27.9811 14.3669 27.9999 14.45 28C14.5745 28.0001 14.6954 27.9579 14.7928 27.8803C14.8902 27.8028 14.9584 27.6945 14.9863 27.5731C15.0142 27.4518 15 27.3245 14.9462 27.2123C14.8924 27.1 14.8021 27.0093 14.69 26.955C13.678 26.464 11.05 24.795 11.05 23C11.0508 22.4831 11.2565 21.9875 11.622 21.622C11.9875 21.2565 12.4831 21.0508 13 21.05C14.537 21.05 15.8 22.195 17.13 23.407C18.56 24.707 20.037 26.05 22 26.05C22.8087 26.0492 23.584 25.7276 24.1558 25.1558C24.7276 24.584 25.0492 23.8087 25.05 23C24.992 22.2845 24.7903 21.5881 24.4569 20.9524C24.1236 20.3166 23.6655 19.7546 23.11 19.3ZM5 6.5C5 5.60999 5.26392 4.73996 5.75839 3.99994C6.25286 3.25992 6.95566 2.68314 7.77793 2.34254C8.60019 2.00195 9.50499 1.91284 10.3779 2.08647C11.2508 2.2601 12.0526 2.68869 12.682 3.31802C13.3113 3.94736 13.7399 4.74918 13.9135 5.6221C14.0872 6.49501 13.9981 7.39981 13.6575 8.22208C13.3169 9.04434 12.7401 9.74715 12.0001 10.2416C11.26 10.7361 10.39 11 9.5 11C8.30693 10.9987 7.16311 10.5241 6.31948 9.68052C5.47586 8.83689 5.00133 7.69307 5 6.5ZM22.526 18.465L21.465 19.526C21.3005 19.6843 21.0802 19.7713 20.852 19.768C20.6441 19.7709 20.4421 19.6981 20.284 19.563L11.346 11.676C12.1127 11.4017 12.8091 10.9607 13.3849 10.3849C13.9607 9.80909 14.4017 9.11274 14.676 8.346L22.563 17.284C22.7003 17.4522 22.7722 17.6644 22.7654 17.8814C22.7586 18.0985 22.6736 18.3057 22.526 18.465Z" fill="#444444"/>
</symbol>
<symbol id="interview-dark" viewBox="0 0 28 28">
<path opacity="0.6" d="M23.11 19.296L23.234 19.172C23.915 18.491 23.95 17.344 23.314 16.622L15.022 7.22602C15.002 7.20302 14.977 7.18702 14.956 7.16502C14.982 6.94602 15 6.72502 15 6.49902C15 3.46102 12.538 0.999023 9.5 0.999023C6.462 0.999023 4 3.46102 4 6.49902C4 9.53702 6.462 11.999 9.5 11.999C9.726 11.999 9.947 11.981 10.166 11.955C10.188 11.976 10.204 12.001 10.227 12.021L19.623 20.312C19.968 20.616 20.41 20.767 20.853 20.767C21.336 20.767 21.818 20.587 22.173 20.232L22.33 20.075C22.759 20.448 23.95 21.606 23.95 22.999C23.95 24.074 23.075 24.949 22 24.949C20.463 24.949 19.203 23.803 17.87 22.592C16.44 21.293 14.963 19.949 13 19.949C11.318 19.949 9.95 21.317 9.95 22.999C9.95 25.843 14.036 27.859 14.21 27.944C14.287 27.981 14.369 27.999 14.45 27.999C14.654 27.999 14.849 27.886 14.945 27.689C15.077 27.416 14.964 27.086 14.69 26.954C13.677 26.463 11.049 24.794 11.049 22.999C11.049 21.924 11.924 21.049 12.999 21.049C14.536 21.049 15.796 22.195 17.129 23.406C18.559 24.705 20.036 26.049 21.999 26.049C23.681 26.049 25.049 24.681 25.049 22.999C25.049 21.206 23.699 19.819 23.109 19.295L23.11 19.296ZM9.5 11C7.019 11 5 8.98102 5 6.50002C5 4.01902 7.019 2.00002 9.5 2.00002C11.981 2.00002 14 4.01902 14 6.50002C14 8.98102 11.981 11 9.5 11ZM22.526 18.465L21.465 19.526C21.311 19.68 21.088 19.768 20.852 19.768C20.636 19.768 20.434 19.695 20.284 19.563L11.345 11.676C12.896 11.123 14.122 9.89602 14.675 8.34602L22.562 17.285C22.848 17.609 22.83 18.161 22.525 18.466L22.526 18.465Z" fill="white"/>
<path opacity="0.12" d="M9.5 11C11.9853 11 14 8.98528 14 6.5C14 4.01472 11.9853 2 9.5 2C7.01472 2 5 4.01472 5 6.5C5 8.98528 7.01472 11 9.5 11Z" fill="white"/>
<path opacity="0.24" d="M22.526 18.4649L21.465 19.5259C21.311 19.6799 21.088 19.7679 20.852 19.7679C20.636 19.7679 20.434 19.6949 20.284 19.5629L11.345 11.6759C12.896 11.1229 14.122 9.89595 14.675 8.34595L22.562 17.2849C22.848 17.6089 22.83 18.1609 22.525 18.4659L22.526 18.4649Z" fill="white"/>
</symbol>
<symbol id="interview-white" viewBox="0 0 28 28">
<path opacity="0.2" d="M9.5 11.5C12.2614 11.5 14.5 9.26142 14.5 6.5C14.5 3.73858 12.2614 1.5 9.5 1.5C6.73858 1.5 4.5 3.73858 4.5 6.5C4.5 9.26142 6.73858 11.5 9.5 11.5Z" fill="white"/>
<path opacity="0.4" d="M22.9379 16.954L14.6459 7.55798C14.5779 7.48098 14.4909 7.43598 14.4109 7.38098C14.0439 9.43198 12.4289 11.045 10.3779 11.412C10.4329 11.493 10.4799 11.579 10.5579 11.647L19.9539 19.938C20.1949 20.151 20.5149 20.268 20.8529 20.268C21.2199 20.268 21.5719 20.126 21.8189 19.88L22.8799 18.819C23.3699 18.329 23.3969 17.474 22.9379 16.954Z" fill="white"/>
<path d="M23.11 19.296L23.234 19.172C23.915 18.491 23.95 17.344 23.314 16.622L15.022 7.22602C15.002 7.20302 14.977 7.18702 14.956 7.16502C14.982 6.94602 15 6.72502 15 6.49902C15 3.46102 12.538 0.999023 9.5 0.999023C6.462 0.999023 4 3.46102 4 6.49902C4 9.53702 6.462 11.999 9.5 11.999C9.726 11.999 9.947 11.981 10.166 11.955C10.188 11.976 10.204 12.001 10.227 12.021L19.623 20.312C19.968 20.616 20.41 20.767 20.853 20.767C21.336 20.767 21.818 20.587 22.173 20.232L22.33 20.075C22.759 20.448 23.95 21.606 23.95 22.999C23.95 24.074 23.075 24.949 22 24.949C20.463 24.949 19.203 23.803 17.87 22.592C16.44 21.293 14.963 19.949 13 19.949C11.318 19.949 9.95 21.317 9.95 22.999C9.95 25.843 14.036 27.859 14.21 27.944C14.287 27.981 14.369 27.999 14.45 27.999C14.654 27.999 14.849 27.886 14.945 27.689C15.077 27.416 14.964 27.086 14.69 26.954C13.677 26.463 11.049 24.794 11.049 22.999C11.049 21.924 11.924 21.049 12.999 21.049C14.536 21.049 15.796 22.195 17.129 23.406C18.559 24.705 20.036 26.049 21.999 26.049C23.681 26.049 25.049 24.681 25.049 22.999C25.049 21.206 23.699 19.819 23.109 19.295L23.11 19.296ZM5 6.50002C5 4.01902 7.019 2.00002 9.5 2.00002C11.981 2.00002 14 4.01902 14 6.50002C14 8.98102 11.981 11 9.5 11C7.019 11 5 8.98102 5 6.50002ZM22.526 18.465L21.465 19.526C21.311 19.68 21.088 19.768 20.852 19.768C20.636 19.768 20.434 19.695 20.284 19.563L11.345 11.676C12.896 11.123 14.122 9.89602 14.675 8.34602L22.562 17.285C22.848 17.609 22.83 18.161 22.525 18.466L22.526 18.465Z" fill="white"/>
</symbol>
<use xlink:href="#interview-light" viewBox="0 0 28 28"/>
</svg>