<!-- This file is part of Zotero. It is distributed under the GNU Affero General Public License version 3. -->
<svg xmlns="http://www.w3.org/2000/svg" xmlns:xlink="http://www.w3.org/1999/xlink">
<symbol id="magazine-article-light" viewBox="0 0 28 28">
<g clip-path="url(#clip0_144_2110)">
<path d="M24 5H4V27H24V5Z" fill="white"/>
<path d="M6 24V5H4V27H14V24H6Z" fill="#D9E3FA"/>
<path d="M6.5 23.4999V0.499949H12.5C13.0169 0.487583 13.5177 0.68061 13.8925 1.03674C14.2674 1.39287 14.4859 1.88307 14.5 2.39995V23.4999H6.5Z" fill="#B3C7F5"/>
<path d="M16 7V8H21V15H16V16H22V7H16Z" fill="#39BF68"/>
<path d="M15 4.00001V2.40001C14.9866 1.75027 14.7157 1.13245 14.2469 0.682392C13.7781 0.232332 13.1497 -0.0131175 12.5 1.26482e-05H6V4.00001H3V28H25V4.00001H15ZM7 1.00001H12.5C12.8843 0.987589 13.2579 1.12792 13.5391 1.3903C13.8202 1.65268 13.9859 2.01573 14 2.40001V23.511C13.5693 23.1814 13.0424 23.0019 12.5 23H7V1.00001ZM4 27V5.00001H6V24H12.5C12.8978 24 13.2794 24.158 13.5607 24.4394C13.842 24.7207 14 25.1022 14 25.5C14 25.8978 13.842 26.2794 13.5607 26.5607C13.2794 26.842 12.8978 27 12.5 27H4ZM24 27H14.489C14.8187 26.5693 14.9981 26.0424 15 25.5V5.00001H24V27Z" fill="#4072E5"/>
<path d="M16 18H22V19H16V18ZM16 22H22V21H16V22Z" fill="#444444"/>
<path d="M21 8H16V15H21V8Z" fill="#B0E5C3"/>
</g>
<defs>
<clipPath id="clip0_144_2110">
<rect width="28" height="28" fill="white"/>
</clipPath>
</defs>
</symbol>
<symbol id="magazine-article-dark" viewBox="0 0 28 28">
<path opacity="0.2" d="M6 24V5H4V27H14V24H6Z" fill="#4072E5"/>
<path opacity="0.4" d="M6.5 23.5V0.5H12.5C13.603 0.5 14.5 1.352 14.5 2.4V23.5H6.5Z" fill="#4072E5"/>
<path opacity="0.85" d="M16 7V8H21V15H16V16H22V7H16Z" fill="#39BF68"/>
<path d="M15 4V2.4C15 1.074 13.881 0 12.5 0H6V4H3V28H25V4H15ZM7 1H12.5C13.327 1 14 1.628 14 2.4V23.511C13.581 23.194 13.065 23 12.5 23H7V1ZM4 27V5H6V24H12.5C13.327 24 14 24.673 14 25.5C14 26.327 13.327 27 12.5 27H4ZM24 27H14.489C14.806 26.581 15 26.065 15 25.5V5H24V27Z" fill="#4072E5"/>
<path opacity="0.6" d="M16 18H22V19H16V18ZM16 22H22V21H16V22Z" fill="white"/>
<path opacity="0.34" d="M21 8H16V15H21V8Z" fill="#39BF68"/>
</symbol>
<symbol id="magazine-article-white" viewBox="0 0 28 28">
<path opacity="0.2" d="M6 24V5H4V27H14V24H6Z" fill="white"/>
<path opacity="0.4" d="M6.5 23.5V0.5H12.5C13.603 0.5 14.5 1.352 14.5 2.4V23.5H6.5Z" fill="white"/>
<path d="M22 7V16H16V15H21V8H16V7H22ZM25 4V28H3V4H6V0H12.5C13.881 0 15 1.074 15 2.4V4H25ZM7 23H12.5C13.065 23 13.581 23.195 14 23.511V2.4C14 1.628 13.327 1 12.5 1H7V23ZM12.5 27C13.327 27 14 26.327 14 25.5C14 24.673 13.327 24 12.5 24H6V5H4V27H12.5ZM24 5H15V25.5C15 26.065 14.805 26.581 14.489 27H24V5ZM16 19H22V18H16V19ZM16 21H22V22H16V21Z" fill="white"/>
<path opacity="0.4" d="M21 8H16V15H21V8Z" fill="white"/>
</symbol>
<use xlink:href="#magazine-article-light" viewBox="0 0 28 28"/>
</svg>