<!-- This file is part of Zotero. It is distributed under the GNU Affero General Public License version 3. -->
<svg xmlns="http://www.w3.org/2000/svg" xmlns:xlink="http://www.w3.org/1999/xlink">
<symbol id="map-light" viewBox="0 0 28 28">
<path d="M26 3H3V26H26V3Z" fill="#E0EFFF"/>
<path d="M2 2V27H27V2H2ZM18 3V10H11V3H18ZM11 11H18V18H11V11ZM3 3H10V10H3V3ZM3 11H10V18H3V11ZM3 26V19H10V26H3ZM11 26V19H18V26H11ZM26 26H19V19H26V26ZM26 18H19V11H26V18ZM26 10H19V3H26V10Z" fill="#66ADFF"/>
</symbol>
<symbol id="map-dark" viewBox="0 0 28 28">
<path opacity="0.17" d="M26 3H3V26H26V3Z" fill="#66ADFF"/>
<path opacity="0.85" d="M2 2V27H27V2H2ZM18 3V10H11V3H18ZM11 11H18V18H11V11ZM3 3H10V10H3V3ZM3 11H10V18H3V11ZM3 26V19H10V26H3ZM11 26V19H18V26H11ZM26 26H19V19H26V26ZM26 18H19V11H26V18ZM26 10H19V3H26V10Z" fill="#66ADFF"/>
</symbol>
<symbol id="map-white" viewBox="0 0 28 28">
<path opacity="0.2" d="M26 2H3V25H26V2Z" fill="white"/>
<path d="M2 1V26H27V1H2ZM18 2V9H11V2H18ZM11 10H18V17H11V10ZM3 2H10V9H3V2ZM3 10H10V17H3V10ZM3 25V18H10V25H3ZM11 25V18H18V25H11ZM26 25H19V18H26V25ZM26 17H19V10H26V17ZM26 9H19V2H26V9Z" fill="white"/>
</symbol>
<use xlink:href="#map-light" viewBox="0 0 28 28"/>
</svg>