<svg xmlns="http://www.w3.org/2000/svg" xmlns:xlink="http://www.w3.org/1999/xlink">
<symbol id="newspaper-article-light" viewBox="0 0 28 28">
<path d="M3.5 25.5V1.5H27.5V24C27.5 24.3978 27.342 24.7794 27.0607 25.0607C26.7794 25.342 26.3978 25.5 26 25.5H3.5Z" fill="#F3F3F3"/>
<path d="M24.5 5.5H6.5V10.5H24.5V5.5Z" fill="#C6D5F7"/>
<path d="M24 6V10H7V6H24ZM25 5H6V11H25V5Z" fill="#4072E5"/>
<path d="M2 25.5C1.60218 25.5 1.22064 25.342 0.93934 25.0607C0.658035 24.7794 0.5 24.3978 0.5 24V5.5H3.5V24C3.5 24.3978 3.34196 24.7794 3.06066 25.0607C2.77936 25.342 2.39782 25.5 2 25.5Z" fill="#DBDBDB"/>
<path d="M17 14H25V13H17V14ZM17 17H25V16H17V17ZM17 20H25V19H17V20ZM6 23H25V22H6V23ZM3 1V5H0V24C0 24.5304 0.210714 25.0391 0.585786 25.4142C0.960859 25.7893 1.46957 26 2 26H26C26.5304 26 27.0391 25.7893 27.4142 25.4142C27.7893 25.0391 28 24.5304 28 24V1H3ZM1 24V6H3V24C3 24.2652 2.89464 24.5196 2.70711 24.7071C2.51957 24.8946 2.26522 25 2 25C1.73478 25 1.48043 24.8946 1.29289 24.7071C1.10536 24.5196 1 24.2652 1 24ZM27 24C27 24.2652 26.8946 24.5196 26.7071 24.7071C26.5196 24.8946 26.2652 25 26 25H3.723C3.90228 24.6971 3.99787 24.352 4 24V2H27V24Z" fill="#888888"/>
<path d="M14.5 13.5H6.5V19.5H14.5V13.5Z" fill="#D1E7FF"/>
<path d="M14 14V19H7V14H14ZM15 13H6V20H15V13Z" fill="#66ADFF"/>
</symbol>
<symbol id="newspaper-article-dark" viewBox="0 0 28 28">
<path opacity="0.12" d="M3.9999 2V24C3.9999 24.366 3.8939 24.705 3.7229 25H25.9999C26.5509 25 26.9999 24.551 26.9999 24V2H3.9999ZM5.9999 13H14.9999V20H5.9999V13ZM24.9999 23H5.9999V22H24.9999V23ZM24.9999 20H16.9999V19H24.9999V20ZM24.9999 17H16.9999V16H24.9999V17ZM24.9999 14H16.9999V13H24.9999V14ZM24.9999 11H5.9999V5H24.9999V11Z" fill="white"/>
<path opacity="0.24" d="M1 24V6H3V24C3 24.551 2.551 25 2 25C1.449 25 1 24.551 1 24Z" fill="white"/>
<path opacity="0.3" d="M24.5 5.5H6.5V10.5H24.5V5.5Z" fill="#4072E5"/>
<path d="M24 6V10H7V6H24ZM25 5H6V11H25V5Z" fill="#4072E5"/>
<path opacity="0.6" d="M3 1V5H0V24C0 25.105 0.895 26 2 26H26C27.105 26 28 25.105 28 24V1H3ZM3 24C3 24.551 2.551 25 2 25C1.449 25 1 24.551 1 24V6H3V24ZM27 24C27 24.551 26.551 25 26 25H3.723C3.895 24.705 4 24.366 4 24V2H27V24ZM17 14H25V13H17V14ZM17 17H25V16H17V17ZM17 20H25V19H17V20ZM6 23H25V22H6V23Z" fill="white"/>
<path opacity="0.85" d="M6 13V20H15V13H6ZM14 19H7V14H14V19Z" fill="#66ADFF"/>
<path opacity="0.26" d="M14 14V19H7V14H14Z" fill="#66ADFF"/>
</symbol>
<symbol id="newspaper-article-white" viewBox="0 0 28 28">
<path opacity="0.3" d="M2 25.5C1.173 25.5 0.5 24.827 0.5 24V5.5H3.5V24C3.5 24.827 2.827 25.5 2 25.5ZM6.5 5.5V10.5H24.5V5.5H6.5ZM6.5 13.5H14.5V19.5H6.5V13.5Z" fill="white"/>
<path opacity="0.1" d="M3.5 1.5V25.5H26C26.827 25.5 27.5 24.827 27.5 24V1.5H3.5ZM14.5 19.5H6.5V13.5H14.5V19.5ZM24.5 10.5H6.5V5.5H24.5V10.5Z" fill="white"/>
<path d="M24 6V10H7V6H24ZM25 5H6V11H25V5ZM17 14H25V13H17V14ZM17 17H25V16H17V17ZM17 20H25V19H17V20ZM6 23H25V22H6V23ZM3 1V5H0V24C0 25.105 0.895 26 2 26H26C27.105 26 28 25.105 28 24V1H3ZM1 24V6H3V24C3 24.551 2.551 25 2 25C1.449 25 1 24.551 1 24ZM27 24C27 24.551 26.551 25 26 25H3.723C3.895 24.705 4 24.366 4 24V2H27V24ZM14 14V19H7V14H14ZM15 13H6V20H15V13Z" fill="white"/>
</symbol>
<use xlink:href="#newspaper-article-light" viewBox="0 0 28 28"/>
</svg>