<svg xmlns="http://www.w3.org/2000/svg" xmlns:xlink="http://www.w3.org/1999/xlink">
<symbol id="note-light" viewBox="0 0 28 28">
<path opacity="0.5" d="M18.717 28L26 20.717V0H3V28H18.717Z" fill="white"/>
<path d="M4 27V1H25V20.302L18.302 27H4Z" fill="white"/>
<path opacity="0.08" d="M19 26.302V21H24.302L19 26.302Z" fill="black"/>
<path opacity="0.2" d="M26 20.717V0H3V28H18.717L26 20.717ZM19 21H24.3L19 26.3V21ZM25 20H18V27H4V1H25V20Z" fill="black"/>
<path d="M25 1V4H4V1H25ZM26 0H3V5H26V0Z" fill="#FAA700"/>
<path opacity="0.4" d="M25 1H4V4H25V1Z" fill="#FAA700"/>
</symbol>
<symbol id="note-dark" viewBox="0 0 28 28">
<path opacity="0.24" d="M19 26.302V21H24.302L19 26.302Z" fill="white"/>
<path opacity="0.8" d="M25 1V4H4V1H25ZM26 0H3V5H26V0Z" fill="#FAA700"/>
<path opacity="0.32" d="M25 1H4V4H25V1Z" fill="#FAA700"/>
<path opacity="0.6" d="M25 5V20H18V27H4V5H3V28H18.717L26 20.717V5H25ZM19 26.302V21H24.302L19 26.302Z" fill="white"/>
</symbol>
<symbol id="note-white" viewBox="0 0 28 28">
<path opacity="0.4" d="M18.5 27.51V20.5H25.51L18.5 27.51ZM25 1H4V4H25V1Z" fill="white"/>
<path d="M3 0V28H18.717L26 20.717V0H3ZM4 1H25V4H4V1ZM19 26.302V21H24.302L19 26.302ZM25 20H18V27H4V5H25V20Z" fill="white"/>
</symbol>
<use xlink:href="#note-light" viewBox="0 0 28 28"/>
</svg>