<!-- This file is part of Zotero. It is distributed under the GNU Affero General Public License version 3. -->
<svg xmlns="http://www.w3.org/2000/svg" xmlns:xlink="http://www.w3.org/1999/xlink">
<symbol id="thesis-light" viewBox="0 0 28 28">
<path d="M3.00004 21.3469C3.15161 21.2634 3.278 21.1408 3.36602 20.9918C3.45404 20.8428 3.50048 20.673 3.50048 20.4999C3.50048 20.3269 3.45404 20.157 3.36602 20.008C3.278 19.8591 3.15161 19.7364 3.00004 19.6529V11.7529H2.00004V19.6529C1.84847 19.7364 1.72208 19.8591 1.63406 20.008C1.54603 20.157 1.4996 20.3269 1.4996 20.4999C1.4996 20.673 1.54603 20.8428 1.63406 20.9918C1.72208 21.1408 1.84847 21.2634 2.00004 21.3469V21.3999C1.56154 22.7196 1.39154 24.1136 1.50004 25.4999C1.50004 25.7759 1.94804 25.9999 2.50004 25.9999C3.05204 25.9999 3.50004 25.7759 3.50004 25.4999C3.60854 24.1136 3.43854 22.7196 3.00004 21.3999V21.3469Z" fill="#FF794C"/>
<path d="M14 23.5C9.393 23.5 5.5 21.325 5.5 18.75V11.5H22.5V18.75C22.5 21.325 18.607 23.5 14 23.5Z" fill="#8F8F8F"/>
<path d="M1.00806 10.9999L14.0001 3.57593L26.9921 10.9999L14.0001 18.4239L1.00806 10.9999Z" fill="#B4B4B4"/>
<path d="M28 11L14 3L0 11L5 13.857V18.75C5 21.649 9.029 24 14 24C18.971 24 23 21.649 23 18.75V13.857L28 11ZM14 4.152L25.984 11L14 17.848L2.016 11L14 4.152ZM22 18.752C22 21.052 18.336 23.002 14 23.002C9.664 23.002 6 21.056 6 18.752V14.429L14 19L22 14.429V18.752Z" fill="#444444"/>
</symbol>
<symbol id="thesis-dark" viewBox="0 0 28 28">
<path opacity="0.12" d="M14.0001 4.1521L25.9841 11.0001L14.0001 17.8481L2.01611 11.0001L14.0001 4.1521Z" fill="white"/>
<path opacity="0.8" d="M3.5 20.5001C3.5 20.1341 3.294 19.8271 3 19.6531V12.7141L2 12.1431V19.6531C1.706 19.8271 1.5 20.1341 1.5 20.5001C1.5 20.8661 1.706 21.1731 2 21.3471V21.4041C1.668 22.0241 1.5 23.3731 1.5 25.5011C1.5 25.7771 1.948 26.0011 2.5 26.0011C3.052 26.0011 3.5 25.7771 3.5 25.5011C3.5 23.3741 3.332 22.0241 3 21.4041V21.3471C3.294 21.1731 3.5 20.8661 3.5 20.5001Z" fill="#FF794C"/>
<path opacity="0.6" d="M14 3L0 11L5 13.857V18.75C5 21.649 9.029 24 14 24C18.971 24 23 21.649 23 18.75V13.857L28 11L14 3ZM22 18.75C22 21.054 18.336 23 14 23C9.664 23 6 21.054 6 18.75V14.429L14 19L22 14.429V18.75ZM14 17.848L2.016 11L14 4.152L25.984 11L14 17.848Z" fill="white"/>
<path opacity="0.24" d="M22 18.75C22 21.054 18.336 23 14 23C9.664 23 6 21.054 6 18.75V14.429L14 19L22 14.429V18.75Z" fill="white"/>
</symbol>
<symbol id="thesis-white" viewBox="0 0 28 28">
<path opacity="0.4" d="M1.00806 10.9999L14.0001 3.57593L26.9921 10.9999L14.0001 18.4239L1.00806 10.9999Z" fill="white"/>
<path opacity="0.6" d="M14 18.4239L5.5 13.5669V18.7499C5.5 21.3249 9.393 23.4999 14 23.4999C18.607 23.4999 22.5 21.3249 22.5 18.7499V13.5669L14 18.4239Z" fill="white"/>
<path d="M14 3L0 11L2 12.143V19.653C1.706 19.827 1.5 20.134 1.5 20.5C1.5 20.866 1.706 21.173 2 21.347V21.404C1.668 22.024 1.5 23.373 1.5 25.501C1.5 25.777 1.948 26.001 2.5 26.001C3.052 26.001 3.5 25.777 3.5 25.501C3.5 23.374 3.332 22.024 3 21.404V21.347C3.294 21.173 3.5 20.866 3.5 20.5C3.5 20.134 3.294 19.827 3 19.653V12.714L5 13.857V18.75C5 21.649 9.029 24 14 24C18.971 24 23 21.649 23 18.75V13.857L28 11L14 3ZM22 18.75C22 21.054 18.336 23 14 23C9.664 23 6 21.054 6 18.75V14.429L14 19L22 14.429V18.75ZM14 17.848L2.016 11L14 4.152L25.984 11L14 17.848Z" fill="white"/>
</symbol>
<use xlink:href="#thesis-light" viewBox="0 0 28 28"/>
</svg>