<!-- This file is part of Zotero. It is distributed under the GNU Affero General Public License version 3. -->
<svg xmlns="http://www.w3.org/2000/svg" xmlns:xlink="http://www.w3.org/1999/xlink">
<symbol id="tv-broadcast-light" viewBox="0 0 28 28">
<g clip-path="url(#clip0_144_2101)">
<path d="M25 7H3V26H25V7Z" fill="#DADADA"/>
<path d="M20 9.5H8C6.61929 9.5 5.5 10.6193 5.5 12V19C5.5 20.3807 6.61929 21.5 8 21.5H20C21.3807 21.5 22.5 20.3807 22.5 19V12C22.5 10.6193 21.3807 9.5 20 9.5Z" fill="#E0EFFF"/>
<path d="M18 23H19V24H18V23ZM16 24H17V23H16V24ZM23 12V19C23 19.7956 22.6839 20.5587 22.1213 21.1213C21.5587 21.6839 20.7956 22 20 22H8C7.20435 22 6.44129 21.6839 5.87868 21.1213C5.31607 20.5587 5 19.7956 5 19V12C5 11.2043 5.31607 10.4413 5.87868 9.87868C6.44129 9.31607 7.20435 9 8 9H20C20.7956 9 21.5587 9.31607 22.1213 9.87868C22.6839 10.4413 23 11.2043 23 12ZM22 12C22 11.4696 21.7893 10.9609 21.4142 10.5858C21.0391 10.2107 20.5304 10 20 10H8C7.46957 10 6.96086 10.2107 6.58579 10.5858C6.21071 10.9609 6 11.4696 6 12V19C6 19.5304 6.21071 20.0391 6.58579 20.4142C6.96086 20.7893 7.46957 21 8 21H20C20.5304 21 21.0391 20.7893 21.4142 20.4142C21.7893 20.0391 22 19.5304 22 19V12ZM26 7.75V25.25C25.9997 25.714 25.8153 26.159 25.4871 26.4871C25.159 26.8153 24.714 26.9997 24.25 27H23C23 27.2652 22.8946 27.5196 22.7071 27.7071C22.5196 27.8946 22.2652 28 22 28C21.7348 28 21.4804 27.8946 21.2929 27.7071C21.1054 27.5196 21 27.2652 21 27H7C7 27.2652 6.89464 27.5196 6.70711 27.7071C6.51957 27.8946 6.26522 28 6 28C5.73478 28 5.48043 27.8946 5.29289 27.7071C5.10536 27.5196 5 27.2652 5 27H3.75C3.28595 26.9997 2.84099 26.8153 2.51286 26.4871C2.18472 26.159 2.00026 25.714 2 25.25V7.75C2.00026 7.28595 2.18472 6.84098 2.51286 6.51285C2.84099 6.18472 3.28595 6.00026 3.75 6H10.293L5.146 0.853996L5.854 0.145996L11.707 6H16.293L22.146 0.145996L22.854 0.853996L17.707 6H24.25C24.714 6.00026 25.159 6.18472 25.4871 6.51285C25.8153 6.84098 25.9997 7.28595 26 7.75ZM25 7.75C25 7.55108 24.921 7.36032 24.7803 7.21967C24.6397 7.07901 24.4489 7 24.25 7H3.75C3.55109 7 3.36032 7.07901 3.21967 7.21967C3.07902 7.36032 3 7.55108 3 7.75V25.25C3 25.4489 3.07902 25.6397 3.21967 25.7803C3.36032 25.921 3.55109 26 3.75 26H24.25C24.4489 26 24.6397 25.921 24.7803 25.7803C24.921 25.6397 25 25.4489 25 25.25V7.75Z" fill="#444444"/>
<path d="M21 23H20V24H21V23Z" fill="#DB2C3A"/>
</g>
<defs>
<clipPath id="clip0_144_2101">
<rect width="28" height="28" fill="white"/>
</clipPath>
</defs>
</symbol>
<symbol id="tv-broadcast-dark" viewBox="0 0 28 28">
<g clip-path="url(#clip0_145_2898)">
<path opacity="0.6" d="M18 23H19V24H18V23ZM16 24H17V23H16V24ZM26 7.75V25.25C26 26.216 25.216 27 24.25 27H23C23 27.552 22.552 28 22 28C21.448 28 21 27.552 21 27H7C7 27.552 6.552 28 6 28C5.448 28 5 27.552 5 27H3.75C2.784 27 2 26.216 2 25.25V7.75C2 6.784 2.784 6 3.75 6H10.293L5.146 0.853996L5.853 0.146996L11.707 6.001H16.293L22.146 0.145996L22.853 0.852996L17.707 5.999H24.25C25.216 5.999 26 6.784 26 7.75ZM25 7.75C25 7.336 24.664 7 24.25 7H3.75C3.336 7 3 7.336 3 7.75V25.25C3 25.664 3.336 26 3.75 26H24.25C24.664 26 25 25.664 25 25.25V7.75Z" fill="white"/>
<path opacity="0.9" d="M21 23H20V24H21V23Z" fill="#DB2C3A"/>
<path opacity="0.85" d="M20 9H8C6.343 9 5 10.343 5 12V19C5 20.657 6.343 22 8 22H20C21.657 22 23 20.657 23 19V12C23 10.343 21.657 9 20 9ZM22 19C22 20.103 21.103 21 20 21H8C6.897 21 6 20.103 6 19V12C6 10.897 6.897 10 8 10H20C21.103 10 22 10.897 22 12V19Z" fill="#66ADFF"/>
<path opacity="0.17" d="M20 10H8C6.89543 10 6 10.8954 6 12V19C6 20.1046 6.89543 21 8 21H20C21.1046 21 22 20.1046 22 19V12C22 10.8954 21.1046 10 20 10Z" fill="#66ADFF"/>
<path opacity="0.12" fill-rule="evenodd" clip-rule="evenodd" d="M18 24V23H19V24H18ZM16 24H17V23H16V24ZM3 7.75V25.25C3 25.664 3.336 26 3.75 26H24.25C24.664 26 25 25.664 25 25.25V7.75C25 7.3368 24.6653 7.0013 24.2524 7H3.74758C3.33469 7.0013 3 7.3368 3 7.75ZM21 24V23H20V24H21ZM5 12C5 10.343 6.343 9 8 9H20C21.657 9 23 10.343 23 12V19C23 20.657 21.657 22 20 22H8C6.343 22 5 20.657 5 19V12Z" fill="white"/>
</g>
<defs>
<clipPath id="clip0_145_2898">
<rect width="28" height="28" fill="white"/>
</clipPath>
</defs>
</symbol>
<symbol id="tv-broadcast-white" viewBox="0 0 28 28">
<path opacity="0.2" d="M20 8.5H8C6.61929 8.5 5.5 9.61929 5.5 11V18C5.5 19.3807 6.61929 20.5 8 20.5H20C21.3807 20.5 22.5 19.3807 22.5 18V11C22.5 9.61929 21.3807 8.5 20 8.5Z" fill="white"/>
<path opacity="0.4" d="M3 6V25H25V6H3ZM22.5 18C22.5 19.381 21.381 20.5 20 20.5H8C6.619 20.5 5.5 19.381 5.5 18V11C5.5 9.619 6.619 8.5 8 8.5H20C21.381 8.5 22.5 9.619 22.5 11V18Z" fill="white"/>
<path d="M18 22H19V23H18V22ZM16 23H17V22H16V23ZM23 11V18C23 19.657 21.657 21 20 21H8.00002C6.34302 21 5.00002 19.657 5.00002 18V11C5.00002 9.343 6.34302 8 8.00002 8H20C21.657 8 23 9.343 23 11ZM22 11C22 9.897 21.103 9 20 9H8.00002C6.89702 9 6.00002 9.897 6.00002 11V18C6.00002 19.103 6.89702 20 8.00002 20H20C21.103 20 22 19.103 22 18V11ZM26 6.75V24.25C26 25.216 25.216 26 24.25 26H22.618L22.894 26.553C23.141 27.047 22.941 27.648 22.447 27.895C22.303 27.966 22.151 28 22.001 28C21.634 28 21.281 27.798 21.105 27.447L20.381 26H7.61802L6.89402 27.447C6.71802 27.798 6.36602 28 5.99802 28C5.84802 28 5.69502 27.966 5.55202 27.895C5.05802 27.648 4.85802 27.047 5.10502 26.553L5.38102 26H3.74902C2.78302 26 1.99902 25.216 1.99902 24.25V6.75C1.99902 5.784 2.78302 5 3.74902 5H10.292L6.14602 0.853996L6.85302 0.146996L11.707 5.001H16.293L21.146 0.145996L21.853 0.852996L17.707 4.999H24.25C25.216 4.999 26 5.784 26 6.75ZM25 6.75C25 6.336 24.664 6 24.25 6H3.75002C3.33602 6 3.00002 6.336 3.00002 6.75V24.25C3.00002 24.664 3.33602 25 3.75002 25H24.25C24.664 25 25 24.664 25 24.25V6.75ZM20 23H21V22H20V23Z" fill="white"/>
</symbol>
<use xlink:href="#tv-broadcast-light" viewBox="0 0 28 28"/>
</svg>