<!-- This file is part of Zotero. It is distributed under the GNU Affero General Public License version 3. -->
<svg xmlns="http://www.w3.org/2000/svg" xmlns:xlink="http://www.w3.org/1999/xlink">
<symbol id="video-recording-light" viewBox="0 0 28 28">
<path d="M7.5 11.167L1.426 7.66C1.27709 7.56587 1.10683 7.51084 0.931 7.5C0.556 7.5 0.5 7.936 0.5 8.194V19.806C0.5 20.064 0.556 20.5 0.931 20.5C1.10683 20.4892 1.27709 20.4341 1.426 20.34L7.5 16.833V11.167Z" fill="#B4B4B4"/>
<path d="M25.25 5.5H8.75C8.05964 5.5 7.5 6.05964 7.5 6.75V21.25C7.5 21.9404 8.05964 22.5 8.75 22.5H25.25C25.9404 22.5 26.5 21.9404 26.5 21.25V6.75C26.5 6.05964 25.9404 5.5 25.25 5.5Z" fill="#DADADA"/>
<path d="M24 9H23V10H24V9Z" fill="#DB2C3A"/>
<path d="M27 9V6.75C26.9997 6.28595 26.8153 5.84099 26.4871 5.51286C26.159 5.18472 25.714 5.00026 25.25 5H8.75C8.28595 5.00026 7.84099 5.18472 7.51286 5.51286C7.18472 5.84099 7.00027 6.28595 7 6.75V10.3L1.676 7.227C1.45175 7.08758 1.19489 7.00931 0.931 7C0.38 7 0 7.439 0 8.2V19.81C0 20.566 0.381 21.01 0.931 21.01C1.19489 21.0007 1.45175 20.9224 1.676 20.783L7 17.7V21.25C7.00027 21.714 7.18472 22.159 7.51286 22.4871C7.84099 22.8153 8.28595 22.9997 8.75 23H25.25C25.714 22.9997 26.159 22.8153 26.4871 22.4871C26.8153 22.159 26.9997 21.714 27 21.25V14C27.2652 14 27.5196 13.8946 27.7071 13.7071C27.8946 13.5196 28 13.2652 28 13V10C28 9.73478 27.8946 9.48043 27.7071 9.29289C27.5196 9.10536 27.2652 9 27 9ZM7 16.544L1.176 19.907C1.12512 19.9369 1.07155 19.962 1.016 19.982C1.00462 19.9237 0.999263 19.8644 1 19.805V8.2C0.999263 8.14061 1.00462 8.0813 1.016 8.023C1.07155 8.04296 1.12512 8.06807 1.176 8.098L7 11.456V16.544ZM26 21.25C26 21.4489 25.921 21.6397 25.7803 21.7803C25.6397 21.921 25.4489 22 25.25 22H8.75C8.55109 22 8.36032 21.921 8.21967 21.7803C8.07902 21.6397 8 21.4489 8 21.25V6.75C8 6.55109 8.07902 6.36032 8.21967 6.21967C8.36032 6.07902 8.55109 6 8.75 6H25.25C25.4489 6 25.6397 6.07902 25.7803 6.21967C25.921 6.36032 26 6.55109 26 6.75V21.25ZM21 9.5C21 9.63261 20.9473 9.75979 20.8536 9.85355C20.7598 9.94732 20.6326 10 20.5 10H10.5C10.3674 10 10.2402 9.94732 10.1464 9.85355C10.0527 9.75979 10 9.63261 10 9.5C10 9.36739 10.0527 9.24021 10.1464 9.14645C10.2402 9.05268 10.3674 9 10.5 9H20.5C20.6326 9 20.7598 9.05268 20.8536 9.14645C20.9473 9.24021 21 9.36739 21 9.5Z" fill="#444444"/>
</symbol>
<symbol id="video-recording-dark" viewBox="0 0 28 28">
<g clip-path="url(#clip0_145_2881)">
<path opacity="0.6" d="M27 9V6.75C27 5.784 26.216 5 25.25 5H8.75C7.784 5 7 5.784 7 6.75V10.301L1.676 7.227C1.409 7.073 1.156 7 0.931 7C0.38 7 0 7.439 0 8.195V19.806C0 20.562 0.381 21.001 0.931 21.001C1.156 21.001 1.409 20.928 1.676 20.774L7 17.7V21.251C7 22.217 7.784 23.001 8.75 23.001H25.25C26.216 23.001 27 22.217 27 21.251V14.001C27.552 14.001 28 13.553 28 13.001V10.001C28 9.449 27.552 9.001 27 9.001V9ZM7 16.544L1.176 19.907C1.109 19.946 1.055 19.969 1.016 19.982C1.007 19.94 1 19.881 1 19.806V8.195C1 8.119 1.007 8.061 1.016 8.019C1.056 8.032 1.109 8.055 1.176 8.094L7 11.457V16.546V16.544ZM26 21.25C26 21.664 25.664 22 25.25 22H8.75C8.336 22 8 21.664 8 21.25V6.75C8 6.336 8.336 6 8.75 6H25.25C25.664 6 26 6.336 26 6.75V21.25Z" fill="white"/>
<path opacity="0.24" d="M7 16.544L1.176 19.907C1.109 19.946 1.055 19.969 1.016 19.982C1.007 19.94 1 19.881 1 19.806V8.19504C1 8.11904 1.007 8.06104 1.016 8.01904C1.056 8.03204 1.109 8.05504 1.176 8.09404L7 11.457V16.546V16.544Z" fill="white"/>
<path opacity="0.9" d="M24 9H23V10H24V9Z" fill="#DB2C3A"/>
<path opacity="0.6" d="M21 9.5C21 9.776 20.776 10 20.5 10H10.5C10.224 10 10 9.776 10 9.5C10 9.224 10.224 9 10.5 9H20.5C20.776 9 21 9.224 21 9.5Z" fill="white"/>
<path opacity="0.12" fill-rule="evenodd" clip-rule="evenodd" d="M8.75 6H25.25C25.6642 6 26 6.33579 26 6.75V21.25C26 21.6642 25.6642 22 25.25 22H8.75C8.33579 22 8 21.6642 8 21.25V6.75C8 6.33579 8.33579 6 8.75 6ZM21 9.5C21 9.776 20.776 10 20.5 10H10.5C10.224 10 10 9.776 10 9.5C10 9.224 10.224 9 10.5 9H20.5C20.776 9 21 9.224 21 9.5ZM24 9H23V10H24V9Z" fill="white"/>
</g>
<defs>
<clipPath id="clip0_145_2881">
<rect width="28" height="28" fill="white"/>
</clipPath>
</defs>
</symbol>
<symbol id="video-recording-white" viewBox="0 0 28 28">
<path opacity="0.4" d="M7.5 11.167L1.426 7.66C1.244 7.556 1.073 7.5 0.931 7.5C0.556 7.5 0.5 7.936 0.5 8.194V19.805C0.5 20.064 0.556 20.499 0.931 20.499C1.073 20.499 1.244 20.443 1.426 20.339L7.5 16.833V11.167Z" fill="white"/>
<path opacity="0.2" d="M25.25 5.5H8.75C8.05964 5.5 7.5 6.05964 7.5 6.75V21.25C7.5 21.9404 8.05964 22.5 8.75 22.5H25.25C25.9404 22.5 26.5 21.9404 26.5 21.25V6.75C26.5 6.05964 25.9404 5.5 25.25 5.5Z" fill="white"/>
<path d="M24 10H23V9.00002H24V10ZM28 10V13C28 13.552 27.552 14 27 14V21.25C27 22.216 26.216 23 25.25 23H8.75C7.784 23 7 22.216 7 21.25V17.699L1.676 20.773C1.409 20.927 1.156 21 0.931 21C0.38 21 0 20.561 0 19.805V8.19402C0 7.43802 0.38 6.99902 0.931 6.99902C1.156 6.99902 1.409 7.07202 1.676 7.22602L7 10.3V6.74902C7 5.78302 7.784 4.99902 8.75 4.99902H25.25C26.216 4.99902 27 5.78302 27 6.74902V8.99902C27.552 8.99902 28 9.44702 28 9.99902V10ZM7 11.456L1.176 8.09302C1.109 8.05402 1.055 8.03102 1.016 8.01802C1.007 8.06002 1 8.11902 1 8.19402V19.805C1 19.881 1.007 19.939 1.016 19.981C1.056 19.968 1.109 19.945 1.176 19.906L7 16.543V11.454V11.456ZM26 6.75002C26 6.33602 25.664 6.00002 25.25 6.00002H8.75C8.336 6.00002 8 6.33602 8 6.75002V21.25C8 21.664 8.336 22 8.75 22H25.25C25.664 22 26 21.664 26 21.25V6.75002ZM20.5 9.00002H10.5C10.224 9.00002 10 9.22402 10 9.50002C10 9.77602 10.224 10 10.5 10H20.5C20.776 10 21 9.77602 21 9.50002C21 9.22402 20.776 9.00002 20.5 9.00002Z" fill="white"/>
</symbol>
<use xlink:href="#video-recording-light" viewBox="0 0 28 28"/>
</svg>