<!-- This file is part of Zotero. It is distributed under the GNU Affero General Public License version 3. -->
<svg xmlns="http://www.w3.org/2000/svg" xmlns:xlink="http://www.w3.org/1999/xlink">
<symbol id="webpage-light" viewBox="0 0 28 28">
<path opacity="0.5" d="M1.75 2H26.25C26.7141 2 27.1592 2.18437 27.4874 2.51256C27.8156 2.84075 28 3.28587 28 3.75V26H0V3.75C0 3.28587 0.184374 2.84075 0.512563 2.51256C0.840752 2.18437 1.28587 2 1.75 2Z" fill="white"/>
<path d="M27 9H1V25H27V9Z" fill="white"/>
<path opacity="0.04" d="M1.75 3H26.25C26.4489 3 26.6397 3.07902 26.7803 3.21967C26.921 3.36032 27 3.55109 27 3.75V9H1V3.75C1 3.55109 1.07902 3.36032 1.21967 3.21967C1.36032 3.07902 1.55109 3 1.75 3Z" fill="black"/>
<path d="M4 7C4.55228 7 5 6.55228 5 6C5 5.44772 4.55228 5 4 5C3.44772 5 3 5.44772 3 6C3 6.55228 3.44772 7 4 7Z" fill="#E24940"/>
<path d="M7 7C7.55228 7 8 6.55228 8 6C8 5.44772 7.55228 5 7 5C6.44772 5 6 5.44772 6 6C6 6.55228 6.44772 7 7 7Z" fill="#E0A32A"/>
<path d="M10 7C10.5523 7 11 6.55228 11 6C11 5.44772 10.5523 5 10 5C9.44772 5 9 5.44772 9 6C9 6.55228 9.44772 7 10 7Z" fill="#28AD31"/>
<path d="M24.5 16.5H3.5V22.5H24.5V16.5Z" fill="#B3C7F5"/>
<path d="M24 17V22H4V17H24ZM25 16H3V23H25V16Z" fill="#4072E5"/>
<path opacity="0.2" d="M26.25 2H1.75C1.28595 2.00026 0.840987 2.18472 0.512856 2.51286C0.184725 2.84099 0.000264943 3.28595 0 3.75L0 26H28V3.75C27.9997 3.28595 27.8153 2.84099 27.4871 2.51286C27.159 2.18472 26.714 2.00026 26.25 2ZM27 25H1V10H27V25ZM27 9H1V3.75C1 3.55109 1.07902 3.36032 1.21967 3.21967C1.36032 3.07902 1.55109 3 1.75 3H26.25C26.4489 3 26.6397 3.07902 26.7803 3.21967C26.921 3.36032 27 3.55109 27 3.75V9Z" fill="black"/>
</symbol>
<symbol id="webpage-dark" viewBox="0 0 28 28">
<path opacity="0.85" d="M4 7C4.55228 7 5 6.55228 5 6C5 5.44772 4.55228 5 4 5C3.44772 5 3 5.44772 3 6C3 6.55228 3.44772 7 4 7Z" fill="#E24940"/>
<path opacity="0.85" d="M7 7C7.55228 7 8 6.55228 8 6C8 5.44772 7.55228 5 7 5C6.44772 5 6 5.44772 6 6C6 6.55228 6.44772 7 7 7Z" fill="#E0A32A"/>
<path opacity="0.85" d="M10 7C10.5523 7 11 6.55228 11 6C11 5.44772 10.5523 5 10 5C9.44772 5 9 5.44772 9 6C9 6.55228 9.44772 7 10 7Z" fill="#28AD31"/>
<path opacity="0.12" fill-rule="evenodd" clip-rule="evenodd" d="M26.25 3H1.75C1.336 3 1 3.336 1 3.75V9H27V3.75C27 3.336 26.664 3 26.25 3ZM5 6C5 6.55228 4.55228 7 4 7C3.44772 7 3 6.55228 3 6C3 5.44772 3.44772 5 4 5C4.55228 5 5 5.44772 5 6ZM8 6C8 6.55228 7.55228 7 7 7C6.44772 7 6 6.55228 6 6C6 5.44772 6.44772 5 7 5C7.55228 5 8 5.44772 8 6ZM10 7C10.5523 7 11 6.55228 11 6C11 5.44772 10.5523 5 10 5C9.44772 5 9 5.44772 9 6C9 6.55228 9.44772 7 10 7Z" fill="white"/>
<path opacity="0.6" d="M26.25 2H1.75C0.784 2 0 2.784 0 3.75V26H28V3.75C28 2.784 27.216 2 26.25 2ZM27 25H1V10H27V25ZM27 9H1V3.75C1 3.336 1.336 3 1.75 3H26.25C26.664 3 27 3.336 27 3.75V9Z" fill="white"/>
<path d="M3 16V23H25V16H3ZM24 22H4V17H24V22Z" fill="#4072E5"/>
<path opacity="0.4" d="M24 17V22H4V17H24Z" fill="#4072E5"/>
</symbol>
<symbol id="webpage-white" viewBox="0 0 28 28">
<path opacity="0.2" d="M27 3H1V9H27V3Z" fill="white"/>
<path opacity="0.4" d="M24.5 16.5H3.5V22.5H24.5V16.5Z" fill="white"/>
<path d="M26 2H2C0.895 2 0 2.895 0 4V26H28V4C28 2.895 27.105 2 26 2ZM27 25H1V10H27V25ZM27 9H1V4C1 3.449 1.449 3 2 3H26C26.551 3 27 3.449 27 4V9ZM5 6C5 6.552 4.552 7 4 7C3.448 7 3 6.552 3 6C3 5.448 3.448 5 4 5C4.552 5 5 5.448 5 6ZM8 6C8 6.552 7.552 7 7 7C6.448 7 6 6.552 6 6C6 5.448 6.448 5 7 5C7.552 5 8 5.448 8 6ZM11 6C11 6.552 10.552 7 10 7C9.448 7 9 6.552 9 6C9 5.448 9.448 5 10 5C10.552 5 11 5.448 11 6ZM24 17V22H4V17H24ZM25 16H3V23H25V16Z" fill="white"/>
</symbol>
<use xlink:href="#webpage-light" viewBox="0 0 28 28"/>
</svg>