<svg xmlns="http://www.w3.org/2000/svg" xmlns:xlink="http://www.w3.org/1999/xlink">
	<symbol id="journal-article" viewBox="0 0 16 16">
		<polygon points="2.5 15.5 2.5 0.5 9.5 0.5 14.5 5.5 14.5 15.5 2.5 15.5" fill="#fff"/>
		<g opacity="0.4">
			<path d="M14.5,5.5h-5V.5Z" fill="#ccc"/>
		</g>
		<path d="M7,6H5V5H7Zm5,2H5V9h7Zm0,3H5v1h7Z" fill="#444"/>
		<path d="M9.707,0H2V16H15V5.293Zm3.586,5H10V1.707ZM14,15H3V1H9V6h5Z" fill="#ccc"/>
	</symbol>
	<symbol id="journal-article-active">
		<g opacity="0.4">
			<path d="M14.5,5.5h-5V.5Z" fill="#fff"/>
		</g>
		<path d="M7,6H5V5H7Zm5,2H5V9h7Zm0,3H5v1h7Z" fill="#fff"/>
		<path d="M9.707,0H2V16H15V5.293Zm3.586,5H10V1.707ZM14,15H3V1H9V6h5Z" fill="#fff"/>
	</symbol>
	<use xlink:href="#journal-article" viewBox="0 0 16 16"/>
</svg>
