<svg xmlns="http://www.w3.org/2000/svg" xmlns:xlink="http://www.w3.org/1999/xlink"><symbol id="cog" viewBox="0 0 512 512"><path fill="currentColor" d="m224.1 0c-10.7 25.32-21.3 50.65-31.9 75.97-12.8 10.34-25 7.11-37.9-0.12-18.7-7.83-37.3-15.67-55.99-23.5l-45.96 45.96 31.92 75.97c-2.85 15.79-14.52 21.95-28.33 26.29-18.64 7.8-37.29 15.6-55.94 23.5v63.84l75.97 31.92c10.79 12.58 6.871 25.06-0.1152 37.9-7.835 18.65-15.67 37.3-23.51 55.94l45.97 45.97 75.97-31.92c15.89 2.666 21.9 14.62 26.29 28.33 7.835 18.65 15.67 37.3 23.51 55.94h63.84l31.92-75.97c12.59-10.85 25.06-6.837 37.9 0.1152 18.65 7.835 37.3 15.67 55.94 23.51l45.97-45.97-31.92-75.97c2.471-16 14.71-21.85 28.33-26.29 18.65-7.835 37.3-15.67 55.94-23.51v-63.84l-75.97-31.92c-10.51-12.72-7.016-24.98 0.1152-37.9 7.835-18.65 15.67-37.3 23.51-55.94-15.2-15.21-30.5-30.53-45.8-45.85-25.3 10.64-50.7 21.28-76 31.92-16-2.47-21.8-14.72-26.3-28.33-7.8-18.64-15.6-37.29-23.5-55.94h-63.8zm31.9 159.6c54.85-1.73 102.6 51.19 95.27 105.6-3.903 54.68-61.29 96.65-114.6 84.01-54-9.4-89.9-70.6-72.2-122.4 11.7-39.3 50.5-67.8 91.5-67.2z"/></symbol><use xlink:href="#cog" viewBox="0 0 512 512" />
</svg>