<svg xmlns="http://www.w3.org/2000/svg" xmlns:xlink="http://www.w3.org/1999/xlink">
	<symbol id="folders-28" viewBox="0 0 28 28">
		<path fill="currentColor" d="M26,5H17l-.5-1h8.223A1.991,1.991,0,0,0,23,3H16l-.447-.894c-.019-.039-.051-.068-.073-.106h6.242A1.991,1.991,0,0,0,20,1H6.236A2,2,0,0,0,4.447,2.106L3,5H2A2,2,0,0,0,0,7V24a2,2,0,0,0,2,2H26a2,2,0,0,0,2-2V7A2,2,0,0,0,26,5ZM2,6H3a1,1,0,0,0,.894-.553L5.341,2.553A1,1,0,0,1,6.236,2h7.528a1,1,0,0,1,.894.553l1.447,2.894A1,1,0,0,0,17,6h9a1,1,0,0,1,1,1V8.277A1.979,1.979,0,0,0,26,8H2a1.979,1.979,0,0,0-1,.277V7A1,1,0,0,1,2,6ZM27,24a1,1,0,0,1-1,1H2a1,1,0,0,1-1-1V10A1,1,0,0,1,2,9H26a1,1,0,0,1,1,1Z"/>
	</symbol>
	<use xlink:href="#folders-28" viewBox="0 0 28 28" />
</svg>
