<svg xmlns="http://www.w3.org/2000/svg" xmlns:xlink="http://www.w3.org/1999/xlink">
<symbol id="artwork-light" viewBox="0 0 16 16">
<path opacity="0.5" d="M15 1H1V15H15V1Z" fill="white"/>
<path opacity="0.2" d="M14 2V14H2V2H14ZM15 1H1V15H15V1Z" fill="black"/>
<path d="M14 2H2V14H14V2Z" fill="white"/>
<path opacity="0.4" d="M13 3H3V13H13V3Z" fill="#66ADFF"/>
<path d="M3 13L6 8L8.5 11.5L10.5 10L13 13H3Z" fill="#39BF68"/>
</symbol>
<symbol id="artwork-dark" viewBox="0 0 16 16">
<path opacity="0.6" d="M14 2V14H2V2H14ZM15 1H1V15H15V1Z" fill="white"/>
<path opacity="0.51" d="M3 3H13V13L10.5 10L8.5 11.5L6 8L3 13V3Z" fill="#66ADFF"/>
<path opacity="0.85" d="M3 13L6 8L8.5 11.5L10.5 10L13 13H3Z" fill="#39BF68"/>
</symbol>
<symbol id="artwork-white" viewBox="0 0 16 16">
<path d="M14 2V14H2V2H14ZM15 1H1V15H15V1Z" fill="white"/>
<path opacity="0.4" d="M13 3H3V13H13V3Z" fill="white"/>
<path d="M3 13L6 8L8.5 11.5L10.5 10L13 13H3Z" fill="white"/>
</symbol>
<use xlink:href="#artwork-light" viewBox="0 0 16 16"/>
</svg>