<svg xmlns="http://www.w3.org/2000/svg" xmlns:xlink="http://www.w3.org/1999/xlink">
<symbol id="attachment-pdf-light" viewBox="0 0 16 16">
<path opacity="0.5" d="M11.707 0H3V16H16V4.293L11.707 0Z" fill="white"/>
<path d="M11.293 1L15 4.707V15H4V1H11.293Z" fill="white"/>
<path opacity="0.2" d="M11.707 0H3V16H16V4.293L11.707 0ZM12 1.707L14.293 4H12V1.707ZM4 15V1H11V5H15V15H4Z" fill="black"/>
<path opacity="0.08" d="M12 1.70703V4H14.293L12 1.70703Z" fill="black"/>
<path d="M8 4H1V6H8V4Z" fill="#F1ABB0"/>
<path d="M8 4V6H1V4H8ZM9 3H0V7H9V3Z" fill="#DB2C3A"/>
</symbol>
<symbol id="attachment-pdf-dark" viewBox="0 0 16 16">
<path opacity="0.24" d="M12 1.70703V4H14.293L12 1.70703Z" fill="white"/>
<path opacity="0.36" d="M8 4H1V6H8V4Z" fill="#DB2C3A"/>
<path opacity="0.9" d="M8 4V6H1V4H8ZM9 3H0V7H9V3Z" fill="#DB2C3A"/>
<path opacity="0.6" fill-rule="evenodd" clip-rule="evenodd" d="M3 0H11.707L16 4.293V16H3V7H4V15H15V5H11V1H4V3H3V0ZM14.293 4L12 1.707V4H14.293Z" fill="white"/>
</symbol>
<symbol id="attachment-pdf-white" viewBox="0 0 16 16">
<g clip-path="url(#clip0_143_1401)">
<path opacity="0.4" d="M11.5 0.5V4.5H15.5L11.5 0.5Z" fill="white"/>
<path opacity="0.4" d="M8 4H1V6H8V4Z" fill="white"/>
<path d="M11.707 0H3V3H0V7H3V16H16V4.293L11.707 0ZM12 1.707L14.293 4H12V1.707ZM1 6V4H8V6H1ZM15 15H4V7H9V3H4V1H11V5H15V15Z" fill="white"/>
</g>
<defs>
<clipPath id="clip0_143_1401">
<rect width="16" height="16" fill="white"/>
</clipPath>
</defs>
</symbol>
<use xlink:href="#attachment-pdf-light" viewBox="0 0 16 16"/>
</svg>