<svg xmlns="http://www.w3.org/2000/svg" xmlns:xlink="http://www.w3.org/1999/xlink">
<symbol id="attachment-link-light" viewBox="0 0 16 16">
<path opacity="0.5" d="M13.5 11.5C12.3954 11.5 11.5 12.3954 11.5 13.5C11.5 12.3954 10.6046 11.5 9.5 11.5C8.39543 11.5 7.5 12.3954 7.5 13.5C7.5 13.6726 7.52188 13.8402 7.56301 14H6V15H2V0H9.707L15 5.293V10H14V11.563C13.8402 11.5219 13.6726 11.5 13.5 11.5Z" fill="white"/>
<path d="M13.5 11.5C12.3954 11.5 11.5 12.3954 11.5 13.5C11.5 12.3954 10.6046 11.5 9.5 11.5C8.39543 11.5 7.5 12.3954 7.5 13.5C7.5 13.6726 7.52188 13.8402 7.56301 14H3V1H9.293L14 5.707V11.563C13.8402 11.5219 13.6726 11.5 13.5 11.5Z" fill="white"/>
<path opacity="0.08" d="M10 1.70697V5H13.293L10 1.70697Z" fill="black"/>
<path opacity="0.2" d="M6 14H3V1H9V6H14V10H15V5.293L9.707 0H2V15H6V14ZM10 1.707L13.293 5H10V1.707Z" fill="black"/>
<path fill-rule="evenodd" clip-rule="evenodd" d="M9.5 11C10.3178 11 11.0439 11.3927 11.5 11.9998C11.9561 11.3927 12.6822 11 13.5 11C14.8807 11 16 12.1193 16 13.5C16 14.8807 14.8807 16 13.5 16C12.6822 16 11.9561 15.6073 11.5 15.0002C11.0439 15.6073 10.3178 16 9.5 16C8.11929 16 7 14.8807 7 13.5C7 12.1193 8.11929 11 9.5 11ZM10.9146 13H9.5C9.22386 13 9 13.2239 9 13.5C9 13.7761 9.22386 14 9.5 14H10.9146C10.7087 14.5826 10.1531 15 9.5 15C8.67157 15 8 14.3284 8 13.5C8 12.6716 8.67157 12 9.5 12C10.1531 12 10.7087 12.4174 10.9146 13ZM12.0854 14H13.5C13.7761 14 14 13.7761 14 13.5C14 13.2239 13.7761 13 13.5 13H12.0854C12.2913 12.4174 12.8469 12 13.5 12C14.3284 12 15 12.6716 15 13.5C15 14.3284 14.3284 15 13.5 15C12.8469 15 12.2913 14.5826 12.0854 14Z" fill="#888888"/>
</symbol>
<symbol id="attachment-link-dark" viewBox="0 0 16 16">
<path opacity="0.24" d="M10 1.70697V5H13.293L10 1.70697Z" fill="white"/>
<path opacity="0.6" d="M6 14H3V1H9V6H14V10H15V5.293L9.707 0L2 0V15H6V14ZM10 1.707L13.293 5H10V1.707Z" fill="white"/>
<path opacity="0.6" fill-rule="evenodd" clip-rule="evenodd" d="M9.5 11C10.3178 11 11.0439 11.3927 11.5 11.9998C11.9561 11.3927 12.6822 11 13.5 11C14.8807 11 16 12.1193 16 13.5C16 14.8807 14.8807 16 13.5 16C12.6822 16 11.9561 15.6073 11.5 15.0002C11.0439 15.6073 10.3178 16 9.5 16C8.11929 16 7 14.8807 7 13.5C7 12.1193 8.11929 11 9.5 11ZM10.9146 13H9.5C9.22386 13 9 13.2239 9 13.5C9 13.7761 9.22386 14 9.5 14H10.9146C10.7087 14.5826 10.1531 15 9.5 15C8.67157 15 8 14.3284 8 13.5C8 12.6716 8.67157 12 9.5 12C10.1531 12 10.7087 12.4174 10.9146 13ZM12.0854 14H13.5C13.7761 14 14 13.7761 14 13.5C14 13.2239 13.7761 13 13.5 13H12.0854C12.2913 12.4174 12.8469 12 13.5 12C14.3284 12 15 12.6716 15 13.5C15 14.3284 14.3284 15 13.5 15C12.8469 15 12.2913 14.5826 12.0854 14Z" fill="white"/>
</symbol>
<symbol id="attachment-link-white" viewBox="0 0 16 16">
<path opacity="0.4" d="M10 1.70697V5H13.293L10 1.70697Z" fill="white"/>
<path d="M6 14H3V1H9V6H14V10H15V5.293L9.707 0H2V15H6V14ZM10 1.707L13.293 5H10V1.707ZM13.5 11C12.678 11 11.956 11.402 11.5 12.014C11.044 11.402 10.321 11 9.5 11C8.119 11 7 12.119 7 13.5C7 14.881 8.119 16 9.5 16C10.322 16 11.045 15.598 11.5 14.986C11.956 15.598 12.678 16 13.5 16C14.881 16 16 14.881 16 13.5C16 12.119 14.881 11 13.5 11ZM9.5 15C8.673 15 8 14.327 8 13.5C8 12.673 8.673 12 9.5 12C10.151 12 10.701 12.419 10.908 13H9.5C9.224 13 9 13.224 9 13.5C9 13.776 9.224 14 9.5 14H10.908C10.701 14.581 10.151 15 9.5 15ZM13.5 15C12.849 15 12.299 14.581 12.092 14H13.5C13.776 14 14 13.776 14 13.5C14 13.224 13.776 13 13.5 13H12.092C12.299 12.419 12.849 12 13.5 12C14.327 12 15 12.673 15 13.5C15 14.327 14.327 15 13.5 15Z" fill="white"/>
</symbol>
<use xlink:href="#attachment-link-light" viewBox="0 0 16 16"/>
</svg>