<!-- This file is part of Zotero. It is distributed under the GNU Affero General Public License version 3. -->
<svg xmlns="http://www.w3.org/2000/svg" xmlns:xlink="http://www.w3.org/1999/xlink">
<symbol id="attachment-pdf-light" viewBox="0 0 16 16">
<path opacity="0.5" d="M11.207 0H3V16H16V4.793L11.207 0Z" fill="white"/>
<path d="M10.793 1L15 5.207V15H4V1H10.793Z" fill="white"/>
<path opacity="0.2" d="M11.207 0H3V16H16V4.793L11.207 0ZM11.5 1.707L14.293 4.5H11.5V1.707ZM4 15V1H10.5V5.5H15V15H4Z" fill="black"/>
<path opacity="0.08" d="M11.5 1.70703V4.50003H14.293L11.5 1.70703Z" fill="black"/>
<path d="M8 4H1V6H8V4Z" fill="#F1ABB0"/>
<path d="M8 4V6H1V4H8ZM9 3H0V7H9V3Z" fill="#DB2C3A"/>
</symbol>
<symbol id="attachment-pdf-dark" viewBox="0 0 16 16">
<path opacity="0.24" d="M11.5 1.70703V4.50003H14.293L11.5 1.70703Z" fill="white"/>
<path opacity="0.36" d="M8 4H1V6H8V4Z" fill="#DB2C3A"/>
<path opacity="0.9" d="M8 4V6H1V4H8ZM9 3H0V7H9V3Z" fill="#DB2C3A"/>
<path opacity="0.6" fill-rule="evenodd" clip-rule="evenodd" d="M3 0H11.207L16 4.793V16H3V7H4V15H15V5.5H10.5V1H4V3H3V0ZM14.293 4.5L11.5 1.707V4.5H14.293Z" fill="white"/>
</symbol>
<symbol id="attachment-pdf-white" viewBox="0 0 16 16">
<g clip-path="url(#clip0_1358_85540)">
<path opacity="0.4" d="M11 0.5V5H15.5L11 0.5Z" fill="white"/>
<path opacity="0.4" d="M8 4H1V6H8V4Z" fill="white"/>
<path d="M11.207 0H3V3H0V7H3V16H16V4.793L11.207 0ZM11.5 1.707L14.293 4.5H11.5V1.707ZM1 6V4H8V6H1ZM15 15H4V7H9V3H4V1H10.5V5.5H15V15Z" fill="white"/>
</g>
<defs>
<clipPath id="clip0_1358_85540">
<rect width="16" height="16" fill="white"/>
</clipPath>
</defs>
</symbol>
<use xlink:href="#attachment-pdf-light" viewBox="0 0 16 16"/>
</svg>