<svg xmlns="http://www.w3.org/2000/svg" xmlns:xlink="http://www.w3.org/1999/xlink">
<symbol id="attachment-web-link-light" viewBox="0 0 16 16">
<path opacity="0.5" d="M9.5 10C10.2161 9.9978 10.9152 10.2187 11.5 10.632C12.0043 10.275 12.5955 10.0604 13.2114 10.011C13.8273 9.96154 14.4452 10.079 15 10.351V2C15 1.73478 14.8946 1.48043 14.7071 1.29289C14.5196 1.10536 14.2652 1 14 1H1C0.734784 1 0.48043 1.10536 0.292893 1.29289C0.105357 1.48043 0 1.73478 0 2L0 15H6.351C6.12289 14.5327 6.00293 14.02 6 13.5C6 12.5717 6.36875 11.6815 7.02513 11.0251C7.6815 10.3687 8.57174 10 9.5 10Z" fill="white"/>
<path d="M7.5 13.5C7.5 12.9696 7.71071 12.4609 8.08579 12.0858C8.46086 11.7107 8.96957 11.5 9.5 11.5C10.0304 11.5 10.5391 11.7107 10.9142 12.0858C11.2893 12.4609 11.5 12.9696 11.5 13.5C11.5 12.9696 11.7107 12.4609 12.0858 12.0858C12.4609 11.7107 12.9696 11.5 13.5 11.5C13.669 11.5021 13.8371 11.5259 14 11.571V2H1V14H7.571C7.52594 13.8371 7.50207 13.669 7.5 13.5Z" fill="white"/>
<path opacity="0.04" d="M14 2H1V5H14V2Z" fill="black"/>
<path d="M3 3H2V4H3V3Z" fill="#E24940"/>
<path d="M5 3H4V4H5V3Z" fill="#E0A32A"/>
<path d="M7 3H6V4H7V3Z" fill="#28AD31"/>
<path d="M9.5 10C10.2161 9.9978 10.9152 10.2187 11.5 10.632C11.8049 10.4177 12.1426 10.2546 12.5 10.149V8.5H2.5V12.5H6.163C6.37666 11.78 6.81663 11.148 7.41771 10.6977C8.01878 10.2474 8.74896 10.0027 9.5 10Z" fill="#B3C7F5"/>
<path opacity="0.2" d="M6.051 14H1V6H14V10.051C14.3467 10.0995 14.6839 10.2007 15 10.351V2C15 1.73478 14.8946 1.48043 14.7071 1.29289C14.5196 1.10536 14.2652 1 14 1H1C0.734784 1 0.48043 1.10536 0.292893 1.29289C0.105357 1.48043 0 1.73478 0 2L0 15H6.351C6.2007 14.6839 6.09954 14.3467 6.051 14ZM1 2H14V5H1V2Z" fill="black"/>
<path d="M6.351 12H3V9H12V10.342C12.3162 10.1919 12.6534 10.0907 13 10.042V8H2V13H6.051C6.09954 12.6533 6.2007 12.3161 6.351 12Z" fill="#4072E5"/>
<path fill-rule="evenodd" clip-rule="evenodd" d="M9.5 11C10.3178 11 11.0439 11.3927 11.5 11.9998C11.9561 11.3927 12.6822 11 13.5 11C14.8807 11 16 12.1193 16 13.5C16 14.8807 14.8807 16 13.5 16C12.6822 16 11.9561 15.6073 11.5 15.0002C11.0439 15.6073 10.3178 16 9.5 16C8.11929 16 7 14.8807 7 13.5C7 12.1193 8.11929 11 9.5 11ZM10.9146 13H9.5C9.22386 13 9 13.2239 9 13.5C9 13.7761 9.22386 14 9.5 14H10.9146C10.7087 14.5826 10.1531 15 9.5 15C8.67157 15 8 14.3284 8 13.5C8 12.6716 8.67157 12 9.5 12C10.1531 12 10.7087 12.4174 10.9146 13ZM12.0854 14H13.5C13.7761 14 14 13.7761 14 13.5C14 13.2239 13.7761 13 13.5 13H12.0854C12.2913 12.4174 12.8469 12 13.5 12C14.3284 12 15 12.6716 15 13.5C15 14.3284 14.3284 15 13.5 15C12.8469 15 12.2913 14.5826 12.0854 14Z" fill="#888888"/>
</symbol>
<symbol id="attachment-web-link-dark" viewBox="0 0 16 16">
<path opacity="0.12" fill-rule="evenodd" clip-rule="evenodd" d="M1 2H14V5H1V2ZM2 3H3V4H2V3ZM4 3H5V4H4V3ZM7 3H6V4H7V3Z" fill="white"/>
<path opacity="0.85" d="M3 3H2V4H3V3Z" fill="#E24940"/>
<path opacity="0.85" d="M5 3H4V4H5V3Z" fill="#E0A32A"/>
<path opacity="0.85" d="M7 3H6V4H7V3Z" fill="#28AD31"/>
<path opacity="0.6" d="M6.051 14H1V6H14V10.051C14.3467 10.0995 14.6839 10.2007 15 10.351V2C15 1.73478 14.8946 1.48043 14.7071 1.29289C14.5196 1.10536 14.2652 1 14 1H1C0.734784 1 0.48043 1.10536 0.292893 1.29289C0.105357 1.48043 0 1.73478 0 2L0 15H6.351C6.2007 14.6839 6.09954 14.3467 6.051 14ZM1 2H14V5H1V2Z" fill="white"/>
<path opacity="0.4" d="M11.5 10.632C10.9152 10.2187 10.2161 9.9978 9.5 10C8.74896 10.0027 8.01878 10.2474 7.41771 10.6977C6.96032 11.0403 6.59622 11.4882 6.35414 12H3V9H12V10.3403C11.8257 10.4231 11.6584 10.5207 11.5 10.632Z" fill="#4072E5"/>
<path d="M6.351 12H3V9H12V10.342C12.3162 10.1919 12.6534 10.0907 13 10.042V8H2V13H6.051C6.09954 12.6533 6.2007 12.3161 6.351 12Z" fill="#4072E5"/>
<path opacity="0.6" fill-rule="evenodd" clip-rule="evenodd" d="M9.5 11C10.3178 11 11.0439 11.3927 11.5 11.9998C11.9561 11.3927 12.6822 11 13.5 11C14.8807 11 16 12.1193 16 13.5C16 14.8807 14.8807 16 13.5 16C12.6822 16 11.9561 15.6073 11.5 15.0002C11.0439 15.6073 10.3178 16 9.5 16C8.11929 16 7 14.8807 7 13.5C7 12.1193 8.11929 11 9.5 11ZM10.9146 13H9.5C9.22386 13 9 13.2239 9 13.5C9 13.7761 9.22386 14 9.5 14H10.9146C10.7087 14.5826 10.1531 15 9.5 15C8.67157 15 8 14.3284 8 13.5C8 12.6716 8.67157 12 9.5 12C10.1531 12 10.7087 12.4174 10.9146 13ZM12.0854 14H13.5C13.7761 14 14 13.7761 14 13.5C14 13.2239 13.7761 13 13.5 13H12.0854C12.2913 12.4174 12.8469 12 13.5 12C14.3284 12 15 12.6716 15 13.5C15 14.3284 14.3284 15 13.5 15C12.8469 15 12.2913 14.5826 12.0854 14Z" fill="white"/>
</symbol>
<symbol id="attachment-web-link-white" viewBox="0 0 16 16">
<path opacity="0.2" d="M14 2H1V5H14V2Z" fill="white"/>
<path opacity="0.4" d="M9.5 10C10.23 10 10.922 10.223 11.5 10.632C11.805 10.416 12.143 10.256 12.5 10.149V8.5H2.5V12.5H6.163C6.596 11.059 7.92 10 9.5 10Z" fill="white"/>
<path d="M3 4H2V3H3V4ZM5 3H4V4H5V3ZM7 3H6V4H7V3ZM6.351 15H0V2C0 1.448 0.448 1 1 1H14C14.552 1 15 1.448 15 2V10.351C14.689 10.202 14.354 10.102 14 10.051V6H1V14H6.051C6.102 14.354 6.202 14.689 6.351 15ZM1 5H14V2H1V5ZM6.351 12H3V9H12V10.342C12.314 10.191 12.65 10.088 13 10.038V8H2V13H6.051C6.102 12.646 6.202 12.311 6.351 12ZM13.5 11C12.678 11 11.956 11.402 11.5 12.014C11.044 11.402 10.321 11 9.5 11C8.119 11 7 12.119 7 13.5C7 14.881 8.119 16 9.5 16C10.322 16 11.045 15.598 11.5 14.986C11.956 15.598 12.678 16 13.5 16C14.881 16 16 14.881 16 13.5C16 12.119 14.881 11 13.5 11ZM9.5 15C8.673 15 8 14.327 8 13.5C8 12.673 8.673 12 9.5 12C10.151 12 10.701 12.419 10.908 13H9.5C9.224 13 9 13.224 9 13.5C9 13.776 9.224 14 9.5 14H10.908C10.701 14.581 10.151 15 9.5 15ZM13.5 15C12.849 15 12.299 14.581 12.092 14H13.5C13.776 14 14 13.776 14 13.5C14 13.224 13.776 13 13.5 13H12.092C12.299 12.419 12.849 12 13.5 12C14.327 12 15 12.673 15 13.5C15 14.327 14.327 15 13.5 15Z" fill="white"/>
</symbol>
<use xlink:href="#attachment-web-link-light" viewBox="0 0 16 16"/>
</svg>