<!-- This file is part of Zotero. It is distributed under the GNU Affero General Public License version 3. -->
<svg xmlns="http://www.w3.org/2000/svg" xmlns:xlink="http://www.w3.org/1999/xlink">
<symbol id="attachment-pdf-link-light" viewBox="0 0 16 16">
<path opacity="0.5" d="M7.5 13.5C7.5 12.9696 7.71071 12.4609 8.08579 12.0858C8.46086 11.7107 8.96957 11.5 9.5 11.5C10.0304 11.5 10.5391 11.7107 10.9142 12.0858C11.2893 12.4609 11.5 12.9696 11.5 13.5C11.5 12.9696 11.7107 12.4609 12.0858 12.0858C12.4609 11.7107 12.9696 11.5 13.5 11.5C13.669 11.5021 13.8371 11.5259 14 11.571V10H15V4.793L10.207 0H3V15H6V14H7.571C7.52594 13.8371 7.50207 13.669 7.5 13.5Z" fill="white"/>
<path d="M7.5 13.5C7.5 12.9696 7.71071 12.4609 8.08579 12.0858C8.46086 11.7107 8.96957 11.5 9.5 11.5C10.0304 11.5 10.5391 11.7107 10.9142 12.0858C11.2893 12.4609 11.5 12.9696 11.5 13.5C11.5 12.9696 11.7107 12.4609 12.0858 12.0858C12.4609 11.7107 12.9696 11.5 13.5 11.5C13.669 11.5021 13.8371 11.5259 14 11.571V5.207L9.793 1H4V14H7.571C7.52594 13.8371 7.50207 13.669 7.5 13.5Z" fill="white"/>
<path opacity="0.08" d="M10.5 1.70703V4.50003H13.293L10.5 1.70703Z" fill="black"/>
<path opacity="0.2" d="M6 14H4V1H9.5V5.5H14V10H15V4.793L10.207 0H3V15H6V14ZM10.5 1.707L13.293 4.5H10.5V1.707Z" fill="black"/>
<path fill-rule="evenodd" clip-rule="evenodd" d="M9.5 11C10.3178 11 11.0439 11.3927 11.5 11.9998C11.9561 11.3927 12.6822 11 13.5 11C14.8807 11 16 12.1193 16 13.5C16 14.8807 14.8807 16 13.5 16C12.6822 16 11.9561 15.6073 11.5 15.0002C11.0439 15.6073 10.3178 16 9.5 16C8.11929 16 7 14.8807 7 13.5C7 12.1193 8.11929 11 9.5 11ZM10.9146 13H9.5C9.22386 13 9 13.2239 9 13.5C9 13.7761 9.22386 14 9.5 14H10.9146C10.7087 14.5826 10.1531 15 9.5 15C8.67157 15 8 14.3284 8 13.5C8 12.6716 8.67157 12 9.5 12C10.1531 12 10.7087 12.4174 10.9146 13ZM12.0854 14H13.5C13.7761 14 14 13.7761 14 13.5C14 13.2239 13.7761 13 13.5 13H12.0854C12.2913 12.4174 12.8469 12 13.5 12C14.3284 12 15 12.6716 15 13.5C15 14.3284 14.3284 15 13.5 15C12.8469 15 12.2913 14.5826 12.0854 14Z" fill="#888888"/>
<path d="M7 4H1V6H7V4Z" fill="#F1ABB0"/>
<path d="M7 4V6H1V4H7ZM8 3H0V7H8V3Z" fill="#DB2C3A"/>
</symbol>
<symbol id="attachment-pdf-link-dark" viewBox="0 0 16 16">
<path opacity="0.24" d="M10.5 1.70703V4.50003H13.293L10.5 1.70703Z" fill="white"/>
<path opacity="0.6" fill-rule="evenodd" clip-rule="evenodd" d="M9.5 11C10.3178 11 11.0439 11.3927 11.5 11.9998C11.9561 11.3927 12.6822 11 13.5 11C14.8807 11 16 12.1193 16 13.5C16 14.8807 14.8807 16 13.5 16C12.6822 16 11.9561 15.6073 11.5 15.0002C11.0439 15.6073 10.3178 16 9.5 16C8.11929 16 7 14.8807 7 13.5C7 12.1193 8.11929 11 9.5 11ZM10.9146 13H9.5C9.22386 13 9 13.2239 9 13.5C9 13.7761 9.22386 14 9.5 14H10.9146C10.7087 14.5826 10.1531 15 9.5 15C8.67157 15 8 14.3284 8 13.5C8 12.6716 8.67157 12 9.5 12C10.1531 12 10.7087 12.4174 10.9146 13ZM12.0854 14H13.5C13.7761 14 14 13.7761 14 13.5C14 13.2239 13.7761 13 13.5 13H12.0854C12.2913 12.4174 12.8469 12 13.5 12C14.3284 12 15 12.6716 15 13.5C15 14.3284 14.3284 15 13.5 15C12.8469 15 12.2913 14.5826 12.0854 14Z" fill="white"/>
<path opacity="0.36" d="M7 4H1V6H7V4Z" fill="#DB2C3A"/>
<path opacity="0.9" d="M7 4V6H1V4H7ZM8 3H0V7H8V3Z" fill="#DB2C3A"/>
<g opacity="0.6">
<path d="M4 14H6V15H3V7H4V14Z" fill="white"/>
<path fill-rule="evenodd" clip-rule="evenodd" d="M4 3V1H9.5V5.5H14V10H15V4.793L10.207 0H3V3H4ZM13.293 4.5L10.5 1.707V4.5H13.293Z" fill="white"/>
</g>
</symbol>
<symbol id="attachment-pdf-link-white" viewBox="0 0 16 16">
<g clip-path="url(#clip0_1358_85557)">
<path opacity="0.4" d="M13.293 4.50003H10.5V1.70703L13.293 4.50003ZM7 6.00003V4.00003H1V6.00003H7Z" fill="white"/>
<path d="M13.5 11C12.678 11 11.956 11.402 11.5 12.014C11.044 11.402 10.321 11 9.5 11C8.119 11 7 12.119 7 13.5C7 14.881 8.119 16 9.5 16C10.322 16 11.045 15.598 11.5 14.986C11.956 15.598 12.678 16 13.5 16C14.881 16 16 14.881 16 13.5C16 12.119 14.881 11 13.5 11ZM9.5 15C8.673 15 8 14.327 8 13.5C8 12.673 8.673 12 9.5 12C10.151 12 10.701 12.419 10.908 13H9.5C9.224 13 9 13.224 9 13.5C9 13.776 9.224 14 9.5 14H10.908C10.701 14.581 10.151 15 9.5 15ZM13.5 15C12.849 15 12.299 14.581 12.092 14H13.5C13.776 14 14 13.776 14 13.5C14 13.224 13.776 13 13.5 13H12.092C12.299 12.419 12.849 12 13.5 12C14.327 12 15 12.673 15 13.5C15 14.327 14.327 15 13.5 15ZM10.207 0H3V3H0V7H3V15H6V14H4V7H8V3H4V1H9.5V5.5H14V10H15V4.793L10.207 0ZM7 4V6H1V4H7ZM10.5 4.5V1.707L13.293 4.5H10.5Z" fill="white"/>
</g>
<defs>
<clipPath id="clip0_1358_85557">
<rect width="16" height="16" fill="white"/>
</clipPath>
</defs>
</symbol>
<use xlink:href="#attachment-pdf-link-light" viewBox="0 0 16 16"/>
</svg>