<!-- This file is part of Zotero. It is distributed under the GNU Affero General Public License version 3. -->
<svg xmlns="http://www.w3.org/2000/svg" xmlns:xlink="http://www.w3.org/1999/xlink">
<symbol id="attachment-image-light" viewBox="0 0 16 16">
<path opacity="0.5" d="M9.70706 0H1.5V16H14.5V4.793L9.70706 0Z" fill="white"/>
<path d="M9.29295 1L13.5 5.207V15H2.49998V1H9.29295Z" fill="white"/>
<path opacity="0.2" d="M9.707 0H1.5V16H14.5V4.793L9.707 0ZM10 1.707L12.793 4.5H10V1.707ZM2.5 15V1H9V5.5H13.5V15H2.5Z" fill="black"/>
<path opacity="0.08" d="M10 1.70703V4.5H12.793L10 1.70703Z" fill="black"/>
<path d="M6.25 7.5C6.94036 7.5 7.5 6.94036 7.5 6.25C7.5 5.55964 6.94036 5 6.25 5C5.55964 5 5 5.55964 5 6.25C5 6.94036 5.55964 7.5 6.25 7.5Z" fill="#FF794C"/>
<path fill-rule="evenodd" clip-rule="evenodd" d="M7.00002 10.8571L9 8L12.5 13H5.5L5.50005 12.9999H3.5L6 9.4285L7.00002 10.8571Z" fill="#39BF68"/>
</symbol>
<symbol id="attachment-image-dark" viewBox="0 0 16 16">
<path opacity="0.6" d="M9.707 0H1.5V16H14.5V4.793L9.707 0ZM10 1.707L12.793 4.5H10V1.707ZM2.5 15V1H9V5.5H13.5V15H2.5Z" fill="white"/>
<path opacity="0.24" d="M10 1.70703V4.5H12.793L10 1.70703Z" fill="white"/>
<path opacity="0.8" d="M6.25 7.5C6.94036 7.5 7.5 6.94036 7.5 6.25C7.5 5.55964 6.94036 5 6.25 5C5.55964 5 5 5.55964 5 6.25C5 6.94036 5.55964 7.5 6.25 7.5Z" fill="#FF794C"/>
<path opacity="0.85" fill-rule="evenodd" clip-rule="evenodd" d="M7.00002 10.8571L9 8L12.5 13H5.5L5.50005 12.9999H3.5L6 9.4285L7.00002 10.8571Z" fill="#39BF68"/>
</symbol>
<symbol id="attachment-image-white" viewBox="0 0 16 16">
<path d="M9.707 0H1.5V16H14.5V4.793L9.707 0ZM10 1.707L12.793 4.5H10V1.707ZM2.5 15V1H9V5.5H13.5V15H2.5Z" fill="white"/>
<path d="M6.25 7.5C6.94036 7.5 7.5 6.94036 7.5 6.25C7.5 5.55964 6.94036 5 6.25 5C5.55964 5 5 5.55964 5 6.25C5 6.94036 5.55964 7.5 6.25 7.5Z" fill="white"/>
<path opacity="0.6" fill-rule="evenodd" clip-rule="evenodd" d="M7.00002 10.8571L9 8L12.5 13H5.5L5.50005 12.9999H3.5L6 9.4285L7.00002 10.8571Z" fill="white"/>
<path opacity="0.4" d="M10 1.70703V4.5H12.793L10 1.70703Z" fill="white"/>
</symbol>
<use xlink:href="#attachment-image-light" viewBox="0 0 16 16"/>
</svg>