<!-- This file is part of Zotero. It is distributed under the GNU Affero General Public License version 3. -->
<svg xmlns="http://www.w3.org/2000/svg" xmlns:xlink="http://www.w3.org/1999/xlink">
<symbol id="audio-recording-light" viewBox="0 0 16 16">
<path d="M7 2.5C7 2.10218 7.15804 1.72064 7.43934 1.43934C7.72064 1.15804 8.10218 1 8.5 1C8.89782 1 9.27936 1.15804 9.56066 1.43934C9.84196 1.72064 10 2.10218 10 2.5V8.5C10 8.89782 9.84196 9.27936 9.56066 9.56066C9.27936 9.84196 8.89782 10 8.5 10C8.10218 10 7.72064 9.84196 7.43934 9.56066C7.15804 9.27936 7 8.89782 7 8.5V2.5Z" fill="#DADADA"/>
<path d="M8.5 0C7.83696 0 7.20107 0.263392 6.73223 0.732233C6.26339 1.20107 6 1.83696 6 2.5V8.5C6 9.16304 6.26339 9.79893 6.73223 10.2678C7.20107 10.7366 7.83696 11 8.5 11C9.16304 11 9.79893 10.7366 10.2678 10.2678C10.7366 9.79893 11 9.16304 11 8.5V2.5C11 1.83696 10.7366 1.20107 10.2678 0.732233C9.79893 0.263392 9.16304 0 8.5 0ZM10 8.5C10 8.89782 9.84196 9.27936 9.56066 9.56066C9.27936 9.84196 8.89782 10 8.5 10C8.10218 10 7.72064 9.84196 7.43934 9.56066C7.15804 9.27936 7 8.89782 7 8.5V2.5C7 2.10218 7.15804 1.72064 7.43934 1.43934C7.72064 1.15804 8.10218 1 8.5 1C8.89782 1 9.27936 1.15804 9.56066 1.43934C9.84196 1.72064 10 2.10218 10 2.5V8.5ZM9 12.949V15H12V16H5V15H8V12.949C6.90305 12.8286 5.88887 12.3084 5.15106 11.4878C4.41325 10.6671 4.00349 9.60353 4 8.5V6H5V8.5C5 9.42826 5.36875 10.3185 6.02513 10.9749C6.6815 11.6313 7.57174 12 8.5 12C9.42826 12 10.3185 11.6313 10.9749 10.9749C11.6313 10.3185 12 9.42826 12 8.5V6H13V8.5C12.9965 9.60353 12.5868 10.6671 11.8489 11.4878C11.1111 12.3084 10.0969 12.8286 9 12.949Z" fill="#444444"/>
</symbol>
<symbol id="audio-recording-dark" viewBox="0 0 16 16">
<path opacity="0.12" d="M7 2.5C7 2.10218 7.15804 1.72064 7.43934 1.43934C7.72064 1.15804 8.10218 1 8.5 1C8.89782 1 9.27936 1.15804 9.56066 1.43934C9.84196 1.72064 10 2.10218 10 2.5V8.5C10 8.89782 9.84196 9.27936 9.56066 9.56066C9.27936 9.84196 8.89782 10 8.5 10C8.10218 10 7.72064 9.84196 7.43934 9.56066C7.15804 9.27936 7 8.89782 7 8.5V2.5Z" fill="white"/>
<path opacity="0.6" d="M8.5 0C7.83696 0 7.20107 0.263392 6.73223 0.732233C6.26339 1.20107 6 1.83696 6 2.5V8.5C6 9.16304 6.26339 9.79893 6.73223 10.2678C7.20107 10.7366 7.83696 11 8.5 11C9.16304 11 9.79893 10.7366 10.2678 10.2678C10.7366 9.79893 11 9.16304 11 8.5V2.5C11 1.83696 10.7366 1.20107 10.2678 0.732233C9.79893 0.263392 9.16304 0 8.5 0ZM10 8.5C10 8.89782 9.84196 9.27936 9.56066 9.56066C9.27936 9.84196 8.89782 10 8.5 10C8.10218 10 7.72064 9.84196 7.43934 9.56066C7.15804 9.27936 7 8.89782 7 8.5V2.5C7 2.10218 7.15804 1.72064 7.43934 1.43934C7.72064 1.15804 8.10218 1 8.5 1C8.89782 1 9.27936 1.15804 9.56066 1.43934C9.84196 1.72064 10 2.10218 10 2.5V8.5ZM9 12.949V15H12V16H5V15H8V12.949C6.90305 12.8286 5.88887 12.3084 5.15106 11.4878C4.41325 10.6671 4.00349 9.60353 4 8.5V6H5V8.5C5 9.42826 5.36875 10.3185 6.02513 10.9749C6.6815 11.6313 7.57174 12 8.5 12C9.42826 12 10.3185 11.6313 10.9749 10.9749C11.6313 10.3185 12 9.42826 12 8.5V6H13V8.5C12.9965 9.60353 12.5868 10.6671 11.8489 11.4878C11.1111 12.3084 10.0969 12.8286 9 12.949Z" fill="white"/>
</symbol>
<symbol id="audio-recording-white" viewBox="0 0 16 16">
<path opacity="0.2" d="M7 2.5C7 1.673 7.673 1 8.5 1C9.327 1 10 1.673 10 2.5V8.5C10 9.327 9.327 10 8.5 10C7.673 10 7 9.327 7 8.5V2.5Z" fill="white"/>
<path d="M8.5 0C7.119 0 6 1.119 6 2.5V8.5C6 9.881 7.119 11 8.5 11C9.881 11 11 9.881 11 8.5V2.5C11 1.119 9.881 0 8.5 0ZM10 8.5C10 9.327 9.327 10 8.5 10C7.673 10 7 9.327 7 8.5V2.5C7 1.673 7.673 1 8.5 1C9.327 1 10 1.673 10 2.5V8.5ZM9 12.949V15H12V16H5V15H8V12.949C5.756 12.697 4 10.81 4 8.5V6H5V8.5C5 10.43 6.57 12 8.5 12C10.43 12 12 10.43 12 8.5V6H13V8.5C13 10.81 11.244 12.697 9 12.949Z" fill="white"/>
</symbol>
<use xlink:href="#audio-recording-light" viewBox="0 0 16 16"/>
</svg>