<svg xmlns="http://www.w3.org/2000/svg" xmlns:xlink="http://www.w3.org/1999/xlink">
<symbol id="bill-light" viewBox="0 0 16 16">
<path d="M12.5 9C12.5 7 10.463 6.282 8.66502 5.653C6.75302 4.984 5.50002 4.455 5.50002 3.25C5.50002 2.187 6.48102 1.5 8.00002 1.5C9.51902 1.5 10.5 2.285 10.5 3.5H11.5C11.5 1.706 10.094 0.5 8.00002 0.5C5.90602 0.5 4.50002 1.605 4.50002 3.25C4.49551 3.7734 4.66506 4.28346 4.98202 4.7C4.53911 4.89911 4.16341 5.22232 3.90039 5.63052C3.63737 6.03872 3.4983 6.5144 3.50002 7C3.50002 9.005 5.53702 9.718 7.33502 10.347C9.24702 11.017 10.5 11.547 10.5 12.747C10.5 13.81 9.51902 14.497 8.00002 14.497C6.48102 14.497 5.50002 13.712 5.50002 12.497H4.50002C4.50002 14.291 5.90602 15.497 8.00002 15.497C10.094 15.497 11.5 14.392 11.5 12.747C11.5049 12.2257 11.3368 11.7176 11.022 11.302C11.4638 11.1012 11.8382 10.7772 12.1004 10.3689C12.3626 9.96058 12.5013 9.48525 12.5 9ZM10.232 10.546C9.42801 10.0574 8.56552 9.6724 7.66502 9.4C5.75302 8.733 4.50002 8.205 4.50002 7C4.50972 6.63897 4.63811 6.2912 4.86533 6.01048C5.09255 5.72975 5.40594 5.53172 5.75702 5.447C6.56391 5.93923 7.43021 6.32668 8.33502 6.6C10.247 7.266 11.5 7.8 11.5 9C11.4872 9.361 11.3561 9.7078 11.1271 9.98711C10.898 10.2664 10.5835 10.4628 10.232 10.546Z" fill="#CC9200"/>
</symbol>
<symbol id="bill-dark" viewBox="0 0 16 16">
<path opacity="0.85" d="M12.5 9C12.5 7 10.463 6.282 8.66502 5.653C6.75302 4.984 5.50002 4.455 5.50002 3.25C5.50002 2.187 6.48102 1.5 8.00002 1.5C9.51902 1.5 10.5 2.285 10.5 3.5H11.5C11.5 1.706 10.094 0.5 8.00002 0.5C5.90602 0.5 4.50002 1.605 4.50002 3.25C4.49551 3.7734 4.66506 4.28346 4.98202 4.7C4.53911 4.89911 4.16341 5.22232 3.90039 5.63052C3.63737 6.03872 3.4983 6.5144 3.50002 7C3.50002 9.005 5.53702 9.718 7.33502 10.347C9.24702 11.017 10.5 11.547 10.5 12.747C10.5 13.81 9.51902 14.497 8.00002 14.497C6.48102 14.497 5.50002 13.712 5.50002 12.497H4.50002C4.50002 14.291 5.90602 15.497 8.00002 15.497C10.094 15.497 11.5 14.392 11.5 12.747C11.5049 12.2257 11.3368 11.7176 11.022 11.302C11.4638 11.1012 11.8382 10.7772 12.1004 10.3689C12.3626 9.96058 12.5013 9.48525 12.5 9ZM10.232 10.546C9.42801 10.0574 8.56552 9.6724 7.66502 9.4C5.75302 8.733 4.50002 8.205 4.50002 7C4.50972 6.63897 4.63811 6.2912 4.86533 6.01048C5.09255 5.72975 5.40594 5.53172 5.75702 5.447C6.56391 5.93923 7.43021 6.32668 8.33502 6.6C10.247 7.266 11.5 7.8 11.5 9C11.4872 9.361 11.3561 9.7078 11.1271 9.98711C10.898 10.2664 10.5835 10.4628 10.232 10.546Z" fill="#CC9200"/>
</symbol>
<symbol id="bill-white" viewBox="0 0 16 16">
<path d="M12.5 9C12.5 6.996 10.463 6.282 8.665 5.653C6.753 4.984 5.5 4.455 5.5 3.25C5.5 2.187 6.481 1.5 8 1.5C9.519 1.5 10.5 2.285 10.5 3.5H11.5C11.5 1.706 10.094 0.5 8 0.5C5.906 0.5 4.5 1.605 4.5 3.25C4.5 3.838 4.689 4.305 4.982 4.701C4.059 5.168 3.5 5.973 3.5 7C3.5 9.005 5.537 9.718 7.335 10.347C9.247 11.017 10.5 11.545 10.5 12.75C10.5 13.813 9.519 14.5 8 14.5C6.481 14.5 5.5 13.715 5.5 12.5H4.5C4.5 14.294 5.906 15.5 8 15.5C10.094 15.5 11.5 14.395 11.5 12.75C11.5 12.165 11.313 11.7 11.022 11.305C11.944 10.837 12.5 10.027 12.5 9ZM10.232 10.546C9.501 10.047 8.555 9.715 7.665 9.403C5.753 8.733 4.5 8.205 4.5 7C4.5 6.268 4.97 5.72 5.757 5.447C6.489 5.95 7.441 6.284 8.335 6.597C10.247 7.266 11.5 7.795 11.5 9C11.5 9.732 11.018 10.272 10.232 10.546Z" fill="white"/>
</symbol>
<use xlink:href="#bill-light" viewBox="0 0 16 16"/>
</svg>