<svg xmlns="http://www.w3.org/2000/svg" xmlns:xlink="http://www.w3.org/1999/xlink">
<symbol id="book-section-light" viewBox="0 0 16 16">
<path d="M8.438 1.872L8.219 1.723C7.289 1.092 4.8 0.607 2.016 0.517L1.5 0.5V13.5L1.985 13.515C3.96636 13.5226 5.93509 13.8308 7.824 14.429L8.5 14.684V2.179L8.438 1.872Z" fill="#B3C7F5"/>
<path d="M8.562 1.872L8.781 1.723C9.711 1.092 12.204 0.607 14.981 0.517L15.5 0.5V13.5L15.015 13.515C13.0336 13.5226 11.0649 13.8308 9.176 14.429L8.5 14.684V2.179L8.562 1.872Z" fill="white"/>
<path d="M8.5 1.309C7.374 0.546 4.446 0 1 0V14C3.37737 13.9087 5.75101 14.26 8 15.036C8.17376 15.1133 8.34098 15.2046 8.5 15.309C8.65902 15.2046 8.82624 15.1133 9 15.036C11.249 14.26 13.6226 13.9087 16 14V0C12.554 0 9.626 0.546 8.5 1.309ZM8 13.961C6.06008 13.341 4.03659 13.0219 2 13.015V1.015C4.961 1.115 7.188 1.627 7.939 2.136L8 2.178V13.961ZM15 13.015C12.9634 13.0219 10.9399 13.341 9 13.961V2.179L9.061 2.137C9.812 1.628 12.039 1.113 15 1.016V13.015Z" fill="#4072E5"/>
<path d="M14 4.06601C12.6472 4.13532 11.306 4.35159 10 4.71101V3.67001C11.3108 3.34112 12.6504 3.14018 14 3.07001V4.06601ZM14 6.06601C12.6471 6.13504 11.3058 6.35166 10 6.71201V5.67101C11.3107 5.34159 12.6503 5.14064 14 5.07101V6.06601ZM14 10.066C12.6471 10.135 11.3058 10.3517 10 10.712V9.67101C11.3107 9.34159 12.6503 9.14064 14 9.07101V10.066ZM14 8.06601C12.6471 8.13504 11.3058 8.35166 10 8.71201V7.67101C11.3107 7.34159 12.6503 7.14064 14 7.07101V8.06601Z" fill="#444444"/>
</symbol>
<symbol id="book-section-dark" viewBox="0 0 16 16">
<path opacity="0.2" d="M8.438 1.872L8.219 1.723C7.289 1.092 4.8 0.607 2.016 0.517L1.5 0.5V13.5L1.985 13.515C3.96636 13.5226 5.93509 13.8308 7.824 14.429L8.5 14.684V2.179L8.438 1.872Z" fill="#4072E5"/>
<path d="M8.5 1.309C7.374 0.546 4.446 0 1 0V14C3.37737 13.9087 5.75101 14.26 8 15.036C8.17376 15.1133 8.34098 15.2046 8.5 15.309C8.65902 15.2046 8.82624 15.1133 9 15.036C11.249 14.26 13.6226 13.9087 16 14V0C12.554 0 9.626 0.546 8.5 1.309ZM8 13.961C6.06008 13.341 4.03659 13.0219 2 13.015V1.015C4.961 1.115 7.188 1.627 7.939 2.136L8 2.178V13.961ZM15 13.015C12.9634 13.0219 10.9399 13.341 9 13.961V2.179L9.061 2.137C9.812 1.628 12.039 1.113 15 1.016V13.015Z" fill="#4072E5"/>
<path opacity="0.6" d="M14 4.06601C12.6472 4.13532 11.306 4.35159 10 4.71101V3.67001C11.3108 3.34112 12.6504 3.14018 14 3.07001V4.06601ZM14 6.06601C12.6471 6.13504 11.3058 6.35166 10 6.71201V5.67101C11.3107 5.34159 12.6503 5.14064 14 5.07101V6.06601ZM14 10.066C12.6471 10.135 11.3058 10.3517 10 10.712V9.67101C11.3107 9.34159 12.6503 9.14064 14 9.07101V10.066ZM14 8.06601C12.6471 8.13504 11.3058 8.35166 10 8.71201V7.67101C11.3107 7.34159 12.6503 7.14064 14 7.07101V8.06601Z" fill="white"/>
</symbol>
<symbol id="book-section-white" viewBox="0 0 16 16">
<path opacity="0.2" d="M8.438 1.872L8.219 1.723C7.289 1.092 4.796 0.608 2.016 0.517L1.5 0.5V13.5L1.985 13.515C4.341 13.585 6.47 13.919 7.824 14.429L8.5 14.684V2.179L8.438 1.872Z" fill="white"/>
<path d="M14 4.06601C12.313 4.17901 10.951 4.42401 10 4.71101V3.67001C11.081 3.37501 12.466 3.17001 14 3.07001V4.06601ZM14 6.06601C12.313 6.17901 10.951 6.42401 10 6.71101V5.67001C11.081 5.37501 12.466 5.16901 14 5.07001V6.06601ZM14 10.066C12.313 10.179 10.951 10.424 10 10.711V9.67001C11.081 9.37501 12.466 9.16901 14 9.07001V10.066ZM14 8.06601C12.313 8.17901 10.951 8.42401 10 8.71101V7.67001C11.081 7.37501 12.466 7.16901 14 7.07001V8.06601Z" fill="white"/>
<path d="M8.5 1.309C7.374 0.546 4.446 0 1 0V14C4.019 14 6.64 14.419 8 15.036C8.193 15.123 8.36 15.215 8.5 15.309C8.64 15.214 8.807 15.123 9 15.036C10.36 14.419 12.981 14 16 14V0C12.554 0 9.626 0.546 8.5 1.309ZM8 13.96C6.587 13.428 4.434 13.087 2 13.014V1.016C4.961 1.113 7.188 1.628 7.939 2.137L8 2.179V13.961V13.96ZM15 13.014C12.566 13.087 10.413 13.428 9 13.96V2.179L9.061 2.137C9.812 1.628 12.039 1.113 15 1.016V13.015V13.014Z" fill="white"/>
</symbol>
<use xlink:href="#book-section-light" viewBox="0 0 16 16"/>
</svg>