<svg xmlns="http://www.w3.org/2000/svg" xmlns:xlink="http://www.w3.org/1999/xlink">
<symbol id="case-light" viewBox="0 0 16 16">
<path opacity="0.5" d="M4.99989 11H0.999891C0.922521 11 0.846201 10.9821 0.776938 10.9476C0.707675 10.9131 0.647359 10.863 0.600735 10.8013C0.554112 10.7395 0.522453 10.6678 0.508251 10.5918C0.49405 10.5157 0.497692 10.4374 0.518891 10.363L2.51889 3.36299C2.5486 3.25832 2.61164 3.1662 2.69845 3.1006C2.78525 3.035 2.89109 2.99951 2.99989 2.99951C3.10869 2.99951 3.21453 3.035 3.30134 3.1006C3.38814 3.1662 3.45118 3.25832 3.48089 3.36299L5.48089 10.363C5.50209 10.4374 5.50573 10.5157 5.49153 10.5918C5.47733 10.6678 5.44567 10.7395 5.39905 10.8013C5.35242 10.863 5.29211 10.9131 5.22284 10.9476C5.15358 10.9821 5.07726 11 4.99989 11ZM1.66289 9.99999H4.33689L2.99989 5.31999L1.66289 9.99999ZM14.9999 11H10.9999C10.9225 11 10.8462 10.9821 10.7769 10.9476C10.7077 10.9131 10.6474 10.863 10.6007 10.8013C10.5541 10.7395 10.5225 10.6678 10.5083 10.5918C10.494 10.5157 10.4977 10.4374 10.5189 10.363L12.5189 3.36299C12.5486 3.25832 12.6116 3.1662 12.6984 3.1006C12.7853 3.035 12.8911 2.99951 12.9999 2.99951C13.1087 2.99951 13.2145 3.035 13.3013 3.1006C13.3881 3.1662 13.4512 3.25832 13.4809 3.36299L15.4809 10.363C15.5021 10.4374 15.5057 10.5157 15.4915 10.5918C15.4773 10.6678 15.4457 10.7395 15.399 10.8013C15.3524 10.863 15.2921 10.9131 15.2228 10.9476C15.1536 10.9821 15.0773 11 14.9999 11ZM11.6629 9.99999H14.3369L12.9999 5.31999L11.6629 9.99999Z" fill="white"/>
<path opacity="0.2" d="M4.99989 11H0.999891C0.922521 11 0.846201 10.9821 0.776938 10.9476C0.707675 10.9131 0.647359 10.863 0.600735 10.8013C0.554112 10.7395 0.522453 10.6678 0.508251 10.5918C0.49405 10.5157 0.497692 10.4374 0.518891 10.363L2.51889 3.36299C2.5486 3.25832 2.61164 3.1662 2.69845 3.1006C2.78525 3.035 2.89109 2.99951 2.99989 2.99951C3.10869 2.99951 3.21453 3.035 3.30134 3.1006C3.38814 3.1662 3.45118 3.25832 3.48089 3.36299L5.48089 10.363C5.50209 10.4374 5.50573 10.5157 5.49153 10.5918C5.47733 10.6678 5.44567 10.7395 5.39905 10.8013C5.35242 10.863 5.29211 10.9131 5.22284 10.9476C5.15358 10.9821 5.07726 11 4.99989 11ZM1.66289 9.99999H4.33689L2.99989 5.31999L1.66289 9.99999ZM14.9999 11H10.9999C10.9225 11 10.8462 10.9821 10.7769 10.9476C10.7077 10.9131 10.6474 10.863 10.6007 10.8013C10.5541 10.7395 10.5225 10.6678 10.5083 10.5918C10.494 10.5157 10.4977 10.4374 10.5189 10.363L12.5189 3.36299C12.5486 3.25832 12.6116 3.1662 12.6984 3.1006C12.7853 3.035 12.8911 2.99951 12.9999 2.99951C13.1087 2.99951 13.2145 3.035 13.3013 3.1006C13.3881 3.1662 13.4512 3.25832 13.4809 3.36299L15.4809 10.363C15.5021 10.4374 15.5057 10.5157 15.4915 10.5918C15.4773 10.6678 15.4457 10.7395 15.399 10.8013C15.3524 10.863 15.2921 10.9131 15.2228 10.9476C15.1536 10.9821 15.0773 11 14.9999 11ZM11.6629 9.99999H14.3369L12.9999 5.31999L11.6629 9.99999Z" fill="black"/>
<path d="M5 10.5C5 11.8398 4.33984 12.5 3 12.5C1.66016 12.5 1 11.8398 1 10.5H5ZM15 10.5C15 11.8398 14.3398 12.5 13 12.5C11.6602 12.5 11 11.8398 11 10.5H15Z" fill="#EBD399"/>
<path d="M14.4609 11C14.3281 11.7031 13.8789 12 13 12C12.1211 12 11.6719 11.7031 11.5391 11H14.4609ZM15.5 10.5C15.5 10.2227 15.2773 10 15 10H11C10.7227 10 10.5 10.2227 10.5 10.5C10.5 12.1133 11.3867 13 13 13C14.6133 13 15.5 12.1133 15.5 10.5ZM4.46094 11C4.32812 11.7031 3.87891 12 3 12C2.12109 12 1.67188 11.7031 1.53906 11H4.46094ZM5.5 10.5C5.5 10.2227 5.27734 10 5 10H1C0.722656 10 0.5 10.2227 0.5 10.5C0.5 12.1133 1.38672 13 3 13C4.61328 13 5.5 12.1133 5.5 10.5ZM11 15H9.5C9.5 14.4492 9.05078 14 8.5 14V4H7.5V14C6.94922 14 6.5 14.4492 6.5 15H5C4.72266 15 4.5 15.2227 4.5 15.5C4.5 15.7773 4.72266 16 5 16H11C11.2773 16 11.5 15.7773 11.5 15.5C11.5 15.2227 11.2773 15 11 15ZM13.5 2.5C13.5 2.77734 13.2773 3 13 3H3C2.72266 3 2.5 2.77734 2.5 2.5C2.5 2.22266 2.72266 2 3 2H7.5V0.5C7.5 0.222656 7.72266 0 8 0C8.27734 0 8.5 0.222656 8.5 0.5V2H13C13.2773 2 13.5 2.22266 13.5 2.5Z" fill="#CC9200"/>
</symbol>
<symbol id="case-dark" viewBox="0 0 16 16">
<g opacity="0.34">
<path d="M13 12C13.8789 12 14.3281 11.7031 14.4609 11H11.5391C11.6719 11.7031 12.1211 12 13 12Z" fill="#CC9200"/>
<path d="M3 12C3.87891 12 4.32813 11.7031 4.46094 11H1.53906C1.67188 11.7031 2.12109 12 3 12Z" fill="#CC9200"/>
</g>
<g opacity="0.6">
<path fill-rule="evenodd" clip-rule="evenodd" d="M2.98435 2.99976C2.88111 3.00301 2.78126 3.03817 2.69864 3.1006C2.61184 3.1662 2.5488 3.25832 2.51909 3.36299L0.521729 10.3538C0.545453 10.2762 0.587912 10.2048 0.646308 10.1465C0.740076 10.0527 0.867253 10 0.999862 10H4.99986C5.13247 10 5.25965 10.0527 5.35342 10.1465C5.44718 10.2402 5.49986 10.3674 5.49986 10.5L5.50021 10.5031C5.5005 10.4558 5.49411 10.4087 5.48109 10.363L3.48109 3.36299C3.45138 3.25832 3.38834 3.1662 3.30153 3.1006C3.22062 3.03946 3.12316 3.00447 3.02219 3H2.99986C2.99468 3 2.98951 2.99992 2.98435 2.99976ZM4.33709 9.99999H1.66309L3.00009 5.31999L4.33709 9.99999Z" fill="white"/>
<path fill-rule="evenodd" clip-rule="evenodd" d="M12.978 3C12.877 3.00447 12.7796 3.03946 12.6986 3.1006C12.6118 3.1662 12.5488 3.25832 12.5191 3.36299L10.5217 10.3537C10.5455 10.2762 10.5879 10.2048 10.6463 10.1465C10.7401 10.0527 10.8673 10 10.9999 10H14.9999C15.1325 10 15.2596 10.0527 15.3534 10.1465C15.4472 10.2402 15.4999 10.3674 15.4999 10.5L15.5002 10.5031C15.5005 10.4559 15.4941 10.4087 15.4811 10.363L13.4811 3.36299C13.4514 3.25832 13.3883 3.1662 13.3015 3.1006C13.2189 3.03813 13.1189 3.00296 13.0156 2.99976C13.0104 2.99992 13.0051 3 12.9999 3H12.978ZM14.3371 9.99999H11.6631L13.0001 5.31999L14.3371 9.99999Z" fill="white"/>
</g>
<path opacity="0.85" d="M14.4609 11C14.3281 11.7031 13.8789 12 13 12C12.1211 12 11.6719 11.7031 11.5391 11H14.4609ZM15.5 10.5C15.5 10.2227 15.2773 10 15 10H11C10.7227 10 10.5 10.2227 10.5 10.5C10.5 12.1133 11.3867 13 13 13C14.6133 13 15.5 12.1133 15.5 10.5ZM4.46094 11C4.32812 11.7031 3.87891 12 3 12C2.12109 12 1.67188 11.7031 1.53906 11H4.46094ZM5.5 10.5C5.5 10.2227 5.27734 10 5 10H1C0.722656 10 0.5 10.2227 0.5 10.5C0.5 12.1133 1.38672 13 3 13C4.61328 13 5.5 12.1133 5.5 10.5ZM11 15H9.5C9.5 14.4492 9.05078 14 8.5 14V4H7.5V14C6.94922 14 6.5 14.4492 6.5 15H5C4.72266 15 4.5 15.2227 4.5 15.5C4.5 15.7773 4.72266 16 5 16H11C11.2773 16 11.5 15.7773 11.5 15.5C11.5 15.2227 11.2773 15 11 15ZM13.5 2.5C13.5 2.77734 13.2773 3 13 3H3C2.72266 3 2.5 2.77734 2.5 2.5C2.5 2.22266 2.72266 2 3 2H7.5V0.5C7.5 0.222656 7.72266 0 8 0C8.27734 0 8.5 0.222656 8.5 0.5V2H13C13.2773 2 13.5 2.22266 13.5 2.5Z" fill="#CC9200"/>
</symbol>
<symbol id="case-white" viewBox="0 0 16 16">
<g clip-path="url(#clip0_143_1394)">
<path opacity="0.4" d="M5 10.5C5 11.839 4.34 12.5 3 12.5C1.66 12.5 1 11.839 1 10.5H5ZM11 10.5C11 11.839 11.66 12.5 13 12.5C14.34 12.5 15 11.839 15 10.5H11Z" fill="white"/>
<path d="M15.483 10.417C15.48 10.399 15.486 10.38 15.48 10.362L13.48 3.362C13.419 3.147 13.222 2.999 12.999 2.999C12.776 2.999 12.58 3.147 12.518 3.362L10.518 10.362C10.513 10.38 10.518 10.399 10.515 10.417C10.51 10.445 10.498 10.47 10.498 10.5C10.498 12.112 11.386 13 12.998 13C14.61 13 15.498 12.112 15.498 10.5C15.498 10.471 15.486 10.445 15.481 10.417H15.483ZM13 5.32L14.337 10H11.663L13 5.32ZM13 12C12.12 12 11.67 11.703 11.541 11H14.459C14.33 11.703 13.88 12 13 12ZM5.5 10.5C5.5 10.47 5.488 10.445 5.483 10.417C5.48 10.399 5.486 10.381 5.48 10.363L3.481 3.363C3.42 3.148 3.223 3 3 3C2.777 3 2.581 3.148 2.519 3.363L0.519 10.363C0.514 10.381 0.519 10.4 0.516 10.419C0.511 10.447 0.5 10.472 0.5 10.501C0.5 12.113 1.388 13.001 3 13.001C4.612 13.001 5.5 12.113 5.5 10.501V10.5ZM3 5.32L4.337 10H1.663L3 5.32ZM3 12C2.12 12 1.67 11.703 1.541 11H4.459C4.33 11.703 3.88 12 3 12ZM13 3H3C2.724 3 2.5 2.776 2.5 2.5C2.5 2.224 2.724 2 3 2H7.5V0.5C7.5 0.224 7.724 0 8 0C8.276 0 8.5 0.224 8.5 0.5V2H13C13.276 2 13.5 2.224 13.5 2.5C13.5 2.776 13.276 3 13 3ZM11.5 15.5C11.5 15.776 11.276 16 11 16H5C4.724 16 4.5 15.776 4.5 15.5C4.5 15.224 4.724 15 5 15H6.5C6.5 14.448 6.948 14 7.5 14V4H8.5V14C9.052 14 9.5 14.448 9.5 15H11C11.276 15 11.5 15.224 11.5 15.5Z" fill="white"/>
</g>
<defs>
<clipPath id="clip0_143_1394">
<rect width="16" height="16" fill="white"/>
</clipPath>
</defs>
</symbol>
<use xlink:href="#case-light" viewBox="0 0 16 16"/>
</svg>