<!-- This file is part of Zotero. It is distributed under the GNU Affero General Public License version 3. -->
<svg xmlns="http://www.w3.org/2000/svg" xmlns:xlink="http://www.w3.org/1999/xlink">
<symbol id="case-light" viewBox="0 0 16 16">
<path opacity="0.5" d="M5.50013 11H1.50014C1.42276 11 1.34645 10.9821 1.27718 10.9476C1.20792 10.9131 1.1476 10.863 1.10098 10.8013C1.05436 10.7395 1.0227 10.6678 1.0085 10.5918C0.994294 10.5157 0.997936 10.4374 1.01914 10.363L3.01914 3.36299C3.04884 3.25832 3.11188 3.1662 3.19869 3.1006C3.2855 3.035 3.39133 2.99951 3.50014 2.99951C3.60894 2.99951 3.71477 3.035 3.80158 3.1006C3.88839 3.1662 3.95143 3.25832 3.98114 3.36299L5.98113 10.363C6.00233 10.4374 6.00598 10.5157 5.99177 10.5918C5.97757 10.6678 5.94591 10.7395 5.89929 10.8013C5.85267 10.863 5.79235 10.9131 5.72309 10.9476C5.65382 10.9821 5.57751 11 5.50013 11ZM2.16314 9.99999H4.83714L3.50014 5.31999L2.16314 9.99999ZM15.5001 11H11.5001C11.4228 11 11.3464 10.9821 11.2772 10.9476C11.2079 10.9131 11.1476 10.863 11.101 10.8013C11.0544 10.7395 11.0227 10.6678 11.0085 10.5918C10.9943 10.5157 10.9979 10.4374 11.0191 10.363L13.0191 3.36299C13.0488 3.25832 13.1119 3.1662 13.1987 3.1006C13.2855 3.035 13.3913 2.99951 13.5001 2.99951C13.6089 2.99951 13.7148 3.035 13.8016 3.1006C13.8884 3.1662 13.9514 3.25832 13.9811 3.36299L15.9811 10.363C16.0023 10.4374 16.006 10.5157 15.9918 10.5918C15.9776 10.6678 15.9459 10.7395 15.8993 10.8013C15.8527 10.863 15.7924 10.9131 15.7231 10.9476C15.6538 10.9821 15.5775 11 15.5001 11ZM12.1631 9.99999H14.8371L13.5001 5.31999L12.1631 9.99999Z" fill="white"/>
<path opacity="0.2" d="M5.50013 11H1.50014C1.42276 11 1.34645 10.9821 1.27718 10.9476C1.20792 10.9131 1.1476 10.863 1.10098 10.8013C1.05436 10.7395 1.0227 10.6678 1.0085 10.5918C0.994294 10.5157 0.997936 10.4374 1.01914 10.363L3.01914 3.36299C3.04884 3.25832 3.11188 3.1662 3.19869 3.1006C3.2855 3.035 3.39133 2.99951 3.50014 2.99951C3.60894 2.99951 3.71477 3.035 3.80158 3.1006C3.88839 3.1662 3.95143 3.25832 3.98114 3.36299L5.98113 10.363C6.00233 10.4374 6.00598 10.5157 5.99177 10.5918C5.97757 10.6678 5.94591 10.7395 5.89929 10.8013C5.85267 10.863 5.79235 10.9131 5.72309 10.9476C5.65382 10.9821 5.57751 11 5.50013 11ZM2.16314 9.99999H4.83714L3.50014 5.31999L2.16314 9.99999ZM15.5001 11H11.5001C11.4228 11 11.3464 10.9821 11.2772 10.9476C11.2079 10.9131 11.1476 10.863 11.101 10.8013C11.0544 10.7395 11.0227 10.6678 11.0085 10.5918C10.9943 10.5157 10.9979 10.4374 11.0191 10.363L13.0191 3.36299C13.0488 3.25832 13.1119 3.1662 13.1987 3.1006C13.2855 3.035 13.3913 2.99951 13.5001 2.99951C13.6089 2.99951 13.7148 3.035 13.8016 3.1006C13.8884 3.1662 13.9514 3.25832 13.9811 3.36299L15.9811 10.363C16.0023 10.4374 16.006 10.5157 15.9918 10.5918C15.9776 10.6678 15.9459 10.7395 15.8993 10.8013C15.8527 10.863 15.7924 10.9131 15.7231 10.9476C15.6538 10.9821 15.5775 11 15.5001 11ZM12.1631 9.99999H14.8371L13.5001 5.31999L12.1631 9.99999Z" fill="black"/>
<path d="M5.50024 10.5C5.50024 11.8398 4.84009 12.5 3.50024 12.5C2.1604 12.5 1.50024 11.8398 1.50024 10.5H5.50024ZM15.5002 10.5C15.5002 11.8398 14.8401 12.5 13.5002 12.5C12.1604 12.5 11.5002 11.8398 11.5002 10.5H15.5002Z" fill="#EBD399"/>
<path d="M14.9612 11C14.8284 11.7031 14.3792 12 13.5002 12C12.6213 12 12.1721 11.7031 12.0393 11H14.9612ZM16.0002 10.5C16.0002 10.2227 15.7776 10 15.5002 10H11.5002C11.2229 10 11.0002 10.2227 11.0002 10.5C11.0002 12.1133 11.887 13 13.5002 13C15.1135 13 16.0002 12.1133 16.0002 10.5ZM4.96118 11C4.82837 11.7031 4.37915 12 3.50024 12C2.62134 12 2.17212 11.7031 2.03931 11H4.96118ZM6.00024 10.5C6.00024 10.2227 5.77759 10 5.50024 10H1.50024C1.2229 10 1.00024 10.2227 1.00024 10.5C1.00024 12.1133 1.88696 13 3.50024 13C5.11353 13 6.00024 12.1133 6.00024 10.5ZM11.5002 15H10.0002C10.0002 14.4492 9.55103 14 9.00024 14V4H8.00024V14C7.44946 14 7.00024 14.4492 7.00024 15H5.50024C5.2229 15 5.00024 15.2227 5.00024 15.5C5.00024 15.7773 5.2229 16 5.50024 16H11.5002C11.7776 16 12.0002 15.7773 12.0002 15.5C12.0002 15.2227 11.7776 15 11.5002 15ZM14.0002 2.5C14.0002 2.77734 13.7776 3 13.5002 3H3.50024C3.2229 3 3.00024 2.77734 3.00024 2.5C3.00024 2.22266 3.2229 2 3.50024 2H8.00024V0.5C8.00024 0.222656 8.2229 0 8.50024 0C8.77759 0 9.00024 0.222656 9.00024 0.5V2H13.5002C13.7776 2 14.0002 2.22266 14.0002 2.5Z" fill="#CC9200"/>
</symbol>
<symbol id="case-dark" viewBox="0 0 16 16">
<g opacity="0.34">
<path d="M13.5 12C14.3789 12 14.8281 11.7031 14.9609 11H12.0391C12.1719 11.7031 12.6211 12 13.5 12Z" fill="#CC9200"/>
<path d="M3.5 12C4.37891 12 4.82813 11.7031 4.96094 11H2.03906C2.17188 11.7031 2.62109 12 3.5 12Z" fill="#CC9200"/>
</g>
<g opacity="0.6">
<path fill-rule="evenodd" clip-rule="evenodd" d="M3.48435 2.99976C3.38111 3.00301 3.28126 3.03817 3.19864 3.1006C3.11184 3.1662 3.0488 3.25832 3.01909 3.36299L1.02173 10.3538C1.04545 10.2762 1.08791 10.2048 1.14631 10.1465C1.24008 10.0527 1.36725 10 1.49986 10H5.49986C5.63247 10 5.75965 10.0527 5.85342 10.1465C5.94718 10.2402 5.99986 10.3674 5.99986 10.5L6.00021 10.5031C6.0005 10.4558 5.99411 10.4087 5.98109 10.363L3.98109 3.36299C3.95138 3.25832 3.88834 3.1662 3.80153 3.1006C3.72062 3.03946 3.62316 3.00447 3.52219 3H3.49986C3.49468 3 3.48951 2.99992 3.48435 2.99976ZM4.83709 9.99999H2.16309L3.50009 5.31999L4.83709 9.99999Z" fill="white"/>
<path fill-rule="evenodd" clip-rule="evenodd" d="M13.478 3C13.377 3.00447 13.2796 3.03946 13.1986 3.1006C13.1118 3.1662 13.0488 3.25832 13.0191 3.36299L11.0217 10.3537C11.0455 10.2762 11.0879 10.2048 11.1463 10.1465C11.2401 10.0527 11.3673 10 11.4999 10H15.4999C15.6325 10 15.7596 10.0527 15.8534 10.1465C15.9472 10.2402 15.9999 10.3674 15.9999 10.5L16.0002 10.5031C16.0005 10.4559 15.9941 10.4087 15.9811 10.363L13.9811 3.36299C13.9514 3.25832 13.8883 3.1662 13.8015 3.1006C13.7189 3.03813 13.6189 3.00296 13.5156 2.99976C13.5104 2.99992 13.5051 3 13.4999 3H13.478ZM14.8371 9.99999H12.1631L13.5001 5.31999L14.8371 9.99999Z" fill="white"/>
</g>
<path opacity="0.85" d="M14.9609 11C14.8281 11.7031 14.3789 12 13.5 12C12.6211 12 12.1719 11.7031 12.0391 11H14.9609ZM16 10.5C16 10.2227 15.7773 10 15.5 10H11.5C11.2227 10 11 10.2227 11 10.5C11 12.1133 11.8867 13 13.5 13C15.1133 13 16 12.1133 16 10.5ZM4.96094 11C4.82812 11.7031 4.37891 12 3.5 12C2.62109 12 2.17188 11.7031 2.03906 11H4.96094ZM6 10.5C6 10.2227 5.77734 10 5.5 10H1.5C1.22266 10 1 10.2227 1 10.5C1 12.1133 1.88672 13 3.5 13C5.11328 13 6 12.1133 6 10.5ZM11.5 15H10C10 14.4492 9.55078 14 9 14V4H8V14C7.44922 14 7 14.4492 7 15H5.5C5.22266 15 5 15.2227 5 15.5C5 15.7773 5.22266 16 5.5 16H11.5C11.7773 16 12 15.7773 12 15.5C12 15.2227 11.7773 15 11.5 15ZM14 2.5C14 2.77734 13.7773 3 13.5 3H3.5C3.22266 3 3 2.77734 3 2.5C3 2.22266 3.22266 2 3.5 2H8V0.5C8 0.222656 8.22266 0 8.5 0C8.77734 0 9 0.222656 9 0.5V2H13.5C13.7773 2 14 2.22266 14 2.5Z" fill="#CC9200"/>
</symbol>
<symbol id="case-white" viewBox="0 0 16 16">
<path opacity="0.4" d="M5.5 10.5C5.5 11.839 4.84 12.5 3.5 12.5C2.16 12.5 1.5 11.839 1.5 10.5H5.5ZM11.5 10.5C11.5 11.839 12.16 12.5 13.5 12.5C14.84 12.5 15.5 11.839 15.5 10.5H11.5Z" fill="white"/>
<path d="M15.983 10.417C15.98 10.399 15.986 10.38 15.98 10.362L13.98 3.362C13.919 3.147 13.722 2.999 13.499 2.999C13.276 2.999 13.08 3.147 13.018 3.362L11.018 10.362C11.013 10.38 11.018 10.399 11.015 10.417C11.01 10.445 10.998 10.47 10.998 10.5C10.998 12.112 11.886 13 13.498 13C15.11 13 15.998 12.112 15.998 10.5C15.998 10.471 15.986 10.445 15.981 10.417H15.983ZM13.5 5.32L14.837 10H12.163L13.5 5.32ZM13.5 12C12.62 12 12.17 11.703 12.041 11H14.959C14.83 11.703 14.38 12 13.5 12ZM6 10.5C6 10.47 5.988 10.445 5.983 10.417C5.98 10.399 5.986 10.381 5.98 10.363L3.981 3.363C3.92 3.148 3.723 3 3.5 3C3.277 3 3.081 3.148 3.019 3.363L1.019 10.363C1.014 10.381 1.019 10.4 1.016 10.419C1.011 10.447 1 10.472 1 10.501C1 12.113 1.888 13.001 3.5 13.001C5.112 13.001 6 12.113 6 10.501V10.5ZM3.5 5.32L4.837 10H2.163L3.5 5.32ZM3.5 12C2.62 12 2.17 11.703 2.041 11H4.959C4.83 11.703 4.38 12 3.5 12ZM13.5 3H3.5C3.224 3 3 2.776 3 2.5C3 2.224 3.224 2 3.5 2H8V0.5C8 0.224 8.224 0 8.5 0C8.776 0 9 0.224 9 0.5V2H13.5C13.776 2 14 2.224 14 2.5C14 2.776 13.776 3 13.5 3ZM12 15.5C12 15.776 11.776 16 11.5 16H5.5C5.224 16 5 15.776 5 15.5C5 15.224 5.224 15 5.5 15H7C7 14.448 7.448 14 8 14V4H9V14C9.552 14 10 14.448 10 15H11.5C11.776 15 12 15.224 12 15.5Z" fill="white"/>
</symbol>
<use xlink:href="#case-light" viewBox="0 0 16 16"/>
</svg>