<!-- This file is part of Zotero. It is distributed under the GNU Affero General Public License version 3. -->
<svg xmlns="http://www.w3.org/2000/svg" xmlns:xlink="http://www.w3.org/1999/xlink">
<symbol id="computer-program-light" viewBox="0 0 16 16">
<path d="M6.1109 13.388L0.7229 7.99999L6.1109 2.61099L6.8889 3.38799L2.2769 7.99999L6.8889 12.611L6.1109 13.388ZM15.2769 7.99999L9.8889 2.61099L9.1109 3.38799L13.7229 7.99999L9.1109 12.611L9.8889 13.388L15.2769 7.99999Z" fill="#39BF68"/>
</symbol>
<symbol id="computer-program-dark" viewBox="0 0 16 16">
<path opacity="0.85" d="M6.1109 13.388L0.7229 7.99999L6.1109 2.61099L6.8889 3.38799L2.2769 7.99999L6.8889 12.611L6.1109 13.388ZM15.2769 7.99999L9.8889 2.61099L9.1109 3.38799L13.7229 7.99999L9.1109 12.611L9.8889 13.388L15.2769 7.99999Z" fill="#39BF68"/>
</symbol>
<symbol id="computer-program-white" viewBox="0 0 16 16">
<path d="M6.1109 13.388L0.7229 7.99999L6.1109 2.61099L6.8879 3.38799L2.2769 7.99999L6.8879 12.611L6.1109 13.388ZM15.2769 7.99899L9.8879 2.60999L9.1109 3.38699L13.7219 7.99799L9.1109 12.609L9.8879 13.386L15.2769 7.99699V7.99899Z" fill="white"/>
</symbol>
<use xlink:href="#computer-program-light" viewBox="0 0 16 16"/>
</svg>