<!-- This file is part of Zotero. It is distributed under the GNU Affero General Public License version 3. -->
<svg xmlns="http://www.w3.org/2000/svg" xmlns:xlink="http://www.w3.org/1999/xlink">
<symbol id="conference-paper-light" viewBox="0 0 16 16">
<path d="M11 5H5V15H11V5Z" fill="#F5E4DC"/>
<path d="M10.4999 3.00002C10.4342 3.00014 10.3691 2.9873 10.3084 2.96225C10.2476 2.9372 10.1924 2.90042 10.1459 2.85402L8.1459 0.854021C8.05201 0.760135 7.99927 0.632797 7.99927 0.500021C7.99927 0.367245 8.05201 0.239908 8.1459 0.146021C8.23979 0.0521346 8.36712 -0.00061035 8.4999 -0.000610352C8.63268 -0.000610354 8.76001 0.0521346 8.8539 0.146021L10.8539 2.14602C10.924 2.21595 10.9718 2.30512 10.9911 2.40223C11.0105 2.49934 11.0006 2.60001 10.9627 2.69148C10.9248 2.78296 10.8605 2.86111 10.7782 2.91604C10.6958 2.97097 10.5989 3.0002 10.4999 3.00002Z" fill="#444444"/>
<path d="M1.59009 2.5L2.42309 7.5H4.50009V4.5H11.5001V7.5H13.5761L14.4101 2.5H1.59009Z" fill="#EBCABA"/>
<path d="M14 8L15 2H1L2 8H4V15H2V16H14V15H12V8H14ZM2.847 7L2.18 3H13.82L13.153 7H12V4H4V7H2.847ZM11 15H5V5H11V15Z" fill="#CC7A52"/>
</symbol>
<symbol id="conference-paper-dark" viewBox="0 0 16 16">
<path opacity="0.2" d="M11 5H5V15H11V5Z" fill="#CC7A52"/>
<path opacity="0.9" d="M14 8L15 2H1L2 8H4V15H2V16H14V15H12V8H14ZM2.847 7L2.18 3H13.82L13.153 7H12V4H4V7H2.847ZM11 15H5V5H11V15Z" fill="#CC7A52"/>
<g opacity="0.6">
<path d="M10.4946 3L10.5001 3.00002L10.5057 3H10.4946Z" fill="white"/>
<path d="M9.29212 2H10.7081L8.85414 0.146021C8.76026 0.0521346 8.63292 -0.000610352 8.50014 -0.000610352C8.36737 -0.000610352 8.24003 0.0521346 8.14614 0.146021C8.05226 0.239908 7.99951 0.367245 7.99951 0.500021C7.99951 0.632797 8.05226 0.760135 8.14614 0.854021L9.29212 2Z" fill="white"/>
</g>
<path opacity="0.4" d="M2.17993 3L2.84693 7H3.99993V4H11.9999V7H13.1529L13.8199 3H2.17993Z" fill="#CC7A52"/>
</symbol>
<symbol id="conference-paper-white" viewBox="0 0 16 16">
<path opacity="0.2" d="M11 5H5V15H11V5Z" fill="white"/>
<path d="M10.5 2.99998C10.372 2.99998 10.244 2.95098 10.146 2.85398L8.14601 0.853982C7.95101 0.658982 7.95101 0.341982 8.14601 0.146982C8.34101 -0.0480176 8.65801 -0.0480176 8.85301 0.146982L10.853 2.14698C11.048 2.34198 11.048 2.65898 10.853 2.85398C10.755 2.95198 10.627 2.99998 10.499 2.99998H10.5Z" fill="white"/>
<path opacity="0.4" d="M1.59009 2.5L2.42309 7.5H4.50009V4.5H11.5001V7.5H13.5761L14.4101 2.5H1.59009Z" fill="white"/>
<path d="M14 8L15 2H1L2 8H4V15H2V16H14V15H12V8H14ZM2.847 7L2.18 3H13.819L13.152 7H11.999V4H4V7H2.847ZM11 15H5V5H11V15Z" fill="white"/>
</symbol>
<use xlink:href="#conference-paper-light" viewBox="0 0 16 16"/>
</svg>