<!-- This file is part of Zotero. It is distributed under the GNU Affero General Public License version 3. -->
<svg xmlns="http://www.w3.org/2000/svg" xmlns:xlink="http://www.w3.org/1999/xlink">
<symbol id="document-light" viewBox="0 0 16 16">
<path opacity="0.5" d="M9.70706 0H2V16H15V5.293L9.70706 0Z" fill="white"/>
<path d="M9.293 1L14 5.707V15H3.00003V1H9.293Z" fill="white"/>
<path opacity="0.2" d="M9.707 0H2V16H15V5.293L9.707 0ZM10 1.707L13.293 5H10V1.707ZM3 15V1H9V6H14V15H3Z" fill="black"/>
<path opacity="0.08" d="M10 1.70697V5H13.293L10 1.70697Z" fill="black"/>
</symbol>
<symbol id="document-dark" viewBox="0 0 16 16">
<path opacity="0.6" d="M9.707 0H2V16H15V5.293L9.707 0ZM10 1.707L13.293 5H10V1.707ZM3 15V1H9V6H14V15H3Z" fill="white"/>
<path opacity="0.24" d="M10 1.70697V5H13.293L10 1.70697Z" fill="white"/>
</symbol>
<symbol id="document-white" viewBox="0 0 16 16">
<path opacity="0.4" d="M10 1.5V5H13.5L10 1.5Z" fill="white"/>
<path d="M9.707 0L2 0V16H15V5.293L9.707 0ZM10 1.707L13.293 5H10V1.707ZM3 15V1H9V6H14V15H3Z" fill="white"/>
</symbol>
<use xlink:href="#document-light" viewBox="0 0 16 16"/>
</svg>