<!-- This file is part of Zotero. It is distributed under the GNU Affero General Public License version 3. -->
<svg xmlns="http://www.w3.org/2000/svg" xmlns:xlink="http://www.w3.org/1999/xlink">
<symbol id="encyclopedia-article-light" viewBox="0 0 16 16">
<path d="M15.5 0.5V13.5C13.2178 13.4532 10.9458 13.818 8.793 14.577C8.693 14.624 8.593 14.677 8.5 14.722C8.409 14.673 8.311 14.622 8.207 14.577C6.05418 13.818 3.78221 13.4532 1.5 13.5V0.5C4.956 0.553 7.39 1.157 8.219 1.719L8.5 1.914L8.781 1.723C9.61 1.161 12.044 0.557 15.5 0.5Z" fill="white"/>
<path opacity="0.4" d="M4 1.15698C4.67185 1.22452 5.33951 1.32868 6 1.46898V10.141L5.551 9.84098L5.142 9.57098L4.678 9.72898L4 9.95898V1.15698Z" fill="#DB2C3A"/>
<path d="M8.5 1.309C8.03341 1.02907 7.52792 0.8198 7 0.688V1.728C7.32975 1.82209 7.64552 1.95963 7.939 2.137L8 2.179V13.961C6.06008 13.341 4.03659 13.0219 2 13.015V1.015C2.344 1.027 2.677 1.045 3 1.066V0.066C2.358 0.028 1.694 0 1 0V14C3.37737 13.9087 5.75101 14.26 8 15.036C8.17376 15.1133 8.34098 15.2046 8.5 15.309C8.65902 15.2046 8.82624 15.1133 9 15.036C11.249 14.26 13.6226 13.9087 16 14V0C12.554 0 9.626 0.546 8.5 1.309ZM15 13.015C12.9634 13.0219 10.9399 13.341 9 13.961V2.179L9.061 2.137C9.812 1.628 12.039 1.113 15 1.016V13.015Z" fill="#4072E5"/>
<path d="M3 0.0689697V11.359L5 10.679L7 12V0.68797C5.6915 0.344636 4.35107 0.137205 3 0.0689697ZM6 10.141L5.551 9.84097L5.142 9.57097L4.678 9.72897L4 9.95897V1.15697C4.67185 1.22451 5.33951 1.32866 6 1.46897V10.141Z" fill="#DB2C3A"/>
</symbol>
<symbol id="encyclopedia-article-dark" viewBox="0 0 16 16">
<path opacity="0.36" d="M4 1.15698C4.67185 1.22452 5.33951 1.32868 6 1.46898V10.141L5.551 9.84098L5.142 9.57098L4.678 9.72898L4 9.95898V1.15698Z" fill="#DB2C3A"/>
<path d="M8.5 1.309C8.03341 1.02907 7.52792 0.8198 7 0.688V1.728C7.32975 1.82209 7.64552 1.95963 7.939 2.137L8 2.179V13.961C6.06008 13.341 4.03659 13.0219 2 13.015V1.015C2.344 1.027 2.677 1.045 3 1.066V0.066C2.358 0.028 1.694 0 1 0V14C3.37737 13.9087 5.75101 14.26 8 15.036C8.17376 15.1133 8.34098 15.2046 8.5 15.309C8.65902 15.2046 8.82624 15.1133 9 15.036C11.249 14.26 13.6226 13.9087 16 14V0C12.554 0 9.626 0.546 8.5 1.309ZM15 13.015C12.9634 13.0219 10.9399 13.341 9 13.961V2.179L9.061 2.137C9.812 1.628 12.039 1.113 15 1.016V13.015Z" fill="#4072E5"/>
<path opacity="0.9" d="M3 0.0689697V11.359L5 10.679L7 12V0.68797C5.6915 0.344636 4.35107 0.137205 3 0.0689697ZM6 10.141L5.551 9.84097L5.142 9.57097L4.678 9.72897L4 9.95897V1.15697C4.67185 1.22451 5.33951 1.32866 6 1.46897V10.141Z" fill="#DB2C3A"/>
</symbol>
<symbol id="encyclopedia-article-white" viewBox="0 0 16 16">
<path opacity="0.4" d="M4 1.15698C4.732 1.23398 5.405 1.33898 6 1.46798V10.141L5.551 9.84498L5.142 9.57498L4.678 9.73298L4 9.96298V1.15698Z" fill="white"/>
<path d="M8.5 1.309C7.374 0.546 4.446 0 1 0V14C4.019 14 6.64 14.419 8 15.036C8.193 15.123 8.36 15.215 8.5 15.309C8.64 15.214 8.807 15.123 9 15.036C10.36 14.419 12.981 14 16 14V0C12.554 0 9.626 0.546 8.5 1.309ZM6 1.468V10.141L5.551 9.845L5.142 9.575L4.678 9.733L4 9.963V1.157C4.732 1.234 5.405 1.339 6 1.468ZM8 13.96C6.587 13.428 4.434 13.087 2 13.014V1.016C2.344 1.027 2.677 1.045 3 1.067V11.358L5 10.679L7 12V1.728C7.41 1.859 7.734 1.998 7.939 2.137L8 2.179V13.961V13.96ZM15 13.014C12.566 13.087 10.413 13.428 9 13.96V2.179L9.061 2.137C9.812 1.628 12.039 1.113 15 1.016V13.015V13.014Z" fill="white"/>
</symbol>
<use xlink:href="#encyclopedia-article-light" viewBox="0 0 16 16"/>
</svg>