<!-- This file is part of Zotero. It is distributed under the GNU Affero General Public License version 3. -->
<svg xmlns="http://www.w3.org/2000/svg" xmlns:xlink="http://www.w3.org/1999/xlink">
<symbol id="forum-post-light" viewBox="0 0 16 16">
<path opacity="0.2" d="M5 12.5C1.41 12.5 0.5 13.515 0.5 16H9.5C9.5 13.515 8.59 12.5 5 12.5Z" fill="#444444"/>
<path d="M5 13C8.444 13 9 13.885 9 16H10C10 13.084 8.645 12 5 12C1.355 12 0 13.084 0 16H1C1 13.885 1.556 13 5 13Z" fill="#444444"/>
<path opacity="0.2" d="M5.28795 5.529C5.1926 5.5137 5.09643 5.50401 4.99995 5.5C4.50773 5.50011 4.0265 5.64551 3.61658 5.91798C3.20666 6.19046 2.88629 6.57787 2.69564 7.03167C2.50499 7.48546 2.45254 7.98544 2.54486 8.46892C2.63718 8.9524 2.87017 9.39787 3.21462 9.74948C3.55907 10.1011 3.99965 10.3432 4.48113 10.4455C4.9626 10.5477 5.46355 10.5056 5.92117 10.3243C6.3788 10.143 6.77273 9.8307 7.05358 9.42647C7.33443 9.02225 7.48971 8.54411 7.49995 8.052C6.50262 7.48031 5.72428 6.59253 5.28795 5.529Z" fill="#444444"/>
<path d="M6.96905 7.70004C6.98727 7.79906 6.99764 7.89938 7.00005 8.00004C7.00005 8.3956 6.88275 8.78228 6.66298 9.11118C6.44322 9.44008 6.13087 9.69642 5.76541 9.8478C5.39996 9.99917 4.99783 10.0388 4.60987 9.96161C4.2219 9.88444 3.86554 9.69396 3.58583 9.41425C3.30613 9.13455 3.11565 8.77818 3.03848 8.39022C2.9613 8.00226 3.00091 7.60012 3.15229 7.23467C3.30366 6.86922 3.56001 6.55686 3.88891 6.3371C4.2178 6.11734 4.60448 6.00004 5.00005 6.00004C5.18765 6.00261 5.37391 6.03225 5.55305 6.08804C5.36317 5.74977 5.2186 5.388 5.12305 5.01204C5.08205 5.01104 5.04205 5.00004 5.00005 5.00004C4.41929 4.99715 3.85019 5.16288 3.36179 5.47714C2.8734 5.79139 2.48672 6.24064 2.24868 6.77038C2.01064 7.30011 1.93148 7.88755 2.0208 8.4614C2.11012 9.03525 2.36409 9.57084 2.75188 10.0032C3.13966 10.4355 3.64459 10.746 4.2054 10.8969C4.7662 11.0478 5.35875 11.0328 5.91115 10.8535C6.46355 10.6742 6.95204 10.3385 7.31734 9.88699C7.68263 9.4355 7.90903 8.88769 7.96905 8.31004C7.61703 8.13904 7.28217 7.93478 6.96905 7.70004Z" fill="#444444"/>
<path d="M9.305 9.278C9.43433 8.86433 9.50008 8.43342 9.5 8C9.49809 7.89761 9.49007 7.79543 9.476 7.694L9.444 7.38L9.136 7.18C8.42245 6.98625 7.78621 6.57674 7.31434 6.0075C6.84248 5.43825 6.55806 4.7371 6.5 4C6.5 2.07 8.519 0.5 11 0.5C13.481 0.5 15.5 2.07 15.5 4C15.5 5.636 14.005 7.074 11.945 7.42L11.745 7.453L11.625 7.617C11.0499 8.40525 10.2365 8.9876 9.305 9.278Z" fill="#E0EFFF"/>
<path d="M11 1C13.206 1 15 2.346 15 4C15 5.391 13.68 6.622 11.862 6.927L11.462 6.994L11.222 7.322C10.8891 7.77598 10.4664 8.15655 9.98 8.44C9.993 8.294 10 8.147 10 8C9.99862 7.87955 9.9896 7.75931 9.973 7.64L9.963 7.554L9.9 6.92L9.3 6.705C8.68573 6.54398 8.13572 6.19819 7.72437 5.71441C7.31302 5.23062 7.06016 4.63217 7 4C7 2.346 8.794 1 11 1ZM11 0C8.243 0 6 1.794 6 4C6.05754 4.83983 6.37363 5.64125 6.90487 6.29424C7.43611 6.94724 8.15645 7.41978 8.967 7.647C8.978 7.765 9 7.879 9 8C8.99548 8.68605 8.81248 9.35911 8.469 9.953C9.17263 9.88353 9.85358 9.66582 10.467 9.31421C11.0804 8.9626 11.6124 8.48505 12.028 7.913C14.293 7.533 16 5.924 16 4C16 1.794 13.757 0 11 0Z" fill="#66ADFF"/>
</symbol>
<symbol id="forum-post-dark" viewBox="0 0 16 16">
<path opacity="0.6" d="M5 13C8.444 13 9 13.885 9 16H10C10 13.084 8.645 12 5 12C1.355 12 0 13.084 0 16H1C1 13.885 1.556 13 5 13Z" fill="white"/>
<path opacity="0.6" d="M6.96905 7.70004C6.98727 7.79906 6.99764 7.89938 7.00005 8.00004C7.00005 8.3956 6.88275 8.78228 6.66298 9.11118C6.44322 9.44008 6.13087 9.69642 5.76541 9.8478C5.39996 9.99917 4.99783 10.0388 4.60987 9.96161C4.2219 9.88444 3.86554 9.69396 3.58583 9.41425C3.30613 9.13455 3.11565 8.77818 3.03848 8.39022C2.9613 8.00226 3.00091 7.60012 3.15229 7.23467C3.30366 6.86922 3.56001 6.55686 3.88891 6.3371C4.2178 6.11734 4.60448 6.00004 5.00005 6.00004C5.18765 6.00261 5.37391 6.03225 5.55305 6.08804C5.36317 5.74977 5.2186 5.388 5.12305 5.01204C5.08205 5.01104 5.04205 5.00004 5.00005 5.00004C4.41929 4.99715 3.85019 5.16288 3.36179 5.47714C2.8734 5.79139 2.48672 6.24064 2.24868 6.77038C2.01064 7.30011 1.93148 7.88755 2.0208 8.4614C2.11012 9.03525 2.36409 9.57084 2.75188 10.0032C3.13966 10.4355 3.64459 10.746 4.2054 10.8969C4.7662 11.0478 5.35875 11.0328 5.91115 10.8535C6.46355 10.6742 6.95204 10.3385 7.31734 9.88699C7.68263 9.4355 7.90903 8.88769 7.96905 8.31004C7.61703 8.13904 7.28217 7.93478 6.96905 7.70004Z" fill="white"/>
<path opacity="0.12" d="M9 16C9 13.885 8.444 13 5 13C1.556 13 1 13.885 1 16H9Z" fill="white"/>
<g opacity="0.12">
<path d="M6.96927 7.7029C6.98718 7.80101 6.99737 7.90037 6.99976 8.00007C6.99976 8.39563 6.88246 8.78231 6.6627 9.11121C6.44293 9.44011 6.13058 9.69645 5.76512 9.84783C5.39967 9.9992 4.99754 10.0388 4.60958 9.96164C4.22161 9.88447 3.86525 9.69399 3.58554 9.41428C3.30584 9.13458 3.11536 8.77821 3.03819 8.39025C2.96102 8.00229 3.00062 7.60016 3.152 7.2347C3.30337 6.86925 3.55972 6.55689 3.88862 6.33713C4.21751 6.11737 4.60419 6.00007 4.99976 6.00007C5.18736 6.00265 5.37362 6.03228 5.55276 6.08807C5.45689 5.91729 5.37258 5.74052 5.30029 5.55896C5.65691 6.41293 6.23467 7.15202 6.96927 7.7029Z" fill="white"/>
<path d="M7.27571 7.91586C7.34914 7.96304 7.42388 8.00846 7.4999 8.05203L7.49981 8.05654C7.42411 8.01126 7.3494 7.96436 7.27571 7.91586Z" fill="white"/>
</g>
<path opacity="0.85" d="M11 1C13.206 1 15 2.346 15 4C15 5.391 13.68 6.622 11.862 6.927L11.462 6.994L11.222 7.322C10.8891 7.77598 10.4664 8.15655 9.98 8.44C9.993 8.294 10 8.147 10 8C9.99862 7.87955 9.9896 7.75931 9.973 7.64L9.963 7.554L9.9 6.92L9.3 6.705C8.68573 6.54398 8.13572 6.19819 7.72437 5.71441C7.31302 5.23062 7.06016 4.63217 7 4C7 2.346 8.794 1 11 1ZM11 0C8.243 0 6 1.794 6 4C6.05754 4.83983 6.37363 5.64125 6.90487 6.29424C7.43611 6.94724 8.15645 7.41978 8.967 7.647C8.978 7.765 9 7.879 9 8C8.99548 8.68605 8.81248 9.35911 8.469 9.953C9.17263 9.88353 9.85358 9.66582 10.467 9.31421C11.0804 8.9626 11.6124 8.48505 12.028 7.913C14.293 7.533 16 5.924 16 4C16 1.794 13.757 0 11 0Z" fill="#66ADFF"/>
<path opacity="0.17" d="M15 4C15 2.346 13.206 1 11 1C8.794 1 7 2.346 7 4C7.06016 4.63217 7.31302 5.23062 7.72437 5.71441C8.13572 6.19819 8.68573 6.54398 9.3 6.705L9.9 6.92L9.963 7.554L9.973 7.64C9.9896 7.75931 9.99862 7.87955 10 8C10 8.147 9.993 8.294 9.98 8.44C10.4664 8.15655 10.8891 7.77598 11.222 7.322L11.462 6.994L11.862 6.927C13.68 6.622 15 5.391 15 4Z" fill="#66ADFF"/>
</symbol>
<symbol id="forum-post-white" viewBox="0 0 16 16">
<g clip-path="url(#clip0_143_1368)">
<path opacity="0.2" d="M5 12.5C1.41 12.5 0.5 13.515 0.5 16H9.5C9.5 13.515 8.59 12.5 5 12.5Z" fill="white"/>
<path d="M5 13C8.444 13 9 13.885 9 16H10C10 13.084 8.645 12 5 12C1.355 12 0 13.084 0 16H1C1 13.885 1.556 13 5 13Z" fill="white"/>
<path opacity="0.2" d="M5.288 5.529C5.192 5.518 5.098 5.5 5 5.5C3.621 5.5 2.5 6.621 2.5 8C2.5 9.379 3.621 10.5 5 10.5C6.361 10.5 7.466 9.406 7.495 8.052C6.468 7.434 5.683 6.555 5.288 5.529Z" fill="white"/>
<path d="M6.969 7.69598C6.984 7.79598 7 7.89598 7 7.99998C7 9.10298 6.103 9.99998 5 9.99998C3.897 9.99998 3 9.10298 3 7.99998C3 6.89698 3.897 5.99998 5 5.99998C5.193 5.99998 5.376 6.03598 5.553 6.08798C5.365 5.74798 5.216 5.38898 5.123 5.01298C5.081 5.01098 5.042 5.00098 5 5.00098C3.343 5.00098 2 6.34398 2 8.00098C2 9.65798 3.343 11.001 5 11.001C6.551 11.001 7.812 9.81998 7.969 8.31098C7.61 8.13498 7.276 7.92798 6.969 7.69598Z" fill="white"/>
<path opacity="0.2" d="M9.305 9.278C9.435 8.86 9.5 8.433 9.5 8C9.5 7.896 9.488 7.795 9.476 7.694L9.445 7.38L9.136 7.176C7.534 6.603 6.5 5.356 6.5 4C6.5 2.07 8.519 0.5 11 0.5C13.481 0.5 15.5 2.07 15.5 4C15.5 5.636 14.005 7.074 11.945 7.42L11.745 7.453L11.625 7.617C11.039 8.416 10.222 8.995 9.305 9.278Z" fill="white"/>
<path d="M11 1C13.206 1 15 2.346 15 4C15 5.391 13.68 6.622 11.862 6.927L11.462 6.994L11.222 7.321C10.884 7.782 10.459 8.161 9.98 8.439C9.993 8.293 10 8.147 10 7.999C10 7.876 9.988 7.758 9.973 7.639L9.963 7.553L9.904 6.919L9.304 6.704C7.904 6.202 6.999 5.14 6.999 3.999C6.999 2.345 8.793 0.999 10.999 0.999M11 0C8.243 0 6 1.794 6 4C6 5.626 7.223 7.022 8.967 7.647C8.978 7.765 9 7.879 9 8C9 8.713 8.797 9.373 8.469 9.953C9.934 9.814 11.204 9.036 12.028 7.914C14.293 7.534 16 5.925 16 4.001C16 1.794 13.757 0 11 0Z" fill="white"/>
</g>
<defs>
<clipPath id="clip0_143_1368">
<rect width="16" height="16" fill="white"/>
</clipPath>
</defs>
</symbol>
<use xlink:href="#forum-post-light" viewBox="0 0 16 16"/>
</svg>