<svg xmlns="http://www.w3.org/2000/svg" xmlns:xlink="http://www.w3.org/1999/xlink">
<symbol id="hearing-light" viewBox="0 0 16 16">
<path d="M15.5 15.5C15.5 14.1602 14.8398 13.5 13.5 13.5H9.5C8.16016 13.5 7.5 14.1602 7.5 15.5H15.5ZM1.5 14.5C1.23437 14.5 0.980469 14.3945 0.792969 14.207C0.402344 13.8164 0.402344 13.1836 0.792969 12.793L7.98828 5.98828L9.01172 7.01172L2.19531 14.2188C2.01953 14.3945 1.76562 14.5 1.5 14.5Z" fill="#D6C4C5"/>
<path d="M8 5.29297L0.4375 12.4375C-0.144531 13.0273 -0.144531 13.9727 0.4375 14.5586C0.730469 14.8516 1.11719 15 1.5 15C1.88281 15 2.26953 14.8516 2.5625 14.5586L9.70703 7L8 5.29297ZM7.98047 6.6875L8.3125 7.01953L1.85547 13.8516C1.72656 13.9805 1.57812 14 1.5 14C1.42187 14 1.27344 13.9805 1.14453 13.8516C0.953125 13.6602 0.953125 13.3398 1.125 13.168L7.98047 6.6875Z" fill="#996B6F"/>
<path d="M11.1445 9.14844L5.85156 3.85156C5.65625 3.66016 5.65625 3.33984 5.85156 3.14844L8.14453 0.851562C8.34375 0.660156 8.65625 0.660156 8.85547 0.851562L14.1445 6.14844C14.3438 6.33984 14.3438 6.66016 14.1445 6.85156L11.8516 9.14844C11.6562 9.33984 11.3398 9.33984 11.1445 9.14844Z" fill="#D6C4C5"/>
<path d="M8.03906 15H14.9609C14.8281 14.2969 14.3789 14 13.5 14H9.5C8.62109 14 8.17187 14.2969 8.03906 15ZM15.5 16H7.5C7.22266 16 7 15.7773 7 15.5C7 13.8867 7.88672 13 9.5 13H13.5C15.1133 13 16 13.8867 16 15.5C16 15.7773 15.7773 16 15.5 16Z" fill="#996B6F"/>
<path d="M9.5 1.5L6.5 4.5L10.5 8.5L13.5 5.5L9.5 1.5Z" fill="#EBD399"/>
<path d="M10.8516 8.14844L6.85156 4.14844L6.14453 4.85156L10.1445 8.85156L10.8516 8.14844ZM13.1445 5.85156L9.14453 1.85156L9.85156 1.14844L13.8516 5.14844L13.1445 5.85156Z" fill="#CC9200"/>
<path d="M6.5 3.79297L6.20703 3.5L8.5 1.20703L8.79297 1.5L6.5 3.79297ZM10.3555 0.648438C10.1562 0.449219 9.84375 0.449219 9.64453 0.648438L9.5 0.792969L9.20703 0.5C8.81641 0.109375 8.18359 0.109375 7.79297 0.5L5.5 2.79297C5.10938 3.18359 5.10938 3.81641 5.5 4.20703L5.79297 4.5L5.64453 4.64844C5.44922 4.84375 5.44922 5.15625 5.64453 5.35547C5.74219 5.44922 5.87109 5.5 6 5.5C6.12891 5.5 6.25781 5.44922 6.35547 5.35547L10.3555 1.35547C10.5508 1.15625 10.5508 0.84375 10.3555 0.648438ZM11.5 8.79297L11.207 8.5L13.5 6.20703L13.793 6.5L11.5 8.79297ZM14.5 5.79297L14.207 5.5L14.3555 5.35547C14.5508 5.15625 14.5508 4.84375 14.3555 4.64844C14.1562 4.44922 13.8438 4.44922 13.6445 4.64844L9.64453 8.64844C9.44922 8.84375 9.44922 9.15625 9.64453 9.35547C9.74219 9.44922 9.87109 9.5 10 9.5C10.1289 9.5 10.2578 9.44922 10.3555 9.35547L10.5 9.20703L10.793 9.5C10.9883 9.69531 11.2422 9.79297 11.5 9.79297C11.7578 9.79297 12.0117 9.69531 12.207 9.5L14.5 7.20703C14.8906 6.81641 14.8906 6.18359 14.5 5.79297Z" fill="#996B6F"/>
</symbol>
<symbol id="hearing-dark" viewBox="0 0 16 16">
<g opacity="0.2">
<path d="M8.3126 7.01953L7.98057 6.6875L1.1251 13.168C0.953224 13.3398 0.953224 13.6602 1.14463 13.8516C1.27354 13.9805 1.42197 14 1.5001 14C1.57822 14 1.72666 13.9805 1.85557 13.8516L8.3126 7.01953Z" fill="#996B6F"/>
<path d="M8.03916 15H14.961C14.8282 14.2969 14.379 14 13.5001 14H9.5001C8.62119 14 8.17197 14.2969 8.03916 15Z" fill="#996B6F"/>
</g>
<path d="M8.03906 15H14.9609C14.8281 14.2969 14.3789 14 13.5 14H9.5C8.62109 14 8.17187 14.2969 8.03906 15ZM15.5 16H7.5C7.22266 16 7 15.7773 7 15.5C7 13.8867 7.88672 13 9.5 13H13.5C15.1133 13 16 13.8867 16 15.5C16 15.7773 15.7773 16 15.5 16Z" fill="#996B6F"/>
<path opacity="0.34" d="M10.498 7.79492L12.793 5.5L9.50195 2.20898L7.20703 4.50391L10.498 7.79492Z" fill="#CC9200"/>
<path d="M6.5 3.79297L6.20703 3.5L8.5 1.20703L8.79297 1.5L6.5 3.79297ZM10.3555 0.648438C10.1562 0.449219 9.84375 0.449219 9.64453 0.648438L9.5 0.792969L9.20703 0.5C8.81641 0.109375 8.18359 0.109375 7.79297 0.5L5.5 2.79297C5.10938 3.18359 5.10938 3.81641 5.5 4.20703L5.79297 4.5L5.64453 4.64844C5.44922 4.84375 5.44922 5.15625 5.64453 5.35547C5.74219 5.44922 5.87109 5.5 6 5.5C6.12891 5.5 6.25781 5.44922 6.35547 5.35547L10.3555 1.35547C10.5508 1.15625 10.5508 0.84375 10.3555 0.648438ZM11.5 8.79297L11.207 8.5L13.5 6.20703L13.793 6.5L11.5 8.79297ZM14.5 5.79297L14.207 5.5L14.3555 5.35547C14.5508 5.15625 14.5508 4.84375 14.3555 4.64844C14.1562 4.44922 13.8438 4.44922 13.6445 4.64844L9.64453 8.64844C9.44922 8.84375 9.44922 9.15625 9.64453 9.35547C9.74219 9.44922 9.87109 9.5 10 9.5C10.1289 9.5 10.2578 9.44922 10.3555 9.35547L10.5 9.20703L10.793 9.5C10.9883 9.69531 11.2422 9.79297 11.5 9.79297C11.7578 9.79297 12.0117 9.69531 12.207 9.5L14.5 7.20703C14.8906 6.81641 14.8906 6.18359 14.5 5.79297Z" fill="#996B6F"/>
<g opacity="0.85">
<path d="M9.50195 2.20898L10.207 1.50391L13.498 4.79492L12.793 5.5L9.50195 2.20898Z" fill="#CC9200"/>
<path d="M6.50195 5.20898L7.20703 4.50391L10.498 7.79492L9.79297 8.5L6.50195 5.20898Z" fill="#CC9200"/>
</g>
<path d="M7.27288 5.97991L0.4375 12.4375C-0.144531 13.0273 -0.144531 13.9727 0.4375 14.5586C0.730469 14.8516 1.11719 15 1.5 15C1.88281 15 2.26953 14.8516 2.5625 14.5586L9.01991 7.72694L8.3125 7.01953L1.85547 13.8516C1.72656 13.9805 1.57812 14 1.5 14C1.42187 14 1.27344 13.9805 1.14453 13.8516C0.953125 13.6602 0.953125 13.3398 1.125 13.168L7.98047 6.6875L7.27288 5.97991Z" fill="#996B6F"/>
<path d="M9.70513 7.00201L9.70703 7L8 5.29297L7.99799 5.29487L9.70513 7.00201Z" fill="#996B6F"/>
<g opacity="0.2">
<path d="M6.20703 3.5L6.5 3.79297L8.79297 1.5L8.5 1.20703L6.20703 3.5Z" fill="#996B6F"/>
<path d="M11.207 8.5L11.5 8.79297L13.793 6.5L13.5 6.20703L11.207 8.5Z" fill="#996B6F"/>
</g>
</symbol>
<symbol id="hearing-white" viewBox="0 0 16 16">
<g clip-path="url(#clip0_1358_85329)">
<path opacity="0.4" d="M15.5 15.5C15.5 14.16 14.84 13.5 13.5 13.5H9.49999C8.15999 13.5 7.49999 14.16 7.49999 15.5H15.5ZM11.146 9.14601C11.341 9.34101 11.658 9.34101 11.853 9.14601L14.146 6.85301C14.341 6.65801 14.341 6.34101 14.146 6.14601L8.85399 0.854014C8.65899 0.659014 8.34199 0.659014 8.14699 0.854014L5.85399 3.14701C5.65899 3.34201 5.65899 3.65901 5.85399 3.85401L7.99099 5.99001L0.792988 12.793C0.402988 13.183 0.402988 13.817 0.792988 14.207C0.981988 14.395 1.23299 14.5 1.49999 14.5C1.76699 14.5 2.01799 14.396 2.19699 14.217L9.00999 7.01101L11.145 9.14701L11.146 9.14601Z" fill="white"/>
<path d="M13.5 13H9.50001C7.88801 13 7.00001 13.888 7.00001 15.5C7.00001 15.776 7.22401 16 7.50001 16H15.5C15.776 16 16 15.776 16 15.5C16 13.888 15.112 13 13.5 13ZM8.04101 15C8.17001 14.297 8.62001 14 9.50001 14H13.5C14.38 14 14.83 14.297 14.959 15H8.04101ZM9.79301 8.50004L9.64701 8.64604C9.45201 8.84104 9.45201 9.15804 9.64701 9.35304C9.74501 9.45104 9.87301 9.49904 10.001 9.49904C10.129 9.49904 10.257 9.45004 10.355 9.35304L10.501 9.20704L10.794 9.50004C10.989 9.69504 11.245 9.79204 11.501 9.79204C11.757 9.79204 12.013 9.69504 12.208 9.50004L14.501 7.20704C14.891 6.81704 14.891 6.18304 14.501 5.79304L14.208 5.50004L14.354 5.35404C14.549 5.15904 14.549 4.84204 14.354 4.64704C14.159 4.45204 13.842 4.45204 13.647 4.64704L13.5 4.79404L10.207 1.50104L10.354 1.35404C10.549 1.15904 10.549 0.842037 10.354 0.647037C10.159 0.452037 9.84201 0.452037 9.64701 0.647037L9.50101 0.793037L9.20801 0.500037C8.81701 0.109037 8.18501 0.109037 7.79401 0.500037L5.50101 2.79304C5.11101 3.18304 5.11101 3.81704 5.50101 4.20704L5.79401 4.50004L5.64801 4.64604C5.45301 4.84104 5.45301 5.15804 5.64801 5.35304C5.74601 5.45104 5.87401 5.49904 6.00201 5.49904C6.13001 5.49904 6.25801 5.45004 6.35601 5.35304L6.50201 5.20704L7.27501 5.98004L0.439012 12.439C-0.146988 13.025 -0.146988 13.975 0.439012 14.56C0.732012 14.853 1.11601 14.999 1.50001 14.999C1.88401 14.999 2.26801 14.853 2.56101 14.56L9.02101 7.72704L9.79301 8.49904V8.50004ZM13.5 6.20704L13.793 6.50004C13.793 6.50004 11.5 8.79304 11.501 8.79304L11.208 8.50004L13.501 6.20704H13.5ZM6.20701 3.50004L8.50001 1.20704L8.79301 1.50004L6.50001 3.79304L6.20701 3.50004ZM7.20701 4.50004L9.50001 2.20704L12.793 5.50004L10.5 7.79304L7.20701 4.50004ZM1.85401 13.854C1.72701 13.981 1.57801 14 1.50001 14C1.42201 14 1.27401 13.981 1.14601 13.854C0.951012 13.659 0.951012 13.342 1.12601 13.166L7.98001 6.68804L8.31301 7.02104L1.85401 13.854Z" fill="white"/>
</g>
<defs>
<clipPath id="clip0_1358_85329">
<rect width="16" height="16" fill="white"/>
</clipPath>
</defs>
</symbol>
<use xlink:href="#hearing-light" viewBox="0 0 16 16"/>
</svg>