<!-- This file is part of Zotero. It is distributed under the GNU Affero General Public License version 3. -->
<svg xmlns="http://www.w3.org/2000/svg" xmlns:xlink="http://www.w3.org/1999/xlink">
<symbol id="instant-message-light" viewBox="0 0 16 16">
<path d="M8 0.5C3.858 0.5 0.5 3.186 0.5 6.5C0.564737 7.66088 0.967724 8.77745 1.65929 9.7121C2.35086 10.6468 3.30079 11.3586 4.392 11.76C4.46255 12.1696 4.49868 12.5844 4.5 13C4.49962 13.7376 4.39079 14.4711 4.177 15.177C5.70308 14.7129 7.04197 13.7753 8 12.5C12.142 12.5 15.5 9.814 15.5 6.5C15.5 3.186 12.142 0.5 8 0.5Z" fill="#E0EFFF"/>
<path d="M3.428 15.927L3.698 15.032C3.89778 14.3731 3.99954 13.6885 4 13C3.99937 12.699 3.97866 12.3983 3.938 12.1C2.81718 11.6374 1.85144 10.865 1.15397 9.87314C0.456503 8.88131 0.0562058 7.71121 0 6.5C0 2.916 3.589 0 8 0C12.411 0 16 2.916 16 6.5C16 10.017 12.544 12.891 8.247 13C7.23366 14.2583 5.86654 15.1841 4.322 15.658L3.428 15.927ZM8 1C4.14 1 1 3.468 1 6.5C1.06604 7.56316 1.44129 8.58385 2.07962 9.43661C2.71795 10.2894 3.59154 10.937 4.593 11.3L4.84 11.409L4.885 11.675C4.96044 12.1127 4.99891 12.5559 5 13C5.00008 13.4619 4.95992 13.923 4.88 14.378C5.95416 13.8903 6.88921 13.1415 7.6 12.2L7.75 12H8C11.86 12 15 9.532 15 6.5C15 3.468 11.859 1 8 1Z" fill="#66ADFF"/>
</symbol>
<symbol id="instant-message-dark" viewBox="0 0 16 16">
<path opacity="0.85" d="M3.428 15.927L3.698 15.032C3.89778 14.3731 3.99954 13.6885 4 13C3.99937 12.699 3.97866 12.3983 3.938 12.1C2.81718 11.6374 1.85144 10.865 1.15397 9.87314C0.456503 8.88131 0.0562058 7.71121 0 6.5C0 2.916 3.589 0 8 0C12.411 0 16 2.916 16 6.5C16 10.017 12.544 12.891 8.247 13C7.23366 14.2583 5.86654 15.1841 4.322 15.658L3.428 15.927ZM8 1C4.14 1 1 3.468 1 6.5C1.06604 7.56316 1.44129 8.58385 2.07962 9.43661C2.71795 10.2894 3.59154 10.937 4.593 11.3L4.84 11.409L4.885 11.675C4.96044 12.1127 4.99891 12.5559 5 13C5.00008 13.4619 4.95992 13.923 4.88 14.378C5.95416 13.8903 6.88921 13.1415 7.6 12.2L7.75 12H8C11.86 12 15 9.532 15 6.5C15 3.468 11.859 1 8 1Z" fill="#66ADFF"/>
<path opacity="0.17" d="M1 6.5C1 3.468 4.14 1 8 1C11.859 1 15 3.468 15 6.5C15 9.532 11.86 12 8 12H7.75L7.6 12.2C6.88921 13.1415 5.95416 13.8903 4.88 14.378C4.95992 13.923 5.00008 13.4619 5 13C4.99891 12.5559 4.96044 12.1127 4.885 11.675L4.84 11.409L4.593 11.3C3.59154 10.937 2.71795 10.2894 2.07962 9.43661C1.44129 8.58385 1.06604 7.56316 1 6.5Z" fill="#66ADFF"/>
</symbol>
<symbol id="instant-message-white" viewBox="0 0 16 16">
<g clip-path="url(#clip0_1358_85343)">
<path opacity="0.2" d="M8 0.5C3.858 0.5 0.5 3.186 0.5 6.5C0.5 8.767 2.073 10.739 4.392 11.76C4.46 12.164 4.5 12.577 4.5 13C4.5 13.757 4.385 14.488 4.177 15.177C5.72 14.71 7.053 13.758 7.999 12.5H8.001C12.143 12.5 15.501 9.814 15.501 6.5C15.501 3.186 12.142 0.5 8 0.5Z" fill="white"/>
<path d="M3.42798 15.927L3.69898 15.032C3.89898 14.37 4.00098 13.686 4.00098 13C4.00098 12.706 3.97998 12.41 3.93898 12.102C1.50198 10.936 0.000976771 8.811 0.000976771 6.5C-2.32286e-05 2.916 3.58898 0 7.99998 0C12.411 0 16 2.916 16 6.5C16 10.017 12.544 12.891 8.24698 12.997C7.23898 14.251 5.85398 15.191 4.32198 15.655L3.42798 15.926V15.927ZM7.99998 1C4.13998 1 0.999977 3.468 0.999977 6.5C0.999977 8.486 2.37698 10.327 4.59298 11.302L4.83998 11.411L4.88498 11.677C4.96198 12.136 4.99998 12.569 4.99998 13C4.99998 13.462 4.95998 13.923 4.87998 14.378C5.94598 13.894 6.89098 13.141 7.59898 12.199L7.74898 12H7.99898C11.86 12 15 9.532 15 6.5C15 3.468 11.859 1 7.99998 1Z" fill="white"/>
</g>
<defs>
<clipPath id="clip0_1358_85343">
<rect width="16" height="16" fill="white"/>
</clipPath>
</defs>
</symbol>
<use xlink:href="#instant-message-light" viewBox="0 0 16 16"/>
</svg>