<!-- This file is part of Zotero. It is distributed under the GNU Affero General Public License version 3. -->
<svg xmlns="http://www.w3.org/2000/svg" xmlns:xlink="http://www.w3.org/1999/xlink">
<symbol id="journal-article-light" viewBox="0 0 16 16">
<path opacity="0.5" d="M9.70706 0H1.99994L2 16H15V5.293L9.70706 0Z" fill="white"/>
<path d="M9.293 1L14 5.707V15H3V1L9.293 1Z" fill="white"/>
<path d="M7 6H5V5H7V6ZM12 8H5V9H12V8ZM12 11H5V12H12V11Z" fill="#444444"/>
<path opacity="0.2" d="M9.707 0L2 0V16H15V5.293L9.707 0ZM10 1.707L13.293 5H10V1.707ZM3 15V1H9V6H14V15H3Z" fill="black"/>
<path opacity="0.08" d="M10 1.70703V5H13.293L10 1.70703Z" fill="black"/>
</symbol>
<symbol id="journal-article-dark" viewBox="0 0 16 16">
<path opacity="0.75" d="M7 6H5V5H7V6ZM12 8H5V9H12V8ZM12 11H5V12H12V11Z" fill="white"/>
<path opacity="0.6" d="M9.707 0H2V16H15V5.293L9.707 0ZM10 1.707L13.293 5H10V1.707ZM3 15V1H9V6H14V15H3Z" fill="white"/>
<path opacity="0.24" d="M10 1.70703V5H13.293L10 1.70703Z" fill="white"/>
</symbol>
<symbol id="journal-article-white" viewBox="0 0 16 16">
<path opacity="0.4" d="M10 0.5V5H14.5L10 0.5Z" fill="white"/>
<path d="M7 6H5V5H7V6ZM12 8H5V9H12V8ZM12 11H5V12H12V11Z" fill="white"/>
<path d="M9.707 0H2V16H15V5.293L9.707 0ZM10 1.707L13.293 5H10V1.707ZM3 15V1H9V6H14V15H3Z" fill="white"/>
</symbol>
<use xlink:href="#journal-article-light" viewBox="0 0 16 16"/>
</svg>