<!-- This file is part of Zotero. It is distributed under the GNU Affero General Public License version 3. -->
<svg xmlns="http://www.w3.org/2000/svg" xmlns:xlink="http://www.w3.org/1999/xlink">
<symbol id="magazine-article-light" viewBox="0 0 16 16">
<path d="M13.5 3H2.5V15H13.5V3Z" fill="white"/>
<path d="M3.5 14V3H2.5V15H7.5V14H3.5Z" fill="#D9E3FA"/>
<path d="M4 13.5V0.5H7C7.26522 0.5 7.51957 0.605357 7.70711 0.792893C7.89464 0.98043 8 1.23478 8 1.5V13.5H4Z" fill="#B3C7F5"/>
<path d="M8.5 2V1.5C8.5 1.10218 8.34196 0.720644 8.06066 0.43934C7.77936 0.158035 7.39782 0 7 0L3.5 0V2H1.5V16H14.5V2H8.5ZM4.5 1H7C7.13261 1 7.25979 1.05268 7.35355 1.14645C7.44732 1.24021 7.5 1.36739 7.5 1.5V13H4.5V1ZM2.5 15V3H3.5V14H7C7.13261 14 7.25979 14.0527 7.35355 14.1464C7.44732 14.2402 7.5 14.3674 7.5 14.5C7.5 14.6326 7.44732 14.7598 7.35355 14.8536C7.25979 14.9473 7.13261 15 7 15H2.5ZM13.5 15H8.408C8.46722 14.8399 8.49834 14.6707 8.5 14.5V3H13.5V15Z" fill="#4072E5"/>
<path d="M9.5 10H12.5V11H9.5V10ZM9.5 13H12.5V12H9.5V13Z" fill="#444444"/>
<path d="M9.5 4V5H11.5V8H9.5V9H12.5V4H9.5Z" fill="#39BF68"/>
<path d="M11.5 5H9.5V8H11.5V5Z" fill="#B0E5C3"/>
</symbol>
<symbol id="magazine-article-dark" viewBox="0 0 16 16">
<path opacity="0.2" d="M3.5 14V3H2.5V15H7.5V14H3.5Z" fill="#4072E5"/>
<path opacity="0.4" d="M4 13.5V0.5H7C7.26522 0.5 7.51957 0.605357 7.70711 0.792893C7.89464 0.98043 8 1.23478 8 1.5V13.5H4Z" fill="#4072E5"/>
<path d="M8.5 2V1.5C8.5 1.10218 8.34196 0.720644 8.06066 0.43934C7.77936 0.158035 7.39782 0 7 0L3.5 0V2H1.5V16H14.5V2H8.5ZM4.5 1H7C7.13261 1 7.25979 1.05268 7.35355 1.14645C7.44732 1.24021 7.5 1.36739 7.5 1.5V13H4.5V1ZM2.5 15V3H3.5V14H7C7.13261 14 7.25979 14.0527 7.35355 14.1464C7.44732 14.2402 7.5 14.3674 7.5 14.5C7.5 14.6326 7.44732 14.7598 7.35355 14.8536C7.25979 14.9473 7.13261 15 7 15H2.5ZM13.5 15H8.408C8.46722 14.8399 8.49834 14.6707 8.5 14.5V3H13.5V15Z" fill="#4072E5"/>
<path opacity="0.6" d="M9.5 10H12.5V11H9.5V10ZM9.5 13H12.5V12H9.5V13Z" fill="white"/>
<path opacity="0.85" d="M9.5 4V5H11.5V8H9.5V9H12.5V4H9.5Z" fill="#39BF68"/>
<path opacity="0.34" d="M11.5 5H9.5V8H11.5V5Z" fill="#39BF68"/>
</symbol>
<symbol id="magazine-article-white" viewBox="0 0 16 16">
<path opacity="0.2" d="M3.5 14V3H2.5V15H7.5V14H3.5Z" fill="white"/>
<path opacity="0.4" d="M4 13.5V0.5H7C7.552 0.5 8 0.948 8 1.5V13.5H4Z" fill="white"/>
<path d="M8.5 2V1.5C8.5 0.672 7.828 0 7 0H3.5V2H1.5V16H14.5V2H8.5ZM4.5 1H7C7.276 1 7.5 1.224 7.5 1.5V13H4.5V1ZM2.5 15V3H3.5V14H7C7.276 14 7.5 14.224 7.5 14.5C7.5 14.776 7.276 15 7 15H2.5ZM13.5 15H8.408C8.464 14.843 8.5 14.676 8.5 14.5V3H13.5V15ZM9.5 10H12.5V11H9.5V10ZM9.5 13H12.5V12H9.5V13ZM12.5 4V9H9.5V8H11.5V5H9.5V4H12.5Z" fill="white"/>
<path opacity="0.4" d="M11.5 5H9.5V8H11.5V5Z" fill="white"/>
</symbol>
<use xlink:href="#magazine-article-light" viewBox="0 0 16 16"/>
</svg>