<!-- This file is part of Zotero. It is distributed under the GNU Affero General Public License version 3. -->
<svg xmlns="http://www.w3.org/2000/svg" xmlns:xlink="http://www.w3.org/1999/xlink">
<symbol id="newspaper-article-light" viewBox="0 0 16 16">
<path d="M2.5 13.5V1.5H15.5V12.551C15.4997 12.8026 15.3997 13.0438 15.2218 13.2218C15.0438 13.3997 14.8026 13.4997 14.551 13.5H2.5Z" fill="#F3F3F3"/>
<path d="M1.5 13.5C1.23478 13.5 0.98043 13.3946 0.792893 13.2071C0.605357 13.0196 0.5 12.7652 0.5 12.5V3.5H2.5V12.5C2.5 12.7652 2.39464 13.0196 2.20711 13.2071C2.01957 13.3946 1.76522 13.5 1.5 13.5Z" fill="#DBDBDB"/>
<path d="M13.5 3.5H4.5V5.5H13.5V3.5Z" fill="#C6D5F7"/>
<path d="M13 4V5H5V4H13ZM14 3H4V6H14V3Z" fill="#4072E5"/>
<path d="M14 7H10V8H14V7ZM14 9H10V10H14V9ZM14 11H4V12H14V11ZM2 1V3H0L0 12.5C0 12.8978 0.158035 13.2794 0.43934 13.5607C0.720644 13.842 1.10218 14 1.5 14H14.551C14.9353 14 15.3039 13.8473 15.5756 13.5756C15.8473 13.3039 16 12.9353 16 12.551V1H2ZM1 12.5V4H2V12.5C2 12.6326 1.94732 12.7598 1.85355 12.8536C1.75979 12.9473 1.63261 13 1.5 13C1.36739 13 1.24021 12.9473 1.14645 12.8536C1.05268 12.7598 1 12.6326 1 12.5ZM15 12.551C15 12.6701 14.9527 12.7843 14.8685 12.8685C14.7843 12.9527 14.6701 13 14.551 13H2.908C2.96722 12.8399 2.99834 12.6707 3 12.5V2H15V12.551Z" fill="#888888"/>
<path d="M8.5 7.5H4.5V9.5H8.5V7.5Z" fill="#D1E7FF"/>
<path d="M8 8V9H5V8H8ZM9 7H4V10H9V7Z" fill="#66ADFF"/>
</symbol>
<symbol id="newspaper-article-dark" viewBox="0 0 16 16">
<path opacity="0.24" d="M1 4V12.5C1 12.6326 1.05268 12.7598 1.14645 12.8536C1.24021 12.9473 1.36739 13 1.5 13C1.63261 13 1.75979 12.9473 1.85355 12.8536C1.94732 12.7598 2 12.6326 2 12.5V4H1Z" fill="white"/>
<path opacity="0.12" fill-rule="evenodd" clip-rule="evenodd" d="M14.8687 12.8685C14.9529 12.7843 15.0002 12.6701 15.0002 12.551V2H3.0002V12.5C2.99855 12.6707 2.96742 12.8399 2.9082 13H14.5512C14.6703 13 14.7845 12.9527 14.8687 12.8685ZM10.0002 7H14.0002V8H10.0002V7ZM10.0002 9H14.0002V10H10.0002V9ZM4.0002 11H14.0002V12H4.0002V11ZM4 7H9V10H4V7ZM14 3H4V6H14V3Z" fill="white"/>
<path opacity="0.3" d="M13 4H5V5H13V4Z" fill="#4072E5"/>
<path d="M13 4V5H5V4H13ZM14 3H4V6H14V3Z" fill="#4072E5"/>
<path opacity="0.6" d="M14 7H10V8H14V7ZM14 9H10V10H14V9ZM14 11H4V12H14V11ZM2 1V3H0V12.5C0 12.8978 0.158035 13.2794 0.43934 13.5607C0.720644 13.842 1.10218 14 1.5 14H14.551C14.9353 14 15.3039 13.8473 15.5756 13.5756C15.8473 13.3039 16 12.9353 16 12.551V1H2ZM1 12.5V4H2V12.5C2 12.6326 1.94732 12.7598 1.85355 12.8536C1.75979 12.9473 1.63261 13 1.5 13C1.36739 13 1.24021 12.9473 1.14645 12.8536C1.05268 12.7598 1 12.6326 1 12.5ZM15 12.551C15 12.6701 14.9527 12.7843 14.8685 12.8685C14.7843 12.9527 14.6701 13 14.551 13H2.908C2.96722 12.8399 2.99834 12.6707 3 12.5V2H15V12.551Z" fill="white"/>
<path opacity="0.26" d="M8 8H5V9H8V8Z" fill="#66ADFF"/>
<path opacity="0.85" d="M8 8V9H5V8H8ZM9 7H4V10H9V7Z" fill="#66ADFF"/>
</symbol>
<symbol id="newspaper-article-white" viewBox="0 0 16 16">
<path opacity="0.3" d="M1.5 13.5C0.948 13.5 0.5 13.052 0.5 12.5L0.5 3.5H2.5V12.5C2.5 13.052 2.052 13.5 1.5 13.5ZM8.5 7.5H4.5V9.5H8.5V7.5ZM4.5 5.5V3.5H13.5V5.5H4.5Z" fill="white"/>
<path opacity="0.1" d="M2.5 1.5V13.5H14.551C15.074 13.5 15.5 13.074 15.5 12.551V1.5H2.5ZM8.5 9.5H4.5V7.5H8.5V9.5ZM13.5 5.5H4.5V3.5H13.5V5.5Z" fill="white"/>
<path d="M13 4V5H5V4H13ZM14 3H4V6H14V3Z" fill="white"/>
<path d="M8 8V9H5V8H8ZM9 7H4V10H9V7ZM14 7H10V8H14V7ZM14 9H10V10H14V9ZM14 11H4V12H14V11ZM2 1V3H0V12.449C0 13.277 0.672 13.949 1.5 13.949H14.551C15.351 13.949 16 13.3 16 12.5V1H2ZM1 12.449V4H2V12.449C2 12.725 1.776 12.949 1.5 12.949C1.224 12.949 1 12.725 1 12.449ZM15 12.5C15 12.748 14.799 12.949 14.551 12.949H2.908C2.964 12.792 3 12.625 3 12.449V2H15V12.5Z" fill="white"/>
</symbol>
<use xlink:href="#newspaper-article-light" viewBox="0 0 16 16"/>
</svg>