<svg xmlns="http://www.w3.org/2000/svg" xmlns:xlink="http://www.w3.org/1999/xlink">
<symbol id="newspaper-article-light" viewBox="0 0 16 16">
<path d="M2.5 14.5V1.5H15.5V13.551C15.4997 13.8026 15.3997 14.0438 15.2218 14.2218C15.0438 14.3997 14.8026 14.4997 14.551 14.5H2.5Z" fill="#F3F3F3"/>
<path d="M1.5 14.5C1.23478 14.5 0.98043 14.3946 0.792893 14.2071C0.605357 14.0196 0.5 13.7652 0.5 13.5V4H2.5V13.5C2.5 13.7652 2.39464 14.0196 2.20711 14.2071C2.01957 14.3946 1.76522 14.5 1.5 14.5Z" fill="#DBDBDB"/>
<path d="M13.5 4H4.5V6H13.5V4Z" fill="#C6D5F7"/>
<path d="M13 4.5V5.5H5V4.5H13ZM14 3.5H4V6.5H14V3.5Z" fill="#4072E5"/>
<path d="M14 7.5H10V8.5H14V7.5ZM14 9.5H10V10.5H14V9.5ZM14 11.5H4V12.5H14V11.5ZM2 1V3.5H0V13.5C0 13.8978 0.158035 14.2794 0.43934 14.5607C0.720644 14.842 1.10218 15 1.5 15H14.551C14.9353 15 15.3039 14.8473 15.5756 14.5756C15.8473 14.3039 16 13.9353 16 13.551V1H2ZM1 13.5V4.5H2V13.5C2 13.6326 1.94732 13.7598 1.85355 13.8536C1.75979 13.9473 1.63261 14 1.5 14C1.36739 14 1.24021 13.9473 1.14645 13.8536C1.05268 13.7598 1 13.6326 1 13.5ZM15 13.551C15 13.6701 14.9527 13.7843 14.8685 13.8685C14.7843 13.9527 14.6701 14 14.551 14H2.908C2.96722 13.8399 2.99834 13.6707 3 13.5V2H15V13.551Z" fill="#888888"/>
<path d="M8.5 8H4.5V10H8.5V8Z" fill="#D1E7FF"/>
<path d="M8 8.5V9.5H5V8.5H8ZM9 7.5H4V10.5H9V7.5Z" fill="#66ADFF"/>
</symbol>
<symbol id="newspaper-article-dark" viewBox="0 0 16 16">
<path opacity="0.24" d="M1 4.5V13.5C1 13.6326 1.05268 13.7598 1.14645 13.8536C1.24021 13.9473 1.36739 14 1.5 14C1.63261 14 1.75979 13.9473 1.85355 13.8536C1.94732 13.7598 2 13.6326 2 13.5V4.5H1Z" fill="white"/>
<path opacity="0.12" fill-rule="evenodd" clip-rule="evenodd" d="M14.8687 13.8685C14.9529 13.7843 15.0002 13.6701 15.0002 13.551V2H3.0002V13.5C2.99855 13.6707 2.96742 13.8399 2.9082 14H14.5512C14.6703 14 14.7845 13.9527 14.8687 13.8685ZM10.0002 7.5H14.0002V8.5H10.0002V7.5ZM10.0002 9.5H14.0002V10.5H10.0002V9.5ZM4.0002 11.5H14.0002V12.5H4.0002V11.5ZM4 3.5H14V6.5H4V3.5ZM9 7.5H4V10.5H9V7.5Z" fill="white"/>
<path opacity="0.3" d="M13 4.5H5V5.5H13V4.5Z" fill="#4072E5"/>
<path d="M13 4.5V5.5H5V4.5H13ZM14 3.5H4V6.5H14V3.5Z" fill="#4072E5"/>
<path opacity="0.6" d="M14 7.5H10V8.5H14V7.5ZM14 9.5H10V10.5H14V9.5ZM14 11.5H4V12.5H14V11.5ZM2 1V3.5H0V13.5C0 13.8978 0.158035 14.2794 0.43934 14.5607C0.720644 14.842 1.10218 15 1.5 15H14.551C14.9353 15 15.3039 14.8473 15.5756 14.5756C15.8473 14.3039 16 13.9353 16 13.551V1H2ZM1 13.5V4.5H2V13.5C2 13.6326 1.94732 13.7598 1.85355 13.8536C1.75979 13.9473 1.63261 14 1.5 14C1.36739 14 1.24021 13.9473 1.14645 13.8536C1.05268 13.7598 1 13.6326 1 13.5ZM15 13.551C15 13.6701 14.9527 13.7843 14.8685 13.8685C14.7843 13.9527 14.6701 14 14.551 14H2.908C2.96722 13.8399 2.99834 13.6707 3 13.5V2H15V13.551Z" fill="white"/>
<path opacity="0.26" d="M8 8.5H5V9.5H8V8.5Z" fill="#66ADFF"/>
<path opacity="0.85" d="M8 8.5V9.5H5V8.5H8ZM9 7.5H4V10.5H9V7.5Z" fill="#66ADFF"/>
</symbol>
<symbol id="newspaper-article-white" viewBox="0 0 16 16">
<path opacity="0.3" d="M1.5 14.5C0.948 14.5 0.5 14.052 0.5 13.5V4H2.5V13.5C2.5 14.052 2.052 14.5 1.5 14.5ZM8.5 8H4.5V10H8.5V8ZM4.5 6V4H13.5V6H4.5Z" fill="white"/>
<path opacity="0.1" d="M2.5 1.5V14.5H14.551C15.074 14.5 15.5 14.074 15.5 13.551V1.5H2.5ZM8.5 10H4.5V8H8.5V10ZM13.5 6H4.5V4H13.5V6Z" fill="white"/>
<path d="M13 4.5V5.5H5V4.5H13ZM14 3.5H4V6.5H14V3.5Z" fill="white"/>
<path d="M8 8.5V9.5H5V8.5H8ZM9 7.5H4V10.5H9V7.5ZM14 7.5H10V8.5H14V7.5ZM14 9.5H10V10.5H14V9.5ZM14 11.5H4V12.5H14V11.5ZM2 1V3.5H0V13.5C0 14.328 0.672 15 1.5 15H14.551C15.351 15 16 14.351 16 13.551V1H2ZM1 13.5V4.5H2V13.5C2 13.776 1.776 14 1.5 14C1.224 14 1 13.776 1 13.5ZM15 13.551C15 13.799 14.799 14 14.551 14H2.908C2.964 13.843 3 13.676 3 13.5V2H15V13.551Z" fill="white"/>
</symbol>
<use xlink:href="#newspaper-article-light" viewBox="0 0 16 16"/>
</svg>