<svg xmlns="http://www.w3.org/2000/svg" xmlns:xlink="http://www.w3.org/1999/xlink">
<symbol id="note-light" viewBox="0 0 16 16">
<path opacity="0.5" d="M14.5 0H1.5V16H9.707L14.5 11.207V0Z" fill="white"/>
<path d="M13.5 1V10.793L9.293 15H2.5V1H13.5Z" fill="white"/>
<path opacity="0.2" d="M14.5 11.207V0H1.5V16H9.707L14.5 11.207ZM10 11.5H12.793L10 14.293V11.5ZM13.5 1V10.5H9V15H2.5V1H13.5Z" fill="black"/>
<path d="M13.5 1V2H2.5V1H13.5ZM14.5 0H1.5V3H14.5V0Z" fill="#FAA700"/>
<path opacity="0.4" d="M13.5 1H2.5V2H13.5V1Z" fill="#FAA700"/>
<path opacity="0.08" d="M10 11.5V14.293L12.793 11.5H10Z" fill="black"/>
</symbol>
<symbol id="note-dark" viewBox="0 0 16 16">
<path opacity="0.8" d="M13.5 1V2H2.5V1H13.5ZM14.5 0H1.5V3H14.5V0Z" fill="#FAA700"/>
<path opacity="0.6" fill-rule="evenodd" clip-rule="evenodd" d="M14.5 3V11.207L9.707 16H1.5V3H2.5V15H9V10.5H13.5V3H14.5ZM12.793 11.5H10V14.293L12.793 11.5Z" fill="white"/>
<path opacity="0.32" d="M13.5 1H2.5V2H13.5V1Z" fill="#FAA700"/>
<path opacity="0.24" d="M10 11.5V14.293L12.793 11.5H10Z" fill="white"/>
</symbol>
<symbol id="note-white" viewBox="0 0 16 16">
<path opacity="0.4" d="M9.5 15.5V11H14L9.5 15.5Z" fill="white"/>
<path d="M1.5 0V16H9.707L14.5 11.207V0H1.5ZM2.5 1H13.5V2H2.5V1ZM10 14.293V11.5H12.793L10 14.293ZM13.5 10.5H9V15H2.5V3H13.5V10.5Z" fill="white"/>
<path opacity="0.4" d="M13.5 1H2.5V2H13.5V1Z" fill="white"/>
</symbol>
<use xlink:href="#note-light" viewBox="0 0 16 16"/>
</svg>