<svg xmlns="http://www.w3.org/2000/svg" xmlns:xlink="http://www.w3.org/1999/xlink">
<symbol id="note-light" viewBox="0 0 16 16">
<path opacity="0.5" d="M15 0H2V16H9.707L15 10.707V0Z" fill="white"/>
<path d="M14.0001 1V10.293L9.293 15H3L3.00006 1H14.0001Z" fill="white"/>
<path opacity="0.2" d="M15 10.707V0H2V16H9.707L15 10.707ZM10 11H13.293L10 14.293V11ZM14 1V10H9V15H3V1H14Z" fill="black"/>
<path d="M14 1V2H3V1H14ZM15 0H2V3H15V0Z" fill="#FAA700"/>
<path opacity="0.4" d="M14 1H3V2H14V1Z" fill="#FAA700"/>
<path opacity="0.08" d="M10 11V14.293L13.293 11H10Z" fill="black"/>
</symbol>
<symbol id="note-dark" viewBox="0 0 16 16">
<path opacity="0.8" d="M14 1V2H3V1H14ZM15 0H2V3H15V0Z" fill="#FAA700"/>
<path opacity="0.6" fill-rule="evenodd" clip-rule="evenodd" d="M15 3V10.707L9.707 16H2V3H3V15H9V10H14V3H15ZM13.293 11H10V14.293L13.293 11Z" fill="white"/>
<path opacity="0.32" d="M14 1H3V2H14V1Z" fill="#FAA700"/>
<path opacity="0.24" d="M10 11V14.293L13.293 11H10Z" fill="white"/>
</symbol>
<symbol id="note-white" viewBox="0 0 16 16">
<path opacity="0.4" d="M10 15V11H14L10 15Z" fill="white"/>
<path d="M2 0V16H9.707L15 10.707V0H2ZM3 1H14V2H3V1ZM10 14.293V11H13.293L10 14.293ZM14 10H9V15H3V3H14V10Z" fill="white"/>
<path opacity="0.4" d="M14 1H3V2H14V1Z" fill="white"/>
</symbol>
<use xlink:href="#note-light" viewBox="0 0 16 16"/>
</svg>