<!-- This file is part of Zotero. It is distributed under the GNU Affero General Public License version 3. -->
<svg xmlns="http://www.w3.org/2000/svg" xmlns:xlink="http://www.w3.org/1999/xlink">
<symbol id="podcast-light" viewBox="0 0 16 16">
<path opacity="0.2" d="M5.5 16V13.444C5.5 12.064 6.006 11.5 8 11.5C9.994 11.5 10.5 12.064 10.5 13.444V16" fill="#444444"/>
<path opacity="0.2" d="M8 9.5C8.82843 9.5 9.5 8.82843 9.5 8C9.5 7.17157 8.82843 6.5 8 6.5C7.17157 6.5 6.5 7.17157 6.5 8C6.5 8.82843 7.17157 9.5 8 9.5Z" fill="#444444"/>
<path d="M1.867 13.1368C0.889591 11.9698 0.265407 10.5482 0.06774 9.03883C-0.129927 7.5295 0.107127 5.99509 0.751071 4.61578C1.39501 3.23646 2.41912 2.0695 3.70313 1.2519C4.98715 0.434296 6.47778 0 8 0C9.52223 0 11.0129 0.434296 12.2969 1.2519C13.5809 2.0695 14.605 3.23646 15.2489 4.61578C15.8929 5.99509 16.1299 7.5295 15.9323 9.03883C15.7346 10.5482 15.1104 11.9698 14.133 13.1368L13.421 12.4248C14.2591 11.3989 14.7888 10.1563 14.9488 8.84134C15.1087 7.52637 14.8923 6.19301 14.3246 4.99617C13.7569 3.79932 12.8612 2.78813 11.7417 2.08006C10.6221 1.372 9.32467 0.996131 8 0.996131C6.67534 0.996131 5.37787 1.372 4.25833 2.08006C3.13879 2.78813 2.24314 3.79932 1.67543 4.99617C1.10773 6.19301 0.891274 7.52637 1.05122 8.84134C1.21116 10.1563 1.74094 11.3989 2.579 12.4248L1.867 13.1368ZM4 8.00376C3.99814 7.37515 4.14446 6.75494 4.42709 6.19345C4.70973 5.63196 5.12072 5.14498 5.62673 4.77201C6.13275 4.39905 6.71955 4.15059 7.33954 4.0468C7.95953 3.94301 8.59525 3.9868 9.19515 4.17462C9.79505 4.36245 10.3422 4.68902 10.7923 5.12784C11.2424 5.56667 11.5828 6.1054 11.7857 6.70035C11.9887 7.2953 12.0486 7.9297 11.9606 8.55212C11.8725 9.17454 11.639 9.76745 11.279 10.2828L11.988 10.9918C12.4627 10.3585 12.7801 9.62155 12.914 8.84156C13.0479 8.06156 12.9945 7.26091 12.7581 6.50563C12.5218 5.75034 12.1093 5.06205 11.5546 4.49752C11 3.93299 10.3191 3.50839 9.56813 3.25873C8.81714 3.00907 8.01756 2.9415 7.23532 3.06159C6.45308 3.18169 5.71059 3.486 5.06908 3.94945C4.42757 4.4129 3.90542 5.0222 3.54567 5.72711C3.18593 6.43203 2.9989 7.21236 3 8.00376C3.00309 9.08337 3.35841 10.1325 4.012 10.9918L4.721 10.2828C4.25196 9.61535 4.00018 8.81951 4 8.00376Z" fill="#FF794C"/>
<path d="M11 13.444C11 11.686 10.159 11 8 11C5.841 11 5 11.686 5 13.444V16H6V13.444C6 12.521 6.093 12 8 12C9.907 12 10 12.521 10 13.444V16H11V13.444ZM8 6C7.60444 6 7.21776 6.1173 6.88886 6.33706C6.55996 6.55682 6.30362 6.86918 6.15224 7.23463C6.00087 7.60009 5.96126 8.00222 6.03843 8.39018C6.1156 8.77814 6.30608 9.13451 6.58579 9.41421C6.86549 9.69392 7.22186 9.8844 7.60982 9.96157C7.99778 10.0387 8.39991 9.99913 8.76537 9.84776C9.13082 9.69638 9.44318 9.44004 9.66294 9.11114C9.8827 8.78224 10 8.39556 10 8C10 7.46957 9.78929 6.96086 9.41421 6.58579C9.03914 6.21071 8.53043 6 8 6ZM8 9C7.80222 9 7.60888 8.94135 7.44443 8.83147C7.27998 8.72159 7.15181 8.56541 7.07612 8.38268C7.00043 8.19996 6.98063 7.99889 7.01921 7.80491C7.0578 7.61093 7.15304 7.43275 7.29289 7.29289C7.43275 7.15304 7.61093 7.0578 7.80491 7.01921C7.99889 6.98063 8.19996 7.00043 8.38268 7.07612C8.56541 7.15181 8.72159 7.27998 8.83147 7.44443C8.94135 7.60888 9 7.80222 9 8C9 8.26522 8.89464 8.51957 8.70711 8.70711C8.51957 8.89464 8.26522 9 8 9Z" fill="#444444"/>
</symbol>
<symbol id="podcast-dark" viewBox="0 0 16 16">
<g opacity="0.2">
<path d="M6 16H10V13.444C10 12.521 9.907 12 8 12C6.093 12 6 12.521 6 13.444V16Z" fill="#444444"/>
<path d="M7.44443 8.83147C7.60888 8.94135 7.80222 9 8 9C8.26522 9 8.51957 8.89464 8.70711 8.70711C8.89464 8.51957 9 8.26522 9 8C9 7.80222 8.94135 7.60888 8.83147 7.44443C8.72159 7.27998 8.56541 7.15181 8.38268 7.07612C8.19996 7.00043 7.99889 6.98063 7.80491 7.01922C7.61093 7.0578 7.43275 7.15304 7.29289 7.29289C7.15304 7.43275 7.0578 7.61093 7.01921 7.80491C6.98063 7.99889 7.00043 8.19996 7.07612 8.38268C7.15181 8.56541 7.27998 8.72159 7.44443 8.83147Z" fill="#444444"/>
</g>
<path opacity="0.6" d="M11 13.444C11 11.686 10.159 11 8 11C5.841 11 5 11.686 5 13.444V16H6V13.444C6 12.521 6.093 12 8 12C9.907 12 10 12.521 10 13.444V16H11V13.444ZM8 6C7.60444 6 7.21776 6.1173 6.88886 6.33706C6.55996 6.55682 6.30362 6.86918 6.15224 7.23463C6.00087 7.60009 5.96126 8.00222 6.03843 8.39018C6.1156 8.77814 6.30608 9.13451 6.58579 9.41421C6.86549 9.69392 7.22186 9.8844 7.60982 9.96157C7.99778 10.0387 8.39991 9.99913 8.76537 9.84776C9.13082 9.69638 9.44318 9.44004 9.66294 9.11114C9.8827 8.78224 10 8.39556 10 8C10 7.46957 9.78929 6.96086 9.41421 6.58579C9.03914 6.21071 8.53043 6 8 6ZM8 9C7.80222 9 7.60888 8.94135 7.44443 8.83147C7.27998 8.72159 7.15181 8.56541 7.07612 8.38268C7.00043 8.19996 6.98063 7.99889 7.01921 7.80491C7.0578 7.61093 7.15304 7.43275 7.29289 7.29289C7.43275 7.15304 7.61093 7.0578 7.80491 7.01921C7.99889 6.98063 8.19996 7.00043 8.38268 7.07612C8.56541 7.15181 8.72159 7.27998 8.83147 7.44443C8.94135 7.60888 9 7.80222 9 8C9 8.26522 8.89464 8.51957 8.70711 8.70711C8.51957 8.89464 8.26522 9 8 9Z" fill="white"/>
<path opacity="0.85" d="M1.867 13.1368C0.889591 11.9698 0.265407 10.5482 0.06774 9.03883C-0.129927 7.5295 0.107127 5.99509 0.751071 4.61578C1.39501 3.23646 2.41912 2.0695 3.70313 1.2519C4.98715 0.434296 6.47778 0 8 0C9.52223 0 11.0129 0.434296 12.2969 1.2519C13.5809 2.0695 14.605 3.23646 15.2489 4.61578C15.8929 5.99509 16.1299 7.5295 15.9323 9.03883C15.7346 10.5482 15.1104 11.9698 14.133 13.1368L13.421 12.4248C14.2591 11.3989 14.7888 10.1563 14.9488 8.84134C15.1087 7.52637 14.8923 6.19301 14.3246 4.99617C13.7569 3.79932 12.8612 2.78813 11.7417 2.08006C10.6221 1.372 9.32467 0.996131 8 0.996131C6.67534 0.996131 5.37787 1.372 4.25833 2.08006C3.13879 2.78813 2.24314 3.79932 1.67543 4.99617C1.10773 6.19301 0.891274 7.52637 1.05122 8.84134C1.21116 10.1563 1.74094 11.3989 2.579 12.4248L1.867 13.1368ZM4 8.00376C3.99814 7.37515 4.14446 6.75494 4.42709 6.19345C4.70973 5.63196 5.12072 5.14498 5.62673 4.77201C6.13275 4.39905 6.71955 4.15059 7.33954 4.0468C7.95953 3.94301 8.59525 3.9868 9.19515 4.17462C9.79505 4.36245 10.3422 4.68902 10.7923 5.12784C11.2424 5.56667 11.5828 6.1054 11.7857 6.70035C11.9887 7.2953 12.0486 7.9297 11.9606 8.55212C11.8725 9.17454 11.639 9.76745 11.279 10.2828L11.988 10.9918C12.4627 10.3585 12.7801 9.62155 12.914 8.84156C13.0479 8.06156 12.9945 7.26091 12.7581 6.50563C12.5218 5.75034 12.1093 5.06205 11.5546 4.49752C11 3.93299 10.3191 3.50839 9.56813 3.25873C8.81714 3.00907 8.01756 2.9415 7.23532 3.06159C6.45308 3.18169 5.71059 3.486 5.06908 3.94945C4.42757 4.4129 3.90542 5.0222 3.54567 5.72711C3.18593 6.43203 2.9989 7.21236 3 8.00376C3.00309 9.08337 3.35841 10.1325 4.012 10.9918L4.721 10.2828C4.25196 9.61535 4.00018 8.81951 4 8.00376Z" fill="#FF794C"/>
</symbol>
<symbol id="podcast-white" viewBox="0 0 16 16">
<g clip-path="url(#clip0_143_1396)">
<path opacity="0.2" d="M5.5 16V13.444C5.5 12.063 6.006 11.5 8 11.5C9.994 11.5 10.5 12.064 10.5 13.444V16M8 6.5C7.172 6.5 6.5 7.172 6.5 8C6.5 8.828 7.172 9.5 8 9.5C8.828 9.5 9.5 8.828 9.5 8C9.5 7.172 8.828 6.5 8 6.5Z" fill="white"/>
<path d="M1.867 13.133C0.703 11.743 0 9.955 0 8C0 3.582 3.582 0 8 0C12.418 0 16 3.582 16 8C16 9.955 15.297 11.744 14.133 13.133L13.421 12.421C14.407 11.215 15 9.676 15 8C15 4.14 11.86 1 8 1C4.14 1 1 4.14 1 8C1 9.676 1.593 11.215 2.579 12.421L1.867 13.133ZM4 8C4 5.794 5.794 4 8 4C10.206 4 12 5.794 12 8C12 8.848 11.731 9.632 11.279 10.279L11.987 10.987C12.614 10.152 12.999 9.125 12.999 7.999C12.999 5.238 10.76 2.999 7.999 2.999C5.238 2.999 2.999 5.238 2.999 7.999C2.999 9.124 3.384 10.151 4.011 10.987L4.719 10.279C4.267 9.631 3.998 8.847 3.998 8H4ZM11 13.444C11 11.685 10.159 11 8 11C5.841 11 5 11.686 5 13.444V16H6V13.444C6 12.521 6.093 12 8 12C9.907 12 10 12.521 10 13.444V16H11V13.444ZM8 6C6.895 6 6 6.895 6 8C6 9.105 6.895 10 8 10C9.105 10 10 9.105 10 8C10 6.895 9.105 6 8 6ZM8 9C7.449 9 7 8.551 7 8C7 7.449 7.449 7 8 7C8.551 7 9 7.449 9 8C9 8.551 8.551 9 8 9Z" fill="white"/>
</g>
<defs>
<clipPath id="clip0_143_1396">
<rect width="16" height="16" fill="white"/>
</clipPath>
</defs>
</symbol>
<use xlink:href="#podcast-light" viewBox="0 0 16 16"/>
</svg>