<svg xmlns="http://www.w3.org/2000/svg" xmlns:xlink="http://www.w3.org/1999/xlink">
<symbol id="preprint-light" viewBox="0 0 16 16">
<path opacity="0.5" d="M9.707 0H1.5V16H14.5V4.793L9.707 0Z" fill="white"/>
<path d="M9.293 1L13.5 5.207V15H2.5V1H9.293Z" fill="white"/>
<path d="M7.5 5.5H4.5V4.5H7.5V5.5ZM11.5 7H4.5V8H11.5V7ZM11.5 9.5H4.5V10.5H10.5L11.5 9.5ZM7.5 12H4.5V13H7L7.5 12Z" fill="#444444"/>
<path opacity="0.2" d="M9.707 0H1.5V16H14.5V4.793L9.707 0ZM10 1.707L12.793 4.5H10V1.707ZM2.5 15V1H9V5.5H13.5V15H2.5Z" fill="black"/>
<path opacity="0.08" d="M10 1.70703V4.50003H12.793L10 1.70703Z" fill="black"/>
<path d="M13.4994 5.0002L12.9995 5.50012L13.4994 6.00005L13.9994 5.50012L13.4994 5.0002Z" fill="#E0AF97"/>
<path d="M13.9994 5.5002L13.4995 6.00012L13.9994 6.50005L14.4994 6.00012L13.9994 5.5002Z" fill="white"/>
<path d="M14.4994 6.0002L13.9995 6.50012L14.4994 7.00005L14.9994 6.50012L14.4994 6.0002Z" fill="#E0AF97"/>
<path d="M14.4998 3.9993L13.5 4.99915L14.9998 6.49892L15.9996 5.49907L14.4998 3.9993Z" fill="#DB2C3A"/>
<path d="M9 12.5L14.5 7L13 5.5L7.5 11L7 13L9 12.5Z" fill="#CC7A52"/>
<path d="M8.37517 11.125L8.13817 11.361L7.97217 12.028L8.63917 11.862L8.87517 11.625L8.37517 11.125Z" fill="#EBCABA"/>
</symbol>
<symbol id="preprint-dark" viewBox="0 0 16 16">
<path opacity="0.75" fill-rule="evenodd" clip-rule="evenodd" d="M7.25 12L7 13H4.5V12H7.25ZM10.5 8H4.5V7H11.5L10.5 8ZM9 9.5H4.5V10.5H8L9 9.5ZM4.5 5.5H7.5V4.5H4.5V5.5Z" fill="white"/>
<path opacity="0.6" fill-rule="evenodd" clip-rule="evenodd" d="M1.5 0H9.707L14.1035 4.3965L13 5.5H9V1H2.5V15H13.5V8L14.5 7V16H1.5V0ZM12.793 4.5L10 1.707V4.5H12.793Z" fill="white"/>
<path opacity="0.24" d="M10 1.70703V4.50003H12.793L10 1.70703Z" fill="white"/>
<path opacity="0.54" d="M13.4994 5.0002L12.9995 5.50012L13.4994 6.00005L13.9994 5.50012L13.4994 5.0002Z" fill="#CC7A52"/>
<path opacity="0.54" d="M14.4994 6.0002L13.9995 6.50012L14.4994 7.00005L14.9994 6.50012L14.4994 6.0002Z" fill="#CC7A52"/>
<path opacity="0.9" d="M14.4998 3.9993L13.5 4.99915L14.9998 6.49892L15.9996 5.49907L14.4998 3.9993Z" fill="#DB2C3A"/>
<path opacity="0.36" d="M8.37517 11.125L8.13817 11.361L7.97217 12.028L8.63917 11.862L8.87517 11.625L8.37517 11.125Z" fill="#CC7A52"/>
<path opacity="0.9" fill-rule="evenodd" clip-rule="evenodd" d="M14.5 7L9 12.5L7 13L7.5 11L13 5.5L14.5 7ZM8.13817 11.361L8.37517 11.125L8.87517 11.625L8.63917 11.862L7.97217 12.028L8.13817 11.361Z" fill="#CC7A52"/>
</symbol>
<symbol id="preprint-white" viewBox="0 0 16 16">
<path opacity="0.4" d="M9.5 0.5V5H14L9.5 0.5Z" fill="white"/>
<path d="M7.5 5.5H4.5V4.5H7.5V5.5ZM11.5 7H4.5V8H11.5V7ZM11 9.5H4.5V10.5H11V9.5ZM7.5 12H4.5V13H7L7.5 12Z" fill="white"/>
<path fill-rule="evenodd" clip-rule="evenodd" d="M1.5 0H9.707L14.1035 4.3965L13 5.5H9V1H2.5V15H13.5V8L14.5 7V16H1.5V0ZM12.793 4.5L10 1.707V4.5H12.793Z" fill="white"/>
<path opacity="0.6" d="M13.4994 5.0002L12.9995 5.50012L13.4994 6.00005L13.9994 5.50012L13.4994 5.0002Z" fill="white"/>
<path opacity="0.6" d="M14.4994 6.0002L13.9995 6.50012L14.4994 7.00005L14.9994 6.50012L14.4994 6.0002Z" fill="white"/>
<path d="M14.4998 3.9993L13.5 4.99915L14.9998 6.49892L15.9996 5.49907L14.4998 3.9993Z" fill="white"/>
<path fill-rule="evenodd" clip-rule="evenodd" d="M14.5 7L9 12.5L7 13L7.5 11L13 5.5L14.5 7ZM8.13817 11.361L8.37517 11.125L8.87517 11.625L8.63917 11.862L7.97217 12.028L8.13817 11.361Z" fill="white"/>
<path opacity="0.4" d="M8.37517 11.125L8.13817 11.361L7.97217 12.028L8.63917 11.862L8.87517 11.625L8.37517 11.125Z" fill="white"/>
</symbol>
<use xlink:href="#preprint-light" viewBox="0 0 16 16"/>
</svg>