<!-- This file is part of Zotero. It is distributed under the GNU Affero General Public License version 3. -->
<svg xmlns="http://www.w3.org/2000/svg" xmlns:xlink="http://www.w3.org/1999/xlink">
<symbol id="presentation-light" viewBox="0 0 16 16">
<path d="M15.5 0.5H1.5V10.5H15.5V0.5Z" fill="white"/>
<path d="M16 11V0H1V11H8V12.293L5.146 15.146C5.05211 15.2399 4.99937 15.3672 4.99937 15.5C4.99937 15.6328 5.05211 15.7601 5.146 15.854C5.23989 15.9479 5.36722 16.0006 5.5 16.0006C5.63278 16.0006 5.76011 15.9479 5.854 15.854L8 13.707V15.5C8 15.6326 8.05268 15.7598 8.14645 15.8536C8.24021 15.9473 8.36739 16 8.5 16C8.63261 16 8.75979 15.9473 8.85355 15.8536C8.94732 15.7598 9 15.6326 9 15.5V13.707L11.146 15.854C11.2399 15.9479 11.3672 16.0006 11.5 16.0006C11.6328 16.0006 11.7601 15.9479 11.854 15.854C11.9479 15.7601 12.0006 15.6328 12.0006 15.5C12.0006 15.3672 11.9479 15.2399 11.854 15.146L9 12.293V11H16ZM2 10V1H15V10H2Z" fill="#444444"/>
<path d="M14 4.5L10 6.5L7 4.5L3 6.5V9H14V4.5Z" fill="#C2DEFF"/>
<path d="M14 3.94097L10.036 5.92297L7.036 3.92297L3 5.94097V7.05897L6.964 5.07697L9.964 7.07697L14 5.05897V3.94097Z" fill="#66ADFF"/>
</symbol>
<symbol id="presentation-dark" viewBox="0 0 16 16">
<path opacity="0.6" d="M16 11V0H1V11H8V12.293L5.146 15.146C5.05211 15.2399 4.99937 15.3672 4.99937 15.5C4.99937 15.6328 5.05211 15.7601 5.146 15.854C5.23989 15.9479 5.36722 16.0006 5.5 16.0006C5.63278 16.0006 5.76011 15.9479 5.854 15.854L8 13.707V15.5C8 15.6326 8.05268 15.7598 8.14645 15.8536C8.24021 15.9473 8.36739 16 8.5 16C8.63261 16 8.75979 15.9473 8.85355 15.8536C8.94732 15.7598 9 15.6326 9 15.5V13.707L11.146 15.854C11.2399 15.9479 11.3672 16.0006 11.5 16.0006C11.6328 16.0006 11.7601 15.9479 11.854 15.854C11.9479 15.7601 12.0006 15.6328 12.0006 15.5C12.0006 15.3672 11.9479 15.2399 11.854 15.146L9 12.293V11H16ZM2 10V1H15V10H2Z" fill="white"/>
<path opacity="0.85" d="M14 3.94097L10.036 5.92297L7.036 3.92297L3 5.94097V7.05897L6.964 5.07697L9.964 7.07697L14 5.05897V3.94097Z" fill="#66ADFF"/>
<path opacity="0.51" d="M3 7.05908V8.99999H14V5.05908L9.964 7.07708L6.964 5.07708L3 7.05908Z" fill="#66ADFF"/>
</symbol>
<symbol id="presentation-white" viewBox="0 0 16 16">
<g clip-path="url(#clip0_143_1395)">
<path d="M16 11V0H1V11H8V12.293L5.146 15.147C4.951 15.342 4.951 15.659 5.146 15.854C5.244 15.952 5.372 16 5.5 16C5.628 16 5.756 15.951 5.854 15.854L8 13.708V15.501C8 15.777 8.224 16.001 8.5 16.001C8.776 16.001 9 15.777 9 15.501V13.708L11.146 15.854C11.244 15.952 11.372 16 11.5 16C11.628 16 11.756 15.951 11.854 15.854C12.049 15.659 12.049 15.342 11.854 15.147L9 12.293V11H16ZM2 10V1H15V10H2Z" fill="white"/>
<path opacity="0.4" d="M14 4.5L10 6.5L7 4.5L3 6.5V9H14V4.5Z" fill="white"/>
<path d="M14 3.94097L10.036 5.92297L7.036 3.92297L3 5.94097V7.05897L6.964 5.07697L9.964 7.07697L14 5.05897V3.94097Z" fill="white"/>
</g>
<defs>
<clipPath id="clip0_143_1395">
<rect width="16" height="16" fill="white"/>
</clipPath>
</defs>
</symbol>
<use xlink:href="#presentation-light" viewBox="0 0 16 16"/>
</svg>