<!-- This file is part of Zotero. It is distributed under the GNU Affero General Public License version 3. -->
<svg xmlns="http://www.w3.org/2000/svg" xmlns:xlink="http://www.w3.org/1999/xlink">
<symbol id="presentation-light" viewBox="0 0 16 16">
<path d="M15 0.5H1V10.5H15V0.5Z" fill="white"/>
<path d="M15.5 11V0H0.5V11H7.5V12.293L4.646 15.146C4.55211 15.2399 4.49937 15.3672 4.49937 15.5C4.49937 15.6328 4.55211 15.7601 4.646 15.854C4.73989 15.9479 4.86722 16.0006 5 16.0006C5.13278 16.0006 5.26011 15.9479 5.354 15.854L7.5 13.707V15.5C7.5 15.6326 7.55268 15.7598 7.64645 15.8536C7.74021 15.9473 7.86739 16 8 16C8.13261 16 8.25979 15.9473 8.35355 15.8536C8.44732 15.7598 8.5 15.6326 8.5 15.5V13.707L10.646 15.854C10.7399 15.9479 10.8672 16.0006 11 16.0006C11.1328 16.0006 11.2601 15.9479 11.354 15.854C11.4479 15.7601 11.5006 15.6328 11.5006 15.5C11.5006 15.3672 11.4479 15.2399 11.354 15.146L8.5 12.293V11H15.5ZM1.5 10V1H14.5V10H1.5Z" fill="#444444"/>
<path d="M13.5 4.5L9.5 6.5L6.5 4.5L2.5 6.5V9H13.5V4.5Z" fill="#C2DEFF"/>
<path d="M13.5 3.94097L9.536 5.92297L6.536 3.92297L2.5 5.94097V7.05897L6.464 5.07697L9.464 7.07697L13.5 5.05897V3.94097Z" fill="#66ADFF"/>
</symbol>
<symbol id="presentation-dark" viewBox="0 0 16 16">
<path opacity="0.6" d="M15.5 11V0H0.5V11H7.5V12.293L4.646 15.146C4.55211 15.2399 4.49937 15.3672 4.49937 15.5C4.49937 15.6328 4.55211 15.7601 4.646 15.854C4.73989 15.9479 4.86722 16.0006 5 16.0006C5.13278 16.0006 5.26011 15.9479 5.354 15.854L7.5 13.707V15.5C7.5 15.6326 7.55268 15.7598 7.64645 15.8536C7.74021 15.9473 7.86739 16 8 16C8.13261 16 8.25979 15.9473 8.35355 15.8536C8.44732 15.7598 8.5 15.6326 8.5 15.5V13.707L10.646 15.854C10.7399 15.9479 10.8672 16.0006 11 16.0006C11.1328 16.0006 11.2601 15.9479 11.354 15.854C11.4479 15.7601 11.5006 15.6328 11.5006 15.5C11.5006 15.3672 11.4479 15.2399 11.354 15.146L8.5 12.293V11H15.5ZM1.5 10V1H14.5V10H1.5Z" fill="white"/>
<path opacity="0.85" d="M13.5 3.94097L9.536 5.92297L6.536 3.92297L2.5 5.94097V7.05897L6.464 5.07697L9.464 7.07697L13.5 5.05897V3.94097Z" fill="#66ADFF"/>
<path opacity="0.51" d="M2.5 7.05908V8.99999H13.5V5.05908L9.464 7.07708L6.464 5.07708L2.5 7.05908Z" fill="#66ADFF"/>
</symbol>
<symbol id="presentation-white" viewBox="0 0 16 16">
<g clip-path="url(#clip0_1358_85621)">
<path d="M15.5 11V0H0.5V11H7.5V12.293L4.646 15.147C4.451 15.342 4.451 15.659 4.646 15.854C4.744 15.952 4.872 16 5 16C5.128 16 5.256 15.951 5.354 15.854L7.5 13.708V15.501C7.5 15.777 7.724 16.001 8 16.001C8.276 16.001 8.5 15.777 8.5 15.501V13.708L10.646 15.854C10.744 15.952 10.872 16 11 16C11.128 16 11.256 15.951 11.354 15.854C11.549 15.659 11.549 15.342 11.354 15.147L8.5 12.293V11H15.5ZM1.5 10V1H14.5V10H1.5Z" fill="white"/>
<path opacity="0.4" d="M13.5 4.5L9.5 6.5L6.5 4.5L2.5 6.5V9H13.5V4.5Z" fill="white"/>
<path d="M13.5 3.94097L9.536 5.92297L6.536 3.92297L2.5 5.94097V7.05897L6.464 5.07697L9.464 7.07697L13.5 5.05897V3.94097Z" fill="white"/>
</g>
<defs>
<clipPath id="clip0_1358_85621">
<rect width="16" height="16" fill="white"/>
</clipPath>
</defs>
</symbol>
<use xlink:href="#presentation-light" viewBox="0 0 16 16"/>
</svg>