<!-- This file is part of Zotero. It is distributed under the GNU Affero General Public License version 3. -->
<svg xmlns="http://www.w3.org/2000/svg" xmlns:xlink="http://www.w3.org/1999/xlink">
<symbol id="statute-light" viewBox="0 0 16 16">
<path d="M4.5 13H3.5V5.00003H4.5V13ZM8.5 5.00003H7.5V13H8.5V5.00003ZM12.5 5.00003H11.5V13H12.5V5.00003ZM13.5 14H2.5V15H13.5V14ZM14 4.50003V3.32003L8 0.551025L2 3.32003V4.50003H14Z" fill="#E7E7E7"/>
<path d="M14.5 15V13H13.5V5H14.5V3L8 0L1.5 3V5H2.5V13H1.5V15H0.5V16H15.5V15H14.5ZM5.5 5H6.5V13H5.5V5ZM7.5 5H8.5V13H7.5V5ZM9.5 5H10.5V13H9.5V5ZM11.5 5H12.5V13H11.5V5ZM2.5 3.64L8 1.1L13.5 3.64V4H2.5V3.64ZM4.5 5V13H3.5V5H4.5ZM13.5 15H2.5V14H13.5V15Z" fill="#888888"/>
</symbol>
<symbol id="statute-dark" viewBox="0 0 16 16">
<path opacity="0.6" d="M14.5 15V13H13.5V5H14.5V3L8 0L1.5 3V5H2.5V13H1.5V15H0.5V16H15.5V15H14.5ZM5.5 5H6.5V13H5.5V5ZM7.5 5H8.5V13H7.5V5ZM9.5 5H10.5V13H9.5V5ZM11.5 5H12.5V13H11.5V5ZM2.5 3.64L8 1.1L13.5 3.64V4H2.5V3.64ZM4.5 5V13H3.5V5H4.5ZM13.5 15H2.5V14H13.5V15Z" fill="white"/>
<g opacity="0.12">
<path d="M7.5 5.00012V13.0001H8.5V5.00012H7.5Z" fill="white"/>
<path d="M11.5 5.00012V13.0001H12.5V5.00012H11.5Z" fill="white"/>
<path d="M8 1.1001L2.5 3.6401V4.0001H13.5V3.6401L8 1.1001Z" fill="white"/>
<path d="M3.5 5.00012V13.0001H4.5V5.00012H3.5Z" fill="white"/>
<path d="M2.5 14.0001V15.0001H13.5V14.0001H2.5Z" fill="white"/>
</g>
</symbol>
<symbol id="statute-white" viewBox="0 0 16 16">
<g clip-path="url(#clip0_1358_85678)">
<path opacity="0.2" d="M4.5 13H3.5V5.00003H4.5V13ZM8.5 5.00003H7.5V13H8.5V5.00003ZM12.5 5.00003H11.5V13H12.5V5.00003ZM13.5 14H2.5V15H13.5V14ZM14 4.50003V3.32003L8 0.551025L2 3.32003V4.50003H14Z" fill="white"/>
<path d="M14.5 15V13H13.5V5H14.5V3L8 0L1.5 3V5H2.5V13H1.5V15H0.5V16H15.5V15H14.5ZM5.5 5H6.5V13H5.5V5ZM7.5 5H8.5V13H7.5V5ZM9.5 5H10.5V13H9.5V5ZM11.5 5H12.5V13H11.5V5ZM2.5 3.64L8 1.102L13.5 3.64V4H2.5V3.64ZM4.5 5V13H3.5V5H4.5ZM13.5 15H2.5V14H13.5V15Z" fill="white"/>
</g>
<defs>
<clipPath id="clip0_1358_85678">
<rect width="16" height="16" fill="white"/>
</clipPath>
</defs>
</symbol>
<use xlink:href="#statute-light" viewBox="0 0 16 16"/>
</svg>