<svg xmlns="http://www.w3.org/2000/svg" xmlns:xlink="http://www.w3.org/1999/xlink">
<symbol id="thesis-light" viewBox="0 0 16 16">
<path d="M2.00004 12.224V7H1.00004V12.224C0.57746 12.9029 0.400943 13.7065 0.500043 14.5C0.500043 14.776 0.948043 15 1.50004 15C2.05204 15 2.50004 14.776 2.50004 14.5C2.59914 13.7065 2.42262 12.9029 2.00004 12.224Z" fill="#FF794C"/>
<path d="M8 13.5C5.561 13.5 3.5 12.355 3.5 11V6.875H12.5V11C12.5 12.355 10.439 13.5 8 13.5Z" fill="#8F8F8F"/>
<path d="M1.02002 6.5L8.00002 2.573L14.98 6.5L8.00002 10.427L1.02002 6.5Z" fill="#B4B4B4"/>
<path d="M16 6.5L8 2L0 6.5L3 8.188V11C3 12.657 5.239 14 8 14C10.761 14 13 12.657 13 11V8.188L16 6.5ZM8 3.147L13.96 6.5L8 9.853L2.04 6.5L8 3.147ZM12 11C12 11.944 10.289 13 8 13C5.711 13 4 11.944 4 11V8.75L8 11L12 8.75V11Z" fill="#444444"/>
</symbol>
<symbol id="thesis-dark" viewBox="0 0 16 16">
<path opacity="0.6" d="M16 6.5L8 2L0 6.5L3 8.188V11C3 12.657 5.239 14 8 14C10.761 14 13 12.657 13 11V8.188L16 6.5ZM8 3.147L13.96 6.5L8 9.853L2.04 6.5L8 3.147ZM12 11C12 11.944 10.289 13 8 13C5.711 13 4 11.944 4 11V8.75L8 11L12 8.75V11Z" fill="white"/>
<path opacity="0.8" d="M1.00004 7.06274L2.00004 7.62541V12.2241C2.42262 12.903 2.59914 13.7065 2.50004 14.5001C2.50004 14.7761 2.05204 15.0001 1.50004 15.0001C0.948043 15.0001 0.500043 14.7761 0.500043 14.5001C0.400943 13.7065 0.577461 12.903 1.00004 12.2241V7.06274Z" fill="#FF794C"/>
<path opacity="0.24" d="M8 13C10.289 13 12 11.944 12 11V8.75L8 11L4 8.75V11C4 11.944 5.711 13 8 13Z" fill="white"/>
<path opacity="0.12" d="M13.96 6.49997L8.00004 3.14697L2.04004 6.49997L8.00004 9.85297L13.96 6.49997Z" fill="white"/>
</symbol>
<symbol id="thesis-white" viewBox="0 0 16 16">
<path opacity="0.4" d="M1.02002 6.5L8.00002 2.573L14.98 6.5L8.00002 10.427L1.02002 6.5Z" fill="white"/>
<path opacity="0.6" d="M8 10.427L3.5 7.896V11.001C3.5 12.356 5.561 13.501 8 13.501C10.439 13.501 12.5 12.356 12.5 11.001V7.896L8 10.427Z" fill="white"/>
<path d="M8 2L0 6.5L1 7.062V12.224C0.668 12.568 0.5 13.318 0.5 14.5C0.5 14.776 0.948 15 1.5 15C2.052 15 2.5 14.776 2.5 14.5C2.5 13.318 2.332 12.568 2 12.224V7.625L3 8.187V10.999C3 12.656 5.239 13.999 8 13.999C10.761 13.999 13 12.656 13 10.999V8.187L16 6.499L8 2ZM12 11C12 11.944 10.289 13 8 13C5.711 13 4 11.944 4 11V8.75L8 11L12 8.75V11ZM8 9.853L2.04 6.5L8 3.147L13.96 6.5L8 9.853Z" fill="white"/>
</symbol>
<use xlink:href="#thesis-light" viewBox="0 0 16 16"/>
</svg>