<svg xmlns="http://www.w3.org/2000/svg" xmlns:xlink="http://www.w3.org/1999/xlink">
<symbol id="thesis-light" viewBox="0 0 16 16">
<path d="M2.00004 11.724V6.5H1.00004V11.724C0.57746 12.4029 0.400943 13.2065 0.500043 14C0.500043 14.276 0.948043 14.5 1.50004 14.5C2.05204 14.5 2.50004 14.276 2.50004 14C2.59914 13.2065 2.42262 12.4029 2.00004 11.724Z" fill="#FF794C"/>
<path d="M8 13C5.561 13 3.5 11.855 3.5 10.5V6.375H12.5V10.5C12.5 11.855 10.439 13 8 13Z" fill="#8F8F8F"/>
<path d="M1.02002 6L8.00002 2.073L14.98 6L8.00002 9.927L1.02002 6Z" fill="#B4B4B4"/>
<path d="M16 6L8 1.5L0 6L3 7.688V10.5C3 12.157 5.239 13.5 8 13.5C10.761 13.5 13 12.157 13 10.5V7.688L16 6ZM8 2.647L13.96 6L8 9.353L2.04 6L8 2.647ZM12 10.5C12 11.444 10.289 12.5 8 12.5C5.711 12.5 4 11.444 4 10.5V8.25L8 10.5L12 8.25V10.5Z" fill="#444444"/>
</symbol>
<symbol id="thesis-dark" viewBox="0 0 16 16">
<path opacity="0.6" d="M16 6L8 1.5L0 6L3 7.688V10.5C3 12.157 5.239 13.5 8 13.5C10.761 13.5 13 12.157 13 10.5V7.688L16 6ZM8 2.647L13.96 6L8 9.353L2.04 6L8 2.647ZM12 10.5C12 11.444 10.289 12.5 8 12.5C5.711 12.5 4 11.444 4 10.5V8.25L8 10.5L12 8.25V10.5Z" fill="white"/>
<path opacity="0.8" d="M1.00004 6.56274L2.00004 7.12541V11.7241C2.42262 12.403 2.59914 13.2065 2.50004 14.0001C2.50004 14.2761 2.05204 14.5001 1.50004 14.5001C0.948043 14.5001 0.500043 14.2761 0.500043 14.0001C0.400943 13.2065 0.577461 12.403 1.00004 11.7241V6.56274Z" fill="#FF794C"/>
<path opacity="0.24" d="M8 12.5C10.289 12.5 12 11.444 12 10.5V8.25L8 10.5L4 8.25V10.5C4 11.444 5.711 12.5 8 12.5Z" fill="white"/>
<path opacity="0.12" d="M13.96 5.99997L8.00004 2.64697L2.04004 5.99997L8.00004 9.35297L13.96 5.99997Z" fill="white"/>
</symbol>
<symbol id="thesis-white" viewBox="0 0 16 16">
<path opacity="0.4" d="M1.02002 6L8.00002 2.073L14.98 6L8.00002 9.927L1.02002 6Z" fill="white"/>
<path opacity="0.6" d="M8 9.927L3.5 7.396V10.501C3.5 11.856 5.561 13.001 8 13.001C10.439 13.001 12.5 11.856 12.5 10.501V7.396L8 9.927Z" fill="white"/>
<path d="M8 1.5L0 6L1 6.562V11.724C0.668 12.068 0.5 12.818 0.5 14C0.5 14.276 0.948 14.5 1.5 14.5C2.052 14.5 2.5 14.276 2.5 14C2.5 12.818 2.332 12.068 2 11.724V7.125L3 7.687V10.499C3 12.156 5.239 13.499 8 13.499C10.761 13.499 13 12.156 13 10.499V7.687L16 5.999L8 1.5ZM12 10.5C12 11.444 10.289 12.5 8 12.5C5.711 12.5 4 11.444 4 10.5V8.25L8 10.5L12 8.25V10.5ZM8 9.353L2.04 6L8 2.647L13.96 6L8 9.353Z" fill="white"/>
</symbol>
<use xlink:href="#thesis-light" viewBox="0 0 16 16"/>
</svg>