<!-- This file is part of Zotero. It is distributed under the GNU Affero General Public License version 3. -->
<svg xmlns="http://www.w3.org/2000/svg" xmlns:xlink="http://www.w3.org/1999/xlink">
<symbol id="tv-broadcast-light" viewBox="0 0 16 16">
<path d="M14 4H2V14H14V4Z" fill="#DADADA"/>
<path d="M11 5.5H5C4.17157 5.5 3.5 6.17157 3.5 7V10C3.5 10.8284 4.17157 11.5 5 11.5H11C11.8284 11.5 12.5 10.8284 12.5 10V7C12.5 6.17157 11.8284 5.5 11 5.5Z" fill="#E0EFFF"/>
<path d="M14 3H10.707L12.854 0.853996L12.146 0.145996L9.293 3H6.707L3.854 0.145996L3.146 0.853996L5.293 3H2C1.73478 3 1.48043 3.10535 1.29289 3.29289C1.10536 3.48043 1 3.73478 1 4V14C1 14.2652 1.10536 14.5196 1.29289 14.7071C1.48043 14.8946 1.73478 15 2 15H3C3 15.2652 3.10536 15.5196 3.29289 15.7071C3.48043 15.8946 3.73478 16 4 16C4.26522 16 4.51957 15.8946 4.70711 15.7071C4.89464 15.5196 5 15.2652 5 15H11C11 15.2652 11.1054 15.5196 11.2929 15.7071C11.4804 15.8946 11.7348 16 12 16C12.2652 16 12.5196 15.8946 12.7071 15.7071C12.8946 15.5196 13 15.2652 13 15H14C14.2652 15 14.5196 14.8946 14.7071 14.7071C14.8946 14.5196 15 14.2652 15 14V4C15 3.73478 14.8946 3.48043 14.7071 3.29289C14.5196 3.10535 14.2652 3 14 3ZM14 14H2V4H14V14ZM5 12H11C11.5304 12 12.0391 11.7893 12.4142 11.4142C12.7893 11.0391 13 10.5304 13 10V7C13 6.46956 12.7893 5.96086 12.4142 5.58578C12.0391 5.21071 11.5304 5 11 5H5C4.46957 5 3.96086 5.21071 3.58579 5.58578C3.21071 5.96086 3 6.46956 3 7V10C3 10.5304 3.21071 11.0391 3.58579 11.4142C3.96086 11.7893 4.46957 12 5 12ZM4 7C4 6.73478 4.10536 6.48043 4.29289 6.29289C4.48043 6.10535 4.73478 6 5 6H11C11.2652 6 11.5196 6.10535 11.7071 6.29289C11.8946 6.48043 12 6.73478 12 7V10C12 10.2652 11.8946 10.5196 11.7071 10.7071C11.5196 10.8946 11.2652 11 11 11H5C4.73478 11 4.48043 10.8946 4.29289 10.7071C4.10536 10.5196 4 10.2652 4 10V7Z" fill="#444444"/>
</symbol>
<symbol id="tv-broadcast-dark" viewBox="0 0 16 16">
<path opacity="0.85" d="M5 12H11C11.5304 12 12.0391 11.7893 12.4142 11.4142C12.7893 11.0391 13 10.5304 13 10V7C13 6.46957 12.7893 5.96086 12.4142 5.58579C12.0391 5.21071 11.5304 5 11 5H5C4.46957 5 3.96086 5.21071 3.58579 5.58579C3.21071 5.96086 3 6.46957 3 7V10C3 10.5304 3.21071 11.0391 3.58579 11.4142C3.96086 11.7893 4.46957 12 5 12ZM4 7C4 6.73478 4.10536 6.48043 4.29289 6.29289C4.48043 6.10536 4.73478 6 5 6H11C11.2652 6 11.5196 6.10536 11.7071 6.29289C11.8946 6.48043 12 6.73478 12 7V10C12 10.2652 11.8946 10.5196 11.7071 10.7071C11.5196 10.8946 11.2652 11 11 11H5C4.73478 11 4.48043 10.8946 4.29289 10.7071C4.10536 10.5196 4 10.2652 4 10V7Z" fill="#66ADFF"/>
<path opacity="0.12" fill-rule="evenodd" clip-rule="evenodd" d="M2 14V4H14V14H2ZM11 12H5C4.46957 12 3.96086 11.7893 3.58579 11.4142C3.21071 11.0391 3 10.5304 3 10V7C3 6.46957 3.21071 5.96086 3.58579 5.58579C3.96086 5.21071 4.46957 5 5 5H11C11.5304 5 12.0391 5.21071 12.4142 5.58579C12.7893 5.96086 13 6.46957 13 7V10C13 10.5304 12.7893 11.0391 12.4142 11.4142C12.0391 11.7893 11.5304 12 11 12Z" fill="white"/>
<path opacity="0.6" d="M14 3H10.707L12.854 0.853996L12.146 0.145996L9.293 3H6.707L3.854 0.145996L3.146 0.853996L5.293 3H2C1.73478 3 1.48043 3.10535 1.29289 3.29289C1.10536 3.48043 1 3.73478 1 4V14C1 14.2652 1.10536 14.5196 1.29289 14.7071C1.48043 14.8946 1.73478 15 2 15H3C3 15.2652 3.10536 15.5196 3.29289 15.7071C3.48043 15.8946 3.73478 16 4 16C4.26522 16 4.51957 15.8946 4.70711 15.7071C4.89464 15.5196 5 15.2652 5 15H11C11 15.2652 11.1054 15.5196 11.2929 15.7071C11.4804 15.8946 11.7348 16 12 16C12.2652 16 12.5196 15.8946 12.7071 15.7071C12.8946 15.5196 13 15.2652 13 15H14C14.2652 15 14.5196 14.8946 14.7071 14.7071C14.8946 14.5196 15 14.2652 15 14V4C15 3.73478 14.8946 3.48043 14.7071 3.29289C14.5196 3.10535 14.2652 3 14 3ZM14 14H2V4H14V14Z" fill="white"/>
<path opacity="0.17" d="M4.29289 6.29289C4.10536 6.48043 4 6.73478 4 7V10C4 10.2652 4.10536 10.5196 4.29289 10.7071C4.48043 10.8946 4.73478 11 5 11H11C11.2652 11 11.5196 10.8946 11.7071 10.7071C11.8946 10.5196 12 10.2652 12 10V7C12 6.73478 11.8946 6.48043 11.7071 6.29289C11.5196 6.10536 11.2652 6 11 6H5C4.73478 6 4.48043 6.10536 4.29289 6.29289Z" fill="#66ADFF"/>
</symbol>
<symbol id="tv-broadcast-white" viewBox="0 0 16 16">
<path opacity="0.2" d="M11 5.5H5C4.17157 5.5 3.5 6.17157 3.5 7V10C3.5 10.8284 4.17157 11.5 5 11.5H11C11.8284 11.5 12.5 10.8284 12.5 10V7C12.5 6.17157 11.8284 5.5 11 5.5Z" fill="white"/>
<path opacity="0.4" d="M2 4V14H14V4H2ZM12.5 10C12.5 10.828 11.828 11.5 11 11.5H5C4.172 11.5 3.5 10.828 3.5 10V7C3.5 6.172 4.172 5.5 5 5.5H11C11.828 5.5 12.5 6.172 12.5 7V10Z" fill="white"/>
<path d="M14 3H10.707L12.853 0.853996L12.146 0.146996L9.292 3.001H6.706L3.854 0.145996L3.147 0.852996L5.293 2.999H2C1.448 2.999 1 3.447 1 3.999V13.999C1 14.551 1.448 14.999 2 14.999H3C3 15.551 3.448 15.999 4 15.999C4.552 15.999 5 15.551 5 14.999H11C11 15.551 11.448 15.999 12 15.999C12.552 15.999 13 15.551 13 14.999H14C14.552 14.999 15 14.551 15 13.999V4C15 3.448 14.552 3 14 3ZM14 14H2V4H14V14ZM5 12H11C12.105 12 13 11.105 13 10V7C13 5.895 12.105 5 11 5H5C3.895 5 3 5.895 3 7V10C3 11.105 3.895 12 5 12ZM4 7C4 6.449 4.449 6 5 6H11C11.551 6 12 6.449 12 7V10C12 10.551 11.551 11 11 11H5C4.449 11 4 10.551 4 10V7Z" fill="white"/>
</symbol>
<use xlink:href="#tv-broadcast-light" viewBox="0 0 16 16"/>
</svg>