<!-- This file is part of Zotero. It is distributed under the GNU Affero General Public License version 3. -->
<svg xmlns="http://www.w3.org/2000/svg" xmlns:xlink="http://www.w3.org/1999/xlink">
<symbol id="video-recording-light" viewBox="0 0 16 16">
<path d="M14 4H5V12H14V4Z" fill="#DADADA"/>
<path d="M4.49992 6.75194L0.707924 4.56294C0.653835 4.53352 0.59687 4.50973 0.537923 4.49194C0.507178 4.55064 0.493985 4.61695 0.499923 4.68294V11.3169C0.50111 11.3783 0.50882 11.4393 0.522923 11.4989H0.531924C0.594658 11.4924 0.654965 11.4712 0.707924 11.4369L4.49992 9.24694V6.75194Z" fill="#B4B4B4"/>
<path d="M13 5.5H12V6.5H13V5.5Z" fill="#DB2C3A"/>
<path d="M6.5 6.5H10.5C10.6326 6.5 10.7598 6.44732 10.8536 6.35355C10.9473 6.25979 11 6.13261 11 6C11 5.86739 10.9473 5.74021 10.8536 5.64645C10.7598 5.55268 10.6326 5.5 10.5 5.5H6.5C6.36739 5.5 6.24021 5.55268 6.14645 5.64645C6.05268 5.74021 6 5.86739 6 6C6 6.13261 6.05268 6.25979 6.14645 6.35355C6.24021 6.44732 6.36739 6.5 6.5 6.5Z" fill="#444444"/>
<path d="M15 5.5V4C15 3.73478 14.8946 3.48043 14.7071 3.29289C14.5196 3.10536 14.2652 3 14 3H5C4.73478 3 4.48043 3.10536 4.29289 3.29289C4.10536 3.48043 4 3.73478 4 4V5.886L0.958 4.13C0.829705 4.05039 0.682882 4.00559 0.532 4C0.217 4 0 4.251 0 4.683V11.317C0 11.749 0.217 12 0.532 12C0.682882 11.9944 0.829705 11.9496 0.958 11.87L4 10.114V12C4 12.2652 4.10536 12.5196 4.29289 12.7071C4.48043 12.8946 4.73478 13 5 13H14C14.2652 13 14.5196 12.8946 14.7071 12.7071C14.8946 12.5196 15 12.2652 15 12V8.5C15.2652 8.5 15.5196 8.39464 15.7071 8.20711C15.8946 8.01957 16 7.76522 16 7.5V6.5C16 6.23478 15.8946 5.98043 15.7071 5.79289C15.5196 5.60536 15.2652 5.5 15 5.5ZM4 8.959L1 10.69V5.309L4 7.042V8.959ZM14 12H5V4H14V12Z" fill="#444444"/>
</symbol>
<symbol id="video-recording-dark" viewBox="0 0 16 16">
<path opacity="0.9" d="M13 5.5H12V6.5H13V5.5Z" fill="#DB2C3A"/>
<path opacity="0.6" d="M6.5 6.5H10.5C10.6326 6.5 10.7598 6.44732 10.8536 6.35355C10.9473 6.25979 11 6.13261 11 6C11 5.86739 10.9473 5.74021 10.8536 5.64645C10.7598 5.55268 10.6326 5.5 10.5 5.5H6.5C6.36739 5.5 6.24021 5.55268 6.14645 5.64645C6.05268 5.74021 6 5.86739 6 6C6 6.13261 6.05268 6.25979 6.14645 6.35355C6.24021 6.44732 6.36739 6.5 6.5 6.5Z" fill="white"/>
<path opacity="0.12" fill-rule="evenodd" clip-rule="evenodd" d="M5 4H14V12H5V4ZM6.5 6.5H10.5C10.6326 6.5 10.7598 6.44732 10.8536 6.35355C10.9473 6.25979 11 6.13261 11 6C11 5.86739 10.9473 5.74021 10.8536 5.64645C10.7598 5.55268 10.6326 5.5 10.5 5.5H6.5C6.36739 5.5 6.24021 5.55268 6.14645 5.64645C6.05268 5.74021 6 5.86739 6 6C6 6.13261 6.05268 6.25979 6.14645 6.35355C6.24021 6.44732 6.36739 6.5 6.5 6.5ZM13 5.5H12V6.5H13V5.5Z" fill="white"/>
<path opacity="0.6" d="M15 5.5V4C15 3.73478 14.8946 3.48043 14.7071 3.29289C14.5196 3.10536 14.2652 3 14 3H5C4.73478 3 4.48043 3.10536 4.29289 3.29289C4.10536 3.48043 4 3.73478 4 4V5.886L0.958 4.13C0.829705 4.05039 0.682882 4.00559 0.532 4C0.217 4 0 4.251 0 4.683V11.317C0 11.749 0.217 12 0.532 12C0.682882 11.9944 0.829705 11.9496 0.958 11.87L4 10.114V12C4 12.2652 4.10536 12.5196 4.29289 12.7071C4.48043 12.8946 4.73478 13 5 13H14C14.2652 13 14.5196 12.8946 14.7071 12.7071C14.8946 12.5196 15 12.2652 15 12V8.5C15.2652 8.5 15.5196 8.39464 15.7071 8.20711C15.8946 8.01957 16 7.76522 16 7.5V6.5C16 6.23478 15.8946 5.98043 15.7071 5.79289C15.5196 5.60536 15.2652 5.5 15 5.5ZM4 8.959L1 10.69V5.309L4 7.042V8.959ZM14 12H5V4H14V12Z" fill="white"/>
<path opacity="0.24" d="M1 10.6901L4 8.95908V7.04208L1 5.30908V10.6901Z" fill="white"/>
</symbol>
<symbol id="video-recording-white" viewBox="0 0 16 16">
<path opacity="0.2" d="M14 4H5V12H14V4Z" fill="white"/>
<path opacity="0.4" d="M4.5 6.75194L0.708 4.56294C0.606 4.50394 0.547 4.49994 0.538 4.49194C0.528 4.50294 0.5 4.56094 0.5 4.68194V11.3169C0.5 11.4379 0.528 11.4969 0.523 11.4989C0.523 11.4989 0.526 11.4989 0.532 11.4989C0.548 11.4989 0.607 11.4939 0.708 11.4369L4.5 9.24694V6.75194Z" fill="white"/>
<path d="M12 5.49998H13V6.49998H12V5.49998ZM6.5 6.49998H10.5C10.776 6.49998 11 6.27598 11 5.99998C11 5.72398 10.776 5.49998 10.5 5.49998H6.5C6.224 5.49998 6 5.72398 6 5.99998C6 6.27598 6.224 6.49998 6.5 6.49998ZM16 6.49998V7.49998C16 8.05198 15.552 8.49998 15 8.49998V12C15 12.552 14.552 13 14 13H5C4.448 13 4 12.552 4 12V10.114L0.958 11.871C0.805 11.959 0.661 12.001 0.533 12.001C0.217 12 0 11.749 0 11.317V4.68198C0 4.25098 0.217 3.99998 0.532 3.99998C0.66 3.99998 0.805 4.04198 0.957 4.12998L3.999 5.88698V4.00098C3.999 3.44898 4.447 3.00098 4.999 3.00098H13.999C14.551 3.00098 14.999 3.44898 14.999 4.00098V5.50098C15.551 5.50098 15.999 5.94898 15.999 6.50098L16 6.49998ZM4 7.04198L1.001 5.30998V10.691L4 8.95898V7.04198ZM14 3.99998H5V12H14V3.99998Z" fill="white"/>
</symbol>
<use xlink:href="#video-recording-light" viewBox="0 0 16 16"/>
</svg>