<svg xmlns="http://www.w3.org/2000/svg" xmlns:xlink="http://www.w3.org/1999/xlink">
<symbol id="duplicates-light" viewBox="0 0 16 16">
<path d="M12 3V0H1V13H4V16H15V3H12ZM2 1H11V12H2V1ZM14 15H5V13H12V4H14V15Z" fill="#FAA700"/>
</symbol>
<symbol id="duplicates-dark" viewBox="0 0 16 16">
<path d="M12 3V0H1V13H4V16H15V3H12ZM2 1H11V12H2V1ZM14 15H5V13H12V4H14V15Z" fill="#FAA700CC"/>
</symbol>
<symbol id="duplicates-white" viewBox="0 0 16 16">
<path d="M12 3V0H1V13H4V16H15V3H12ZM2 1H11V12H2V1ZM14 15H5V13H12V4H14V15Z" fill="white"/>
</symbol>
<use xlink:href="#duplicates-light" viewBox="0 0 16 16"/>
</svg>