<svg xmlns="http://www.w3.org/2000/svg" xmlns:xlink="http://www.w3.org/1999/xlink">
<symbol id="library-light" viewBox="0 0 16 16">
<path d="M16 15V16H1V15H16ZM15 14H2V13H3V5H2V3L8.5 0L15 3V5H14V13H15V14ZM3 4H14V3.64L8.5 1.1L3 3.64V4ZM5 5H4V13H5V5ZM7 5H6V13H7V5ZM9 5H8V13H9V5ZM11 5H10V13H11V5ZM13 5H12V13H13V5Z" fill="#4072E5"/>
</symbol>
<symbol id="library-dark" viewBox="0 0 16 16">
<path d="M16 15V16H1V15H16ZM15 14H2V13H3V5H2V3L8.5 0L15 3V5H14V13H15V14ZM3 4H14V3.64L8.5 1.1L3 3.64V4ZM5 5H4V13H5V5ZM7 5H6V13H7V5ZM9 5H8V13H9V5ZM11 5H10V13H11V5ZM13 5H12V13H13V5Z" fill="#4072e5"/>
</symbol>
<symbol id="library-white" viewBox="0 0 16 16">
<path d="M16 15V16H1V15H16ZM15 14H2V13H3V5H2V3L8.5 0L15 3V5H14V13H15V14ZM3 4H14V3.64L8.5 1.1L3 3.64V4ZM5 5H4V13H5V5ZM7 5H6V13H7V5ZM9 5H8V13H9V5ZM11 5H10V13H11V5ZM13 5H12V13H13V5Z" fill="white"/>
</symbol>
<use xlink:href="#library-light" viewBox="0 0 16 16"/>
</svg>