<svg xmlns="http://www.w3.org/2000/svg" xmlns:xlink="http://www.w3.org/1999/xlink">
<symbol id="trash-full-light" viewBox="0 0 16 16">
<path d="M13 14.542C13 14.79 12.729 15 12.409 15H4.591C4.271 15 4 14.79 4 14.542V4H3V14.542C3 15.346 3.714 16 4.591 16H12.409C13.286 16 14 15.346 14 14.542V4H13V14.542Z" fill="#CC7A52"/>
<path d="M12 2V1C12 0.448 11.552 0 11 0H6C5.448 0 5 0.448 5 1V2H2V3H15V2H12ZM6 2V1H11V2H6Z" fill="#CC7A52"/>
<path d="M7 5H6V13H7V5Z" fill="#CC7A52"/>
<path d="M11 5H10V13H11V5Z" fill="#CC7A52"/>
</symbol>
<symbol id="trash-full-dark" viewBox="0 0 16 16">
<path d="M13 14.542C13 14.79 12.729 15 12.409 15H4.591C4.271 15 4 14.79 4 14.542V4H3V14.542C3 15.346 3.714 16 4.591 16H12.409C13.286 16 14 15.346 14 14.542V4H13V14.542Z" fill="#cc7a52e5"/>
<path d="M12 2V1C12 0.448 11.552 0 11 0H6C5.448 0 5 0.448 5 1V2H2V3H15V2H12ZM6 2V1H11V2H6Z" fill="#cc7a52e5"/>
<path d="M7 5H6V13H7V5Z" fill="#cc7a52e5"/>
<path d="M11 5H10V13H11V5Z" fill="#cc7a52e5"/>
</symbol>
<symbol id="trash-full-white" viewBox="0 0 16 16">
<path d="M13 14.542C13 14.79 12.729 15 12.409 15H4.591C4.271 15 4 14.79 4 14.542V4H3V14.542C3 15.346 3.714 16 4.591 16H12.409C13.286 16 14 15.346 14 14.542V4H13V14.542Z" fill="white"/>
<path d="M12 2V1C12 0.448 11.552 0 11 0H6C5.448 0 5 0.448 5 1V2H2V3H15V2H12ZM6 2V1H11V2H6Z" fill="white"/>
<path d="M7 5H6V13H7V5Z" fill="white"/>
<path d="M11 5H10V13H11V5Z" fill="white"/>
</symbol>
<use xlink:href="#trash-full-light" viewBox="0 0 16 16"/>
</svg>