<?xml version="1.0" encoding="utf-8"?>
<!DOCTYPE svg PUBLIC "-//W3C//DTD SVG 1.1//EN" "http://www.w3.org/Graphics/SVG/1.1/DTD/svg11.dtd">
<svg version="1.1" xmlns="http://www.w3.org/2000/svg" x="0px" y="0px" viewBox="0 0 96 22">
	<g>
		<path fill="#990000" d="M0,19.537l7.982-10.81c0.68-0.931,1.575-1.897,2.291-2.541L10.237,5.9C9.163,6.043,7.731,6.115,6.658,6.115
			H0.394V4.003H13.1v1.611L5.011,16.638c-0.608,0.859-1.646,2.076-2.434,2.72l0.072,0.286c1.217-0.143,2.47-0.215,3.723-0.215H13.1
			v2.112H0V19.537z"/>
		<path fill="#222222" d="M23.732,3.645c5.19,0,7.982,3.436,7.982,9.163c0,5.691-2.792,9.091-7.982,9.091s-7.982-3.4-7.982-9.091
			C15.75,7.081,18.541,3.645,23.732,3.645z M29.136,12.808c0-5.154-2.004-7.051-5.405-7.051c-3.436,0-5.405,1.897-5.405,7.051
			c0,5.083,1.969,6.98,5.405,6.98C27.132,19.788,29.136,17.891,29.136,12.808z"/>
		<path fill="#222222" d="M36.832,6.007h-3.329V4.003h3.329L37.19,0.03h2.112v3.973h6.407v2.004h-6.407v10.917
			c0,1.897,0.716,2.756,2.505,2.756c1.11,0,2.613-0.43,3.723-1.074l0.322,2.398c-1.11,0.501-2.828,0.895-4.403,0.895
			c-3.293,0-4.617-1.682-4.617-4.975V6.007z"/>
		<path fill="#222222" d="M55.624,3.645c4.402,0,7.195,2.863,7.195,6.55c0,0.787-0.036,1.825-0.143,2.613H50.399
			c0,4.51,1.575,6.98,5.226,6.98c3.687,0,4.546-2.362,4.546-3.579c0-0.143,0-0.358-0.036-0.644l2.47,0.143
			c0.036,0.215,0.036,0.358,0.036,0.501c0,1.539-0.895,5.691-7.015,5.691c-4.975,0-7.696-3.329-7.696-9.199
			C47.929,7.511,50.47,3.645,55.624,3.645z M60.206,10.84c0.036-0.286,0.036-0.537,0.036-0.644c0-3.078-2.398-4.439-4.617-4.439
			c-3.007,0-4.868,1.897-5.118,5.083H60.206z"/>
		<path fill="#222222" d="M69.369,21.542h-2.506V4.003h1.79l0.394,2.255h0.215c0.752-1.181,1.754-2.613,4.367-2.613
			c2.47,0,4.152,1.825,4.152,5.011c0,0.429-0.036,0.895-0.107,1.36l-2.434-0.143c0.072-0.465,0.107-0.931,0.107-1.325
			c0-1.825-0.823-2.792-2.219-2.792c-1.969,0-3.257,1.754-3.758,3.114V21.542z"/>
		<path fill="#222222" d="M88.018,3.645c5.19,0,7.982,3.436,7.982,9.163c0,5.691-2.792,9.091-7.982,9.091s-7.982-3.4-7.982-9.091
			C80.036,7.081,82.828,3.645,88.018,3.645z M93.423,12.808c0-5.154-2.004-7.051-5.405-7.051c-3.436,0-5.405,1.897-5.405,7.051
			c0,5.083,1.969,6.98,5.405,6.98C91.418,19.788,93.423,17.891,93.423,12.808z"/>
	</g>
</svg>
