<!-- This file is part of Zotero. It is distributed under the GNU Affero General Public License version 3. -->
<svg xmlns="http://www.w3.org/2000/svg" xmlns:xlink="http://www.w3.org/1999/xlink">
	<symbol id="zotero-logo-light" viewBox="0 0 96 26">
		<path d="M13.859,6.819,3.6,20.3H14.233v2.248H0v-1.8L10.263,7.268H.525V5.021H13.859Z" fill="#db2c3a"/>
		<path d="M34.011,13.786a9.564,9.564,0,0,1-.693,3.671,8.689,8.689,0,0,1-4.87,4.85A9.9,9.9,0,0,1,24.684,23a9.8,9.8,0,0,1-3.727-.693,8.691,8.691,0,0,1-4.869-4.85,9.546,9.546,0,0,1-.693-3.671,9.542,9.542,0,0,1,.693-3.671,8.683,8.683,0,0,1,4.869-4.85,9.8,9.8,0,0,1,3.727-.694,9.9,9.9,0,0,1,3.764.694,8.681,8.681,0,0,1,4.87,4.85A9.561,9.561,0,0,1,34.011,13.786Zm-2.7,0a7.85,7.85,0,0,0-.469-2.735,6.592,6.592,0,0,0-1.329-2.21,6.259,6.259,0,0,0-2.079-1.479,7.25,7.25,0,0,0-5.506,0,6.043,6.043,0,0,0-2.06,1.479,6.753,6.753,0,0,0-1.311,2.21,8.223,8.223,0,0,0,0,5.469,6.733,6.733,0,0,0,1.311,2.21,6.046,6.046,0,0,0,2.06,1.48,7.25,7.25,0,0,0,5.506,0,6.262,6.262,0,0,0,2.079-1.48,6.573,6.573,0,0,0,1.329-2.21A7.836,7.836,0,0,0,31.314,13.786Z" fill="#252525"/>
		<path d="M46.071,7.268H41.014V17.606A5.566,5.566,0,0,0,41.2,19.2a2.23,2.23,0,0,0,.524.955,1.814,1.814,0,0,0,.8.469,3.83,3.83,0,0,0,1.03.131,4.858,4.858,0,0,0,1.312-.188,5.941,5.941,0,0,0,1.235-.487l.113,2.285A7.952,7.952,0,0,1,42.887,23a6.276,6.276,0,0,1-1.479-.187A3.49,3.49,0,0,1,40,22.1a3.913,3.913,0,0,1-1.049-1.423,5.713,5.713,0,0,1-.412-2.36V7.268H34.834V5.021h3.708V.076h2.472V5.021h5.057Z" fill="#252525"/>
		<path d="M49.666,14.46a7.489,7.489,0,0,0,.638,2.472,6.459,6.459,0,0,0,3.37,3.334,6.052,6.052,0,0,0,2.435.487,6.245,6.245,0,0,0,3.427-.918,6.859,6.859,0,0,0,2.191-2.116l1.91,1.573a9.5,9.5,0,0,1-3.464,2.847A9.694,9.694,0,0,1,56.109,23a9.313,9.313,0,0,1-3.614-.693,8.462,8.462,0,0,1-2.866-1.929,9.146,9.146,0,0,1-1.892-2.921,9.564,9.564,0,0,1-.692-3.671,9.785,9.785,0,0,1,.674-3.671,8.887,8.887,0,0,1,1.872-2.922A8.621,8.621,0,0,1,52.4,5.265a8.717,8.717,0,0,1,3.483-.694,8.555,8.555,0,0,1,3.559.712,7.923,7.923,0,0,1,2.641,1.891,8.113,8.113,0,0,1,1.628,2.773,10.1,10.1,0,0,1,.563,3.389V14.46Zm11.912-2.023a5.613,5.613,0,0,0-1.5-4.064,5.553,5.553,0,0,0-4.195-1.554,5.978,5.978,0,0,0-2.321.468A6.524,6.524,0,0,0,51.6,8.542a6.256,6.256,0,0,0-1.349,1.8,4.634,4.634,0,0,0-.506,2.1Z" fill="#252525"/>
		<path d="M67.908,10.49q0-1.161-.057-2.36t-.093-3.109h2.434V8.28h.075a5.46,5.46,0,0,1,.75-1.368A5.833,5.833,0,0,1,72.2,5.733a5.756,5.756,0,0,1,1.61-.843,6.33,6.33,0,0,1,2.079-.319,6.7,6.7,0,0,1,1.835.225l-.487,2.435a4.153,4.153,0,0,0-1.423-.188,5.083,5.083,0,0,0-2.435.544,5.4,5.4,0,0,0-1.685,1.385,5.75,5.75,0,0,0-.993,1.817,6.032,6.032,0,0,0-.318,1.873v9.889H67.908Z" fill="#252525"/>
		<path d="M96,13.786a9.564,9.564,0,0,1-.693,3.671,8.689,8.689,0,0,1-4.87,4.85A9.9,9.9,0,0,1,86.673,23a9.8,9.8,0,0,1-3.727-.693,8.691,8.691,0,0,1-4.869-4.85,9.546,9.546,0,0,1-.693-3.671,9.542,9.542,0,0,1,.693-3.671,8.683,8.683,0,0,1,4.869-4.85,9.8,9.8,0,0,1,3.727-.694,9.9,9.9,0,0,1,3.764.694,8.681,8.681,0,0,1,4.87,4.85A9.561,9.561,0,0,1,96,13.786Zm-2.7,0a7.85,7.85,0,0,0-.469-2.735,6.592,6.592,0,0,0-1.329-2.21,6.259,6.259,0,0,0-2.079-1.479,7.25,7.25,0,0,0-5.506,0,6.02,6.02,0,0,0-2.059,1.479,6.738,6.738,0,0,0-1.312,2.21,8.206,8.206,0,0,0,0,5.469,6.718,6.718,0,0,0,1.312,2.21,6.023,6.023,0,0,0,2.059,1.48,7.25,7.25,0,0,0,5.506,0,6.262,6.262,0,0,0,2.079-1.48,6.573,6.573,0,0,0,1.329-2.21A7.836,7.836,0,0,0,93.3,13.786Z" fill="#252525"/>
	</symbol>
	<symbol id="zotero-logo-dark" viewBox="0 0 96 26">
		<path d="M13.859,6.819,3.6,20.3H14.233v2.248H0v-1.8L10.263,7.268H.525V5.021H13.859Z" fill="#c52f37"/>
		<path d="M34.011,13.786a9.564,9.564,0,0,1-.693,3.671,8.689,8.689,0,0,1-4.87,4.85A9.9,9.9,0,0,1,24.684,23a9.8,9.8,0,0,1-3.727-.693,8.691,8.691,0,0,1-4.869-4.85,9.546,9.546,0,0,1-.693-3.671,9.542,9.542,0,0,1,.693-3.671,8.683,8.683,0,0,1,4.869-4.85,9.8,9.8,0,0,1,3.727-.694,9.9,9.9,0,0,1,3.764.694,8.681,8.681,0,0,1,4.87,4.85A9.561,9.561,0,0,1,34.011,13.786Zm-2.7,0a7.85,7.85,0,0,0-.469-2.735,6.592,6.592,0,0,0-1.329-2.21,6.259,6.259,0,0,0-2.079-1.479,7.25,7.25,0,0,0-5.506,0,6.043,6.043,0,0,0-2.06,1.479,6.753,6.753,0,0,0-1.311,2.21,8.223,8.223,0,0,0,0,5.469,6.733,6.733,0,0,0,1.311,2.21,6.046,6.046,0,0,0,2.06,1.48,7.25,7.25,0,0,0,5.506,0,6.262,6.262,0,0,0,2.079-1.48,6.573,6.573,0,0,0,1.329-2.21A7.836,7.836,0,0,0,31.314,13.786Z" fill="#e3e3e3"/>
		<path d="M46.071,7.268H41.014V17.606A5.566,5.566,0,0,0,41.2,19.2a2.23,2.23,0,0,0,.524.955,1.814,1.814,0,0,0,.8.469,3.83,3.83,0,0,0,1.03.131,4.858,4.858,0,0,0,1.312-.188,5.941,5.941,0,0,0,1.235-.487l.113,2.285A7.952,7.952,0,0,1,42.887,23a6.276,6.276,0,0,1-1.479-.187A3.49,3.49,0,0,1,40,22.1a3.913,3.913,0,0,1-1.049-1.423,5.713,5.713,0,0,1-.412-2.36V7.268H34.834V5.021h3.708V.076h2.472V5.021h5.057Z" fill="#e3e3e3"/>
		<path d="M49.666,14.46a7.489,7.489,0,0,0,.638,2.472,6.459,6.459,0,0,0,3.37,3.334,6.052,6.052,0,0,0,2.435.487,6.245,6.245,0,0,0,3.427-.918,6.859,6.859,0,0,0,2.191-2.116l1.91,1.573a9.5,9.5,0,0,1-3.464,2.847A9.694,9.694,0,0,1,56.109,23a9.313,9.313,0,0,1-3.614-.693,8.462,8.462,0,0,1-2.866-1.929,9.146,9.146,0,0,1-1.892-2.921,9.564,9.564,0,0,1-.692-3.671,9.785,9.785,0,0,1,.674-3.671,8.887,8.887,0,0,1,1.872-2.922A8.621,8.621,0,0,1,52.4,5.265a8.717,8.717,0,0,1,3.483-.694,8.555,8.555,0,0,1,3.559.712,7.923,7.923,0,0,1,2.641,1.891,8.113,8.113,0,0,1,1.628,2.773,10.1,10.1,0,0,1,.563,3.389V14.46Zm11.912-2.023a5.613,5.613,0,0,0-1.5-4.064,5.553,5.553,0,0,0-4.195-1.554,5.978,5.978,0,0,0-2.321.468A6.524,6.524,0,0,0,51.6,8.542a6.256,6.256,0,0,0-1.349,1.8,4.634,4.634,0,0,0-.506,2.1Z" fill="#e3e3e3"/>
		<path d="M67.908,10.49q0-1.161-.057-2.36t-.093-3.109h2.434V8.28h.075a5.46,5.46,0,0,1,.75-1.368A5.833,5.833,0,0,1,72.2,5.733a5.756,5.756,0,0,1,1.61-.843,6.33,6.33,0,0,1,2.079-.319,6.7,6.7,0,0,1,1.835.225l-.487,2.435a4.153,4.153,0,0,0-1.423-.188,5.083,5.083,0,0,0-2.435.544,5.4,5.4,0,0,0-1.685,1.385,5.75,5.75,0,0,0-.993,1.817,6.032,6.032,0,0,0-.318,1.873v9.889H67.908Z" fill="#e3e3e3"/>
		<path d="M96,13.786a9.564,9.564,0,0,1-.693,3.671,8.689,8.689,0,0,1-4.87,4.85A9.9,9.9,0,0,1,86.673,23a9.8,9.8,0,0,1-3.727-.693,8.691,8.691,0,0,1-4.869-4.85,9.546,9.546,0,0,1-.693-3.671,9.542,9.542,0,0,1,.693-3.671,8.683,8.683,0,0,1,4.869-4.85,9.8,9.8,0,0,1,3.727-.694,9.9,9.9,0,0,1,3.764.694,8.681,8.681,0,0,1,4.87,4.85A9.561,9.561,0,0,1,96,13.786Zm-2.7,0a7.85,7.85,0,0,0-.469-2.735,6.592,6.592,0,0,0-1.329-2.21,6.259,6.259,0,0,0-2.079-1.479,7.25,7.25,0,0,0-5.506,0,6.02,6.02,0,0,0-2.059,1.479,6.738,6.738,0,0,0-1.312,2.21,8.206,8.206,0,0,0,0,5.469,6.718,6.718,0,0,0,1.312,2.21,6.023,6.023,0,0,0,2.059,1.48,7.25,7.25,0,0,0,5.506,0,6.262,6.262,0,0,0,2.079-1.48,6.573,6.573,0,0,0,1.329-2.21A7.836,7.836,0,0,0,93.3,13.786Z" fill="#e3e3e3"/>
	</symbol>
	<use xlink:href="#zotero-logo-light" viewBox="0 0 96 26"/>
</svg>
