<svg xmlns="http://www.w3.org/2000/svg" xmlns:xlink="http://www.w3.org/1999/xlink">
	<symbol id="bibliography" viewBox="0 0 24 24">
		<path fill="currentcolor" d="M14.5,0h-3A1.5,1.5,0,0,0,10,1.5V5.092A1.483,1.483,0,0,0,9.5,5h-3a1.483,1.483,0,0,0-.5.092V1.5A1.5,1.5,0,0,0,4.5,0h-3A1.5,1.5,0,0,0,0,1.5v21A1.5,1.5,0,0,0,1.5,24h3a1.491,1.491,0,0,0,1-.389A1.491,1.491,0,0,0,6.5,24h3a1.491,1.491,0,0,0,1-.389,1.491,1.491,0,0,0,1,.389h3A1.5,1.5,0,0,0,16,22.5V1.5A1.5,1.5,0,0,0,14.5,0ZM4.5,23h-3a.5.5,0,0,1-.5-.5V1.5A.5.5,0,0,1,1.5,1h3a.5.5,0,0,1,.5.5v21A.5.5,0,0,1,4.5,23Zm5,0h-3a.5.5,0,0,1-.5-.5V6.5A.5.5,0,0,1,6.5,6h3a.5.5,0,0,1,.5.5v16A.5.5,0,0,1,9.5,23Zm5.5-.5a.5.5,0,0,1-.5.5h-3a.5.5,0,0,1-.5-.5V1.5a.5.5,0,0,1,.5-.5h3a.5.5,0,0,1,.5.5Zm8.973-.572L21.45,6a1.436,1.436,0,0,0-1.416-1.212,1.457,1.457,0,0,0-.227.018l-2.595.411a1.436,1.436,0,0,0-1.194,1.643l2.523,15.929A1.436,1.436,0,0,0,19.958,24a1.454,1.454,0,0,0,.226-.018l2.595-.411A1.436,1.436,0,0,0,23.973,21.928Zm-1.35.655-2.6.411a.4.4,0,0,1-.069.006.438.438,0,0,1-.429-.368L17.006,6.7a.436.436,0,0,1,.362-.5l2.6-.411a.4.4,0,0,1,.07-.006.437.437,0,0,1,.428.368l2.523,15.929A.436.436,0,0,1,22.623,22.583Z"/>
	</symbol>
	<use xlink:href="#bibliography" viewBox="0 0 24 24"/>
</svg>
