<!-- This file is part of Zotero. It is distributed under the GNU Affero General Public License version 3. -->
<svg xmlns="http://www.w3.org/2000/svg" xmlns:xlink="http://www.w3.org/1999/xlink">
	<symbol id="empty-trash" viewBox="0 0 24 24">
		<path fill="currentColor" d="M7.05,18.243,11.293,14,7.05,9.757l.707-.707L12,13.293,16.243,9.05l.707.707L12.707,14l4.243,4.243-.707.707L12,14.707,7.757,18.95ZM19,22a1,1,0,0,1-1,1H6a1,1,0,0,1-1-1V5H4V22a2,2,0,0,0,2,2H18a2,2,0,0,0,2-2V5H19ZM22,3V4H2V3H7V1.5A1.5,1.5,0,0,1,8.5,0h7A1.5,1.5,0,0,1,17,1.5V3ZM16,1.5a.5.5,0,0,0-.5-.5h-7a.5.5,0,0,0-.5.5V3h8Z"/>
	</symbol>
	<use xlink:href="#empty-trash" viewBox="0 0 24 24"/>
</svg>
