<svg xmlns="http://www.w3.org/2000/svg" xmlns:xlink="http://www.w3.org/1999/xlink">
	<symbol id="options" viewBox="0 0 24 24">
		<path fill="currentColor" d="M3,10a2,2,0,1,1-2,2,2,2,0,0,1,2-2M3,9a3,3,0,1,0,3,3A3,3,0,0,0,3,9Zm9,1a2,2,0,1,1-2,2,2,2,0,0,1,2-2m0-1a3,3,0,1,0,3,3,3,3,0,0,0-3-3Zm9,1a2,2,0,1,1-2,2,2,2,0,0,1,2-2m0-1a3,3,0,1,0,3,3,3,3,0,0,0-3-3Z"/>
	</symbol>
	<symbol id="options-block" viewBox="0 0 24 24">
  		<path fill="currentColor" d="M6,12A3,3,0,1,1,3,9,3,3,0,0,1,6,12Zm6-3a3,3,0,1,0,3,3A3,3,0,0,0,12,9Zm9,0a3,3,0,1,0,3,3A3,3,0,0,0,21,9Z"/>
	</symbol>
	<use xlink:href="#options" viewBox="0 0 24 24"/>
</svg>
