<!-- This file is part of Zotero. It is distributed under the GNU Affero General Public License version 3. -->
<svg xmlns="http://www.w3.org/2000/svg" xmlns:xlink="http://www.w3.org/1999/xlink">
	<symbol id="tag" viewBox="0 0 24 24">
		<path fill="currentColor" d="M9.129,1a.5.5,0,0,1,.353.146L22.233,13.9a.5.5,0,0,1,0,.707L14.6,22.233a.5.5,0,0,1-.707,0L1.146,9.482A.5.5,0,0,1,1,9.129V1.5A.5.5,0,0,1,1.5,1H9.129m0-1H1.5A1.5,1.5,0,0,0,0,1.5V9.129a1.5,1.5,0,0,0,.439,1.06L13.19,22.94a1.5,1.5,0,0,0,2.121,0l7.629-7.629a1.5,1.5,0,0,0,0-2.121L10.189.439A1.5,1.5,0,0,0,9.129,0ZM6,5A1,1,0,1,1,5,6,1,1,0,0,1,6,5M6,4A2,2,0,1,0,8,6,2,2,0,0,0,6,4Z"/>
	</symbol>
	<symbol id="tag-block" viewBox="0 0 24 24">
		<path fill="currentColor" d="M22.94,13.19,10.19.439A1.5,1.5,0,0,0,9.129,0H1.5A1.5,1.5,0,0,0,0,1.5V9.129a1.5,1.5,0,0,0,.439,1.06L13.19,22.94a1.5,1.5,0,0,0,2.121,0l7.629-7.629A1.5,1.5,0,0,0,22.94,13.19ZM6,8A2,2,0,1,1,8,6,2,2,0,0,1,6,8Z"/>
	</symbol>
	<use xlink:href="#tag" viewBox="0 0 24 24"/>
</svg>

