<!-- This file is part of Zotero. It is distributed under the GNU Affero General Public License version 3. -->
<svg xmlns="http://www.w3.org/2000/svg" xmlns:xlink="http://www.w3.org/1999/xlink">
	<symbol id="trash" viewBox="0 0 24 24">
		<path fill="currentColor" d="M10,20H9V7h1ZM15,7H14V20h1Zm5,15V5H19V22a1,1,0,0,1-1,1H6a1,1,0,0,1-1-1V5H4V22a2,2,0,0,0,2,2H18A2,2,0,0,0,20,22ZM22,3V4H2V3H7V1.5A1.5,1.5,0,0,1,8.5,0h7A1.5,1.5,0,0,1,17,1.5V3ZM16,3V1.5a.5.5,0,0,0-.5-.5h-7a.5.5,0,0,0-.5.5V3Z"/>
	</symbol>
	<use xlink:href="#trash" viewBox="0 0 24 24"/>
</svg>
