<svg xmlns="http://www.w3.org/2000/svg" xmlns:xlink="http://www.w3.org/1999/xlink">
	<symbol id="input-dual" viewBox="0 0 16 16">
		<path fill="currentColor" d="M15,4c0.6,0 1,0.4 1,1l0,6c0,0.6 -0.4,1 -1,1l-14,0c-0.6,0 -1,-0.4 -1,-1l0,-6c0,-0.6 0.4,-1 1,-1l14,0Zm0,7l0,-6l-14,0l0,6l6.463,0l0,-5.997l0.987,0l0,5.997l-0.987,0l7.537,0Z"/>
		<rect fill="currentColor" x="2" y="6" width="1" height="4" />
		<rect fill="currentColor" x="9.593" y="6" width="1" height="4" />
	</symbol>
	<use xlink:href="#input-dual" viewBox="0 0 16 16"/>
</svg>
