<!-- This file is part of Zotero. It is distributed under the GNU Affero General Public License version 3. -->
<svg xmlns="http://www.w3.org/2000/svg" xmlns:xlink="http://www.w3.org/1999/xlink">
	<symbol id="b" viewBox="0 0 24 24">
		<path fill="currentColor" d="M4,23h9.446c4.092,0,7.293-2.138,7.293-5.954A4.88,4.88,0,0,0,16,11.969v-.231a4.425,4.425,0,0,0,3.738-4.584C19.738,3.923,17.154,2,13.292,2H4ZM9,5.615h3.015c1.769,0,2.785.954,2.785,2.416,0,1.492-1,2.492-3.339,2.492H9Zm0,8.2h3.246c2.231,0,3.369,1.108,3.369,2.8,0,1.708-1.123,2.769-3.877,2.769H9Z"/>
	</symbol>
	<use xlink:href="#b" viewBox="0 0 24 24"/>
</svg>
