<svg xmlns="http://www.w3.org/2000/svg" xmlns:xlink="http://www.w3.org/1999/xlink">
	<symbol id="blockquote" viewBox="0 0 24 24">
		<path fill="currentColor" d="M21,14.75v-6C21,4.776,17.916,2,13.5,2S6,4.776,6,8.75v6c0,3.974,3.084,6.75,7.5,6.75a9.066,9.066,0,0,0,3.065-.508L18,23h3l-2.3-3.219A6.373,6.373,0,0,0,21,14.75ZM16,16H13l1.89,2.646a6.421,6.421,0,0,1-1.39.154c-2.076,0-4.5-.982-4.5-3.75V8.45C9,5.682,11.424,4.7,13.5,4.7S18,5.682,18,8.45v6.6a3.394,3.394,0,0,1-.927,2.452ZM3,2H4V23H3Z"/>
	</symbol>
	<use xlink:href="#blockquote" viewBox="0 0 24 24"/>
</svg>
