<!-- This file is part of Zotero. It is distributed under the GNU Affero General Public License version 3. -->
<svg xmlns="http://www.w3.org/2000/svg" xmlns:xlink="http://www.w3.org/1999/xlink">
	<symbol id="remove-format" viewBox="0 0 24 24">
		<path fill="currentColor" d="M23.323,12.116l-3.439-3.44a1.253,1.253,0,0,0-1.768,0l-9.44,9.439a1.253,1.253,0,0,0,0,1.768l3.439,3.439a1.253,1.253,0,0,0,1.768,0l9.439-9.439a1.253,1.253,0,0,0,0-1.768Zm-10.146,10.5a.212.212,0,0,1-.354,0L9.384,19.177a.252.252,0,0,1,0-.354l1.866-1.866,3.793,3.793Zm9.439-9.439L15.75,20.043,11.957,16.25l6.866-6.866a.251.251,0,0,1,.354,0l3.439,3.439h0a.241.241,0,0,1,.072.176A.246.246,0,0,1,22.616,13.177ZM10,5H4V2H19V5H13v7.379l-3,3Z"/>
	</symbol>
	<use xlink:href="#remove-format" viewBox="0 0 24 24"/>
</svg>
