<!-- This file is part of Zotero. It is distributed under the GNU Affero General Public License version 3. -->
<svg xmlns="http://www.w3.org/2000/svg" xmlns:xlink="http://www.w3.org/1999/xlink">
	<symbol id="s" viewBox="0 0 24 24">
  <path fill="currentColor" d="M16.134,17.072c0-1.773-.831-2.178-3.2-2.889l-2.608-.718c-1.214-.331-4.9-1.334-4.9-5.576C5.423,4.421,8.191,2,12.157,2c3.8,0,6.662,2.395,6.662,5.571h-3V7.535c0-1.655-1.54-2.856-3.662-2.856-2.268,0-3.734,1.26-3.734,3.21,0,1.2.45,2.071,2.686,2.68l2.683.74c2.126.637,5.342,1.6,5.342,5.763C19.134,21.167,15.549,23,12,23c-4.2,0-7.131-2.47-7.131-6h3c0,2.461,2.134,3.338,4.131,3.338.691,0,4.137-.156,4.137-3.254ZM5.2,12H0v1H6.139A6.455,6.455,0,0,1,5.2,12Zm13.32,0a6.29,6.29,0,0,1,.9,1H24V12Z"/>
	</symbol>
	<use xlink:href="#s" viewBox="0 0 24 24"/>
</svg>
