<svg xmlns="http://www.w3.org/2000/svg" xmlns:xlink="http://www.w3.org/1999/xlink">
	<symbol id="bibliography" viewBox="0 0 16 16">
		<path fill="currentColor" d="M0,0H2V1H1V2H0V0ZM7,0H4V1H7Zm5,0H9V1h3Zm2,0V1h1V2h1V0ZM4,16H7V15H4ZM1,4H0V7H1ZM1,9H0v3H1Zm0,5H0v2H2V15H1ZM15,7h1V4H15Zm0,5h1V9H15Zm0,3H14v1h2V14H15ZM9,16h3V15H9ZM10.179,3.676a2.792,2.792,0,0,0-.93-.505A3.572,3.572,0,0,0,8.136,3a3.674,3.674,0,0,0-1.174.184,2.971,2.971,0,0,0-.97.54,2.805,2.805,0,0,0-.69.868,3.425,3.425,0,0,0-.348,1.167l1.68.151a1.782,1.782,0,0,1,.109-.533,1.339,1.339,0,0,1,.28-.457,1.377,1.377,0,0,1,.437-.315,1.352,1.352,0,0,1,.567-.116,1.227,1.227,0,0,1,.949.362,1.265,1.265,0,0,1,.335.9,1.267,1.267,0,0,1-.184.7,2.554,2.554,0,0,1-.444.52l-.615.587a4.289,4.289,0,0,0-.43.465,2.088,2.088,0,0,0-.273.451,2.207,2.207,0,0,0-.151.491,3.352,3.352,0,0,0-.047.588v.519H8.779V9.707A2.585,2.585,0,0,1,8.82,9.2a1.214,1.214,0,0,1,.143-.382,1.814,1.814,0,0,1,.274-.355,5.892,5.892,0,0,1,.443-.41q.315-.274.567-.526A3.348,3.348,0,0,0,10.678,7a2.271,2.271,0,0,0,.273-.6,2.73,2.73,0,0,0,.095-.765A2.621,2.621,0,0,0,10.814,4.5,2.376,2.376,0,0,0,10.179,3.676ZM8.751,11.2a1.092,1.092,0,0,0-.765-.3,1.067,1.067,0,0,0-.772.314,1.016,1.016,0,0,0-.32.751.962.962,0,0,0,.088.41,1,1,0,0,0,.24.328,1.154,1.154,0,0,0,.348.219A1.087,1.087,0,0,0,7.986,13a1.068,1.068,0,0,0,.773-.315,1.017,1.017,0,0,0,.32-.751A.958.958,0,0,0,8.751,11.2Z"/>
	</symbol>
	<use xlink:href="#bibliography" viewBox="0 0 16 16"/>
</svg>
