<svg xmlns="http://www.w3.org/2000/svg" xmlns:xlink="http://www.w3.org/1999/xlink">
	<symbol id="export" viewBox="0 0 16 16">
		<path fill="currentColor" d="M1.953,0.999l0,13.987l12.047,0l0,-1.486l1,0l0,2.485l-14.046,0l0,-15.985l14.047,0l-0.001,7.5l-1,0l0,-6.501l-12.047,0Zm11.047,7.001l3,2.494l-3,2.506l0,-2l-5,0l0,-0.976l5,0l0,-2.024Zm-1.057,-0.008l-7.992,0l0,-0.999l7.992,0l0,0.999Zm0,-2.997l-7.992,0l0,-0.999l7.992,0l0,0.999Z"/>
	</symbol>
	<use xlink:href="#export" viewBox="0 0 16 16"/>
</svg>
