<!-- This file is part of Zotero. It is distributed under the GNU Affero General Public License version 3. -->
<svg xmlns="http://www.w3.org/2000/svg" xmlns:xlink="http://www.w3.org/1999/xlink">
	<symbol id="magic-wand" viewBox="0 0 16 16">
		<path fill="currentColor" d="M13.081,4.333,11.667,2.918a.5.5,0,0,0-.707,0L.646,13.232a.5.5,0,0,0,0,.707l1.415,1.415a.5.5,0,0,0,.707,0L13.081,5.04A.5.5,0,0,0,13.081,4.333ZM2.414,14.293l-.707-.707,1.939-1.94.708.708Zm7.94-7.939-.708-.708,1.667-1.667.708.708ZM8.5,3,8.125,1.875,7,1.5l1.125-.375L8.5,0l.375,1.125L10,1.5l-1.125.375Zm6,0-.375-1.125L13,1.5l1.125-.375L14.5,0l.375,1.125L16,1.5l-1.125.375Zm0,6-.375-1.125L13,7.5l1.125-.375L14.5,6l.375,1.125L16,7.5l-1.125.375Z"/>
	</symbol>
	<use xlink:href="#magic-wand" viewBox="0 0 16 16"/>
</svg>
