<svg xmlns="http://www.w3.org/2000/svg" xmlns:xlink="http://www.w3.org/1999/xlink">
	<symbol id="pencil" viewBox="0 0 16 16">
		<path fill-rule="evenodd" fill="currentColor" d="M0.184,15.925l-0.084,-4.164l1.766,-1.766l4.245,4.241l-1.78,1.779l-4.147,-0.09Zm0.954,-0.959l-0.006,-2.888l0.702,-0.702l2.862,2.86l-0.741,0.74l-2.817,-0.01Zm5.68,-1.437l6.367,-6.361l-4.244,-4.241l-6.378,6.372l4.255,4.23Zm0.001,-1.414l4.952,-4.947l-2.863,-2.86l-4.964,4.96l2.875,2.847Zm7.071,-5.652l2.125,-2.122l-4.245,-4.241l-2.12,2.119l4.24,4.244Zm0.003,-1.416l0.708,-0.706l-2.863,-2.86l-0.713,0.712l2.868,2.854Z"/>
	</symbol>
	<use xlink:href="#pencil" viewBox="0 0 16 16"/>
</svg>
