<!-- This file is part of Zotero. It is distributed under the GNU Affero General Public License version 3. -->
<svg xmlns="http://www.w3.org/2000/svg" xmlns:xlink="http://www.w3.org/1999/xlink">
	<symbol id="quote" viewBox="0 0 16 16">
		<path fill="currentColor" d="M7.288,10.988a2.325,2.325,0,0,1-.807,1.752,2.711,2.711,0,0,1-1.906.751,3.215,3.215,0,0,1-2.65-1.142A4.891,4.891,0,0,1,1,9.189,5.94,5.94,0,0,1,2.592,5.4,10.365,10.365,0,0,1,6.426,2.509l.69,1.111a8.71,8.71,0,0,0-2.78,2A4.775,4.775,0,0,0,3.174,8.391h.88A4.8,4.8,0,0,1,5.64,8.61a2.536,2.536,0,0,1,.989.61,2.17,2.17,0,0,1,.51.829A3,3,0,0,1,7.288,10.988Zm7.712,0a2.325,2.325,0,0,1-.807,1.752,2.711,2.711,0,0,1-1.906.751,3.215,3.215,0,0,1-2.65-1.142,4.885,4.885,0,0,1-.925-3.16A5.944,5.944,0,0,1,10.3,5.4a10.368,10.368,0,0,1,3.835-2.894l.69,1.111a8.71,8.71,0,0,0-2.78,2,4.775,4.775,0,0,0-1.162,2.769h.879a4.791,4.791,0,0,1,1.586.219,2.536,2.536,0,0,1,.989.61,2.172,2.172,0,0,1,.511.829A3,3,0,0,1,15,10.988Z"/>
	</symbol>
	<use xlink:href="#quote" viewBox="0 0 16 16"/>
</svg>
