<!-- This file is part of Zotero. It is distributed under the GNU Affero General Public License version 3. -->
<svg xmlns="http://www.w3.org/2000/svg" xmlns:xlink="http://www.w3.org/1999/xlink">
	<symbol id="audio-recording" viewBox="0 0 28 28">
		<path d="M15,22.975V27h5v1H9V27h5V22.975A7.5,7.5,0,0,1,7,15.5V10H8v5.5a6.5,6.5,0,0,0,13,0V10h1v5.5A7.5,7.5,0,0,1,15,22.975ZM10,15.5V4.5a4.5,4.5,0,0,1,9,0v11a4.5,4.5,0,0,1-9,0Zm1,0a3.5,3.5,0,0,0,7,0V4.5a3.5,3.5,0,0,0-7,0Z" fill="#444"/>
		<rect x="11" y="1" width="7" height="18" rx="3.5" fill="#dadada"/>
	</symbol>
	<symbol id="audio-recording-active">
		<path d="M15,22.975V27h5v1H9V27h5V22.975A7.5,7.5,0,0,1,7,15.5V10H8v5.5a6.5,6.5,0,0,0,13,0V10h1v5.5A7.5,7.5,0,0,1,15,22.975ZM10,15.5V4.5a4.5,4.5,0,0,1,9,0v11a4.5,4.5,0,0,1-9,0Zm1,0a3.5,3.5,0,0,0,7,0V4.5a3.5,3.5,0,0,0-7,0Z" fill="#fff"/>
		<rect x="11" y="1" width="7" height="18" rx="3.5" fill="#fff" opacity="0.2"/>
	</symbol>
	<use xlink:href="#audio-recording" viewBox="0 0 28 28"/>
</svg>
