<!-- This file is part of Zotero. It is distributed under the GNU Affero General Public License version 3. -->
<svg xmlns="http://www.w3.org/2000/svg" xmlns:xlink="http://www.w3.org/1999/xlink">
	<symbol id="bill" viewBox="0 0 28 28">
		<path d="M22,15.75c0-3.28-3.468-4.482-6.822-5.645C12.052,9.021,9.1,8,9.1,5.505c0-2.037,1.969-3.4,4.9-3.4,2.977,0,4.9,1.531,4.9,3.9H20c0-2.991-2.411-5-6-5S8,2.811,8,5.505A3.827,3.827,0,0,0,9.074,8.21,4.278,4.278,0,0,0,6,12.25c0,3.28,3.468,4.482,6.822,5.645C15.948,18.979,18.9,20,18.9,22.494c0,2.069-1.923,3.406-4.9,3.406S9.1,24.369,9.1,22H8c0,2.991,2.411,5,6,5s6-1.811,6-4.506a3.824,3.824,0,0,0-1.076-2.706A4.275,4.275,0,0,0,22,15.75Zm-4.062,3.2a20.621,20.621,0,0,0-4.755-2.092C10.055,15.771,7.1,14.747,7.1,12.25c0-1.587,1.12-2.735,2.953-3.2a20.518,20.518,0,0,0,4.764,2.1c3.128,1.084,6.083,2.108,6.083,4.605C20.9,17.338,19.772,18.479,17.938,18.947Z" fill="#cc9200"/>
	</symbol>
	<symbol id="bill-active">
		<path d="M22,15.75c0-3.28-3.468-4.482-6.822-5.645C12.052,9.021,9.1,8,9.1,5.505c0-2.037,1.969-3.4,4.9-3.4,2.977,0,4.9,1.531,4.9,3.9H20c0-2.991-2.411-5-6-5S8,2.811,8,5.505A3.827,3.827,0,0,0,9.074,8.21,4.278,4.278,0,0,0,6,12.25c0,3.28,3.468,4.482,6.822,5.645C15.948,18.979,18.9,20,18.9,22.494c0,2.069-1.923,3.406-4.9,3.406S9.1,24.369,9.1,22H8c0,2.991,2.411,5,6,5s6-1.811,6-4.506a3.824,3.824,0,0,0-1.076-2.706A4.275,4.275,0,0,0,22,15.75Zm-4.062,3.2a20.621,20.621,0,0,0-4.755-2.092C10.055,15.771,7.1,14.747,7.1,12.25c0-1.587,1.12-2.735,2.953-3.2a20.518,20.518,0,0,0,4.764,2.1c3.128,1.084,6.083,2.108,6.083,4.605C20.9,17.338,19.772,18.479,17.938,18.947Z" fill="#fff"/>
	</symbol>
	<use xlink:href="#bill" viewBox="0 0 28 28"/>
</svg>
