<!-- This file is part of Zotero. It is distributed under the GNU Affero General Public License version 3. -->
<svg xmlns="http://www.w3.org/2000/svg" xmlns:xlink="http://www.w3.org/1999/xlink">
	<symbol id="book-section" viewBox="0 0 28 28">
		<path d="M14.84,2.952C16.284,1.617,21.281.612,26.991.509L27.5.5v24l-.491.009c-5.076.085-9.481.835-11.782,2.005l-.727.37V3.266Z" fill="#fff"/>
		<path d="M14.16,2.952C12.716,1.617,7.719.612,2.009.509L1.5.5v24l.491.009c5.076.085,9.481.835,11.782,2.005l.727.37V3.266Z" fill="#b3c7f5"/>
		<path d="M14.5,2.585C12.889,1.1,7.464,0,1,0V25c6.464,0,11.889,1.1,13.5,2.585C16.111,26.1,21.536,25,28,25V0C21.536,0,16.111,1.1,14.5,2.585ZM14,26.068c-2.364-1.2-6.775-1.972-12-2.06v-23C8.183,1.12,12.666,2.252,13.821,3.32L14,3.484Zm13-2.06c-5.225.088-9.636.857-12,2.06V3.484l.179-.164C16.334,2.252,20.817,1.12,27,1.009Z" fill="#4072e5"/>
		<path d="M25,9.082v1a32.519,32.519,0,0,0-8,1.29V10.319A34.634,34.634,0,0,1,25,9.082Zm0,4a34.634,34.634,0,0,0-8,1.237v1.055a32.519,32.519,0,0,1,8-1.29Zm0,4a34.634,34.634,0,0,0-8,1.237v1.055a32.519,32.519,0,0,1,8-1.29ZM17,7.374a32.519,32.519,0,0,1,8-1.29v-1a34.634,34.634,0,0,0-8,1.237Z" fill="#222"/>
	</symbol>
	<symbol id="book-section-active">
		<path d="M14.16,2.952C12.716,1.617,7.719.612,2.009.509L1.5.5v24l.491.009c5.076.085,9.481.835,11.782,2.005l.727.37V3.266Z" fill="#fff" opacity="0.4"/>
		<path d="M25,9.082v1a32.519,32.519,0,0,0-8,1.29V10.319A34.634,34.634,0,0,1,25,9.082Zm0,4a34.634,34.634,0,0,0-8,1.237v1.055a32.519,32.519,0,0,1,8-1.29Zm0,4a34.634,34.634,0,0,0-8,1.237v1.055a32.519,32.519,0,0,1,8-1.29ZM17,7.374a32.519,32.519,0,0,1,8-1.29v-1a34.634,34.634,0,0,0-8,1.237Z" fill="#fff"/>
		<path d="M14.5,2.585C12.889,1.1,7.464,0,1,0V25c6.464,0,11.889,1.1,13.5,2.585C16.111,26.1,21.536,25,28,25V0C21.536,0,16.111,1.1,14.5,2.585ZM14,26.068c-2.364-1.2-6.775-1.972-12-2.06v-23C8.183,1.12,12.666,2.252,13.821,3.32L14,3.484Zm13-2.06c-5.225.088-9.636.857-12,2.06V3.484l.179-.164C16.334,2.252,20.817,1.12,27,1.009Z" fill="#fff"/>
	</symbol>
	<use xlink:href="#book-section" viewBox="0 0 28 28"/>
</svg>
