<!-- This file is part of Zotero. It is distributed under the GNU Affero General Public License version 3. -->
<svg xmlns="http://www.w3.org/2000/svg" xmlns:xlink="http://www.w3.org/1999/xlink">
	<symbol id="book" viewBox="0 0 28 28">
		<polygon points="23 2.439 23 23 21 23 21 25 4.439 25 6.439 27 25 27 25 4.439 23 2.439" fill="#fff"/>
		<rect x="6" y="1" width="16" height="23" fill="#b3c7f5"/>
		<rect x="3" y="1" width="2" height="23" fill="#8daaf0"/>
		<rect x="9" y="26" width="5" height="1" fill="#f66"/>
		<path d="M24.25,3a1.731,1.731,0,0,0-.582.107L24.78,4.22a.745.745,0,0,1,.22.53v21.5a.75.75,0,0,1-.75.75H6.439l-2-2H21.25A1.751,1.751,0,0,0,23,23.25V1.75A1.751,1.751,0,0,0,21.25,0H3.75A1.751,1.751,0,0,0,2,1.75v21.5a1.742,1.742,0,0,0,.513,1.237l3,3A1.741,1.741,0,0,0,6.75,28h17.5A1.751,1.751,0,0,0,26,26.25V4.75A1.751,1.751,0,0,0,24.25,3ZM6,1H21.25a.75.75,0,0,1,.75.75v21.5a.75.75,0,0,1-.75.75H6ZM3,23.25V1.75A.75.75,0,0,1,3.75,1H5V24H3.75A.75.75,0,0,1,3,23.25Z" fill="#4072e5"/>
	</symbol>
	<symbol id="book-active">
		<rect x="6" y="1" width="16" height="23" fill="#fff" opacity="0.4"/>
		<rect x="3" y="1" width="2" height="23" fill="#fff" opacity="0.6"/>
		<rect x="9" y="26" width="5" height="1" fill="#fff"/>
		<path d="M24.25,3a1.731,1.731,0,0,0-.582.107L24.78,4.22a.745.745,0,0,1,.22.53v21.5a.75.75,0,0,1-.75.75H6.439l-2-2H21.25A1.751,1.751,0,0,0,23,23.25V1.75A1.751,1.751,0,0,0,21.25,0H3.75A1.751,1.751,0,0,0,2,1.75v21.5a1.742,1.742,0,0,0,.513,1.237l3,3A1.741,1.741,0,0,0,6.75,28h17.5A1.751,1.751,0,0,0,26,26.25V4.75A1.751,1.751,0,0,0,24.25,3ZM6,1H21.25a.75.75,0,0,1,.75.75v21.5a.75.75,0,0,1-.75.75H6ZM3,23.25V1.75A.75.75,0,0,1,3.75,1H5V24H3.75A.75.75,0,0,1,3,23.25Z" fill="#fff"/>
	</symbol>
	<use xlink:href="#book" viewBox="0 0 28 28"/>
</svg>
