<!-- This file is part of Zotero. It is distributed under the GNU Affero General Public License version 3. -->
<svg xmlns="http://www.w3.org/2000/svg" xmlns:xlink="http://www.w3.org/1999/xlink">
	<symbol id="case" viewBox="0 0 28 28">
		<path d="M9.5,18h-8a.5.5,0,0,1-.474-.658l4-12a.5.5,0,0,1,.948,0l4,12A.5.5,0,0,1,9.5,18ZM2.194,17H8.806L5.5,7.081ZM27.5,18h-8a.5.5,0,0,1-.474-.658l4-12a.5.5,0,0,1,.948,0l4,12A.5.5,0,0,1,27.5,18Zm-7.306-1h6.612L23.5,7.081Z" fill="#fff" opacity="0.5"/>
		<path d="M9.5,18h-8a.5.5,0,0,1-.474-.658l4-12a.5.5,0,0,1,.948,0l4,12A.5.5,0,0,1,9.5,18ZM2.194,17H8.806L5.5,7.081ZM27.5,18h-8a.5.5,0,0,1-.474-.658l4-12a.5.5,0,0,1,.948,0l4,12A.5.5,0,0,1,27.5,18Zm-7.306-1h6.612L23.5,7.081Z" opacity="0.2"/>
		<path d="M5.5,21.5c2.68,0,4-1.32,4-4h-8C1.5,20.18,2.82,21.5,5.5,21.5Z" fill="#fff" opacity="0.4"/>
		<path d="M23.5,21.5c2.68,0,4-1.32,4-4h-8C19.5,20.18,20.82,21.5,23.5,21.5Z" fill="#fff" opacity="0.4"/>
		<path d="M9.5,28v-.793L11.207,25.5h6.586L19.5,27.207V28Zm0-10.5h-8c0,2.68,1.32,4,4,4S9.5,20.18,9.5,17.5Zm14,4c-2.68,0-4-1.32-4-4h8C27.5,20.18,26.18,21.5,23.5,21.5Z" fill="#ebd399"/>
		<path d="M27.5,17h-8a.5.5,0,0,0-.5.5c0,2.944,1.556,4.5,4.5,4.5S28,20.444,28,17.5A.5.5,0,0,0,27.5,17Zm-4,4c-2.215,0-3.332-.957-3.482-3h6.964C26.832,20.043,25.715,21,23.5,21ZM13,2.5a.5.5,0,0,1,.5-.5H14V.5a.5.5,0,0,1,1,0V2h.5a.5.5,0,0,1,0,1h-2A.5.5,0,0,1,13,2.5Zm-8,2A.5.5,0,0,1,5.5,4h18a.5.5,0,0,1,0,1H5.5A.5.5,0,0,1,5,4.5ZM9.5,17h-8a.5.5,0,0,0-.5.5C1,20.444,2.556,22,5.5,22S10,20.444,10,17.5A.5.5,0,0,0,9.5,17Zm-4,4c-2.215,0-3.332-.957-3.482-3H8.982C8.832,20.043,7.715,21,5.5,21ZM18,25l2,2v1H19v-.586L17.586,26H11.414L10,27.414V28H9V27l2-2h3V6h1V25Z" fill="#cc9200"/>
	</symbol>
	<symbol id="case-active">
		<path d="M1.5,17.5h8c0,2.68-1.32,4-4,4S1.5,20.18,1.5,17.5Zm22,4c2.68,0,4-1.32,4-4h-8C19.5,20.18,20.82,21.5,23.5,21.5Zm-4,6.5v-.793L17.793,25.5H11.207L9.5,27.207V28Z" fill="#fff" opacity="0.4"/>
		<path d="M23.5,5H5.5a.5.5,0,0,1,0-1h18a.5.5,0,0,1,0,1Zm-10-2h2a.5.5,0,0,0,0-1H15V.5a.5.5,0,0,0-1,0V2h-.5a.5.5,0,0,0,0,1ZM28,17.5c0,2.944-1.556,4.5-4.5,4.5S19,20.444,19,17.5a.463.463,0,0,1,.021-.106.457.457,0,0,1,0-.052l4-12a.5.5,0,0,1,.948,0l4,12a.489.489,0,0,1,0,.055A.438.438,0,0,1,28,17.5ZM20.194,17h6.612L23.5,7.081Zm6.788,1H20.018c.15,2.043,1.267,3,3.482,3S26.832,20.043,26.982,18ZM10,17.5C10,20.444,8.444,22,5.5,22S1,20.444,1,17.5a.463.463,0,0,1,.021-.106.457.457,0,0,1,.005-.052l4-12a.5.5,0,0,1,.948,0l4,12a.489.489,0,0,1,0,.055A.438.438,0,0,1,10,17.5ZM2.194,17H8.806L5.5,7.081Zm6.788,1H2.018c.15,2.043,1.267,3,3.482,3S8.832,20.043,8.982,18ZM15,25V6H14V25H11L9,27v1h1v-.586L11.414,26h6.172L19,27.414V28h1V27l-2-2Z" fill="#fff"/>
	</symbol>
	<use xlink:href="#case" viewBox="0 0 28 28"/>
</svg>
