<svg xmlns="http://www.w3.org/2000/svg" xmlns:xlink="http://www.w3.org/1999/xlink">
	<symbol id="dictionary-entry" viewBox="0 0 28 28">
		<polygon points="18.5 0.49 18.5 7.5 25.51 7.5 18.5 0.49" fill="#ccc" opacity="0.4"/>
		<path d="M18.717,0H3V28H26V7.283ZM19,1.7,24.3,7H19ZM25,27H4V1H18V8h7Z" fill="#ccc"/>
		<path d="M20.025,23l-4.16-13h-2.73L8.975,23H7v1h5V23H10.025l.96-3h7.03l.96,3H17v1h5V23Zm-8.72-4,2.56-8h1.27l2.56,8Z" fill="#db2c3a"/>
	</symbol>
	<symbol id="dictionary-entry-active">
		<polygon points="18.5 0.49 18.5 7.5 25.51 7.5 18.5 0.49" fill="#fff" opacity="0.4"/>
		<path d="M18.717,0H3V28H26V7.283ZM19,1.7,24.3,7H19ZM25,27H4V1H18V8h7Z" fill="#fff"/>
		<path d="M20.025,23l-4.16-13h-2.73L8.975,23H7v1h5V23H10.025l.96-3h7.03l.96,3H17v1h5V23Zm-8.72-4,2.56-8h1.27l2.56,8Z" fill="#fff"/>
	</symbol>
	<use xlink:href="#dictionary-entry" viewBox="0 0 28 28"/>
</svg>
