<!-- This file is part of Zotero. It is distributed under the GNU Affero General Public License version 3. -->
<svg xmlns="http://www.w3.org/2000/svg" xmlns:xlink="http://www.w3.org/1999/xlink">
	<symbol id="document-linked" viewBox="0 0 28 28">
		<path d="M18.717,0H3V26h9V25h2.55a2.752,2.752,0,0,1-.05-.5,2.992,2.992,0,0,1,5.954-.429l.062.429h.968l.062-.429A3.005,3.005,0,0,1,24.5,21.5a2.752,2.752,0,0,1,.5.05V19h1V7.283Z" fill="#fff" opacity="0.5"/>
		<path d="M17.5,21.5a3.005,3.005,0,0,1,2.954,2.571l.062.429h.968l.062-.429A3.005,3.005,0,0,1,24.5,21.5a2.942,2.942,0,0,1,.5.051V7.7L18.3,1H4V25H14.551a2.942,2.942,0,0,1-.051-.5A3,3,0,0,1,17.5,21.5Z" fill="#fff"/>
		<polygon points="19 1.698 19 7 24.302 7 19 1.698" opacity="0.08"/>
		<path d="M12,25H4V1H18V8h7V19h1V7.283L18.717,0H3V26h9ZM19,1.7,24.3,7H19Z" opacity="0.2"/>
		<path d="M24.5,21a3.491,3.491,0,0,0-3.45,3h-.1a3.5,3.5,0,1,0,0,1h.1a3.493,3.493,0,1,0,3.45-4Zm-7,6a2.5,2.5,0,1,1,2.449-3H17.5a.5.5,0,0,0,0,1h2.449A2.5,2.5,0,0,1,17.5,27Zm7,0a2.5,2.5,0,0,1-2.449-2H24.5a.5.5,0,0,0,0-1H22.051A2.5,2.5,0,1,1,24.5,27Z" fill="#888"/>
	</symbol>
	<symbol id="document-linked-active">
		<polygon points="18.5 0.49 18.5 7.5 25.51 7.5 18.5 0.49" fill="#fff" opacity="0.4"/>
		<path d="M12,25H4V1H18V8h7V19h1V7.283L18.717,0H3V26h9ZM19,1.7,24.3,7H19ZM24.5,21a3.491,3.491,0,0,0-3.45,3h-.1a3.5,3.5,0,1,0,0,1h.1a3.493,3.493,0,1,0,3.45-4Zm-7,6a2.5,2.5,0,1,1,2.449-3H17.5a.5.5,0,0,0,0,1h2.449A2.5,2.5,0,0,1,17.5,27Zm7,0a2.5,2.5,0,0,1-2.449-2H24.5a.5.5,0,0,0,0-1H22.051A2.5,2.5,0,1,1,24.5,27Z" fill="#fff"/>
	</symbol>
	<use xlink:href="#document-linked" viewBox="0 0 28 28"/>
</svg>
