<svg xmlns="http://www.w3.org/2000/svg" xmlns:xlink="http://www.w3.org/1999/xlink">
	<symbol id="e-mail" viewBox="0 0 28 28">
		<path d="M17.95,9v2.166A4.887,4.887,0,0,0,13.875,8.95a5.052,5.052,0,0,0,0,10.1,4.885,4.885,0,0,0,4.211-2.466A4.058,4.058,0,0,0,22.08,19.05c3.265,0,5.92-3.07,5.92-6.843C28,5.476,21.72,0,14,0a14,14,0,1,0,9.334,24.414L22.6,23.6A12.894,12.894,0,1,1,14,1.1c7.113,0,12.9,4.982,12.9,11.107,0,3.167-2.162,5.743-4.82,5.743-1.67,0-3.029-.964-3.03-2.149V9ZM14,17.95A3.95,3.95,0,1,1,17.95,14,3.949,3.949,0,0,1,14,17.95Z" fill="#f66"/>
	</symbol>
	<symbol id="e-mail-active">
		<path d="M17.95,9v2.166A4.887,4.887,0,0,0,13.875,8.95a5.052,5.052,0,0,0,0,10.1,4.885,4.885,0,0,0,4.211-2.466A4.058,4.058,0,0,0,22.08,19.05c3.265,0,5.92-3.07,5.92-6.843C28,5.476,21.72,0,14,0a14,14,0,1,0,9.334,24.414L22.6,23.6A12.894,12.894,0,1,1,14,1.1c7.113,0,12.9,4.982,12.9,11.107,0,3.167-2.162,5.743-4.82,5.743-1.67,0-3.029-.964-3.03-2.149V9ZM14,17.95A3.95,3.95,0,1,1,17.95,14,3.949,3.949,0,0,1,14,17.95Z" fill="#fff"/>
	</symbol>
	<use xlink:href="#e-mail" viewBox="0 0 28 28"/>
</svg>

