<!-- This file is part of Zotero. It is distributed under the GNU Affero General Public License version 3. -->
<svg xmlns="http://www.w3.org/2000/svg" xmlns:xlink="http://www.w3.org/1999/xlink">
	<symbol id="encyclopedia-article" viewBox="0 0 28 28">
		<path d="M6,1.238a34.716,34.716,0,0,1,4,.61V19.024L8.592,17.989,8.13,17.65l-.526.227L6,18.569V1.238" fill="#db2c3a" opacity="0.4"/>
		<path d="M14.5,2.585A8.656,8.656,0,0,0,11,1.057V2.1A7.37,7.37,0,0,1,13.821,3.32L14,3.484V26.068c-2.364-1.2-6.775-1.972-12-2.06v-23c1.054.019,2.053.07,3,.142v-1C3.732.054,2.392,0,1,0V25c6.464,0,11.889,1.1,13.5,2.585C16.111,26.1,21.536,25,28,25V0C21.536,0,16.111,1.1,14.5,2.585ZM27,24.008c-5.225.088-9.636.857-12,2.06V3.484l.179-.164C16.334,2.252,20.817,1.12,27,1.009Z" fill="#4072e5"/>
		<path d="M5,.148V20.09L8,18.8,11,21V1.057A35.478,35.478,0,0,0,5,.148Zm5,18.876L8.592,17.989,8.13,17.65l-.526.227L6,18.569V1.238a34.947,34.947,0,0,1,4,.609Z" fill="#db2c3a"/>
	</symbol>
	<symbol id="encyclopedia-article-active">
		<path d="M6,1.238a34.716,34.716,0,0,1,4,.61V19.024L8.592,17.989,8.13,17.65l-.526.227L6,18.569V1.238" fill="#fff" opacity="0.4"/>
		<path d="M14.5,2.585C12.889,1.1,7.464,0,1,0V25c6.464,0,11.889,1.1,13.5,2.585C16.111,26.1,21.536,25,28,25V0C21.536,0,16.111,1.1,14.5,2.585ZM6,1.239a34.877,34.877,0,0,1,4,.613V19.024L8.592,17.989,8.13,17.65l-.526.227L6,18.569Zm8,24.829c-2.364-1.2-6.775-1.972-12-2.06v-23c1.054.019,2.053.07,3,.142V20.09L8,18.8,11,21V2.1A7.37,7.37,0,0,1,13.821,3.32L14,3.484Zm13-2.06c-5.225.088-9.636.857-12,2.06V3.484l.179-.164C16.334,2.252,20.817,1.12,27,1.009Z" fill="#fff"/>
	</symbol>
	<use xlink:href="#encyclopedia-article" viewBox="0 0 28 28"/>
</svg>
