<svg xmlns="http://www.w3.org/2000/svg" xmlns:xlink="http://www.w3.org/1999/xlink">
	<symbol id="forum-post" viewBox="0 0 28 28">
		<path d="M16.133,16.3A7.375,7.375,0,0,0,16.5,14c0-.109-.007-.217-.015-.324l-.028-.475-.345-.1C12.756,12.173,10.5,9.72,10.5,7,10.5,3.416,14.313.5,19,.5S27.5,3.416,27.5,7c0,3.111-2.9,5.794-6.9,6.379l-.2.029-.123.154A8.054,8.054,0,0,1,16.133,16.3Z" fill="#66adff" opacity="0.2"/>
		<path d="M8.456,9.555a4.489,4.489,0,1,0,4.968,5.194A9.555,9.555,0,0,1,8.456,9.555Z" fill="#444" opacity="0.2"/>
		<path d="M12.948,14.512a3.99,3.99,0,1,1-4.293-4.477A7.727,7.727,0,0,1,8.3,9.07a4.99,4.99,0,1,0,5.6,5.9C13.574,14.83,13.256,14.678,12.948,14.512Z" fill="#444"/>
		<path d="M9,21.5C2.725,21.5.5,23.2.5,28h17C17.5,23.2,15.275,21.5,9,21.5Z" fill="#444" opacity="0.2"/>
		<path d="M9,22c6.725,0,8,2.109,8,6h1c0-5.1-2.44-7-9-7s-9,1.9-9,7H1C1,24.109,2.275,22,9,22Z" fill="#444"/>
		<path d="M19,1c4.411,0,8,2.692,8,6,0,2.86-2.721,5.335-6.47,5.885l-.39.057-.246.307a7.575,7.575,0,0,1-3.043,2.282A7.9,7.9,0,0,0,17,14c0-.124-.008-.246-.016-.368l-.007-.1-.042-.713-.689-.191C13.108,11.752,11,9.492,11,7c0-3.308,3.589-6,8-6m0-1c-4.971,0-9,3.134-9,7,0,3.04,2.5,5.62,5.979,6.587.008.137.021.274.021.413a6.945,6.945,0,0,1-.679,2.988,8.549,8.549,0,0,0,5.354-3.114C24.844,13.263,28,10.42,28,7c0-3.866-4.029-7-9-7Z" fill="#66adff"/>
	</symbol>
	<symbol id="forum-post-active">
		<path d="M16.133,16.3A7.375,7.375,0,0,0,16.5,14c0-.109-.007-.217-.015-.324l-.028-.475-.345-.1C12.756,12.173,10.5,9.72,10.5,7,10.5,3.416,14.313.5,19,.5S27.5,3.416,27.5,7c0,3.111-2.9,5.794-6.9,6.379l-.2.029-.123.154A8.054,8.054,0,0,1,16.133,16.3Z" fill="#fff" opacity="0.2"/>
		<path d="M8.456,9.555a4.489,4.489,0,1,0,4.968,5.194A9.555,9.555,0,0,1,8.456,9.555Z" fill="#fff" opacity="0.2"/>
		<path d="M12.948,14.512a3.99,3.99,0,1,1-4.293-4.477A7.727,7.727,0,0,1,8.3,9.07a4.99,4.99,0,1,0,5.6,5.9C13.574,14.83,13.256,14.678,12.948,14.512Z" fill="#fff"/>
		<path d="M9,21.5C2.725,21.5.5,23.2.5,28h17C17.5,23.2,15.275,21.5,9,21.5Z" fill="#fff" opacity="0.2"/>
		<path d="M9,22c6.725,0,8,2.109,8,6h1c0-5.1-2.44-7-9-7s-9,1.9-9,7H1C1,24.109,2.275,22,9,22Z" fill="#fff"/>
		<path d="M19,1c4.411,0,8,2.692,8,6,0,2.86-2.721,5.335-6.47,5.885l-.39.057-.246.307a7.575,7.575,0,0,1-3.043,2.282A7.9,7.9,0,0,0,17,14c0-.124-.008-.246-.016-.368l-.007-.1-.042-.713-.689-.191C13.108,11.752,11,9.492,11,7c0-3.308,3.589-6,8-6m0-1c-4.971,0-9,3.134-9,7,0,3.04,2.5,5.62,5.979,6.587.008.137.021.274.021.413a6.945,6.945,0,0,1-.679,2.988,8.549,8.549,0,0,0,5.354-3.114C24.844,13.263,28,10.42,28,7c0-3.866-4.029-7-9-7Z" fill="#fff"/>
	</symbol>
	<use xlink:href="#forum-post" viewBox="0 0 28 28"/>
</svg>
