<!-- This file is part of Zotero. It is distributed under the GNU Affero General Public License version 3. -->
<svg xmlns="http://www.w3.org/2000/svg" xmlns:xlink="http://www.w3.org/1999/xlink">
	<symbol id="hearing" viewBox="0 0 28 28">
		<path d="M2,25.5A1.5,1.5,0,0,1,.939,22.939L14.854,9.854l1.292,1.292L3.05,25.071A1.482,1.482,0,0,1,2,25.5ZM20.884,14.116l3.232-3.232a1.251,1.251,0,0,0,0-1.768L23.5,8.5l-5,5,.616.616A1.251,1.251,0,0,0,20.884,14.116ZM17.5,2.5l-.616-.616a1.251,1.251,0,0,0-1.768,0L11.884,5.116a1.251,1.251,0,0,0,0,1.768L12.5,7.5Zm-5,25h15a1.762,1.762,0,0,0-2-2h-11A1.762,1.762,0,0,0,12.5,27.5Z" fill="#d6c4c5"/>
		<path d="M14.843,10.55l.607.607L2.707,24.707A1,1,0,0,1,1,24a.981.981,0,0,1,.271-.686L14.843,10.55m.021-1.393L.586,22.586a2,2,0,1,0,2.828,2.828L16.843,11.136,14.864,9.157Z" fill="#996b6f"/>
		<rect x="14.464" y="3.757" width="7.071" height="8.485" transform="translate(-0.385 15.071) rotate(-45)" fill="#ebd399"/>
		<path d="M23.146,8.854l-6-6,.708-.708,6,6Zm-4.292,4.292-6-6-.708.708,6,6Z" fill="#cc9200"/>
		<path d="M24.47,8.763,24.207,8.5l.354-.354a.5.5,0,0,0-.707-.707l-.354.354L17.793,13.5l-.354.354a.5.5,0,0,0,.707.707l.354-.354.263.263a1.753,1.753,0,0,0,2.474,0l3.233-3.233A1.752,1.752,0,0,0,24.47,8.763Zm-.707,1.767L20.53,13.763a.749.749,0,0,1-1.06,0l-.263-.263L23.5,9.207l.263.263A.751.751,0,0,1,23.763,10.53Zm-5.2-8.384a.5.5,0,1,0-.707-.707l-.354.354-.263-.263a1.753,1.753,0,0,0-2.474,0L11.53,4.763a1.752,1.752,0,0,0,0,2.474l.263.263-.354.354a.5.5,0,0,0,.707.707l.354-.354L18.207,2.5ZM12.5,6.793l-.263-.263a.751.751,0,0,1,0-1.06L15.47,2.237a.751.751,0,0,1,1.06,0l.263.263ZM27.5,28h-15a.5.5,0,0,1-.5-.5A2.255,2.255,0,0,1,14.5,25h11A2.255,2.255,0,0,1,28,27.5.5.5,0,0,1,27.5,28ZM13.041,27H26.959c-.129-.7-.579-1-1.459-1h-11C13.62,26,13.17,26.3,13.041,27Z" fill="#996b6f"/>
	</symbol>
	<symbol id="hearing-active">
		<path d="M25.5,25.5h-11a1.762,1.762,0,0,0-2,2h15A1.762,1.762,0,0,0,25.5,25.5ZM19.116,14.116a1.251,1.251,0,0,0,1.768,0l3.232-3.232a1.251,1.251,0,0,0,0-1.768L16.884,1.884a1.251,1.251,0,0,0-1.768,0L11.884,5.116a1.251,1.251,0,0,0,0,1.768l2.97,2.97L.939,22.939A1.5,1.5,0,0,0,2,25.5a1.482,1.482,0,0,0,1.05-.429l13.1-13.925Z" fill="#fff" opacity="0.4"/>
		<path d="M25.5,25h-11A2.255,2.255,0,0,0,12,27.5a.5.5,0,0,0,.5.5h15a.5.5,0,0,0,.5-.5A2.255,2.255,0,0,0,25.5,25ZM13.041,27c.129-.7.579-1,1.459-1h11c.88,0,1.33.3,1.459,1Zm4.752-13.5-.354.354a.5.5,0,0,0,.707.707l.354-.354.263.263a1.753,1.753,0,0,0,2.474,0l3.233-3.233a1.752,1.752,0,0,0,0-2.474L24.207,8.5l.354-.354a.5.5,0,0,0-.707-.707l-.354.354L18.207,2.5l.354-.354a.5.5,0,1,0-.707-.707l-.354.354-.263-.263a1.753,1.753,0,0,0-2.474,0L11.53,4.763a1.752,1.752,0,0,0,0,2.474l.263.263-.354.354a.5.5,0,0,0,.707.707l.354-.354,1.636,1.636L.586,22.586a2,2,0,1,0,2.828,2.828l12.743-13.55ZM2.707,24.707A1,1,0,0,1,1,24a.981.981,0,0,1,.271-.686L14.843,10.55l.607.607ZM23.763,9.47a.751.751,0,0,1,0,1.06L20.53,13.763a.749.749,0,0,1-1.06,0l-.263-.263L23.5,9.207ZM12.237,6.53a.751.751,0,0,1,0-1.06L15.47,2.237a.751.751,0,0,1,1.06,0l.263.263L12.5,6.793Zm.97.97L17.5,3.207,22.793,8.5,18.5,12.793Z" fill="#fff"/>
	</symbol>
	<use xlink:href="#hearing" viewBox="0 0 28 28"/>
</svg>
