<!-- This file is part of Zotero. It is distributed under the GNU Affero General Public License version 3. -->
<svg xmlns="http://www.w3.org/2000/svg" xmlns:xlink="http://www.w3.org/1999/xlink">
	<symbol id="instant-message" viewBox="0 0 28 28">
		<path d="M14,.5C6.544.5.5,5.335.5,11.3c0,4.416,3.317,8.207,8.063,9.881A13.46,13.46,0,0,1,8.7,23a13.48,13.48,0,0,1-.481,3.525A13.545,13.545,0,0,0,13.984,22.1H14c7.456,0,13.5-4.835,13.5-10.8S21.456.5,14,.5Z" fill="#e0efff"/>
		<path d="M7.475,27.362l.261-.967A13.017,13.017,0,0,0,8.2,23a12.03,12.03,0,0,0-.095-1.454C3.171,19.7,0,15.7,0,11.3,0,5.069,6.28,0,14,0S28,5.069,28,11.3c0,6.168-6.154,11.2-13.768,11.3A14.03,14.03,0,0,1,8.4,26.989ZM14,1C6.832,1,1,5.62,1,11.3c0,4.059,3.034,7.753,7.729,9.409l.288.1.041.3A13.848,13.848,0,0,1,9.2,23a13.728,13.728,0,0,1-.265,2.658,13.081,13.081,0,0,0,4.65-3.859l.15-.2h.249C21.168,21.6,27,16.979,27,11.3S21.168,1,14,1Z" fill="#66adff"/>
	</symbol>
	<symbol id="instant-message-active">
		<path d="M14,.5C6.544.5.5,5.335.5,11.3c0,4.416,3.317,8.207,8.063,9.881A13.46,13.46,0,0,1,8.7,23a13.48,13.48,0,0,1-.481,3.525A13.545,13.545,0,0,0,13.984,22.1H14c7.456,0,13.5-4.835,13.5-10.8S21.456.5,14,.5Z" fill="#fff" opacity="0.2"/>
		<path d="M7.475,27.362l.261-.967A13.017,13.017,0,0,0,8.2,23a12.03,12.03,0,0,0-.095-1.454C3.171,19.7,0,15.7,0,11.3,0,5.069,6.28,0,14,0S28,5.069,28,11.3c0,6.168-6.154,11.2-13.768,11.3A14.03,14.03,0,0,1,8.4,26.989ZM14,1C6.832,1,1,5.62,1,11.3c0,4.059,3.034,7.753,7.729,9.409l.288.1.041.3A13.848,13.848,0,0,1,9.2,23a13.728,13.728,0,0,1-.265,2.658,13.081,13.081,0,0,0,4.65-3.859l.15-.2h.249C21.168,21.6,27,16.979,27,11.3S21.168,1,14,1Z" fill="#fff"/>
	</symbol>
	<use xlink:href="#instant-message" viewBox="0 0 28 28"/>
</svg>
