<!-- This file is part of Zotero. It is distributed under the GNU Affero General Public License version 3. -->
<svg xmlns="http://www.w3.org/2000/svg" xmlns:xlink="http://www.w3.org/1999/xlink">
	<symbol id="interview" viewBox="0 0 28 28">
		<path d="M20.854,20.268a1.359,1.359,0,0,1-.9-.33l-9.4-8.292a1.126,1.126,0,0,1-.053-1.666L12.98,7.505a1.125,1.125,0,0,1,1.666.053l8.292,9.4a1.4,1.4,0,0,1-.058,1.865L21.819,19.88A1.372,1.372,0,0,1,20.854,20.268Z" fill="#b4b4b4"/>
		<circle cx="9.5" cy="6.5" r="5" fill="#dadada"/>
		<path d="M23.11,19.3l.123-.124a1.891,1.891,0,0,0,.08-2.549l-8.291-9.4c-.021-.023-.045-.038-.066-.06A5.629,5.629,0,0,0,15,6.5,5.5,5.5,0,1,0,9.5,12a5.629,5.629,0,0,0,.666-.044c.021.021.037.045.06.066l9.4,8.291a1.892,1.892,0,0,0,2.549-.08l.158-.157A4.353,4.353,0,0,1,23.95,23,1.953,1.953,0,0,1,22,24.95c-1.537,0-2.8-1.145-4.13-2.357-1.43-1.3-2.907-2.643-4.87-2.643A3.053,3.053,0,0,0,9.95,23c0,2.844,4.086,4.86,4.26,4.945a.554.554,0,0,0,.24.055.55.55,0,0,0,.24-1.045c-1.012-.491-3.64-2.16-3.64-3.955A1.953,1.953,0,0,1,13,21.05c1.537,0,2.8,1.145,4.13,2.357,1.43,1.3,2.907,2.643,4.87,2.643A3.053,3.053,0,0,0,25.05,23,5.339,5.339,0,0,0,23.11,19.3ZM5,6.5A4.5,4.5,0,1,1,9.5,11,4.505,4.505,0,0,1,5,6.5ZM22.526,18.465l-1.061,1.061a.866.866,0,0,1-.613.242.856.856,0,0,1-.568-.205l-8.938-7.887a5.507,5.507,0,0,0,3.33-3.33l7.887,8.938A.9.9,0,0,1,22.526,18.465Z" fill="#444"/>
	</symbol>
	<symbol id="interview-active">
		<circle cx="9.5" cy="6.5" r="5" fill="#fff" opacity="0.2"/>
		<path d="M22.938,16.954l-8.292-9.4a1.155,1.155,0,0,0-.235-.178,5,5,0,0,1-4.033,4.031,1.129,1.129,0,0,0,.18.235l9.4,8.292a1.393,1.393,0,0,0,1.865-.058l1.061-1.061A1.4,1.4,0,0,0,22.938,16.954Z" fill="#fff" opacity="0.4"/>
		<path d="M23.11,19.3l.123-.124a1.891,1.891,0,0,0,.08-2.549l-8.291-9.4c-.021-.023-.045-.038-.066-.06A5.629,5.629,0,0,0,15,6.5,5.5,5.5,0,1,0,9.5,12a5.629,5.629,0,0,0,.666-.044c.021.021.037.045.06.066l9.4,8.291a1.892,1.892,0,0,0,2.549-.08l.158-.157A4.353,4.353,0,0,1,23.95,23,1.953,1.953,0,0,1,22,24.95c-1.537,0-2.8-1.145-4.13-2.357-1.43-1.3-2.907-2.643-4.87-2.643A3.053,3.053,0,0,0,9.95,23c0,2.844,4.086,4.86,4.26,4.945a.554.554,0,0,0,.24.055.55.55,0,0,0,.24-1.045c-1.012-.491-3.64-2.16-3.64-3.955A1.953,1.953,0,0,1,13,21.05c1.537,0,2.8,1.145,4.13,2.357,1.43,1.3,2.907,2.643,4.87,2.643A3.053,3.053,0,0,0,25.05,23,5.339,5.339,0,0,0,23.11,19.3ZM5,6.5A4.5,4.5,0,1,1,9.5,11,4.505,4.505,0,0,1,5,6.5ZM22.526,18.465l-1.061,1.061a.866.866,0,0,1-.613.242.856.856,0,0,1-.568-.205l-8.938-7.887a5.507,5.507,0,0,0,3.33-3.33l7.887,8.938A.9.9,0,0,1,22.526,18.465Z" fill="#fff"/>
	</symbol>
	<use xlink:href="#interview" viewBox="0 0 28 28"/>
</svg>
