<!-- This file is part of Zotero. It is distributed under the GNU Affero General Public License version 3. -->
<svg xmlns="http://www.w3.org/2000/svg" xmlns:xlink="http://www.w3.org/1999/xlink">
	<symbol id="manuscript" viewBox="0 0 28 28">
		<rect x="1.5e-6" y="7.94e-7" width="21.3" height="28" fill="#fff" opacity=".5" stroke-width="1.05"/>
		<rect x="1.02" y="1.08" width="19.3" height="25.8" fill="#fff" stroke-width="1.05"/>
		<path d="m20.3 1.08v25.8h-19.3v-25.8h19.3m1.02-1.08h-21.3v28h21.3z" opacity=".2" stroke-width="1.05"/>
		<polygon points="17.3 21 14 17.7 22 9.7 25.4 13.1" fill="#fc0" fill-rule="evenodd"/>
		<path d="m14 17.7 8.02-7.97 3.37 3.35-8.02 7.97zm3.37 1.81 6.46-6.42-1.82-1.81-6.46 6.42z" fill="#f6c501"/>
		<polygon points="14 17.6 17.4 21 15.7 22.7 12.3 22.7 12.3 19.3" fill="#eccfaa" fill-rule="evenodd"/>
		<path d="m12.3 19.3 1.7-1.69 3.41 3.39-1.7 1.69h-3.41zm1.09 2.29h1.86l0.603-0.6-1.86-1.84-0.61 0.607z" fill="#e0c39f"/>
		<polygon points="12.3 22.8 15 22.8 15 21.6 13.2 21.6 13.2 20 12.3 20" fill="#444"/>
		<polygon points="22 9.71 23.3 8.4 24 7.72 25.5 7.96 26.3 8.78 27.2 9.66 27.4 11.1 26.7 11.8 25.4 13.1" fill="#d8d8d8" fill-rule="evenodd"/>
		<path d="m22 9.71 2-1.99 1.52 0.239 1.7 1.69 0.185 1.45-2 1.99zm3.41 2 0.965-0.959-0.0812-0.638-1.24-1.23-0.711-0.112-0.946 0.94z" fill="#bfbfbf"/>
	</symbol>
	<symbol id="manuscript-active" viewBox="0 0 28 28" fill="#fff" fill-rule="evenodd">
		<path d="m0 0v28h21.3v-11l3.98-3.96 0.0332 0.0312 2-1.99-0.186-1.45-1.7-1.69-1.52-0.24-2 1.99 0.0039 0.00391-0.615 0.611v-10.3zm1.02 1.08h19.3v10.2l-6.29 6.26-0.00586-0.00586-1.7 1.69v3.39h3.41l1.71-1.69-0.0332-0.0332 2.92-2.9v8.95h-19.3zm23.3 7.63 0.711 0.111 1.24 1.23 0.082 0.639-0.965 0.957-2.01-2zm-10.3 10.4 1.86 1.85-0.604 0.6h-1.86v-1.84z" fill="#fff" stroke-width="1.05"/>
	</symbol>
	<use xlink:href="#manuscript" viewBox="0 0 28 28"/>
</svg>
