<!-- This file is part of Zotero. It is distributed under the GNU Affero General Public License version 3. -->
<svg xmlns="http://www.w3.org/2000/svg" xmlns:xlink="http://www.w3.org/1999/xlink">
	<symbol id="newspaper-article" viewBox="0 0 28 28">
		<path d="M3.5,25.5V1.5h24V24A1.5,1.5,0,0,1,26,25.5Z" fill="#f3f3f3"/>
		<rect x="6.5" y="5.5" width="18" height="5" fill="#c6d5f7"/>
		<path d="M24,6v4H7V6H24m1-1H6v6H25V5Z" fill="#4072e5"/>
		<path d="M2,25.5A1.5,1.5,0,0,1,.5,24V5.5h3V24A1.5,1.5,0,0,1,2,25.5Z" fill="#dbdbdb"/>
		<path d="M17,14h8V13H17Zm0,3h8V16H17Zm0,3h8V19H17ZM6,23H25V22H6ZM3,1V5H0V24a2,2,0,0,0,2,2H26a2,2,0,0,0,2-2V1ZM1,24V6H3V24a1,1,0,0,1-2,0Zm26,0a1,1,0,0,1-1,1H3.723A1.987,1.987,0,0,0,4,24V2H27Z" fill="#888"/>
		<rect x="6.5" y="13.5" width="8" height="6" fill="#d1e7ff"/>
		<path d="M14,14v5H7V14h7m1-1H6v7h9V13Z" fill="#66adff"/>
	</symbol>
	<symbol id="newspaper-article-active">
		<path d="M2,25.5A1.5,1.5,0,0,1,.5,24V5.5h3V24A1.5,1.5,0,0,1,2,25.5Zm4.5-20v5h18v-5Zm0,8h8v6h-8Z" fill="#fff" opacity="0.3"/>
		<path d="M3.5,1.5v24H26A1.5,1.5,0,0,0,27.5,24V1.5Zm11,18h-8v-6h8Zm10-9H6.5v-5h18Z" fill="#fff" opacity="0.1"/>
		<path d="M24,6v4H7V6H24m1-1H6v6H25V5Zm-8,9h8V13H17Zm0,3h8V16H17Zm0,3h8V19H17ZM6,23H25V22H6ZM3,1V5H0V24a2,2,0,0,0,2,2H26a2,2,0,0,0,2-2V1ZM1,24V6H3V24a1,1,0,0,1-2,0Zm26,0a1,1,0,0,1-1,1H3.723A1.987,1.987,0,0,0,4,24V2H27ZM14,14v5H7V14h7m1-1H6v7h9V13Z" fill="#fff"/>
	</symbol>
	<use xlink:href="#newspaper-article" viewBox="0 0 28 28"/>
</svg>
