<!-- This file is part of Zotero. It is distributed under the GNU Affero General Public License version 3. -->
<svg xmlns="http://www.w3.org/2000/svg" xmlns:xlink="http://www.w3.org/1999/xlink">
	<symbol id="patent" viewBox="0 0 28 28">
		<path d="M11.55,22v.5h5.9V22c0-1.441,1.078-2.8,2.326-4.376C21.5,15.452,23.45,12.99,23.45,9.5a8.95,8.95,0,0,0-17.9,0c0,3.49,1.952,5.952,3.674,8.124C10.472,19.2,11.55,20.559,11.55,22Z" fill="#fff"/>
		<path d="M13,26.5A1.5,1.5,0,0,1,11.5,25V22.5h6V25A1.5,1.5,0,0,1,16,26.5Z" fill="#e7e7e7"/>
		<path d="M11,22v3a2,2,0,0,0,2,2,1,1,0,0,0,1,1h1a1,1,0,0,0,1-1,2,2,0,0,0,2-2V22Zm5,4H13a1,1,0,0,1-1-1h5A1,1,0,0,1,16,26Zm1-2H12V23h5Z" fill="#888"/>
		<path d="M12.1,22c0-1.633-1.133-3.062-2.445-4.717C7.989,15.181,6.1,12.8,6.1,9.5a8.4,8.4,0,0,1,16.8,0c0,3.3-1.889,5.681-3.555,7.783C18.033,18.938,16.9,20.367,16.9,22H18c0-3.042,6-6.25,6-12.5a9.5,9.5,0,0,0-19,0c0,6.25,6,9.458,6,12.5Z" fill="#faa700"/>
	</symbol>
	<symbol id="patent-active">
		<path d="M11.55,22v.5h5.9V22c0-1.441,1.078-2.8,2.326-4.376C21.5,15.452,23.45,12.99,23.45,9.5a8.95,8.95,0,0,0-17.9,0c0,3.49,1.952,5.952,3.674,8.124C10.472,19.2,11.55,20.559,11.55,22Z" fill="none" opacity="0.2"/>
		<path d="M13,26.5A1.5,1.5,0,0,1,11.5,25V22.5h6V25A1.5,1.5,0,0,1,16,26.5Z" fill="#fff" opacity="0.2"/>
		<path d="M11,22v3a2,2,0,0,0,2,2,1,1,0,0,0,1,1h1a1,1,0,0,0,1-1,2,2,0,0,0,2-2V22Zm5,4H13a1,1,0,0,1-1-1h5A1,1,0,0,1,16,26Zm1-2H12V23h5Z" fill="#fff"/>
		<path d="M12.1,22c0-1.633-1.133-3.062-2.445-4.717C7.989,15.181,6.1,12.8,6.1,9.5a8.4,8.4,0,0,1,16.8,0c0,3.3-1.889,5.681-3.555,7.783C18.033,18.938,16.9,20.367,16.9,22H18c0-3.042,6-6.25,6-12.5a9.5,9.5,0,0,0-19,0c0,6.25,6,9.458,6,12.5Z" fill="#fff"/>
	</symbol>
	<use xlink:href="#patent" viewBox="0 0 28 28"/>
</svg>
