<!-- This file is part of Zotero. It is distributed under the GNU Affero General Public License version 3. -->
<svg xmlns="http://www.w3.org/2000/svg" xmlns:xlink="http://www.w3.org/1999/xlink">
	<symbol id="pdf-linked" viewBox="0 0 28 28">
		<path d="M18.717,0H4V26h8V25h2.551a2.942,2.942,0,0,1-.051-.5,2.992,2.992,0,0,1,5.954-.429l.062.429h.968l.062-.429A3.005,3.005,0,0,1,24.5,21.5a2.942,2.942,0,0,1,.5.051V19h1V7.283Z" fill="#fff" opacity="0.5"/>
		<path d="M18.3,1H5V25h9.551a2.942,2.942,0,0,1-.051-.5,2.992,2.992,0,0,1,5.954-.429l.062.429h.968l.062-.429A3.005,3.005,0,0,1,24.5,21.5a2.942,2.942,0,0,1,.5.051V7.7Z" fill="#fff"/>
		<polygon points="19 1.698 19 7 24.302 7 19 1.698" opacity="0.08"/>
		<path d="M12,25H5V1H18V8h7V19h1V7.283L18.717,0H4V26h8ZM19,1.7,24.3,7H19Z" opacity="0.2"/>
		<path d="M24.5,21a3.491,3.491,0,0,0-3.45,3h-.1a3.5,3.5,0,1,0,0,1h.1a3.493,3.493,0,1,0,3.45-4Zm-7,6a2.5,2.5,0,1,1,2.449-3H17.5a.5.5,0,0,0,0,1h2.449A2.5,2.5,0,0,1,17.5,27Zm7,0a2.5,2.5,0,0,1-2.449-2H24.5a.5.5,0,0,0,0-1H22.051A2.5,2.5,0,1,1,24.5,27Z" fill="#888"/>
		<rect x="1" y="6" width="12" height="5" fill="#f1abb0"/>
		<path d="M13,6v5H1V6H13m1-1H0v7H14V5Z" fill="#db2c3a"/>
	</symbol>
	<symbol id="pdf-linked-active">
		<path d="M13,11V6H1v5ZM25.51,7.5H18.5V.49Z" fill="#fff" opacity="0.4"/>
		<path d="M24.5,21a3.491,3.491,0,0,0-3.45,3h-.1a3.5,3.5,0,1,0,0,1h.1a3.493,3.493,0,1,0,3.45-4Zm-7,4h2.449a2.5,2.5,0,1,1,0-1H17.5a.5.5,0,0,0,0,1Zm7,2a2.5,2.5,0,0,1-2.449-2H24.5a.5.5,0,0,0,0-1H22.051A2.5,2.5,0,1,1,24.5,27ZM5,12h9V5H5V1H18V8h7V19h1V7.283L18.717,0H4V5H0v7H4V26h8V25H5ZM19,1.7,24.3,7H19ZM1,11V6H13v5Z" fill="#fff"/>
	</symbol>
	<use xlink:href="#pdf-linked" viewBox="0 0 28 28"/>
</svg>
