<!-- This file is part of Zotero. It is distributed under the GNU Affero General Public License version 3. -->
<svg xmlns="http://www.w3.org/2000/svg" xmlns:xlink="http://www.w3.org/1999/xlink">
	<symbol id="pdf" viewBox="0 0 28 28">
		<path d="M20.717,0H5V28H28V7.283L20.717,0Z" fill="#fff" opacity="0.5"/>
		<polygon points="6 1 6 27 27 27 27 7.698 20.302 1 6 1" fill="#fff"/>
		<polygon points="21 1.698 21 7 26.302 7 21 1.698" opacity="0.08"/>
		<path d="M20.717,0H5V28H28V7.283ZM21,1.7,26.3,7H21ZM27,27H6V1H20V8h7Z" opacity="0.2"/>
		<rect x="1" y="6" width="14" height="5" fill="#f1abb0"/>
		<path d="M15,6v5H1V6H15m1-1H0v7H16V5Z" fill="#db2c3a"/>
	</symbol>
	<symbol id="pdf-active">
		<polygon points="20.5 0.49 20.5 7.5 27.51 7.5 20.5 0.49" fill="#ccc" opacity="0.4"/>
		<rect x="1" y="6" width="14" height="5" fill="#fff" opacity="0.4"/>
		<path d="M20.717,0H5V5H0v7H5V28H28V7.283ZM21,1.7,26.3,7H21ZM1,11V6H15v5ZM27,27H6V12H16V5H6V1H20V8h7Z" fill="#fff"/>
	</symbol>
	<use xlink:href="#pdf" viewBox="0 0 28 28"/>
</svg>
