<!-- This file is part of Zotero. It is distributed under the GNU Affero General Public License version 3. -->
<svg xmlns="http://www.w3.org/2000/svg" xmlns:xlink="http://www.w3.org/1999/xlink">
	<symbol id="podcast" viewBox="0 0 28 28">
		<path d="M9.5,28V23.25c0-2.485.91-3.5,4.5-3.5s4.5,1.015,4.5,3.5V28M14,11a3,3,0,1,0,3,3A3,3,0,0,0,14,11Z" fill="#444" opacity="0.2"/>
		<path d="M3.267,22.983a14,14,0,1,1,21.466,0l-.782-.782a12.9,12.9,0,1,0-19.9,0ZM6.35,14a7.65,7.65,0,1,1,13.856,4.456l.787.787a8.75,8.75,0,1,0-13.986,0l.787-.787A7.6,7.6,0,0,1,6.35,14Z" fill="#ff794c"/>
		<path d="M14,10.5A3.5,3.5,0,1,0,17.5,14,3.5,3.5,0,0,0,14,10.5Zm0,6A2.5,2.5,0,1,1,16.5,14,2.5,2.5,0,0,1,14,16.5Zm5,6.75c0-2.916-1.355-4-5-4s-5,1.084-5,4V28h1V23.25c0-2.116.556-3,4-3s4,.884,4,3V28h1Z" fill="#444"/>
	</symbol>
	<symbol id="podcast-active">
		<path d="M9.5,28V23.25c0-2.485.91-3.5,4.5-3.5s4.5,1.015,4.5,3.5V28M14,11a3,3,0,1,0,3,3A3,3,0,0,0,14,11Z" fill="#fff" opacity="0.2"/>
		<path d="M3.267,22.983a14,14,0,1,1,21.466,0l-.782-.782a12.9,12.9,0,1,0-19.9,0ZM6.35,14a7.65,7.65,0,1,1,13.856,4.456l.787.787a8.75,8.75,0,1,0-13.986,0l.787-.787A7.6,7.6,0,0,1,6.35,14ZM14,10.5A3.5,3.5,0,1,0,17.5,14,3.5,3.5,0,0,0,14,10.5Zm0,6A2.5,2.5,0,1,1,16.5,14,2.5,2.5,0,0,1,14,16.5Zm5,6.75c0-2.916-1.355-4-5-4s-5,1.084-5,4V28h1V23.25c0-2.116.556-3,4-3s4,.884,4,3V28h1Z" fill="#fff"/>
	</symbol>
	<use xlink:href="#podcast" viewBox="0 0 28 28"/>
</svg>
