<!-- This file is part of Zotero. It is distributed under the GNU Affero General Public License version 3. -->
<svg xmlns="http://www.w3.org/2000/svg" xmlns:xlink="http://www.w3.org/1999/xlink">
	<symbol id="preprint" viewBox="0 0 28 28">
		<path d="m15.7 0h-15.7v28h23v-20.7z" fill="#fff" opacity=".5"/>
		<polygon points="22 7.7 15.3 1 1 1 1 27 22 27" fill="#fff"/>
		<polygon points="21.3 7 16 1.7 16 7" opacity=".08"/>
		<path d="m15.7 0h-15.7v28h23v-20.7zm0.283 1.7 5.3 5.3h-5.3zm6 25.3h-21v-26h14v7h7z" opacity=".2"/>
		<path d="m12 8h-7v-1h7zm6 4h-13v1h13zm0 5h-13v1h13zm0 5h-13v1h13z" fill="#444"/>
		<polygon points="17.3 21 14 17.7 22 9.7 25.4 13.1" fill="#fc0" fill-rule="evenodd"/>
		<path d="m14 17.7 8.02-7.97 3.37 3.35-8.02 7.97zm3.37 1.81 6.46-6.42-1.82-1.81-6.46 6.42z" fill="#f6c501"/>
		<polygon points="15.7 22.7 12.3 22.7 12.3 19.3 14 17.6 17.4 21" fill="#eccfaa" fill-rule="evenodd"/>
		<path d="m12.3 19.3 1.7-1.69 3.41 3.39-1.7 1.69h-3.41zm1.09 2.29h1.86l0.603-0.6-1.86-1.84-0.61 0.607z" fill="#e0c39f"/>
		<polygon points="15 21.6 13.2 21.6 13.2 20 12.3 20 12.3 22.8 15 22.8" fill="#444"/>
		<polygon points="27.2 9.66 27.4 11.1 26.7 11.8 25.4 13.1 22 9.71 23.3 8.4 24 7.72 25.5 7.96 26.3 8.78" fill="#d8d8d8" fill-rule="evenodd"/>
		<path d="m22 9.71 2-1.99 1.52 0.239 1.7 1.69 0.185 1.45-2 1.99zm3.41 2 0.965-0.959-0.0812-0.638-1.24-1.23-0.711-0.112-0.946 0.94z" fill="#bfbfbf"/>
	</symbol>
	<symbol id="preprint-active" viewBox="0 0 28 28" fill="#fff" fill-rule="evenodd" stroke-width="1.75">
		<polygon points="25.3 13 17.3 21 13.9 17.6 21.9 9.64"/>
		<path d="m12.3 19.2 1.7-1.69 3.41 3.39-1.7 1.69h-3.41zm1.09 2.29h1.86l0.604-0.6-1.86-1.84-0.61 0.607z" fill-rule="nonzero"/>
		<path d="m21.9 9.65 2-1.99 1.52 0.239 1.7 1.69 0.185 1.45-2 1.99zm3.41 2 0.965-0.959-0.0812-0.638-1.24-1.23-0.711-0.112-0.946 0.94z" fill-rule="nonzero"/>
		<path d="m22.5 7.5h-7.01v-7.01z" fill="#fff" opacity=".4"/>
		<path d="m12 8h-7v-1h7zm6 4h-13v1h13zm0 5h-13v1h13zm0 5h-13v1h13zm-2.28-22h-15.7v28h23v-20.7zm0.283 1.7 5.3 5.3h-5.3zm6 25.3h-21v-26h14v7h7z" fill="#fff"/>
	</symbol>
	<use xlink:href="#preprint" viewBox="0 0 28 28"/>
</svg>
