<!-- This file is part of Zotero. It is distributed under the GNU Affero General Public License version 3. -->
<svg xmlns="http://www.w3.org/2000/svg" xmlns:xlink="http://www.w3.org/1999/xlink">
	<symbol id="radio-broadcast" viewBox="0 0 28 28">
		<path d="M0,14A13.964,13.964,0,0,1,5.486,2.9l.672.877a12.852,12.852,0,0,0,0,20.438l-.672.877A13.964,13.964,0,0,1,0,14ZM22.514,2.9l-.672.877a12.852,12.852,0,0,1,0,20.438l.672.877a13.964,13.964,0,0,0,0-22.192ZM21.65,14a7.632,7.632,0,0,1-3,6.06l.671.875a8.727,8.727,0,0,0,0-13.87l-.671.875A7.632,7.632,0,0,1,21.65,14ZM6.35,14a7.632,7.632,0,0,1,3-6.06l-.671-.875a8.727,8.727,0,0,0,0,13.87l.671-.875A7.632,7.632,0,0,1,6.35,14ZM14,11.6A2.4,2.4,0,1,0,16.4,14,2.4,2.4,0,0,0,14,11.6m0-1.1A3.5,3.5,0,1,1,10.5,14,3.5,3.5,0,0,1,14,10.5Z" fill="#ff794c"/>
	</symbol>
	<symbol id="radio-broadcast-active">
		<path d="M0,14A13.964,13.964,0,0,1,5.486,2.9l.672.877a12.852,12.852,0,0,0,0,20.438l-.672.877A13.964,13.964,0,0,1,0,14ZM22.514,2.9l-.672.877a12.852,12.852,0,0,1,0,20.438l.672.877a13.964,13.964,0,0,0,0-22.192ZM21.65,14a7.632,7.632,0,0,1-3,6.06l.671.875a8.727,8.727,0,0,0,0-13.87l-.671.875A7.632,7.632,0,0,1,21.65,14ZM6.35,14a7.632,7.632,0,0,1,3-6.06l-.671-.875a8.727,8.727,0,0,0,0,13.87l.671-.875A7.632,7.632,0,0,1,6.35,14ZM14,11.6A2.4,2.4,0,1,0,16.4,14,2.4,2.4,0,0,0,14,11.6m0-1.1A3.5,3.5,0,1,1,10.5,14,3.5,3.5,0,0,1,14,10.5Z" fill="#fff"/>
	</symbol>
	<use xlink:href="#radio-broadcast" viewBox="0 0 28 28"/>
</svg>
