<!-- This file is part of Zotero. It is distributed under the GNU Affero General Public License version 3. -->
<svg xmlns="http://www.w3.org/2000/svg" xmlns:xlink="http://www.w3.org/1999/xlink">
	<symbol id="report" viewBox="0 0 28 28">
		<rect x="3" width="23" height="28" rx="1.5" fill="#fff" opacity="0.5"/>
		<rect x="4" y="1" width="21" height="26" rx="0.5" fill="#fff"/>
		<polygon points="24.302 21 19 21 19 26.302 24.302 21" opacity="0.08"/>
		<path d="M24.5,0H4.5A1.5,1.5,0,0,0,3,1.5v25A1.5,1.5,0,0,0,4.5,28h20A1.5,1.5,0,0,0,26,26.5V1.5A1.5,1.5,0,0,0,24.5,0ZM25,26.5a.5.5,0,0,1-.5.5H19.716L25,21.716Zm-6-.2V21h5.3ZM25,20H18v7H4.5a.5.5,0,0,1-.5-.5V1.5A.5.5,0,0,1,4.5,1h20a.5.5,0,0,1,.5.5Z" opacity="0.2"/>
		<path d="M21,10H10V9H21Zm-2,2H12v1h7Z" fill="#444"/>
		<path d="M1.5,3.5A.5.5,0,0,1,2,3H5A.5.5,0,0,1,5,4H2A.5.5,0,0,1,1.5,3.5ZM5,6H2A.5.5,0,0,0,2,7H5A.5.5,0,0,0,5,6ZM5,9H2a.5.5,0,0,0,0,1H5A.5.5,0,0,0,5,9Zm0,3H2a.5.5,0,0,0,0,1H5a.5.5,0,0,0,0-1Zm0,3H2a.5.5,0,0,0,0,1H5a.5.5,0,0,0,0-1Zm0,3H2a.5.5,0,0,0,0,1H5a.5.5,0,0,0,0-1Zm0,3H2a.5.5,0,0,0,0,1H5a.5.5,0,0,0,0-1Zm0,3H2a.5.5,0,0,0,0,1H5a.5.5,0,0,0,0-1Z" fill="#db2c3a"/>
	</symbol>
	<symbol id="report-active">
		<polygon points="25.51 20.49 18.5 20.49 18.5 27.5 25.51 20.49" fill="#ccc" opacity="0.4"/>
		<path d="M24.5,0H4.5A1.5,1.5,0,0,0,3,1.5V3H2A.5.5,0,0,0,2,4H3V6H2A.5.5,0,0,0,2,7H3V9H2a.5.5,0,0,0,0,1H3v2H2a.5.5,0,0,0,0,1H3v2H2a.5.5,0,0,0,0,1H3v2H2a.5.5,0,0,0,0,1H3v2H2a.5.5,0,0,0,0,1H3v2H2a.5.5,0,0,0,0,1H3v1.5A1.5,1.5,0,0,0,4.5,28h20A1.5,1.5,0,0,0,26,26.5V1.5A1.5,1.5,0,0,0,24.5,0ZM25,26.5a.5.5,0,0,1-.5.5H19.716L25,21.716Zm-6-.2V21h5.3ZM25,20H18v7H4.5a.5.5,0,0,1-.5-.5V25H5a.5.5,0,0,0,0-1H4V22H5a.5.5,0,0,0,0-1H4V19H5a.5.5,0,0,0,0-1H4V16H5a.5.5,0,0,0,0-1H4V13H5a.5.5,0,0,0,0-1H4V10H5A.5.5,0,0,0,5,9H4V7H5A.5.5,0,0,0,5,6H4V4H5A.5.5,0,0,0,5,3H4V1.5A.5.5,0,0,1,4.5,1h20a.5.5,0,0,1,.5.5ZM10,9H21v1H10Zm2,3h7v1H12Z" fill="#fff"/>
	</symbol>
	<use xlink:href="#report" viewBox="0 0 28 28"/>
</svg>
