<!-- This file is part of Zotero. It is distributed under the GNU Affero General Public License version 3. -->
<svg xmlns="http://www.w3.org/2000/svg"
	xmlns:xlink="http://www.w3.org/1999/xlink">
	<symbol id="standard" viewBox="0 0 28 28">
		<path fill="#fff" opacity="0.5" d="m19 0h-16v28h23v-21l-7.3-7.3z"/>
		<polygon fill="#fff" points="4 1 4 27 25 27 25 7.7 18 1"/>
		<polygon opacity="0.08" points="19 1.7 19 7 24 7"/>
		<path opacity="0.2" d="m19 0h-16v28h23v-21l-7.3-7.3zm0.28 1.7 5.3 5.3h-5.3v-5.3zm2 25h-17v-26h14v7h7v15l-4 4z"/>
		<path fill="#b0e5c3" d="m7 22h1v1h-1zm0-5h1v1h-1zm0-5h1v1h-1z" />
		<path fill="#39bf68" d="m8 22v1h-1v-1h1m1-1h-3v3h3zm-1-4v1h-1v-1h1m1-1h-3v3h3zm-1-4v1h-1v-1h1m1-1h-3v3h3z"/>
		<path fill="#444" d="m11 22v1h3c0-0.34 0.033-0.67 0.08-1zm-5-15h10v1h-10zm5 5h12v1h-12zm0 6h5.1c0.39-0.38 0.83-0.72 1.3-1h-6.4z"/>
		<path fill="#39bf68" d="m21 18c-2.8 0-5 2.2-5 5s2.2 5 5 5 5-2.2 5-5-2.2-5-5-5zm-1 7.7-2.4-2.4 0.71-0.71 1.6 1.6 3.6-3.6 0.71 0.71-4.4 4.4z"/>
	</symbol>
	<symbol id="standard-active">
		<path opacity="0" d="m19 0h-16v28h23v-21l-7.3-7.3z"/>
		<polygon opacity="0" points="4 1 4 27 25 27 25 7.7 18 1"/>
		<polygon fill="#fff" opacity="0.08" points="19 1.7 19 7 24 7"/>
		<path fill="#fff" d="m19 0h-16v28h23v-21l-7.3-7.3zm0.28 1.7 5.3 5.3h-5.3v-5.3zm2 25h-17v-26h14v7h7v15l-4 4z"/>
		<path fill="#fff" opacity="0.3" d="m7 22h1v1h-1zm0-5h1v1h-1zm0-5h1v1h-1z" />
		<path fill="#fff" d="m8 22v1h-1v-1h1m1-1h-3v3h3zm-1-4v1h-1v-1h1m1-1h-3v3h3zm-1-4v1h-1v-1h1m1-1h-3v3h3z"/>
		<path fill="#fff" d="m11 22v1h3c0-0.34 0.033-0.67 0.08-1zm-5-15h10v1h-10zm5 5h12v1h-12zm0 6h5.1c0.39-0.38 0.83-0.72 1.3-1h-6.4z"/>
		<path fill="#fff" d="m21 18c-2.8 0-5 2.2-5 5s2.2 5 5 5 5-2.2 5-5-2.2-5-5-5zm-1 7.7-2.4-2.4 0.71-0.71 1.6 1.6 3.6-3.6 0.71 0.71-4.4 4.4z"/>
	</symbol>
	<use xlink:href="#standard" viewBox="0 0 28 28"/>
</svg>
