<!-- This file is part of Zotero. It is distributed under the GNU Affero General Public License version 3. -->
<svg xmlns="http://www.w3.org/2000/svg" xmlns:xlink="http://www.w3.org/1999/xlink">
	<symbol id="thesis" viewBox="0 0 28 28">
		<path d="M3,21.347a.967.967,0,0,0,0-1.694v-7.9H2v7.9a.967.967,0,0,0,0,1.694V21.4a10.423,10.423,0,0,0-.5,4.1c0,.276.448.5,1,.5s1-.224,1-.5A10.423,10.423,0,0,0,3,21.4Z" fill="#ff794c"/>
		<path d="M14,23.5c-4.607,0-8.5-2.175-8.5-4.75V11.5h17v7.25C22.5,21.325,18.607,23.5,14,23.5Z" fill="#8f8f8f"/>
		<polygon points="1.008 11 14 3.576 26.992 11 14 18.424 1.008 11" fill="#b4b4b4"/>
		<path d="M28,11,14,3,0,11l5,2.857V18.75C5,21.649,9.029,24,14,24s9-2.351,9-5.25V13.857ZM14,4.152,25.984,11,14,17.848,2.016,11Zm8,14.6c0,2.3-3.664,4.25-8,4.25s-8-1.946-8-4.25V14.429L14,19l8-4.571Z" fill="#444"/>
	</symbol>
	<symbol id="thesis-active">
		<polygon points="1.008 11 14 3.576 26.992 11 14 18.424 1.008 11" fill="#fff" opacity="0.4"/>
		<path d="M14,18.424,5.5,13.567V18.75c0,2.575,3.893,4.75,8.5,4.75s8.5-2.175,8.5-4.75V13.567Z" fill="#fff" opacity="0.6"/>
		<path d="M14,3,0,11l2,1.143v7.51a.967.967,0,0,0,0,1.694V21.4a10.423,10.423,0,0,0-.5,4.1c0,.276.448.5,1,.5s1-.224,1-.5A10.423,10.423,0,0,0,3,21.4v-.056a.967.967,0,0,0,0-1.694V12.714l2,1.143V18.75C5,21.649,9.029,24,14,24s9-2.351,9-5.25V13.857L28,11Zm8,15.75c0,2.3-3.664,4.25-8,4.25s-8-1.946-8-4.25V14.429L14,19l8-4.571Zm-8-.9L2.016,11,14,4.152,25.984,11Z" fill="#fff"/>
	</symbol>
	<use xlink:href="#thesis" viewBox="0 0 28 28"/>
</svg>
