<!-- This file is part of Zotero. It is distributed under the GNU Affero General Public License version 3. -->
<svg xmlns="http://www.w3.org/2000/svg" xmlns:xlink="http://www.w3.org/1999/xlink">
	<symbol id="tv-broadcast" viewBox="0 0 28 28">
		<rect x="3" y="7" width="22" height="19" fill="#dadada"/>
		<rect x="5.5" y="9.5" width="17" height="12" rx="2.5" fill="#e0efff"/>
		<path d="M18,23h1v1H18Zm-2,1h1V23H16Zm7-12v7a3,3,0,0,1-3,3H8a3,3,0,0,1-3-3V12A3,3,0,0,1,8,9H20A3,3,0,0,1,23,12Zm-1,0a2,2,0,0,0-2-2H8a2,2,0,0,0-2,2v7a2,2,0,0,0,2,2H20a2,2,0,0,0,2-2Zm4-4.25v17.5A1.751,1.751,0,0,1,24.25,27H23a1,1,0,0,1-2,0H7a1,1,0,0,1-2,0H3.75A1.751,1.751,0,0,1,2,25.25V7.75A1.751,1.751,0,0,1,3.75,6h6.543L5.146.854,5.854.146,11.707,6h4.586L22.146.146l.708.708L17.707,6H24.25A1.751,1.751,0,0,1,26,7.75Zm-1,0A.75.75,0,0,0,24.25,7H3.75A.75.75,0,0,0,3,7.75v17.5a.75.75,0,0,0,.75.75h20.5a.75.75,0,0,0,.75-.75Z" fill="#444"/>
		<rect x="20" y="23" width="1" height="1" fill="#db2c3a"/>
	</symbol>
	<symbol id="tv-broadcast-active">
		<rect x="5.5" y="8.5" width="17" height="12" rx="2.5" fill="#fff" opacity="0.2"/>
		<path d="M3,6V25H25V6ZM22.5,18A2.5,2.5,0,0,1,20,20.5H8A2.5,2.5,0,0,1,5.5,18V11A2.5,2.5,0,0,1,8,8.5H20A2.5,2.5,0,0,1,22.5,11Z" fill="#fff" opacity="0.4"/>
		<path d="M18,22h1v1H18Zm-2,1h1V22H16Zm7-12v7a3,3,0,0,1-3,3H8a3,3,0,0,1-3-3V11A3,3,0,0,1,8,8H20A3,3,0,0,1,23,11Zm-1,0a2,2,0,0,0-2-2H8a2,2,0,0,0-2,2v7a2,2,0,0,0,2,2H20a2,2,0,0,0,2-2Zm4-4.25v17.5A1.751,1.751,0,0,1,24.25,26H22.618l.277.553a1,1,0,0,1-1.79.894L20.382,26H7.618L6.9,27.447a1,1,0,0,1-1.79-.894L5.382,26H3.75A1.751,1.751,0,0,1,2,24.25V6.75A1.751,1.751,0,0,1,3.75,5h6.543L6.146.854,6.854.146,11.707,5h4.586L21.146.146l.708.708L17.707,5H24.25A1.751,1.751,0,0,1,26,6.75Zm-1,0A.75.75,0,0,0,24.25,6H3.75A.75.75,0,0,0,3,6.75v17.5a.75.75,0,0,0,.75.75h20.5a.75.75,0,0,0,.75-.75ZM20,23h1V22H20Z" fill="#fff"/>
	</symbol>
	<use xlink:href="#tv-broadcast" viewBox="0 0 28 28"/>
</svg>
