<!-- This file is part of Zotero. It is distributed under the GNU Affero General Public License version 3. -->
<svg xmlns="http://www.w3.org/2000/svg" xmlns:xlink="http://www.w3.org/1999/xlink">
	<symbol id="video-recording" viewBox="0 0 28 28">
		<path d="M7.5,11.167,1.426,7.66A1.047,1.047,0,0,0,.931,7.5C.556,7.5.5,7.936.5,8.194V19.806c0,.258.056.694.431.694a1.047,1.047,0,0,0,.495-.16L7.5,16.833Z" fill="#b4b4b4"/>
		<rect x="7.5" y="5.5" width="19" height="17" rx="1.25" fill="#dadada"/>
		<rect x="23" y="9" width="1" height="1" fill="#db2c3a"/>
		<path d="M27,9V6.75A1.751,1.751,0,0,0,25.25,5H8.75A1.751,1.751,0,0,0,7,6.75V10.3L1.676,7.227A1.512,1.512,0,0,0,.931,7C.38,7,0,7.439,0,8.2v11.61c0,.756.381,1.2.931,1.2a1.512,1.512,0,0,0,.745-.227L7,17.7V21.25A1.751,1.751,0,0,0,8.75,23h16.5A1.751,1.751,0,0,0,27,21.25V14a1,1,0,0,0,1-1V10A1,1,0,0,0,27,9ZM7,16.544,1.176,19.907a.948.948,0,0,1-.16.075A.868.868,0,0,1,1,19.805V8.2a.868.868,0,0,1,.016-.177.948.948,0,0,1,.16.075L7,11.456ZM26,21.25a.75.75,0,0,1-.75.75H8.75A.75.75,0,0,1,8,21.25V6.75A.75.75,0,0,1,8.75,6h16.5a.75.75,0,0,1,.75.75ZM21,9.5a.5.5,0,0,1-.5.5h-10a.5.5,0,0,1,0-1h10A.5.5,0,0,1,21,9.5Z" fill="#444"/>
	</symbol>
	<symbol id="video-recording-active">
		<path d="M7.5,11.167,1.426,7.66A1.047,1.047,0,0,0,.931,7.5C.556,7.5.5,7.936.5,8.194V19.806c0,.258.056.694.431.694a1.047,1.047,0,0,0,.495-.16L7.5,16.833Z" fill="#fff" opacity="0.4"/>
		<rect x="7.5" y="5.5" width="19" height="17" rx="1.25" fill="#fff" opacity="0.2"/>
		<path d="M24,10H23V9h1Zm4,0v3a1,1,0,0,1-1,1v7.25A1.751,1.751,0,0,1,25.25,23H8.75A1.751,1.751,0,0,1,7,21.25V17.7L1.676,20.773A1.512,1.512,0,0,1,.931,21C.381,21,0,20.561,0,19.805V8.2C0,7.439.38,7,.931,7a1.512,1.512,0,0,1,.745.227L7,10.3V6.75A1.751,1.751,0,0,1,8.75,5h16.5A1.751,1.751,0,0,1,27,6.75V9A1,1,0,0,1,28,10ZM7,11.456,1.176,8.093a.948.948,0,0,0-.16-.075A.868.868,0,0,0,1,8.2v11.61a.868.868,0,0,0,.016.177.948.948,0,0,0,.16-.075L7,16.544ZM26,6.75A.75.75,0,0,0,25.25,6H8.75A.75.75,0,0,0,8,6.75v14.5a.75.75,0,0,0,.75.75h16.5a.75.75,0,0,0,.75-.75ZM20.5,9h-10a.5.5,0,0,0,0,1h10a.5.5,0,0,0,0-1Z" fill="#fff"/>
	</symbol>
	<use xlink:href="#video-recording" viewBox="0 0 28 28"/>
</svg>
