<!-- This file is part of Zotero. It is distributed under the GNU Affero General Public License version 3. -->
<svg xmlns="http://www.w3.org/2000/svg" xmlns:xlink="http://www.w3.org/1999/xlink">
	<symbol id="web-page-linked" viewBox="0 0 28 28">
		<path d="M15.545,25a3.048,3.048,0,0,1-.045-.5,3,3,0,0,1,6,0,3,3,0,0,1,3-3,3.048,3.048,0,0,1,.5.05V19.036a5.684,5.684,0,0,1,1,.177V3.75A1.751,1.751,0,0,0,24.25,2H1.75A1.751,1.751,0,0,0,0,3.75V26H13.213a5.684,5.684,0,0,1-.177-1Z" fill="#fff" opacity="0.5"/>
		<path d="M15.5,24.5a3,3,0,0,1,6,0,3,3,0,0,1,3-3,3.048,3.048,0,0,1,.5.05V9H1V25H15.545A3.048,3.048,0,0,1,15.5,24.5Z" fill="#fff"/>
		<path d="M13.025,25H1V10H25v9.025a5.5,5.5,0,0,1,1,.188V3.75A1.751,1.751,0,0,0,24.25,2H1.75A1.751,1.751,0,0,0,0,3.75V26H13.213A5.5,5.5,0,0,1,13.025,25ZM1,3.75A.75.75,0,0,1,1.75,3h22.5a.75.75,0,0,1,.75.75V9H1Z" opacity="0.2"/>
		<path d="M1.75,3h22.5a.75.75,0,0,1,.75.75V9a0,0,0,0,1,0,0H1A0,0,0,0,1,1,9V3.75A.75.75,0,0,1,1.75,3Z" fill="#f5f5f5"/>
		<circle cx="4" cy="6" r="1" fill="#e24940"/>
		<circle cx="7" cy="6" r="1" fill="#e0a32a"/>
		<circle cx="10" cy="6" r="1" fill="#28ad31"/>
		<path d="M24.5,21a3.486,3.486,0,0,0-3,1.723,3.5,3.5,0,1,0,0,3.554A3.494,3.494,0,1,0,24.5,21Zm-6,6a2.5,2.5,0,1,1,2.449-3H18.5a.5.5,0,0,0,0,1h2.449A2.5,2.5,0,0,1,18.5,27Zm6,0a2.5,2.5,0,0,1-2.449-2H24.5a.5.5,0,0,0,0-1H22.051A2.5,2.5,0,1,1,24.5,27Z" fill="#888"/>
		<path d="M18.5,19a5.433,5.433,0,0,1,3,.892,5.317,5.317,0,0,1,1-.5V16.5H3.5v6h9.882A5.5,5.5,0,0,1,18.5,19Z" fill="#b3c7f5"/>
		<path d="M13.382,22.5c.067-.172.146-.337.229-.5H4V17H22v2.613l.031-.018c.153-.074.31-.143.469-.2s.333-.1.5-.148V16H3v7H13.236C13.284,22.833,13.319,22.66,13.382,22.5Z" fill="#4072e5"/>
	</symbol>
	<symbol id="web-page-linked-active">
		<path d="M1.75,3h22.5a.75.75,0,0,1,.75.75V9a0,0,0,0,1,0,0H1A0,0,0,0,1,1,9V3.75A.75.75,0,0,1,1.75,3Z" fill="#fff" opacity="0.2"/>
		<path d="M18.5,19a5.433,5.433,0,0,1,3,.892,5.317,5.317,0,0,1,1-.5V16.5H3.5v6h9.882A5.5,5.5,0,0,1,18.5,19Z" fill="#fff" opacity="0.4"/>
		<path d="M5,6A1,1,0,1,1,4,5,1,1,0,0,1,5,6ZM7,5A1,1,0,1,0,8,6,1,1,0,0,0,7,5Zm3,0a1,1,0,1,0,1,1A1,1,0,0,0,10,5Zm3.213,21H0V3.75A1.751,1.751,0,0,1,1.75,2h22.5A1.751,1.751,0,0,1,26,3.75V19.213a5.5,5.5,0,0,0-1-.188V10H1V25H13.025A5.5,5.5,0,0,0,13.213,26ZM1,9H25V3.75A.75.75,0,0,0,24.25,3H1.75A.75.75,0,0,0,1,3.75ZM28,24.5a3.49,3.49,0,0,1-6.5,1.777,3.5,3.5,0,1,1,0-3.554A3.49,3.49,0,0,1,28,24.5Zm-7.051.5H18.5a.5.5,0,0,1,0-1h2.449a2.5,2.5,0,1,0,0,1ZM27,24.5a2.5,2.5,0,0,0-4.949-.5H24.5a.5.5,0,0,1,0,1H22.051A2.5,2.5,0,0,0,27,24.5Zm-13.618-2c.067-.172.146-.337.229-.5H4V17H22v2.613l.031-.018c.153-.074.31-.143.469-.2s.333-.1.5-.148V16H3v7H13.236C13.284,22.833,13.319,22.66,13.382,22.5Z" fill="#fff"/>
	</symbol>
	<use xlink:href="#web-page-linked" viewBox="0 0 28 28"/>
</svg>
