<!-- This file is part of Zotero. It is distributed under the GNU Affero General Public License version 3. -->
<svg xmlns="http://www.w3.org/2000/svg" xmlns:xlink="http://www.w3.org/1999/xlink">
	<symbol id="webpage-linked" viewBox="0 0 28 28">
		<path d="M26,19.213V3.75A1.751,1.751,0,0,0,24.25,2H1.75A1.751,1.751,0,0,0,0,3.75V26H12.213A5.5,5.5,0,0,1,21,20.26a5.462,5.462,0,0,1,5-1.047Z" fill="#fff" opacity="0.5"/>
		<path d="M14.5,24.5a3,3,0,0,1,6,0,3.048,3.048,0,0,1-.05.5h1.1a3.048,3.048,0,0,1-.05-.5,3,3,0,0,1,3-3,3.048,3.048,0,0,1,.5.05V9H1V25H14.55A3.048,3.048,0,0,1,14.5,24.5Z" fill="#fff"/>
		<path d="M1.75,3h22.5a.75.75,0,0,1,.75.75V9a0,0,0,0,1,0,0H1A0,0,0,0,1,1,9V3.75A.75.75,0,0,1,1.75,3Z" fill="#f5f5f5"/>
		<circle cx="4" cy="6" r="1" fill="#e24940"/>
		<circle cx="7" cy="6" r="1" fill="#e0a32a"/>
		<circle cx="10" cy="6" r="1" fill="#28ad31"/>
		<path d="M17.5,19A5.476,5.476,0,0,1,21,20.26a5.5,5.5,0,0,1,1.5-.874V16.5H3.5v6h8.882A5.5,5.5,0,0,1,17.5,19Z" fill="#b3c7f5"/>
		<path d="M12.607,22H4V17H22v2.62a5.477,5.477,0,0,1,1-.391V16H3v7h9.213A5.487,5.487,0,0,1,12.607,22Z" fill="#4072e5"/>
		<path d="M24.25,2H1.75A1.751,1.751,0,0,0,0,3.75V26H12.213a5.5,5.5,0,0,1-.188-1H1V10H25v9.025a5.5,5.5,0,0,1,1,.188V3.75A1.751,1.751,0,0,0,24.25,2ZM25,9H1V3.75A.75.75,0,0,1,1.75,3h22.5a.75.75,0,0,1,.75.75Z" opacity="0.2"/>
		<path d="M24.5,21a3.491,3.491,0,0,0-3.45,3h-.1a3.5,3.5,0,1,0,0,1h.1a3.493,3.493,0,1,0,3.45-4Zm-7,6a2.5,2.5,0,1,1,2.449-3H17.5a.5.5,0,0,0,0,1h2.449A2.5,2.5,0,0,1,17.5,27Zm7,0a2.5,2.5,0,0,1-2.449-2H24.5a.5.5,0,0,0,0-1H22.051A2.5,2.5,0,1,1,24.5,27Z" fill="#888"/>
	</symbol>
	<symbol id="webpage-linked-active">
		<path d="M1.75,3h22.5a.75.75,0,0,1,.75.75V9a0,0,0,0,1,0,0H1A0,0,0,0,1,1,9V3.75A.75.75,0,0,1,1.75,3Z" fill="#fff" opacity="0.2"/>
		<path d="M17.5,19A5.476,5.476,0,0,1,21,20.26a5.5,5.5,0,0,1,1.5-.874V16.5H3.5v6h8.882A5.5,5.5,0,0,1,17.5,19Z" fill="#fff" opacity="0.4"/>
		<path d="M5,6A1,1,0,1,1,4,5,1,1,0,0,1,5,6ZM7,5A1,1,0,1,0,8,6,1,1,0,0,0,7,5Zm3,0a1,1,0,1,0,1,1A1,1,0,0,0,10,5Zm2.607,17H4V17H22v2.62a5.477,5.477,0,0,1,1-.391V16H3v7h9.213A5.487,5.487,0,0,1,12.607,22ZM26,3.75V19.213a5.5,5.5,0,0,0-1-.188V10H1V25H12.025a5.5,5.5,0,0,0,.188,1H0V3.75A1.751,1.751,0,0,1,1.75,2h22.5A1.751,1.751,0,0,1,26,3.75Zm-1,0A.75.75,0,0,0,24.25,3H1.75A.75.75,0,0,0,1,3.75V9H25ZM28,24.5a3.492,3.492,0,0,1-6.95.5h-.1a3.5,3.5,0,1,1,0-1h.1a3.492,3.492,0,0,1,6.95.5Zm-8.051.5H17.5a.5.5,0,0,1,0-1h2.449a2.5,2.5,0,1,0,0,1ZM27,24.5a2.5,2.5,0,0,0-4.949-.5H24.5a.5.5,0,0,1,0,1H22.051A2.5,2.5,0,0,0,27,24.5Z" fill="#fff"/>
	</symbol>
	<use xlink:href="#webpage-linked" viewBox="0 0 28 28"/>
</svg>
