<!-- This file is part of Zotero. It is distributed under the GNU Affero General Public License version 3. -->
<svg xmlns="http://www.w3.org/2000/svg" xmlns:xlink="http://www.w3.org/1999/xlink">
	<symbol id="crescent-circle" viewBox="0 0 12 12">
		<path fill="currentColor" d="m6 1a5 5 0 0 0-2.9 0.95c1.3 0.91 2.1 2.4 2.1 4.1 0 1.7-0.82 3.1-2.1 4.1a5 5 0 0 0 2.9 0.95 5 5 0 0 0 5-5 5 5 0 0 0-5-5z" />
	</symbol>
	<symbol id="crescent-circle-active" viewBox="0 0 12 12">
		<path d="m6 0a6 6 0 0 0-3.5 1.1c1.5 1.1 2.5 2.9 2.5 4.9 0 2-0.98 3.8-2.5 4.9a6 6 0 0 0 3.5 1.1 6 6 0 0 0 6-6 6 6 0 0 0-6-6z" fill="#fff"/>
 		<path d="m6 1c-1 0.0021-1.9 0.24-2.7 0.8 1 1 1.7 2.5 1.7 4.2 0 1.7-0.67 3.1-1.7 4.2 0.82 0.56 1.7 0.82 2.7 0.82 2.8 0 5-2.2 5-5s-2.2-5-5-5z" fill="currentColor"/>
	</symbol>
	<use xlink:href="#crescent-circle" viewBox="0 0 12 12"/>
</svg>
