<svg xmlns="http://www.w3.org/2000/svg" xmlns:xlink="http://www.w3.org/1999/xlink">
	<symbol id="crescent-circle" viewBox="0 0 7 10">
		<path fill="currentColor" d="M2,0A4.929,4.929,0,0,0,.614.219,6.008,6.008,0,0,1,1.5,1.05h.008A3.814,3.814,0,0,1,2,1a3.814,3.814,0,0,1,.492.05h.016A5.968,5.968,0,0,1,4,5,5.968,5.968,0,0,1,2.508,8.95H2.492A3.814,3.814,0,0,1,2,9a3.814,3.814,0,0,1-.492-.05H1.5a6.008,6.008,0,0,1-.886.831A4.929,4.929,0,0,0,2,10,5,5,0,0,0,2,0Z"/>
		<path d="M2,0A4.929,4.929,0,0,0,.614.219,6.008,6.008,0,0,1,1.5,1.05h.008A3.814,3.814,0,0,1,2,1a3.814,3.814,0,0,1,.492.05h.016A5.968,5.968,0,0,1,4,5,5.968,5.968,0,0,1,2.508,8.95H2.492A3.814,3.814,0,0,1,2,9a3.814,3.814,0,0,1-.492-.05H1.5a6.008,6.008,0,0,1-.886.831A4.929,4.929,0,0,0,2,10,5,5,0,0,0,2,0Z" opacity="0.08"/>
		<path fill="currentColor" d="M2,1a3.814,3.814,0,0,0-.492.05A5.968,5.968,0,0,1,3,5,5.968,5.968,0,0,1,1.508,8.95,3.814,3.814,0,0,0,2,9,4,4,0,0,0,2,1Z"/>
	</symbol>
	<symbol id="crescent-circle-active" viewBox="0 0 7 10">
		<path fill="#fff" d="M2,0A4.929,4.929,0,0,0,.614.219,6.008,6.008,0,0,1,1.5,1.05h.008A3.814,3.814,0,0,1,2,1a3.814,3.814,0,0,1,.492.05h.016A5.968,5.968,0,0,1,4,5,5.968,5.968,0,0,1,2.508,8.95H2.492A3.814,3.814,0,0,1,2,9a3.814,3.814,0,0,1-.492-.05H1.5a6.008,6.008,0,0,1-.886.831A4.929,4.929,0,0,0,2,10,5,5,0,0,0,2,0Z"/>
		<path fill="currentColor" d="M2,1a3.814,3.814,0,0,0-.492.05A5.968,5.968,0,0,1,3,5,5.968,5.968,0,0,1,1.508,8.95,3.814,3.814,0,0,0,2,9,4,4,0,0,0,2,1Z"/>
	</symbol>
	<use xlink:href="#crescent-circle" viewBox="0 0 7 10"/>
</svg>
