<!-- This file is part of Zotero. It is distributed under the GNU Affero General Public License version 3. -->
<svg xmlns="http://www.w3.org/2000/svg" xmlns:xlink="http://www.w3.org/1999/xlink">
<symbol id="attachment-epub-light" viewBox="0 0 12 12">
<path opacity="0.5" d="M10 2H11C11.2652 2 11.5196 2.10536 11.7071 2.29289C11.8946 2.48043 12 2.73478 12 3V11C12 11.2652 11.8946 11.5196 11.7071 11.7071C11.5196 11.8946 11.2652 12 11 12H4C3.73481 11.9999 3.48049 11.8945 3.293 11.707L1.293 9.707C1.10545 9.51951 1.00006 9.26519 1 9V1C1 0.734784 1.10536 0.48043 1.29289 0.292893C1.48043 0.105357 1.73478 0 2 0H9C9.26522 0 9.51957 0.105357 9.70711 0.292893C9.89464 0.48043 10 0.734784 10 1V2Z" fill="white"/>
<path d="M10 2V9C10 9.55228 9.55228 10 9 10H3L4 11H11V3L10 2Z" fill="#EBEBEB"/>
<path opacity="0.2" d="M11 2H10L11 3V11H4L3 10H9C9.26522 10 9.51957 9.89464 9.70711 9.70711C9.89464 9.51957 10 9.26522 10 9V1C10 0.734784 9.89464 0.48043 9.70711 0.292893C9.51957 0.105357 9.26522 0 9 0L2 0C1.73478 0 1.48043 0.105357 1.29289 0.292893C1.10536 0.48043 1 0.734784 1 1V9C1.00006 9.26519 1.10545 9.51951 1.293 9.707L3.293 11.707C3.48049 11.8945 3.73481 11.9999 4 12H11C11.2652 12 11.5196 11.8946 11.7071 11.7071C11.8946 11.5196 12 11.2652 12 11V3C12 2.73478 11.8946 2.48043 11.7071 2.29289C11.5196 2.10536 11.2652 2 11 2ZM4 1H9V9H4V1ZM2 1H3V9H2V1Z" fill="black"/>
<path d="M9 1H4V9H9V1Z" fill="white"/>
<path d="M3 1H2V9H3V1Z" fill="white"/>
<path d="M6 3H1V4H6V3Z" fill="#B0E5C3"/>
<path d="M6 3V4H1V3H6ZM7 2H0V5H7V2Z" fill="#39BF68"/>
</symbol>
<symbol id="attachment-epub-dark" viewBox="0 0 12 12">
<path opacity="0.34" d="M7 3H0V5H7V3Z" fill="#39BF68"/>
<path opacity="0.85" d="M6 3V4H1V3H6ZM7 2H0V5H7V2Z" fill="#39BF68"/>
<path opacity="0.6" fill-rule="evenodd" clip-rule="evenodd" d="M10 2H11C11.2652 2 11.5196 2.10536 11.7071 2.29289C11.8946 2.48043 12 2.73478 12 3V11C12 11.2652 11.8946 11.5196 11.7071 11.7071C11.5196 11.8946 11.2652 12 11 12H4C3.73481 11.9999 3.48049 11.8945 3.293 11.707L1.293 9.707C1.10545 9.51951 1.00006 9.26519 1 9V5H2V9H3V5H4V9H9V1H4V2H3V1H2V2H1V1C1 0.734784 1.10536 0.48043 1.29289 0.292893C1.48043 0.105357 1.73478 0 2 0H9C9.26522 0 9.51957 0.105357 9.70711 0.292893C9.89464 0.48043 10 0.734784 10 1V2ZM10 2V9C10 9.26522 9.89464 9.51957 9.70711 9.70711C9.51957 9.89464 9.26522 10 9 10H3L4 11H11V3L10 2Z" fill="white"/>
<path opacity="0.24" d="M10 2V9C10 9.55228 9.55228 10 9 10H3L4 11H11V3L10 2Z" fill="white"/>
</symbol>
<symbol id="attachment-epub-white" viewBox="0 0 12 12">
<g clip-path="url(#clip0_1960_58)">
<path opacity="0.4" d="M6 3H1V4H6V3Z" fill="white"/>
<path fill-rule="evenodd" clip-rule="evenodd" d="M1 2V1C1 0.448 1.448 0 2 0H9C9.552 0 10 0.448 10 1V2V9C10 9.552 9.552 10 9 10H3L4 11H11V3L10 2H11C11.552 2 12 2.448 12 3V11C12 11.552 11.552 12 11 12H4C3.724 12 3.474 11.888 3.293 11.707L1.293 9.707C1.112 9.526 1 9.276 1 9V5H0V2H1ZM4 1H9V9H4V5H7V2H4V1ZM3 2V1H2V2H3ZM2 5V9H3V5H2ZM1 3H6V4H1V3Z" fill="white"/>
<path opacity="0.4" d="M10 2V9C10 9.55228 9.55228 10 9 10H3L4 11H11V3L10 2Z" fill="white"/>
</g>
<defs>
<clipPath id="clip0_1960_58">
<rect width="12" height="12" fill="white"/>
</clipPath>
</defs>
</symbol>
<use xlink:href="#attachment-epub-light" viewBox="0 0 12 12"/>
</svg>