<svg xmlns="http://www.w3.org/2000/svg" xmlns:xlink="http://www.w3.org/1999/xlink">
<symbol id="attachment-file-light" viewBox="0 0 12 12">
<path opacity="0.5" d="M6.707 0H1V12H11V4.293L6.707 0Z" fill="white"/>
<path d="M6.293 1L10 4.707V11H2V1H6.293Z" fill="white"/>
<path opacity="0.2" d="M6.707 0H1V12H11V4.293L6.707 0ZM7 1.707L9.293 4H7V1.707ZM2 11V1H6V5H10V11H2Z" fill="black"/>
<path opacity="0.08" d="M7 1.70703V4H9.293L7 1.70703Z" fill="black"/>
</symbol>
<symbol id="attachment-file-dark" viewBox="0 0 12 12">
<path opacity="0.6" d="M6.707 0H1V12H11V4.293L6.707 0ZM7 1.707L9.293 4H7V1.707ZM2 11V1H6V5H10V11H2Z" fill="white"/>
<path opacity="0.24" d="M7 1.70703V4.00006H9.293L7 1.70703Z" fill="white"/>
</symbol>
<symbol id="attachment-file-white" viewBox="0 0 12 12">
<path opacity="0.4" d="M6.5 0.5V4.5H10.5L6.5 0.5Z" fill="white"/>
<path d="M6.707 0H1V12H11V4.293L6.707 0ZM7 1.707L9.293 4H7V1.707ZM10 11H2V1H6V5H10V11Z" fill="white"/>
</symbol>
<use xlink:href="#attachment-file-light" viewBox="0 0 12 12"/>
</svg>