<!-- This file is part of Zotero. It is distributed under the GNU Affero General Public License version 3. -->
<svg xmlns="http://www.w3.org/2000/svg" xmlns:xlink="http://www.w3.org/1999/xlink">
<symbol id="attachment-pdf-light" viewBox="0 0 12 12">
<path opacity="0.5" d="M8.707 0H2V12H12V3.293L8.707 0Z" fill="white"/>
<path d="M8.293 1L11 3.707V11H3V1H8.293Z" fill="white"/>
<path opacity="0.2" d="M8.707 0H2V12H12V3.293L8.707 0ZM9 1.707L10.293 3H9V1.707ZM3 11V1H8V4H11V11H3Z" fill="black"/>
<path opacity="0.08" d="M9 1.70703V3H10.293L9 1.70703Z" fill="black"/>
<path d="M6 3H1V4H6V3Z" fill="#F1ABB0"/>
<path d="M5.83333 3V4H1.16667V3H5.83333ZM7 2H0V5H7V2Z" fill="#DB2C3A"/>
</symbol>
<symbol id="attachment-pdf-dark" viewBox="0 0 12 12">
<path opacity="0.24" d="M9 1.70703V3H10.293L9 1.70703Z" fill="white"/>
<path opacity="0.36" d="M6 3H1V4H6V3Z" fill="#DB2C3A"/>
<path opacity="0.9" d="M6 3V4H1V3H6ZM7 2H0V5H7V2Z" fill="#DB2C3A"/>
<path opacity="0.6" fill-rule="evenodd" clip-rule="evenodd" d="M2 0H8.707L12 3.293V12H2V5H3V11H11V4H8V1H3V2H2V0ZM10.293 3L9 1.707V3H10.293Z" fill="white"/>
</symbol>
<symbol id="attachment-pdf-white" viewBox="0 0 12 12">
<g clip-path="url(#clip0_1955_31068)">
<path opacity="0.4" d="M8.5 0.5V3.5H11.5L8.5 0.5Z" fill="white"/>
<path opacity="0.4" d="M6 3H1V4H6V3Z" fill="white"/>
<path d="M8.707 0H2V2H0V5H2V12H12V3.293L8.707 0ZM9 1.707L10.293 3H9V1.707ZM1 4V3H6V4H1ZM11 11H3V5H7V2H3V1H8V4H11V11Z" fill="white"/>
</g>
<defs>
<clipPath id="clip0_1955_31068">
<rect width="12" height="12" fill="white"/>
</clipPath>
</defs>
</symbol>
<use xlink:href="#attachment-pdf-light" viewBox="0 0 12 12"/>
</svg>