<!-- This file is part of Zotero. It is distributed under the GNU Affero General Public License version 3. -->
<svg xmlns="http://www.w3.org/2000/svg" xmlns:xlink="http://www.w3.org/1999/xlink">
	<symbol id="add-to-collection" viewBox="0 0 32 32">
		<path fill="currentColor" d="M26,16.5v-7A1.5,1.5,0,0,0,24.5,8h-9L14.415,5.829A1.5,1.5,0,0,0,13.073,5H7.427a1.5,1.5,0,0,0-1.342.829L5,8H3.5A1.5,1.5,0,0,0,2,9.5v15A1.5,1.5,0,0,0,3.5,26H18.029A6.5,6.5,0,1,0,26,16.5ZM3,9.5A.5.5,0,0,1,3.5,9H5.618L5.9,8.447,6.98,6.276A.5.5,0,0,1,7.427,6h5.646a.5.5,0,0,1,.447.276l1.086,2.171L14.882,9H24.5a.5.5,0,0,1,.5.5V11H3ZM3.5,25a.5.5,0,0,1-.5-.5V12H25v4.181A6.5,6.5,0,0,0,17.5,25Zm20,3A5.5,5.5,0,1,1,29,22.5,5.506,5.506,0,0,1,23.5,28Zm.5-6h3v1H24v3H23V23H20V22h3V19h1Z"/>
	</symbol>
	<use xlink:href="#add-to-collection" viewBox="0 0 32 32"/>
</svg>
