<!-- This file is part of Zotero. It is distributed under the GNU Affero General Public License version 3. -->
<svg xmlns="http://www.w3.org/2000/svg" xmlns:xlink="http://www.w3.org/1999/xlink">
	<symbol id="library-read-only" viewBox="0 0 32 32">
		<path fill="currentColor" d="M29,25H28V23.5a2.5,2.5,0,0,0-5,0V25H22a1,1,0,0,0-1,1v5a1,1,0,0,0,1,1h7a1,1,0,0,0,1-1V26A1,1,0,0,0,29,25Zm-5-1.5a1.5,1.5,0,0,1,3,0V25H24ZM29,31H22V26h7ZM19,11h2V24h1V11h3v9h1V11h2V7L16.5,2,5,7v4H7V25H5v2H3v3H20V29H4V28H20V27H6V26H20V25H19ZM6,10V7.656L16.5,3.09,27,7.656V10Zm5,15H8V11h3Zm3,0H12V11h2Zm4,0H15V11h3Z"/>
	</symbol>
	<use xlink:href="#library-read-only" viewBox="0 0 32 32" />
</svg>
