<svg xmlns="http://www.w3.org/2000/svg" xmlns:xlink="http://www.w3.org/1999/xlink">
	<symbol id="artwork" viewBox="0 0 16 16">
		<path fill="currentColor" d="M3,13H13V7H3ZM4,8h8v4H4Zm12,2c0-1.5-1-1.5-1-3a5.172,5.172,0,0,1,.5-2L15,4.5s-1.4.306-2.354.438L8.951,1.244A.963.963,0,0,0,9,1,1,1,0,0,0,7,1a.963.963,0,0,0,.049.244L3.343,4.95A23.442,23.442,0,0,1,1,4.5L.5,5A5.172,5.172,0,0,1,1,7c0,1.5-1,1.5-1,3s1,1.5,1,3a5.172,5.172,0,0,1-.5,2l.5.5A25.267,25.267,0,0,1,4,15c2,0,2,1,4,1s2-1,4-1a17.68,17.68,0,0,1,3,.5l.5-.5a5.172,5.172,0,0,1-.5-2C15,11.5,16,11.5,16,10ZM8,2a.963.963,0,0,0,.244-.049l2.982,2.982C9.964,4.715,9.7,4,8,4s-1.964.715-3.226.933L7.756,1.951A.963.963,0,0,0,8,2Zm6.668,8.945A3.348,3.348,0,0,0,14,13a5.126,5.126,0,0,0,.181,1.291A12.479,12.479,0,0,0,12,14a4.859,4.859,0,0,0-2.447.606A2.9,2.9,0,0,1,8,15a2.9,2.9,0,0,1-1.553-.394A4.859,4.859,0,0,0,4,14a15.009,15.009,0,0,0-2.186.311A5.143,5.143,0,0,0,2,13a3.348,3.348,0,0,0-.668-2.055,1.512,1.512,0,0,1,0-1.891A3.348,3.348,0,0,0,2,7a5.127,5.127,0,0,0-.181-1.291A12.473,12.473,0,0,0,4,6a4.859,4.859,0,0,0,2.447-.606A2.9,2.9,0,0,1,8,5a2.9,2.9,0,0,1,1.553.394A4.859,4.859,0,0,0,12,6a15.009,15.009,0,0,0,2.186-.311A5.14,5.14,0,0,0,14,7a3.348,3.348,0,0,0,.668,2.055,1.512,1.512,0,0,1,0,1.891Z"/>
	</symbol>
	<use xlink:href="#artwork" viewBox="0 0 16 16"/>
</svg>