<svg xmlns="http://www.w3.org/2000/svg" xmlns:xlink="http://www.w3.org/1999/xlink">
	<symbol id="attachment" viewBox="0 0 16 16">
		<path fill="currentColor" d="M3.773,14.4A2.625,2.625,0,0,1,1.917,9.922L8.812,3.028a3.711,3.711,0,0,1,5.126,0,3.624,3.624,0,0,1,0,5.126L8.016,14.076a.5.5,0,0,1-.707-.707l5.922-5.922a2.625,2.625,0,0,0,0-3.712,2.687,2.687,0,0,0-3.712,0L2.625,10.629a1.627,1.627,0,0,0,0,2.3,1.663,1.663,0,0,0,2.3,0l6.895-6.895a.625.625,0,0,0,0-.884.639.639,0,0,0-.884,0L5.718,10.364a.5.5,0,0,1-.707-.707l5.215-5.215a1.663,1.663,0,0,1,2.3,0,1.624,1.624,0,0,1,0,2.3L5.629,13.634A2.606,2.606,0,0,1,3.773,14.4Z"/>
	</symbol>
	<use xlink:href="#attachment" viewBox="0 0 16 16"/>
</svg>
