<svg xmlns="http://www.w3.org/2000/svg" xmlns:xlink="http://www.w3.org/1999/xlink">
	<symbol id="bill" viewBox="0 0 16 16">
		<path fill="currentColor" d="M12.164,9c0-1.824-1.866-2.533-3.513-3.16C6.866,5.161,5.7,4.631,5.7,3.5,5.7,2.774,5.859,2,7.82,2a2.008,2.008,0,0,1,2.25,1.979h1A2.956,2.956,0,0,0,7.82,1C5.747,1,4.7,1.841,4.7,3.5a2.326,2.326,0,0,0,.382,1.3A2.406,2.406,0,0,0,3.836,7c0,1.827,1.881,2.544,3.541,3.176,1.788.681,2.959,1.211,2.959,2.324,0,.371,0,1.5-2.328,1.5a2.008,2.008,0,0,1-2.25-1.979h-1A2.956,2.956,0,0,0,8.008,15c3,0,3.328-1.749,3.328-2.5a2.284,2.284,0,0,0-.456-1.382A2.331,2.331,0,0,0,12.164,9ZM4.836,7A1.44,1.44,0,0,1,5.8,5.556,10.186,10.186,0,0,0,8.3,6.775c1.733.659,2.869,1.17,2.869,2.225a1.425,1.425,0,0,1-1.047,1.373A11.049,11.049,0,0,0,7.732,9.242C5.983,8.575,4.836,8.059,4.836,7Z"/>
	</symbol>
	<use xlink:href="#bill" viewBox="0 0 16 16"/>
</svg>