<svg xmlns="http://www.w3.org/2000/svg" xmlns:xlink="http://www.w3.org/1999/xlink">
	<symbol id="book-section" viewBox="0 0 16 16">
		<path fill="currentColor" d="M14,6.079a18.81,18.81,0,0,0-4,.635V5.673a20.687,20.687,0,0,1,4-.6Zm0-3.005a20.687,20.687,0,0,0-4,.6V4.714a18.81,18.81,0,0,1,4-.635ZM16,0V14c-3.438,0-6.37.542-7.5,1.3v0C7.364,14.541,4.435,14,1,14V0C4.446,0,7.374.546,8.5,1.309,9.626.546,12.554,0,16,0ZM8,2.179l-.061-.042C7.188,1.628,4.961,1.113,2,1.016v12a19.925,19.925,0,0,1,6,.94Zm7-1.162c-2.961.1-5.188.612-5.939,1.121L9,2.179V13.955a19.925,19.925,0,0,1,6-.941ZM14,9.074a20.687,20.687,0,0,0-4,.6v1.041a18.81,18.81,0,0,1,4-.635Zm0-2a20.687,20.687,0,0,0-4,.6V8.714a18.81,18.81,0,0,1,4-.635Z"/>
	</symbol>
	<use xlink:href="#book-section" viewBox="0 0 16 16"/>
</svg>