<svg xmlns="http://www.w3.org/2000/svg" xmlns:xlink="http://www.w3.org/1999/xlink">
	<symbol id="case" viewBox="0 0 16 16">
		<path fill="currentColor" d="M6,10.5V9L3.5,4,1,9v1.5A1.5,1.5,0,0,0,2.5,12h2A1.5,1.5,0,0,0,6,10.5ZM4.882,9H2.118L3.5,6.236ZM2,10.5V10H5v.5a.5.5,0,0,1-.5.5h-2A.5.5,0,0,1,2,10.5ZM13.5,4,11,9v1.5A1.5,1.5,0,0,0,12.5,12h2A1.5,1.5,0,0,0,16,10.5V9Zm1.382,5H12.118L13.5,6.236ZM15,10.5a.5.5,0,0,1-.5.5h-2a.5.5,0,0,1-.5-.5V10h3ZM10,3h2c.281,0,.4.108.646.354A1.782,1.782,0,0,0,14,4h1V3H14c-.281,0-.4-.108-.646-.354A1.782,1.782,0,0,0,12,2H10V1.5a1.5,1.5,0,0,0-3,0V2H5a1.782,1.782,0,0,0-1.354.646C3.4,2.892,3.281,3,3,3H2V4H3a1.782,1.782,0,0,0,1.354-.646C4.6,3.108,4.719,3,5,3H7V14H4v1h9V14H10ZM8,14V1.5a.5.5,0,0,1,1,0V14Z"/>
	</symbol>
	<use xlink:href="#case" viewBox="0 0 16 16"/>
</svg>