<svg xmlns="http://www.w3.org/2000/svg" xmlns:xlink="http://www.w3.org/1999/xlink">
	<symbol id="e-mail" viewBox="0 0 16 16">
		<path fill="currentColor" d="M10,5V6A2.806,2.806,0,0,0,7.875,5,2.939,2.939,0,0,0,5,8a2.939,2.939,0,0,0,2.875,3,2.826,2.826,0,0,0,2.3-1.217A2.357,2.357,0,0,0,12.5,11C14.561,11,16,9.355,16,7c0-3.859-3.589-7-8-7a8,8,0,1,0,5.307,13.976l-.664-.748A7,7,0,1,1,8,1c3.86,0,7,2.691,7,6,0,1.493-.773,3-2.5,3-.939,0-1.5-.374-1.5-1V5ZM8,10a2,2,0,1,1,2-2A2,2,0,0,1,8,10Z"/>
	</symbol>
	<use xlink:href="#e-mail" viewBox="0 0 16 16"/>
</svg>