<svg xmlns="http://www.w3.org/2000/svg" xmlns:xlink="http://www.w3.org/1999/xlink">
	<symbol id="encyclopedia-article" viewBox="0 0 16 16">
		<path fill="currentColor" d="M8.5,1.309C7.374.546,4.446,0,1,0V14c3.435,0,6.364.541,7.5,1.3v0C9.63,14.542,12.562,14,16,14V0C12.554,0,9.626.546,8.5,1.309ZM4,1.154a19.215,19.215,0,0,1,2,.314v8.683l-.453-.3-.411-.269-.464.16L4,9.979ZM2,1.016c.344.011.677.029,1,.051V11.383l2-.691L7,12V1.728a3.871,3.871,0,0,1,.939.409L8,2.179V13.955a19.925,19.925,0,0,0-6-.94Zm13,12a19.925,19.925,0,0,0-6,.941V2.179l.061-.042C9.812,1.628,12.039,1.113,15,1.016Z"/>
	</symbol>
	<use xlink:href="#encyclopedia-article" viewBox="0 0 16 16"/>
</svg>