<svg xmlns="http://www.w3.org/2000/svg" xmlns:xlink="http://www.w3.org/1999/xlink">
	<symbol id="forum-post" viewBox="0 0 16 16">
		<path fill="currentColor" d="M1,16H0c0-3.331,1.913-4,5-4s5,.669,5,4H9c0-2.074-.578-3-4-3S1,13.926,1,16ZM6.969,7.7A1.974,1.974,0,0,1,7,8,2,2,0,1,1,5,6a1.971,1.971,0,0,1,.553.088,4.407,4.407,0,0,1-.43-1.075C5.082,5.011,5.042,5,5,5A3,3,0,1,0,7.969,8.31,6.077,6.077,0,0,1,6.969,7.7ZM9.29,9.29m.144.479A5.009,5.009,0,0,0,12.063,7.9C14.358,7.507,16,5.895,16,4c0-2.206-2.243-4-5-4S6,1.794,6,4A4.02,4.02,0,0,0,8.977,7.648,2.98,2.98,0,0,1,9,8a3.911,3.911,0,0,1-.189,1.146l-.269.892ZM15,4c0,1.448-1.385,2.687-3.294,2.944l-.228.03-.125.193a3.952,3.952,0,0,1-1.379,1.29A4.064,4.064,0,0,0,10,8a4.971,4.971,0,0,0-.081-.813l-.051-.312-.3-.088A3.181,3.181,0,0,1,7,4c0-1.654,1.794-3,4-3S15,2.346,15,4Z"/>
	</symbol>
	<use xlink:href="#forum-post" viewBox="0 0 16 16"/>
</svg>