<svg xmlns="http://www.w3.org/2000/svg" xmlns:xlink="http://www.w3.org/1999/xlink">
	<symbol id="hearing" viewBox="0 0 16 16">
		<path fill="currentColor" d="M14.852,13.146l-1-1A.5.5,0,0,0,13.5,12h-6a.5.5,0,0,0-.354.146l-1,1A.5.5,0,0,0,6,13.5v1a.5.5,0,0,0,.5.5h8a.5.5,0,0,0,.5-.5v-1A.5.5,0,0,0,14.852,13.146ZM14,14H7v-.293L7.706,13h5.586l.707.707ZM9.754,8.088A1.568,1.568,0,0,0,12.425,9.28l1.854-1.854a1.569,1.569,0,0,0-1.193-2.671,3.024,3.024,0,0,0-2.843-2.844A1.569,1.569,0,0,0,7.572.72L5.718,2.573a1.56,1.56,0,0,0,0,2.207,1.594,1.594,0,0,0,1.193.465,2.891,2.891,0,0,0,.359,1.244L1,11.879A1.5,1.5,0,1,0,3.122,14l5.39-6.271A2.9,2.9,0,0,0,9.754,8.088ZM6.425,4.073a.56.56,0,0,1,0-.793L8.279,1.427a.561.561,0,0,1,.793,0,.553.553,0,0,1,.044.751.5.5,0,0,0,.523.8A1.894,1.894,0,0,1,11.5,3.5a1.892,1.892,0,0,1,.521,1.858.5.5,0,0,0,.8.523.553.553,0,0,1,.751.045.561.561,0,0,1,0,.793L11.718,8.573a.561.561,0,0,1-.793,0,.553.553,0,0,1-.045-.751A.5.5,0,0,0,10.5,7a.507.507,0,0,0-.142.021A1.891,1.891,0,0,1,8.5,6.5a1.892,1.892,0,0,1-.521-1.858.5.5,0,0,0-.8-.523A.551.551,0,0,1,6.425,4.073ZM2.394,13.312a.5.5,0,0,1-.706-.706L6.716,8.284Z"/>
	</symbol>
	<use xlink:href="#hearing" viewBox="0 0 16 16"/>
</svg>