<svg xmlns="http://www.w3.org/2000/svg" xmlns:xlink="http://www.w3.org/1999/xlink">
	<symbol id="instant-message" viewBox="0 0 16 16">
		<path fill="currentColor" d="M2.427,15.926l.271-.895A6.989,6.989,0,0,0,3,13a6.864,6.864,0,0,0-.177-1.541A6.055,6.055,0,0,1,0,6.5C0,2.916,3.589,0,8,0s8,2.916,8,6.5S12.411,13,8,13q-.378,0-.746-.028a7.91,7.91,0,0,1-3.932,2.684ZM8,1C4.14,1,1,3.468,1,6.5a5.123,5.123,0,0,0,2.537,4.233l.164.106.048.189A7.9,7.9,0,0,1,4,13a7.964,7.964,0,0,1-.121,1.38,6.959,6.959,0,0,0,2.742-2.228l.17-.23.284.03A8.988,8.988,0,0,0,8,12c3.86,0,7-2.468,7-5.5S11.86,1,8,1Z"/>
	</symbol>
	<use xlink:href="#instant-message" viewBox="0 0 16 16"/>
</svg>