<svg xmlns="http://www.w3.org/2000/svg" xmlns:xlink="http://www.w3.org/1999/xlink">
	<symbol id="patent" viewBox="0 0 16 16">
		<path fill="currentColor" d="M8,0A5,5,0,0,0,3,5c0,3.5,3,4.5,3,7v2.5A1.5,1.5,0,0,0,7.5,16h1A1.5,1.5,0,0,0,10,14.5V12c0-2.5,3-3.5,3-7A5,5,0,0,0,8,0ZM9,14.5a.5.5,0,0,1-.5.5h-1a.5.5,0,0,1-.5-.5V14H9ZM9,13H7V12H9Zm.126-2H6.874A7.028,7.028,0,0,0,5.485,8.52,5.461,5.461,0,0,1,4,5a4,4,0,0,1,8,0,5.461,5.461,0,0,1-1.485,3.52A7.028,7.028,0,0,0,9.126,11Z"/>
	</symbol>
	<use xlink:href="#patent" viewBox="0 0 16 16"/>
</svg>