<svg xmlns="http://www.w3.org/2000/svg" xmlns:xlink="http://www.w3.org/1999/xlink">
	<symbol id="podcast" viewBox="0 0 16 16">
		<path fill="currentColor" d="M1.873,13.127a8,8,0,1,1,12.254,0l-.706-.706a7,7,0,1,0-10.841,0ZM4,8a4,4,0,1,1,7.279,2.279l.708.708A4.993,4.993,0,1,0,3,8a4.955,4.955,0,0,0,1.012,2.988l.708-.708A3.971,3.971,0,0,1,4,8Zm7.813,7,.014.026c.015-.008.027-.018.041-.026ZM4.133,15c.019.01.035.024.054.034L4.205,15ZM8,7A1,1,0,1,0,9,8,1,1,0,0,0,8,7M8,6A2,2,0,1,1,6,8,2,2,0,0,1,8,6Zm3,7.5C11,11.425,9.8,11,8,11s-3,.425-3,2.5V16H6V13.5c0-1.043.189-1.5,2-1.5s2,.457,2,1.5V16h1Z"/>
	</symbol>
	<use xlink:href="#podcast" viewBox="0 0 16 16"/>
</svg>