<svg xmlns="http://www.w3.org/2000/svg" xmlns:xlink="http://www.w3.org/1999/xlink">
	<symbol id="radio-broadcast" viewBox="0 0 16 16">
		<path fill="currentColor" d="M16,8a7.978,7.978,0,0,1-3.135,6.34l-.61-.795a6.974,6.974,0,0,0,0-11.091l.61-.795A7.978,7.978,0,0,1,16,8ZM4,8A3.981,3.981,0,0,1,5.576,4.84l-.607-.792a4.95,4.95,0,0,0,0,7.9l.607-.792A3.981,3.981,0,0,1,4,8Zm8,0a3.981,3.981,0,0,1-1.576,3.16l.607.792a4.95,4.95,0,0,0,0-7.9l-.607.792A3.981,3.981,0,0,1,12,8ZM3.135,14.34l.61-.795a6.974,6.974,0,0,1,0-11.091l-.61-.795a7.979,7.979,0,0,0,0,12.681ZM8,7A1,1,0,1,0,9,8,1,1,0,0,0,8,7M8,6A2,2,0,1,1,6,8,2,2,0,0,1,8,6Z"/>
	</symbol>
	<use xlink:href="#radio-broadcast" viewBox="0 0 16 16"/>
</svg>