<svg xmlns="http://www.w3.org/2000/svg" xmlns:xlink="http://www.w3.org/1999/xlink">
	<symbol id="thesis" viewBox="0 0 16 16">
		<path fill="currentColor" d="M16,5.5,8,1,0,5.5,3,7.188V9.5a3.262,3.262,0,0,0,1.906,2.73l-.889,2.176h.02c-.012.031-.037.06-.037.093,0,.276.448.5,1,.5s1-.224,1-.5V12.7A6.832,6.832,0,0,0,8,13c2.761,0,5-1.567,5-3.5V7.188ZM8,2.147,13.96,5.5,8,8.853,6.307,7.9,8.354,5.854a.5.5,0,0,0-.707-.707L5.4,7.391,2.04,5.5ZM4,9.5V7.75l1,.564,0,2.8A2.079,2.079,0,0,1,4,9.5Zm8,0c0,1.355-1.832,2.5-4,2.5a5.743,5.743,0,0,1-2-.358L6,8.876,8,10l4-2.25Z"/>
	</symbol>
	<use xlink:href="#thesis" viewBox="0 0 16 16"/>
</svg>